<?xml version="1.0" encoding="utf-8" standalone="no"?>
<!DOCTYPE svg PUBLIC "-//W3C//DTD SVG 1.1//EN"
  "http://www.w3.org/Graphics/SVG/1.1/DTD/svg11.dtd">
<svg height="436.4pt" version="1.1" viewBox="0 0 652.4 436.4" width="652.4pt" xmlns="http://www.w3.org/2000/svg" xmlns:xlink="http://www.w3.org/1999/xlink">
 <metadata>
  <rdf:RDF xmlns:cc="http://creativecommons.org/ns#" xmlns:dc="http://purl.org/dc/elements/1.1/" xmlns:rdf="http://www.w3.org/1999/02/22-rdf-syntax-ns#">
   <cc:Work>
    <dc:type rdf:resource="http://purl.org/dc/dcmitype/StillImage"/>
    <dc:date>2022-04-28T09:06:53.629588</dc:date>
    <dc:format>image/svg+xml</dc:format>
    <dc:creator>
     <cc:Agent>
      <dc:title>Matplotlib v3.4.2, https://matplotlib.org/</dc:title>
     </cc:Agent>
    </dc:creator>
   </cc:Work>
  </rdf:RDF>
 </metadata>
 <defs>
  <style type="text/css">*{stroke-linecap:butt;stroke-linejoin:round;}</style>
 </defs>
 <g id="figure_1">
  <g id="patch_1">
   <path d="M 0 436.4 
L 652.4 436.4 
L 652.4 0 
L 0 0 
z
" style="fill:none;"/>
  </g>
  <g id="axes_1">
   <g id="patch_2">
    <path d="M 82.401787 380.05972 
L 564.274757 380.05972 
L 564.274757 13.852984 
L 82.401787 13.852984 
z
" style="fill:none;"/>
   </g>
   <g id="matplotlib.axis_1">
    <g id="xtick_1">
     <g id="line2d_1">
      <path clip-path="url(#pa048a2ba59)" d="M 102.105976 380.05972 
L 102.105976 13.852984 
" style="fill:none;stroke:#bfbfbf;stroke-dasharray:0.8,2.4;stroke-dashoffset:0;stroke-linecap:round;stroke-linejoin:miter;stroke-width:0.8;"/>
     </g>
     <g id="line2d_2">
      <defs>
       <path d="M 0 0 
L 0 3.5 
" id="m65f0b2aad5" style="stroke:#000000;stroke-width:0.8;"/>
      </defs>
      <g>
       <use style="stroke:#000000;stroke-width:0.8;" x="102.105976" xlink:href="#m65f0b2aad5" y="380.05972"/>
      </g>
     </g>
     <g id="text_1">
      <!-- $\mathdefault{0}$ -->
      <g transform="translate(97.993833 400.365688)scale(0.18 -0.18)">
       <defs>
        <path d="M 2688 2025 
C 2688 2416 2682 3080 2413 3591 
C 2176 4039 1798 4198 1466 4198 
C 1158 4198 768 4058 525 3597 
C 269 3118 243 2524 243 2025 
C 243 1661 250 1106 448 619 
C 723 -39 1216 -128 1466 -128 
C 1760 -128 2208 -7 2470 600 
C 2662 1042 2688 1559 2688 2025 
z
M 1466 -26 
C 1056 -26 813 325 723 812 
C 653 1188 653 1738 653 2096 
C 653 2588 653 2997 736 3387 
C 858 3929 1216 4096 1466 4096 
C 1728 4096 2067 3923 2189 3400 
C 2272 3036 2278 2607 2278 2096 
C 2278 1680 2278 1169 2202 792 
C 2067 95 1690 -26 1466 -26 
z
" id="CMR17-30" transform="scale(0.015625)"/>
       </defs>
       <use transform="scale(0.996264)" xlink:href="#CMR17-30"/>
      </g>
     </g>
    </g>
    <g id="xtick_2">
     <g id="line2d_3">
      <path clip-path="url(#pa048a2ba59)" d="M 190.071104 380.05972 
L 190.071104 13.852984 
" style="fill:none;stroke:#bfbfbf;stroke-dasharray:0.8,2.4;stroke-dashoffset:0;stroke-linecap:round;stroke-linejoin:miter;stroke-width:0.8;"/>
     </g>
     <g id="line2d_4">
      <g>
       <use style="stroke:#000000;stroke-width:0.8;" x="190.071104" xlink:href="#m65f0b2aad5" y="380.05972"/>
      </g>
     </g>
     <g id="text_2">
      <!-- $\mathdefault{200}$ -->
      <g transform="translate(177.734675 400.365688)scale(0.18 -0.18)">
       <defs>
        <path d="M 2669 989 
L 2554 989 
C 2490 536 2438 459 2413 420 
C 2381 369 1920 369 1830 369 
L 602 369 
C 832 619 1280 1072 1824 1597 
C 2214 1967 2669 2402 2669 3035 
C 2669 3790 2067 4224 1395 4224 
C 691 4224 262 3604 262 3030 
C 262 2780 448 2748 525 2748 
C 589 2748 781 2787 781 3010 
C 781 3207 614 3264 525 3264 
C 486 3264 448 3258 422 3245 
C 544 3790 915 4058 1306 4058 
C 1862 4058 2227 3617 2227 3035 
C 2227 2479 1901 2000 1536 1584 
L 262 146 
L 262 0 
L 2515 0 
L 2669 989 
z
" id="CMR17-32" transform="scale(0.015625)"/>
       </defs>
       <use transform="scale(0.996264)" xlink:href="#CMR17-32"/>
       <use transform="translate(45.690477 0)scale(0.996264)" xlink:href="#CMR17-30"/>
       <use transform="translate(91.380954 0)scale(0.996264)" xlink:href="#CMR17-30"/>
      </g>
     </g>
    </g>
    <g id="xtick_3">
     <g id="line2d_5">
      <path clip-path="url(#pa048a2ba59)" d="M 278.036231 380.05972 
L 278.036231 13.852984 
" style="fill:none;stroke:#bfbfbf;stroke-dasharray:0.8,2.4;stroke-dashoffset:0;stroke-linecap:round;stroke-linejoin:miter;stroke-width:0.8;"/>
     </g>
     <g id="line2d_6">
      <g>
       <use style="stroke:#000000;stroke-width:0.8;" x="278.036231" xlink:href="#m65f0b2aad5" y="380.05972"/>
      </g>
     </g>
     <g id="text_3">
      <!-- $\mathdefault{400}$ -->
      <g transform="translate(265.699802 400.365688)scale(0.18 -0.18)">
       <defs>
        <path d="M 2150 4122 
C 2150 4256 2144 4256 2029 4256 
L 128 1254 
L 128 1088 
L 1779 1088 
L 1779 457 
C 1779 224 1766 160 1318 160 
L 1197 160 
L 1197 0 
C 1402 0 1747 0 1965 0 
C 2182 0 2528 0 2733 0 
L 2733 160 
L 2611 160 
C 2163 160 2150 224 2150 457 
L 2150 1088 
L 2803 1088 
L 2803 1254 
L 2150 1254 
L 2150 4122 
z
M 1798 3703 
L 1798 1254 
L 256 1254 
L 1798 3703 
z
" id="CMR17-34" transform="scale(0.015625)"/>
       </defs>
       <use transform="scale(0.996264)" xlink:href="#CMR17-34"/>
       <use transform="translate(45.690477 0)scale(0.996264)" xlink:href="#CMR17-30"/>
       <use transform="translate(91.380954 0)scale(0.996264)" xlink:href="#CMR17-30"/>
      </g>
     </g>
    </g>
    <g id="xtick_4">
     <g id="line2d_7">
      <path clip-path="url(#pa048a2ba59)" d="M 366.001359 380.05972 
L 366.001359 13.852984 
" style="fill:none;stroke:#bfbfbf;stroke-dasharray:0.8,2.4;stroke-dashoffset:0;stroke-linecap:round;stroke-linejoin:miter;stroke-width:0.8;"/>
     </g>
     <g id="line2d_8">
      <g>
       <use style="stroke:#000000;stroke-width:0.8;" x="366.001359" xlink:href="#m65f0b2aad5" y="380.05972"/>
      </g>
     </g>
     <g id="text_4">
      <!-- $\mathdefault{600}$ -->
      <g transform="translate(353.66493 400.365688)scale(0.18 -0.18)">
       <defs>
        <path d="M 678 2176 
C 678 3690 1395 4032 1811 4032 
C 1946 4032 2272 4009 2400 3776 
C 2298 3776 2106 3776 2106 3553 
C 2106 3381 2246 3323 2336 3323 
C 2394 3323 2566 3348 2566 3560 
C 2566 3954 2246 4179 1805 4179 
C 1043 4179 243 3390 243 1984 
C 243 253 966 -128 1478 -128 
C 2099 -128 2688 427 2688 1283 
C 2688 2081 2170 2662 1517 2662 
C 1126 2662 838 2407 678 1960 
L 678 2176 
z
M 1478 25 
C 691 25 691 1200 691 1436 
C 691 1896 909 2560 1504 2560 
C 1613 2560 1926 2560 2138 2120 
C 2253 1870 2253 1609 2253 1289 
C 2253 944 2253 690 2118 434 
C 1978 171 1773 25 1478 25 
z
" id="CMR17-36" transform="scale(0.015625)"/>
       </defs>
       <use transform="scale(0.996264)" xlink:href="#CMR17-36"/>
       <use transform="translate(45.690477 0)scale(0.996264)" xlink:href="#CMR17-30"/>
       <use transform="translate(91.380954 0)scale(0.996264)" xlink:href="#CMR17-30"/>
      </g>
     </g>
    </g>
    <g id="xtick_5">
     <g id="line2d_9">
      <path clip-path="url(#pa048a2ba59)" d="M 453.966487 380.05972 
L 453.966487 13.852984 
" style="fill:none;stroke:#bfbfbf;stroke-dasharray:0.8,2.4;stroke-dashoffset:0;stroke-linecap:round;stroke-linejoin:miter;stroke-width:0.8;"/>
     </g>
     <g id="line2d_10">
      <g>
       <use style="stroke:#000000;stroke-width:0.8;" x="453.966487" xlink:href="#m65f0b2aad5" y="380.05972"/>
      </g>
     </g>
     <g id="text_5">
      <!-- $\mathdefault{800}$ -->
      <g transform="translate(441.630058 400.365688)scale(0.18 -0.18)">
       <defs>
        <path d="M 1741 2264 
C 2144 2467 2554 2773 2554 3263 
C 2554 3841 1990 4179 1472 4179 
C 890 4179 378 3759 378 3180 
C 378 3021 416 2747 666 2505 
C 730 2442 998 2251 1171 2130 
C 883 1983 211 1634 211 934 
C 211 279 838 -128 1459 -128 
C 2144 -128 2720 362 2720 1010 
C 2720 1590 2330 1857 2074 2029 
L 1741 2264 
z
M 902 2822 
C 851 2854 595 3051 595 3351 
C 595 3739 998 4032 1459 4032 
C 1965 4032 2336 3676 2336 3262 
C 2336 2669 1670 2331 1638 2331 
C 1632 2331 1626 2331 1574 2370 
L 902 2822 
z
M 2080 1519 
C 2176 1449 2483 1240 2483 851 
C 2483 381 2010 25 1472 25 
C 890 25 448 438 448 940 
C 448 1443 838 1862 1280 2060 
L 2080 1519 
z
" id="CMR17-38" transform="scale(0.015625)"/>
       </defs>
       <use transform="scale(0.996264)" xlink:href="#CMR17-38"/>
       <use transform="translate(45.690477 0)scale(0.996264)" xlink:href="#CMR17-30"/>
       <use transform="translate(91.380954 0)scale(0.996264)" xlink:href="#CMR17-30"/>
      </g>
     </g>
    </g>
    <g id="xtick_6">
     <g id="line2d_11">
      <path clip-path="url(#pa048a2ba59)" d="M 541.931614 380.05972 
L 541.931614 13.852984 
" style="fill:none;stroke:#bfbfbf;stroke-dasharray:0.8,2.4;stroke-dashoffset:0;stroke-linecap:round;stroke-linejoin:miter;stroke-width:0.8;"/>
     </g>
     <g id="line2d_12">
      <g>
       <use style="stroke:#000000;stroke-width:0.8;" x="541.931614" xlink:href="#m65f0b2aad5" y="380.05972"/>
      </g>
     </g>
     <g id="text_6">
      <!-- $\mathdefault{1000}$ -->
      <g transform="translate(525.483043 400.365688)scale(0.18 -0.18)">
       <defs>
        <path d="M 1702 4058 
C 1702 4192 1696 4192 1606 4192 
C 1357 3916 979 3827 621 3827 
C 602 3827 570 3827 563 3808 
C 557 3795 557 3782 557 3648 
C 755 3648 1088 3686 1344 3839 
L 1344 461 
C 1344 236 1331 160 781 160 
L 589 160 
L 589 0 
C 896 0 1216 0 1523 0 
C 1830 0 2150 0 2458 0 
L 2458 160 
L 2266 160 
C 1715 160 1702 230 1702 458 
L 1702 4058 
z
" id="CMR17-31" transform="scale(0.015625)"/>
       </defs>
       <use transform="scale(0.996264)" xlink:href="#CMR17-31"/>
       <use transform="translate(45.690477 0)scale(0.996264)" xlink:href="#CMR17-30"/>
       <use transform="translate(91.380954 0)scale(0.996264)" xlink:href="#CMR17-30"/>
       <use transform="translate(137.071431 0)scale(0.996264)" xlink:href="#CMR17-30"/>
      </g>
     </g>
    </g>
    <g id="text_7">
     <!-- Episode -->
     <g transform="translate(283.360496 425.0357)scale(0.22 -0.22)">
      <defs>
       <path d="M 4032 4608 
L 186 4608 
L 186 4308 
L 301 4308 
C 819 4308 877 4276 877 4007 
L 877 3823 
L 877 786 
L 877 600 
C 877 332 819 300 301 300 
L 186 300 
L 186 0 
L 4115 0 
L 4243 1696 
L 3962 1696 
C 3878 1252 3731 858 3578 675 
C 3379 421 3014 300 2477 300 
L 2054 300 
C 1862 300 1702 339 1645 396 
C 1600 434 1594 473 1594 608 
L 1594 2240 
L 1722 2240 
C 2112 2240 2272 2200 2400 2063 
C 2566 1893 2630 1683 2643 1297 
L 2944 1297 
L 2944 3392 
L 2643 3392 
C 2611 2782 2355 2540 1747 2540 
L 1594 2540 
L 1594 3989 
C 1594 4263 1651 4308 1997 4308 
L 2330 4308 
C 2893 4308 3168 4250 3386 4070 
C 3597 3904 3750 3545 3846 2969 
L 4122 2969 
L 4032 4608 
z
" id="CenturySchL-Roma-45" transform="scale(0.015625)"/>
       <path d="M 1286 2944 
L 179 2944 
L 179 2638 
L 410 2638 
C 646 2638 685 2593 685 2318 
L 685 -496 
L 685 -750 
C 685 -1006 614 -1050 205 -1050 
L 179 -1050 
L 179 -1280 
L 1843 -1280 
L 1843 -1050 
L 1773 -1050 
C 1357 -1050 1286 -1006 1286 -751 
L 1286 -496 
L 1286 428 
C 1498 58 1741 -89 2131 -89 
C 2874 -89 3424 593 3424 1504 
C 3424 2385 2874 3072 2170 3072 
C 1773 3072 1510 2908 1286 2529 
L 1286 2944 
z
M 2054 2727 
C 2496 2727 2752 2288 2752 1542 
C 2752 721 2490 256 2035 256 
C 1581 256 1280 728 1280 1460 
C 1280 2249 1568 2727 2054 2727 
z
" id="CenturySchL-Roma-70" transform="scale(0.015625)"/>
       <path d="M 1318 2944 
L 115 2944 
L 115 2638 
L 442 2638 
C 678 2638 717 2593 717 2317 
L 717 787 
L 717 531 
C 717 275 646 230 237 230 
L 192 230 
L 192 0 
L 1850 0 
L 1850 230 
L 1805 230 
C 1389 230 1318 274 1318 526 
L 1318 779 
L 1318 2944 
z
M 1018 4581 
C 813 4581 646 4415 646 4211 
C 646 4013 813 3840 1011 3840 
C 1222 3840 1389 4006 1389 4211 
C 1389 4415 1222 4581 1018 4581 
z
" id="CenturySchL-Roma-69" transform="scale(0.015625)"/>
       <path d="M 2496 3072 
L 2272 3072 
L 2086 2842 
C 1856 3021 1626 3097 1306 3097 
C 742 3097 371 2728 371 2173 
C 371 1925 454 1714 595 1588 
C 742 1453 890 1390 1274 1300 
L 1613 1224 
C 2118 1103 2298 975 2298 721 
C 2298 421 2035 211 1658 211 
C 1120 211 736 561 582 1208 
L 326 1208 
L 326 0 
L 550 0 
L 774 250 
C 1037 38 1331 -64 1651 -64 
C 2278 -64 2694 325 2694 918 
C 2694 1198 2605 1414 2426 1561 
C 2272 1695 2144 1746 1754 1828 
L 1434 1899 
C 1082 1975 1082 1975 966 2039 
C 826 2103 742 2236 742 2377 
C 742 2631 986 2816 1338 2816 
C 1581 2816 1779 2733 1958 2561 
C 2099 2420 2170 2293 2272 1999 
L 2496 1999 
L 2496 3072 
z
" id="CenturySchL-Roma-73" transform="scale(0.015625)"/>
       <path d="M 1613 3090 
C 832 3090 218 2397 218 1507 
C 218 636 832 -64 1600 -64 
C 2368 -64 2982 636 2982 1513 
C 2982 2384 2368 3090 1613 3090 
z
M 1613 2816 
C 2061 2816 2310 2352 2310 1513 
C 2310 669 2061 211 1600 211 
C 1139 211 890 669 890 1507 
C 890 2371 1133 2816 1613 2816 
z
" id="CenturySchL-Roma-6f" transform="scale(0.015625)"/>
       <path d="M 2432 0 
L 3546 0 
L 3546 301 
L 3430 301 
C 3085 301 3034 365 3034 766 
L 3034 4722 
L 1779 4722 
L 1779 4416 
L 2157 4416 
C 2387 4416 2432 4370 2432 4091 
L 2432 2624 
C 2195 2950 1920 3097 1549 3097 
C 826 3097 275 2403 275 1485 
C 275 580 806 -64 1549 -64 
C 1952 -64 2227 107 2432 486 
L 2432 0 
z
M 1677 2752 
C 1939 2752 2189 2562 2304 2268 
C 2381 2077 2426 1810 2426 1505 
C 2426 766 2131 281 1670 281 
C 1222 281 947 702 947 1409 
C 947 1785 986 2071 1069 2287 
C 1178 2568 1414 2752 1677 2752 
z
" id="CenturySchL-Roma-64" transform="scale(0.015625)"/>
       <path d="M 2976 1472 
C 2982 2420 2438 3090 1658 3090 
C 838 3090 224 2384 224 1430 
C 224 540 806 -64 1670 -64 
C 2278 -64 2714 236 2976 844 
L 2752 966 
C 2490 473 2221 281 1792 281 
C 1466 281 1229 422 1062 704 
C 947 896 896 1120 902 1472 
L 2976 1472 
z
M 909 1747 
C 909 1942 934 2080 998 2256 
C 1133 2633 1338 2816 1645 2816 
C 2035 2816 2291 2482 2291 1979 
C 2291 1797 2234 1747 2029 1747 
L 909 1747 
z
" id="CenturySchL-Roma-65" transform="scale(0.015625)"/>
      </defs>
      <use transform="scale(0.996264)" xlink:href="#CenturySchL-Roma-45"/>
      <use transform="translate(71.929985 0)scale(0.996264)" xlink:href="#CenturySchL-Roma-70"/>
      <use transform="translate(129.115472 0)scale(0.996264)" xlink:href="#CenturySchL-Roma-69"/>
      <use transform="translate(160.496785 0)scale(0.996264)" xlink:href="#CenturySchL-Roma-73"/>
      <use transform="translate(206.622596 0)scale(0.996264)" xlink:href="#CenturySchL-Roma-6f"/>
      <use transform="translate(256.435796 0)scale(0.996264)" xlink:href="#CenturySchL-Roma-64"/>
      <use transform="translate(313.621283 0)scale(0.996264)" xlink:href="#CenturySchL-Roma-65"/>
     </g>
    </g>
   </g>
   <g id="matplotlib.axis_2">
    <g id="ytick_1">
     <g id="line2d_13">
      <path clip-path="url(#pa048a2ba59)" d="M 82.401787 354.801431 
L 564.274757 354.801431 
" style="fill:none;stroke:#bfbfbf;stroke-dasharray:0.8,2.4;stroke-dashoffset:0;stroke-linecap:round;stroke-linejoin:miter;stroke-width:0.8;"/>
     </g>
     <g id="line2d_14">
      <defs>
       <path d="M 0 0 
L -3.5 0 
" id="mb1b8300494" style="stroke:#000000;stroke-width:0.8;"/>
      </defs>
      <g>
       <use style="stroke:#000000;stroke-width:0.8;" x="82.401787" xlink:href="#mb1b8300494" y="354.801431"/>
      </g>
     </g>
     <g id="text_8">
      <!-- $\mathdefault{0.095}$ -->
      <g transform="translate(37.627152 361.454415)scale(0.18 -0.18)">
       <defs>
        <path d="M 1178 307 
C 1178 492 1024 619 870 619 
C 685 619 557 466 557 313 
C 557 128 710 0 864 0 
C 1050 0 1178 153 1178 307 
z
" id="CMMI12-3a" transform="scale(0.015625)"/>
        <path d="M 2253 1864 
C 2253 464 1670 31 1190 31 
C 1043 31 685 31 538 294 
C 704 268 826 357 826 518 
C 826 692 685 749 595 749 
C 538 749 365 723 365 506 
C 365 71 742 -128 1203 -128 
C 1939 -128 2688 674 2688 2073 
C 2688 3817 1971 4179 1485 4179 
C 851 4179 243 3628 243 2778 
C 243 1991 762 1408 1414 1408 
C 1952 1408 2189 1903 2253 2112 
L 2253 1864 
z
M 1427 1510 
C 1254 1510 1011 1542 813 1922 
C 678 2169 678 2461 678 2771 
C 678 3146 678 3405 858 3684 
C 947 3817 1114 4032 1485 4032 
C 2240 4032 2240 2885 2240 2632 
C 2240 2182 2035 1510 1427 1510 
z
" id="CMR17-39" transform="scale(0.015625)"/>
        <path d="M 730 3692 
C 794 3666 1056 3584 1325 3584 
C 1920 3584 2246 3911 2432 4100 
C 2432 4157 2432 4192 2394 4192 
C 2387 4192 2374 4192 2323 4163 
C 2099 4058 1837 3973 1517 3973 
C 1325 3973 1037 3999 723 4139 
C 653 4171 640 4171 634 4171 
C 602 4171 595 4164 595 4037 
L 595 2203 
C 595 2089 595 2057 659 2057 
C 691 2057 704 2070 736 2114 
C 941 2401 1222 2522 1542 2522 
C 1766 2522 2246 2382 2246 1289 
C 2246 1085 2246 715 2054 421 
C 1894 159 1645 25 1370 25 
C 947 25 518 320 403 814 
C 429 807 480 795 506 795 
C 589 795 749 840 749 1038 
C 749 1210 627 1280 506 1280 
C 358 1280 262 1190 262 1011 
C 262 454 704 -128 1382 -128 
C 2042 -128 2669 440 2669 1264 
C 2669 2030 2170 2624 1549 2624 
C 1222 2624 947 2503 730 2274 
L 730 3692 
z
" id="CMR17-35" transform="scale(0.015625)"/>
       </defs>
       <use transform="scale(0.996264)" xlink:href="#CMR17-30"/>
       <use transform="translate(45.690477 0)scale(0.996264)" xlink:href="#CMMI12-3a"/>
       <use transform="translate(72.787654 0)scale(0.996264)" xlink:href="#CMR17-30"/>
       <use transform="translate(118.478131 0)scale(0.996264)" xlink:href="#CMR17-39"/>
       <use transform="translate(164.168608 0)scale(0.996264)" xlink:href="#CMR17-35"/>
      </g>
     </g>
    </g>
    <g id="ytick_2">
     <g id="line2d_15">
      <path clip-path="url(#pa048a2ba59)" d="M 82.401787 306.09451 
L 564.274757 306.09451 
" style="fill:none;stroke:#bfbfbf;stroke-dasharray:0.8,2.4;stroke-dashoffset:0;stroke-linecap:round;stroke-linejoin:miter;stroke-width:0.8;"/>
     </g>
     <g id="line2d_16">
      <g>
       <use style="stroke:#000000;stroke-width:0.8;" x="82.401787" xlink:href="#mb1b8300494" y="306.09451"/>
      </g>
     </g>
     <g id="text_9">
      <!-- $\mathdefault{0.100}$ -->
      <g transform="translate(37.627152 312.747494)scale(0.18 -0.18)">
       <use transform="scale(0.996264)" xlink:href="#CMR17-30"/>
       <use transform="translate(45.690477 0)scale(0.996264)" xlink:href="#CMMI12-3a"/>
       <use transform="translate(72.787654 0)scale(0.996264)" xlink:href="#CMR17-31"/>
       <use transform="translate(118.478131 0)scale(0.996264)" xlink:href="#CMR17-30"/>
       <use transform="translate(164.168608 0)scale(0.996264)" xlink:href="#CMR17-30"/>
      </g>
     </g>
    </g>
    <g id="ytick_3">
     <g id="line2d_17">
      <path clip-path="url(#pa048a2ba59)" d="M 82.401787 257.387589 
L 564.274757 257.387589 
" style="fill:none;stroke:#bfbfbf;stroke-dasharray:0.8,2.4;stroke-dashoffset:0;stroke-linecap:round;stroke-linejoin:miter;stroke-width:0.8;"/>
     </g>
     <g id="line2d_18">
      <g>
       <use style="stroke:#000000;stroke-width:0.8;" x="82.401787" xlink:href="#mb1b8300494" y="257.387589"/>
      </g>
     </g>
     <g id="text_10">
      <!-- $\mathdefault{0.105}$ -->
      <g transform="translate(37.627152 264.040573)scale(0.18 -0.18)">
       <use transform="scale(0.996264)" xlink:href="#CMR17-30"/>
       <use transform="translate(45.690477 0)scale(0.996264)" xlink:href="#CMMI12-3a"/>
       <use transform="translate(72.787654 0)scale(0.996264)" xlink:href="#CMR17-31"/>
       <use transform="translate(118.478131 0)scale(0.996264)" xlink:href="#CMR17-30"/>
       <use transform="translate(164.168608 0)scale(0.996264)" xlink:href="#CMR17-35"/>
      </g>
     </g>
    </g>
    <g id="ytick_4">
     <g id="line2d_19">
      <path clip-path="url(#pa048a2ba59)" d="M 82.401787 208.680668 
L 564.274757 208.680668 
" style="fill:none;stroke:#bfbfbf;stroke-dasharray:0.8,2.4;stroke-dashoffset:0;stroke-linecap:round;stroke-linejoin:miter;stroke-width:0.8;"/>
     </g>
     <g id="line2d_20">
      <g>
       <use style="stroke:#000000;stroke-width:0.8;" x="82.401787" xlink:href="#mb1b8300494" y="208.680668"/>
      </g>
     </g>
     <g id="text_11">
      <!-- $\mathdefault{0.110}$ -->
      <g transform="translate(37.627152 215.333652)scale(0.18 -0.18)">
       <use transform="scale(0.996264)" xlink:href="#CMR17-30"/>
       <use transform="translate(45.690477 0)scale(0.996264)" xlink:href="#CMMI12-3a"/>
       <use transform="translate(72.787654 0)scale(0.996264)" xlink:href="#CMR17-31"/>
       <use transform="translate(118.478131 0)scale(0.996264)" xlink:href="#CMR17-31"/>
       <use transform="translate(164.168608 0)scale(0.996264)" xlink:href="#CMR17-30"/>
      </g>
     </g>
    </g>
    <g id="ytick_5">
     <g id="line2d_21">
      <path clip-path="url(#pa048a2ba59)" d="M 82.401787 159.973747 
L 564.274757 159.973747 
" style="fill:none;stroke:#bfbfbf;stroke-dasharray:0.8,2.4;stroke-dashoffset:0;stroke-linecap:round;stroke-linejoin:miter;stroke-width:0.8;"/>
     </g>
     <g id="line2d_22">
      <g>
       <use style="stroke:#000000;stroke-width:0.8;" x="82.401787" xlink:href="#mb1b8300494" y="159.973747"/>
      </g>
     </g>
     <g id="text_12">
      <!-- $\mathdefault{0.115}$ -->
      <g transform="translate(37.627152 166.626731)scale(0.18 -0.18)">
       <use transform="scale(0.996264)" xlink:href="#CMR17-30"/>
       <use transform="translate(45.690477 0)scale(0.996264)" xlink:href="#CMMI12-3a"/>
       <use transform="translate(72.787654 0)scale(0.996264)" xlink:href="#CMR17-31"/>
       <use transform="translate(118.478131 0)scale(0.996264)" xlink:href="#CMR17-31"/>
       <use transform="translate(164.168608 0)scale(0.996264)" xlink:href="#CMR17-35"/>
      </g>
     </g>
    </g>
    <g id="ytick_6">
     <g id="line2d_23">
      <path clip-path="url(#pa048a2ba59)" d="M 82.401787 111.266826 
L 564.274757 111.266826 
" style="fill:none;stroke:#bfbfbf;stroke-dasharray:0.8,2.4;stroke-dashoffset:0;stroke-linecap:round;stroke-linejoin:miter;stroke-width:0.8;"/>
     </g>
     <g id="line2d_24">
      <g>
       <use style="stroke:#000000;stroke-width:0.8;" x="82.401787" xlink:href="#mb1b8300494" y="111.266826"/>
      </g>
     </g>
     <g id="text_13">
      <!-- $\mathdefault{0.120}$ -->
      <g transform="translate(37.627152 117.91981)scale(0.18 -0.18)">
       <use transform="scale(0.996264)" xlink:href="#CMR17-30"/>
       <use transform="translate(45.690477 0)scale(0.996264)" xlink:href="#CMMI12-3a"/>
       <use transform="translate(72.787654 0)scale(0.996264)" xlink:href="#CMR17-31"/>
       <use transform="translate(118.478131 0)scale(0.996264)" xlink:href="#CMR17-32"/>
       <use transform="translate(164.168608 0)scale(0.996264)" xlink:href="#CMR17-30"/>
      </g>
     </g>
    </g>
    <g id="ytick_7">
     <g id="line2d_25">
      <path clip-path="url(#pa048a2ba59)" d="M 82.401787 62.559905 
L 564.274757 62.559905 
" style="fill:none;stroke:#bfbfbf;stroke-dasharray:0.8,2.4;stroke-dashoffset:0;stroke-linecap:round;stroke-linejoin:miter;stroke-width:0.8;"/>
     </g>
     <g id="line2d_26">
      <g>
       <use style="stroke:#000000;stroke-width:0.8;" x="82.401787" xlink:href="#mb1b8300494" y="62.559905"/>
      </g>
     </g>
     <g id="text_14">
      <!-- $\mathdefault{0.125}$ -->
      <g transform="translate(37.627152 69.212889)scale(0.18 -0.18)">
       <use transform="scale(0.996264)" xlink:href="#CMR17-30"/>
       <use transform="translate(45.690477 0)scale(0.996264)" xlink:href="#CMMI12-3a"/>
       <use transform="translate(72.787654 0)scale(0.996264)" xlink:href="#CMR17-31"/>
       <use transform="translate(118.478131 0)scale(0.996264)" xlink:href="#CMR17-32"/>
       <use transform="translate(164.168608 0)scale(0.996264)" xlink:href="#CMR17-35"/>
      </g>
     </g>
    </g>
    <g id="ytick_8">
     <g id="line2d_27">
      <path clip-path="url(#pa048a2ba59)" d="M 82.401787 13.852984 
L 564.274757 13.852984 
" style="fill:none;stroke:#bfbfbf;stroke-dasharray:0.8,2.4;stroke-dashoffset:0;stroke-linecap:round;stroke-linejoin:miter;stroke-width:0.8;"/>
     </g>
     <g id="line2d_28">
      <g>
       <use style="stroke:#000000;stroke-width:0.8;" x="82.401787" xlink:href="#mb1b8300494" y="13.852984"/>
      </g>
     </g>
     <g id="text_15">
      <!-- $\mathdefault{0.130}$ -->
      <g transform="translate(37.627152 20.505968)scale(0.18 -0.18)">
       <defs>
        <path d="M 1414 2157 
C 1984 2157 2234 1662 2234 1090 
C 2234 320 1824 25 1453 25 
C 1114 25 563 194 390 693 
C 422 680 454 680 486 680 
C 640 680 755 782 755 948 
C 755 1133 614 1216 486 1216 
C 378 1216 211 1165 211 926 
C 211 335 787 -128 1466 -128 
C 2176 -128 2720 430 2720 1085 
C 2720 1707 2208 2157 1600 2227 
C 2086 2328 2554 2756 2554 3329 
C 2554 3820 2048 4179 1472 4179 
C 890 4179 378 3829 378 3329 
C 378 3110 544 3072 627 3072 
C 762 3072 877 3155 877 3321 
C 877 3486 762 3569 627 3569 
C 602 3569 570 3569 544 3557 
C 730 3959 1235 4032 1459 4032 
C 1683 4032 2106 3925 2106 3320 
C 2106 3143 2080 2828 1862 2550 
C 1670 2304 1453 2304 1242 2284 
C 1210 2284 1062 2269 1037 2269 
C 992 2263 966 2257 966 2208 
C 966 2163 973 2157 1101 2157 
L 1414 2157 
z
" id="CMR17-33" transform="scale(0.015625)"/>
       </defs>
       <use transform="scale(0.996264)" xlink:href="#CMR17-30"/>
       <use transform="translate(45.690477 0)scale(0.996264)" xlink:href="#CMMI12-3a"/>
       <use transform="translate(72.787654 0)scale(0.996264)" xlink:href="#CMR17-31"/>
       <use transform="translate(118.478131 0)scale(0.996264)" xlink:href="#CMR17-33"/>
       <use transform="translate(164.168608 0)scale(0.996264)" xlink:href="#CMR17-30"/>
      </g>
     </g>
    </g>
    <g id="text_16">
     <!-- Max Reward -->
     <g transform="translate(23.462852 261.2956)rotate(-90)scale(0.22 -0.22)">
      <defs>
       <path d="M 1837 4608 
L 186 4608 
L 186 4308 
L 307 4308 
C 826 4308 883 4276 883 4006 
L 883 3821 
L 883 1369 
C 883 498 755 313 141 313 
L 141 0 
L 1965 0 
L 1965 313 
C 1357 313 1229 498 1229 1370 
L 1229 4200 
L 2752 0 
L 3008 0 
L 4435 4200 
L 4435 797 
L 4435 612 
C 4435 339 4378 313 3859 313 
L 3744 313 
L 3744 0 
L 5843 0 
L 5843 313 
L 5728 313 
C 5210 313 5152 339 5152 612 
L 5152 797 
L 5152 3824 
L 5152 4008 
C 5152 4276 5210 4308 5728 4308 
L 5843 4308 
L 5843 4608 
L 4237 4608 
L 3066 1206 
L 1837 4608 
z
" id="CenturySchL-Roma-4d" transform="scale(0.015625)"/>
       <path d="M 2893 2085 
C 2893 2483 2822 2686 2637 2838 
C 2426 3002 2112 3090 1702 3090 
C 986 3090 454 2755 454 2299 
C 454 2058 602 1906 826 1906 
C 1024 1906 1171 2039 1171 2228 
C 1171 2311 1139 2399 1075 2488 
C 1037 2531 1030 2550 1030 2570 
C 1030 2702 1293 2816 1600 2816 
C 1798 2816 2022 2753 2125 2658 
C 2246 2557 2291 2405 2291 2120 
L 2291 1874 
C 1619 1759 1414 1708 1101 1588 
C 550 1383 282 1084 282 682 
C 282 229 646 -64 1210 -64 
C 1651 -64 2048 119 2323 452 
C 2426 127 2586 0 2886 0 
C 3174 0 3475 185 3475 370 
C 3475 414 3443 446 3411 446 
C 3386 446 3360 440 3315 421 
C 3213 384 3187 377 3136 377 
C 2957 377 2893 498 2893 814 
L 2893 2085 
z
M 2291 1310 
C 2291 926 2272 837 2163 671 
C 2003 434 1709 275 1434 275 
C 1146 275 928 486 928 773 
C 928 1041 1062 1233 1344 1367 
C 1542 1456 1792 1520 2291 1603 
L 2291 1310 
z
" id="CenturySchL-Roma-61" transform="scale(0.015625)"/>
       <path d="M 1978 1632 
L 2707 2482 
C 2861 2662 3021 2752 3187 2752 
L 3245 2752 
L 3245 2982 
L 1920 2982 
L 1920 2752 
L 2042 2752 
C 2234 2752 2330 2701 2330 2611 
C 2330 2547 2285 2451 2202 2349 
L 1798 1869 
L 1306 2496 
C 1267 2541 1242 2598 1242 2637 
C 1242 2720 1325 2752 1523 2752 
L 1613 2752 
L 1613 2982 
L 96 2982 
L 96 2752 
C 333 2732 416 2675 627 2406 
L 1408 1421 
L 672 563 
C 493 351 282 230 96 230 
L 58 230 
L 58 0 
L 1408 0 
L 1408 230 
L 1312 230 
C 1165 230 1133 236 1088 256 
C 1037 281 998 346 998 403 
C 998 448 1018 506 1050 538 
L 1587 1184 
L 2074 538 
C 2118 474 2157 390 2157 345 
C 2157 262 2061 230 1818 230 
L 1773 230 
L 1773 0 
L 3386 0 
L 3386 230 
L 3341 230 
C 3117 230 2950 319 2784 544 
L 1978 1632 
z
" id="CenturySchL-Roma-78" transform="scale(0.015625)"/>
       <path d="M 1574 2240 
L 1946 2240 
C 2195 2240 2451 2163 2592 2047 
C 2778 1900 2874 1669 2918 1246 
L 2950 918 
C 3027 193 3264 -102 3770 -102 
C 4294 -102 4544 251 4563 1019 
L 4294 1019 
C 4269 576 4192 384 4019 384 
C 3872 384 3808 493 3699 936 
L 3597 1340 
C 3456 1931 3206 2200 2707 2329 
C 3629 2457 4070 2825 4070 3468 
C 4070 4194 3456 4608 2381 4608 
L 166 4608 
L 166 4308 
L 282 4308 
C 800 4308 858 4276 858 4007 
L 858 3823 
L 858 779 
L 858 600 
C 858 332 800 300 282 300 
L 166 300 
L 166 0 
L 2266 0 
L 2266 300 
L 2150 300 
C 1632 300 1574 332 1574 601 
L 1574 780 
L 1574 2240 
z
M 1574 2540 
L 1574 3944 
C 1574 4200 1581 4219 1645 4270 
C 1696 4308 1741 4308 2016 4308 
L 2362 4308 
C 2995 4308 3283 4040 3283 3462 
C 3283 3137 3200 2889 3034 2756 
C 2874 2623 2586 2540 2278 2540 
L 1574 2540 
z
" id="CenturySchL-Roma-52" transform="scale(0.015625)"/>
       <path d="M 3501 829 
L 2874 2471 
C 2854 2515 2848 2547 2848 2605 
C 2848 2720 2906 2752 3117 2752 
L 3270 2752 
L 3270 2982 
L 1837 2982 
L 1837 2752 
L 1946 2752 
C 2144 2752 2221 2701 2278 2515 
L 2336 2349 
L 1773 858 
L 1152 2464 
C 1139 2509 1126 2566 1126 2605 
C 1126 2713 1197 2752 1389 2752 
L 1504 2752 
L 1504 2982 
L 96 2982 
L 96 2752 
L 211 2752 
C 390 2752 454 2694 544 2438 
L 1504 -96 
L 1728 -96 
L 2490 1926 
L 3270 -96 
L 3469 -96 
L 4365 2265 
C 4506 2643 4614 2752 4838 2752 
L 4883 2752 
L 4883 2982 
L 3674 2982 
L 3674 2752 
L 3782 2752 
C 4006 2752 4096 2681 4096 2522 
C 4096 2458 4077 2362 4045 2285 
L 3501 829 
z
" id="CenturySchL-Roma-77" transform="scale(0.015625)"/>
       <path d="M 1267 2944 
L 134 2944 
L 134 2638 
L 397 2638 
C 634 2638 672 2593 672 2317 
L 672 787 
L 672 531 
C 672 275 602 230 186 230 
L 160 230 
L 160 0 
L 1869 0 
L 1869 230 
L 1747 230 
C 1338 230 1267 275 1267 531 
L 1267 787 
L 1267 851 
C 1267 1332 1357 1818 1517 2183 
C 1670 2541 1888 2740 2157 2772 
C 2067 2669 2042 2604 2042 2481 
C 2042 2275 2189 2127 2394 2127 
C 2624 2127 2784 2300 2784 2561 
C 2784 2868 2566 3072 2227 3072 
C 1824 3072 1472 2747 1267 2185 
L 1267 2944 
z
" id="CenturySchL-Roma-72" transform="scale(0.015625)"/>
      </defs>
      <use transform="scale(0.996264)" xlink:href="#CenturySchL-Roma-4d"/>
      <use transform="translate(94.046769 0)scale(0.996264)" xlink:href="#CenturySchL-Roma-61"/>
      <use transform="translate(149.438446 0)scale(0.996264)" xlink:href="#CenturySchL-Roma-78"/>
      <use transform="translate(230.63296 0)scale(0.996264)" xlink:href="#CenturySchL-Roma-52"/>
      <use transform="translate(302.562945 0)scale(0.996264)" xlink:href="#CenturySchL-Roma-65"/>
      <use transform="translate(352.376145 0)scale(0.996264)" xlink:href="#CenturySchL-Roma-77"/>
      <use transform="translate(428.091936 0)scale(0.996264)" xlink:href="#CenturySchL-Roma-61"/>
      <use transform="translate(483.483613 0)scale(0.996264)" xlink:href="#CenturySchL-Roma-72"/>
      <use transform="translate(527.717182 0)scale(0.996264)" xlink:href="#CenturySchL-Roma-64"/>
     </g>
    </g>
   </g>
   <g id="PolyCollection_1">
    <path clip-path="url(#pa048a2ba59)" d="M 124.537083 340.014004 
L 124.537083 358.329386 
L 146.528365 346.559064 
L 168.519647 326.133442 
L 190.510929 289.170437 
L 212.502211 249.605364 
L 234.493493 227.280245 
L 256.484775 207.291046 
L 278.476057 186.597416 
L 300.467339 173.729653 
L 322.458621 171.015364 
L 344.449903 170.718436 
L 366.441185 170.677253 
L 388.432467 170.669152 
L 410.423749 170.669454 
L 432.41503 170.681824 
L 454.406312 170.68153 
L 476.397594 170.669152 
L 498.388876 170.669152 
L 520.380158 170.784508 
L 542.37144 170.784508 
L 542.37144 160.592172 
L 542.37144 160.592172 
L 520.380158 160.592172 
L 498.388876 160.556927 
L 476.397594 160.556927 
L 454.406312 160.6379 
L 432.41503 160.639798 
L 410.423749 160.558817 
L 388.432467 160.556927 
L 366.441185 160.606469 
L 344.449903 160.81519 
L 322.458621 161.749796 
L 300.467339 163.739336 
L 278.476057 164.733923 
L 256.484775 167.095758 
L 234.493493 177.93687 
L 212.502211 199.519806 
L 190.510929 250.405183 
L 168.519647 308.457831 
L 146.528365 335.158589 
L 124.537083 340.014004 
z
" style="fill:#e41a1c;fill-opacity:0.25;"/>
   </g>
   <g id="PolyCollection_2">
    <path clip-path="url(#pa048a2ba59)" d="M 104.305104 301.542835 
L 104.305104 369.289294 
L 106.064407 367.851145 
L 107.823709 356.808627 
L 109.583012 337.08444 
L 111.342314 325.625022 
L 113.101617 318.422807 
L 114.860919 313.79364 
L 116.620222 310.855506 
L 118.379524 309.070069 
L 120.138827 308.072833 
L 121.89813 307.679124 
L 123.657432 307.685871 
L 125.416735 307.999056 
L 127.176037 308.556656 
L 128.93534 309.283145 
L 130.694642 310.136806 
L 132.453945 311.096485 
L 134.213247 312.114904 
L 135.97255 313.142669 
L 137.731853 314.140534 
L 139.491155 315.107602 
L 141.250458 316.060282 
L 143.00976 317.022606 
L 144.769063 318.005994 
L 146.528365 318.953733 
L 148.287668 318.03163 
L 150.04697 317.736905 
L 151.806273 317.082609 
L 153.565576 318.759404 
L 155.324878 320.081424 
L 157.084181 321.281005 
L 158.843483 322.852223 
L 160.602786 324.667088 
L 162.362088 326.567141 
L 164.121391 328.47307 
L 165.880693 330.361999 
L 167.639996 332.120561 
L 169.399299 333.575792 
L 171.158601 334.643691 
L 172.917904 335.643827 
L 174.677206 336.47147 
L 176.436509 336.760836 
L 178.195811 336.244005 
L 179.955114 334.760037 
L 181.714416 332.777008 
L 183.473719 330.183115 
L 185.233022 327.116337 
L 186.992324 324.071677 
L 188.751627 321.164437 
L 190.510929 318.470457 
L 192.270232 316.046324 
L 194.029534 313.97077 
L 195.788837 312.197085 
L 197.548139 310.284623 
L 199.307442 308.093466 
L 201.066745 305.089828 
L 202.826047 301.124863 
L 204.58535 296.471911 
L 206.344652 291.489438 
L 208.103955 286.347859 
L 209.863257 280.807222 
L 211.62256 275.038011 
L 213.381862 269.298133 
L 215.141165 263.981411 
L 216.900468 259.329112 
L 218.65977 255.301073 
L 220.419073 251.869135 
L 222.178375 249.097493 
L 223.937678 246.900645 
L 225.69698 244.982334 
L 227.456283 243.233952 
L 229.215585 241.514575 
L 230.974888 239.5815 
L 232.734191 237.353736 
L 234.493493 235.006476 
L 236.252796 232.86738 
L 238.012098 231.005976 
L 239.771401 229.312809 
L 241.530703 227.735889 
L 243.290006 226.208489 
L 245.049308 224.769297 
L 246.808611 223.457297 
L 248.567914 222.238273 
L 250.327216 221.086775 
L 252.086519 219.988026 
L 253.845821 219.099142 
L 255.605124 218.384115 
L 257.364426 217.817416 
L 259.123729 217.17445 
L 260.883031 216.313892 
L 262.642334 215.357716 
L 264.401636 214.382463 
L 266.160939 213.367783 
L 267.920242 212.358633 
L 269.679544 211.345814 
L 271.438847 210.413138 
L 273.198149 209.637227 
L 274.957452 209.015238 
L 276.716754 208.595148 
L 278.476057 208.27828 
L 280.235359 207.958269 
L 281.994662 207.57905 
L 283.753965 207.07782 
L 285.513267 206.592967 
L 287.27257 206.218224 
L 289.031872 205.868643 
L 290.791175 205.487688 
L 292.550477 205.192994 
L 294.30978 204.974893 
L 296.069082 204.778596 
L 297.828385 204.525678 
L 299.587688 204.280589 
L 301.34699 204.01387 
L 303.106293 203.795349 
L 304.865595 203.595254 
L 306.624898 203.378336 
L 308.3842 203.141993 
L 310.143503 202.860853 
L 311.902805 202.632491 
L 313.662108 202.450324 
L 315.421411 202.287153 
L 317.180713 202.099594 
L 318.940016 201.907104 
L 320.699318 201.713579 
L 322.458621 201.543827 
L 324.217923 201.358197 
L 325.977226 201.153889 
L 327.736528 200.987127 
L 329.495831 200.812758 
L 331.255134 200.581153 
L 333.014436 200.354086 
L 334.773739 200.154477 
L 336.533041 199.911541 
L 338.292344 199.651153 
L 340.051646 199.390114 
L 341.810949 199.134936 
L 343.570251 198.875176 
L 345.329554 198.640569 
L 347.088857 198.397249 
L 348.848159 198.144148 
L 350.607462 197.896156 
L 352.366764 197.645414 
L 354.126067 197.422997 
L 355.885369 197.143382 
L 357.644672 196.824464 
L 359.403974 196.533912 
L 361.163277 196.305288 
L 362.92258 196.124546 
L 364.681882 195.910651 
L 366.441185 195.657823 
L 368.200487 195.374574 
L 369.95979 195.157701 
L 371.719092 194.981817 
L 373.478395 194.790119 
L 375.237697 194.555502 
L 376.997 194.279513 
L 378.756303 194.045036 
L 380.515605 193.840084 
L 382.274908 193.58702 
L 384.03421 193.345824 
L 385.793513 193.167441 
L 387.552815 192.95137 
L 389.312118 192.677114 
L 391.07142 192.479375 
L 392.830723 192.320288 
L 394.590026 192.099757 
L 396.349328 191.876774 
L 398.108631 191.658903 
L 399.867933 191.456686 
L 401.627236 191.333207 
L 403.386538 191.20472 
L 405.145841 191.038334 
L 406.905143 190.79462 
L 408.664446 190.539125 
L 410.423749 190.372012 
L 412.183051 190.24722 
L 413.942354 190.0091 
L 415.701656 189.738736 
L 417.460959 189.528622 
L 419.220261 189.421851 
L 420.979564 189.314936 
L 422.738866 189.0891 
L 424.498169 188.815622 
L 426.257472 188.630157 
L 428.016774 188.445204 
L 429.776077 188.20368 
L 431.535379 188.059646 
L 433.294682 188.006219 
L 435.053984 187.885817 
L 436.813287 187.689858 
L 438.572589 187.468889 
L 440.331892 187.289938 
L 442.091194 187.201753 
L 443.850497 187.124663 
L 445.6098 186.944214 
L 447.369102 186.696367 
L 449.128405 186.409912 
L 450.887707 186.196017 
L 452.64701 186.025048 
L 454.406312 185.787498 
L 456.165615 185.605438 
L 457.924917 185.479949 
L 459.68422 185.314162 
L 461.443523 185.053435 
L 463.202825 184.770808 
L 464.962128 184.509331 
L 466.72143 184.361167 
L 468.480733 184.277722 
L 470.240035 184.14907 
L 471.999338 183.99436 
L 473.75864 183.847894 
L 475.517943 183.631979 
L 477.277246 183.404508 
L 479.036548 183.156488 
L 480.795851 182.916223 
L 482.555153 182.788207 
L 484.314456 182.605682 
L 486.073758 182.295609 
L 487.833061 182.000539 
L 489.592363 181.811321 
L 491.351666 181.677482 
L 493.110969 181.557004 
L 494.870271 181.360261 
L 496.629574 181.195898 
L 498.388876 181.048815 
L 500.148179 180.833749 
L 501.907481 180.574198 
L 503.666784 180.397168 
L 505.426086 180.270709 
L 507.185389 180.093551 
L 508.944692 179.943607 
L 510.703994 179.817241 
L 512.463297 179.664123 
L 514.222599 179.488606 
L 515.981902 179.286444 
L 517.741204 179.119752 
L 519.500507 178.971852 
L 521.259809 178.762318 
L 523.019112 178.59133 
L 524.778415 178.475755 
L 526.537717 178.308568 
L 528.29702 178.111263 
L 530.056322 177.988277 
L 531.815625 177.920746 
L 533.574927 177.782952 
L 535.33423 177.579725 
L 537.093532 177.337672 
L 538.852835 177.219913 
L 540.612138 177.1553 
L 542.37144 177.086063 
L 542.37144 153.880779 
L 542.37144 153.880779 
L 540.612138 153.938352 
L 538.852835 153.97892 
L 537.093532 154.036324 
L 535.33423 154.090901 
L 533.574927 154.146418 
L 531.815625 154.211395 
L 530.056322 154.266725 
L 528.29702 154.355365 
L 526.537717 154.405293 
L 524.778415 154.451909 
L 523.019112 154.493846 
L 521.259809 154.542597 
L 519.500507 154.627196 
L 517.741204 154.684754 
L 515.981902 154.784165 
L 514.222599 154.827508 
L 512.463297 154.867668 
L 510.703994 154.933781 
L 508.944692 155.047912 
L 507.185389 155.102337 
L 505.426086 155.158331 
L 503.666784 155.221608 
L 501.907481 155.277382 
L 500.148179 155.374035 
L 498.388876 155.452246 
L 496.629574 155.582066 
L 494.870271 155.702299 
L 493.110969 155.774433 
L 491.351666 155.860878 
L 489.592363 155.988105 
L 487.833061 156.073424 
L 486.073758 156.220679 
L 484.314456 156.354862 
L 482.555153 156.439036 
L 480.795851 156.525607 
L 479.036548 156.616186 
L 477.277246 156.66934 
L 475.517943 156.700351 
L 473.75864 156.759118 
L 471.999338 156.799312 
L 470.240035 156.830824 
L 468.480733 156.858551 
L 466.72143 156.880448 
L 464.962128 156.926765 
L 463.202825 157.011418 
L 461.443523 157.080944 
L 459.68422 157.136995 
L 457.924917 157.209238 
L 456.165615 157.241013 
L 454.406312 157.289058 
L 452.64701 157.371901 
L 450.887707 157.429976 
L 449.128405 157.484623 
L 447.369102 157.551555 
L 445.6098 157.577099 
L 443.850497 157.656874 
L 442.091194 157.698262 
L 440.331892 157.735058 
L 438.572589 157.816942 
L 436.813287 157.898467 
L 435.053984 158.029186 
L 433.294682 158.1351 
L 431.535379 158.215857 
L 429.776077 158.2903 
L 428.016774 158.383045 
L 426.257472 158.469538 
L 424.498169 158.56732 
L 422.738866 158.650959 
L 420.979564 158.698542 
L 419.220261 158.759836 
L 417.460959 158.850843 
L 415.701656 158.934152 
L 413.942354 158.994777 
L 412.183051 159.058091 
L 410.423749 159.11225 
L 408.664446 159.110501 
L 406.905143 159.145873 
L 405.145841 159.266608 
L 403.386538 159.290365 
L 401.627236 159.353181 
L 399.867933 159.405445 
L 398.108631 159.453553 
L 396.349328 159.475773 
L 394.590026 159.522319 
L 392.830723 159.567615 
L 391.07142 159.547401 
L 389.312118 159.590305 
L 387.552815 159.661989 
L 385.793513 159.729412 
L 384.03421 159.727744 
L 382.274908 159.80755 
L 380.515605 159.855065 
L 378.756303 159.927103 
L 376.997 159.99335 
L 375.237697 160.073709 
L 373.478395 160.132762 
L 371.719092 160.204438 
L 369.95979 160.279633 
L 368.200487 160.358259 
L 366.441185 160.430559 
L 364.681882 160.531815 
L 362.92258 160.622708 
L 361.163277 160.676222 
L 359.403974 160.851529 
L 357.644672 161.001837 
L 355.885369 161.149339 
L 354.126067 161.261593 
L 352.366764 161.350336 
L 350.607462 161.465495 
L 348.848159 161.539332 
L 347.088857 161.667053 
L 345.329554 161.785205 
L 343.570251 161.86694 
L 341.810949 161.946661 
L 340.051646 162.062087 
L 338.292344 162.168951 
L 336.533041 162.309764 
L 334.773739 162.441016 
L 333.014436 162.53904 
L 331.255134 162.663254 
L 329.495831 162.756513 
L 327.736528 162.853284 
L 325.977226 162.914275 
L 324.217923 163.028604 
L 322.458621 163.094518 
L 320.699318 163.159181 
L 318.940016 163.258236 
L 317.180713 163.311614 
L 315.421411 163.329207 
L 313.662108 163.359925 
L 311.902805 163.408138 
L 310.143503 163.453325 
L 308.3842 163.585015 
L 306.624898 163.677164 
L 304.865595 163.829353 
L 303.106293 163.883198 
L 301.34699 163.937226 
L 299.587688 164.068312 
L 297.828385 164.222625 
L 296.069082 164.362504 
L 294.30978 164.427767 
L 292.550477 164.567524 
L 290.791175 164.789767 
L 289.031872 165.137853 
L 287.27257 165.450003 
L 285.513267 165.804723 
L 283.753965 166.237195 
L 281.994662 166.7116 
L 280.235359 167.017919 
L 278.476057 167.27912 
L 276.716754 167.465747 
L 274.957452 167.745914 
L 273.198149 168.381456 
L 271.438847 169.18919 
L 269.679544 170.145541 
L 267.920242 171.132272 
L 266.160939 172.034954 
L 264.401636 172.847943 
L 262.642334 173.633717 
L 260.883031 174.406344 
L 259.123729 175.09105 
L 257.364426 175.543329 
L 255.605124 175.99529 
L 253.845821 176.623846 
L 252.086519 177.508763 
L 250.327216 178.568396 
L 248.567914 179.720598 
L 246.808611 180.983877 
L 245.049308 182.339342 
L 243.290006 183.794236 
L 241.530703 185.279705 
L 239.771401 186.764761 
L 238.012098 188.405684 
L 236.252796 189.961849 
L 234.493493 191.628547 
L 232.734191 193.324865 
L 230.974888 194.958563 
L 229.215585 196.383499 
L 227.456283 197.700492 
L 225.69698 199.294473 
L 223.937678 201.273261 
L 222.178375 203.496255 
L 220.419073 206.357379 
L 218.65977 209.837441 
L 216.900468 213.639424 
L 215.141165 217.440108 
L 213.381862 221.187308 
L 211.62256 225.0587 
L 209.863257 228.724058 
L 208.103955 232.087642 
L 206.344652 235.274382 
L 204.58535 238.349351 
L 202.826047 241.251318 
L 201.066745 243.854299 
L 199.307442 246.165561 
L 197.548139 248.862119 
L 195.788837 252.10018 
L 194.029534 255.67677 
L 192.270232 259.827751 
L 190.510929 264.189286 
L 188.751627 268.580843 
L 186.992324 272.919204 
L 185.233022 277.089228 
L 183.473719 281.015202 
L 181.714416 284.362231 
L 179.955114 287.054942 
L 178.195811 289.154923 
L 176.436509 290.470668 
L 174.677206 291.20863 
L 172.917904 291.509857 
L 171.158601 291.495906 
L 169.399299 291.216565 
L 167.639996 290.619117 
L 165.880693 290.019459 
L 164.121391 289.518841 
L 162.362088 289.092227 
L 160.602786 288.508976 
L 158.843483 287.844006 
L 157.084181 287.430204 
L 155.324878 287.504347 
L 153.565576 287.803773 
L 151.806273 287.882088 
L 150.04697 290.424518 
L 148.287668 291.73794 
L 146.528365 291.832393 
L 144.769063 290.831895 
L 143.00976 289.425388 
L 141.250458 287.793913 
L 139.491155 286.125942 
L 137.731853 284.740144 
L 135.97255 283.876896 
L 134.213247 283.69609 
L 132.453945 284.226677 
L 130.694642 284.923417 
L 128.93534 285.584483 
L 127.176037 286.273172 
L 125.416735 287.017358 
L 123.657432 287.854259 
L 121.89813 288.805041 
L 120.138827 289.909188 
L 118.379524 291.240473 
L 116.620222 292.838232 
L 114.860919 294.849897 
L 113.101617 297.538663 
L 111.342314 301.370992 
L 109.583012 307.374742 
L 107.823709 317.814359 
L 106.064407 300.846204 
L 104.305104 301.542835 
z
" style="fill:#377eb8;fill-opacity:0.25;"/>
   </g>
   <g id="line2d_29">
    <path clip-path="url(#pa048a2ba59)" d="M 124.537083 349.171695 
L 146.528365 340.858826 
L 168.519647 317.295636 
L 190.510929 269.78781 
L 212.502211 224.562585 
L 234.493493 202.608557 
L 256.484775 187.193402 
L 278.476057 175.66567 
L 300.467339 168.734494 
L 322.458621 166.38258 
L 344.449903 165.766813 
L 366.441185 165.641861 
L 388.432467 165.61304 
L 410.423749 165.614136 
L 432.41503 165.660811 
L 454.406312 165.659715 
L 476.397594 165.61304 
L 498.388876 165.61304 
L 520.380158 165.68834 
L 542.37144 165.68834 
" style="fill:none;stroke:#e41a1c;stroke-linecap:square;stroke-width:2;"/>
   </g>
   <g id="line2d_30">
    <path clip-path="url(#pa048a2ba59)" d="M 104.305104 335.416064 
L 106.064407 334.348674 
L 107.823709 337.311493 
L 109.583012 322.229591 
L 111.342314 313.498007 
L 113.101617 307.980735 
L 114.860919 304.321768 
L 116.620222 301.846869 
L 118.379524 300.155271 
L 120.138827 298.99101 
L 121.89813 298.242082 
L 123.657432 297.770065 
L 125.416735 297.508207 
L 127.176037 297.414914 
L 130.694642 297.530112 
L 132.453945 297.661581 
L 134.213247 297.905497 
L 135.97255 298.509782 
L 137.731853 299.440339 
L 139.491155 300.616772 
L 144.769063 304.418944 
L 146.528365 305.393063 
L 148.287668 304.884785 
L 150.04697 304.080712 
L 151.806273 302.482349 
L 153.565576 303.281588 
L 157.084181 304.355605 
L 158.843483 305.348115 
L 165.880693 310.190729 
L 167.639996 311.369839 
L 169.399299 312.396179 
L 171.158601 313.069798 
L 172.917904 313.576842 
L 174.677206 313.84005 
L 176.436509 313.615752 
L 178.195811 312.699464 
L 179.955114 310.90749 
L 181.714416 308.569619 
L 183.473719 305.599158 
L 188.751627 294.87264 
L 192.270232 287.937037 
L 194.029534 284.82377 
L 197.548139 279.573371 
L 199.307442 277.129514 
L 201.066745 274.472064 
L 202.826047 271.18809 
L 206.344652 263.38191 
L 208.103955 259.21775 
L 211.62256 250.048356 
L 215.141165 240.710759 
L 216.900468 236.484268 
L 218.65977 232.569257 
L 220.419073 229.113257 
L 222.178375 226.296874 
L 223.937678 224.086953 
L 225.69698 222.138404 
L 232.734191 215.3393 
L 236.252796 211.414614 
L 239.771401 208.038785 
L 245.049308 203.554319 
L 248.567914 200.979435 
L 252.086519 198.748394 
L 253.845821 197.861494 
L 255.605124 197.189703 
L 259.123729 196.13275 
L 262.642334 194.495717 
L 267.920242 191.745453 
L 271.438847 189.801164 
L 273.198149 189.009342 
L 274.957452 188.380576 
L 278.476057 187.7787 
L 281.994662 187.145325 
L 285.513267 186.198845 
L 290.791175 185.138727 
L 294.30978 184.70133 
L 297.828385 184.374151 
L 303.106293 183.839273 
L 308.3842 183.363504 
L 311.902805 183.020314 
L 329.495831 181.784635 
L 341.810949 180.540799 
L 357.644672 178.91315 
L 361.163277 178.490755 
L 366.441185 178.044191 
L 371.719092 177.593127 
L 382.274908 176.697285 
L 389.312118 176.13371 
L 428.016774 173.414125 
L 431.535379 173.137751 
L 435.053984 172.957501 
L 440.331892 172.512498 
L 445.6098 172.260656 
L 468.480733 170.568137 
L 475.517943 170.166165 
L 484.314456 169.480272 
L 489.592363 168.899713 
L 517.741204 166.902253 
L 542.37144 165.483421 
L 542.37144 165.483421 
" style="fill:none;stroke:#377eb8;stroke-dasharray:12,12;stroke-dashoffset:0;stroke-linecap:round;stroke-linejoin:miter;stroke-width:2;"/>
   </g>
   <g id="patch_3">
    <path d="M 82.401787 380.05972 
L 82.401787 13.852984 
" style="fill:none;stroke:#000000;stroke-linecap:square;stroke-linejoin:miter;stroke-width:0.8;"/>
   </g>
   <g id="patch_4">
    <path d="M 564.274757 380.05972 
L 564.274757 13.852984 
" style="fill:none;stroke:#000000;stroke-linecap:square;stroke-linejoin:miter;stroke-width:0.8;"/>
   </g>
   <g id="patch_5">
    <path d="M 82.401787 380.05972 
L 564.274757 380.05972 
" style="fill:none;stroke:#000000;stroke-linecap:square;stroke-linejoin:miter;stroke-width:0.8;"/>
   </g>
  </g>
  <g id="axes_2">
   <g id="matplotlib.axis_3">
    <g id="ytick_9">
     <g id="line2d_31">
      <path clip-path="url(#pa048a2ba59)" d="M 82.401787 342.021473 
L 564.274757 342.021473 
" style="fill:none;stroke:#bfbfbf;stroke-dasharray:0.8,2.4;stroke-dashoffset:0;stroke-linecap:round;stroke-linejoin:miter;stroke-width:0.8;"/>
     </g>
     <g id="line2d_32">
      <defs>
       <path d="M 0 0 
L 3.5 0 
" id="m03044aa4e7" style="stroke:#000000;stroke-width:0.8;"/>
      </defs>
      <g>
       <use style="stroke:#000000;stroke-width:0.8;" x="564.274757" xlink:href="#m03044aa4e7" y="342.021473"/>
      </g>
     </g>
     <g id="text_17">
      <!-- $\mathdefault{−0.25}$ -->
      <g transform="translate(571.274757 348.674457)scale(0.18 -0.18)">
       <defs>
        <path d="M 4218 1472 
C 4326 1472 4442 1472 4442 1600 
C 4442 1728 4326 1728 4218 1728 
L 755 1728 
C 646 1728 531 1728 531 1600 
C 531 1472 646 1472 755 1472 
L 4218 1472 
z
" id="CMSY10-0" transform="scale(0.015625)"/>
       </defs>
       <use transform="scale(0.996264)" xlink:href="#CMSY10-0"/>
       <use transform="translate(77.487468 0)scale(0.996264)" xlink:href="#CMR17-30"/>
       <use transform="translate(123.177945 0)scale(0.996264)" xlink:href="#CMMI12-3a"/>
       <use transform="translate(150.275122 0)scale(0.996264)" xlink:href="#CMR17-32"/>
       <use transform="translate(195.965599 0)scale(0.996264)" xlink:href="#CMR17-35"/>
      </g>
     </g>
    </g>
    <g id="ytick_10">
     <g id="line2d_33">
      <path clip-path="url(#pa048a2ba59)" d="M 82.401787 301.000412 
L 564.274757 301.000412 
" style="fill:none;stroke:#bfbfbf;stroke-dasharray:0.8,2.4;stroke-dashoffset:0;stroke-linecap:round;stroke-linejoin:miter;stroke-width:0.8;"/>
     </g>
     <g id="line2d_34">
      <g>
       <use style="stroke:#000000;stroke-width:0.8;" x="564.274757" xlink:href="#m03044aa4e7" y="301.000412"/>
      </g>
     </g>
     <g id="text_18">
      <!-- $\mathdefault{−0.20}$ -->
      <g transform="translate(571.274757 307.653396)scale(0.18 -0.18)">
       <use transform="scale(0.996264)" xlink:href="#CMSY10-0"/>
       <use transform="translate(77.487468 0)scale(0.996264)" xlink:href="#CMR17-30"/>
       <use transform="translate(123.177945 0)scale(0.996264)" xlink:href="#CMMI12-3a"/>
       <use transform="translate(150.275122 0)scale(0.996264)" xlink:href="#CMR17-32"/>
       <use transform="translate(195.965599 0)scale(0.996264)" xlink:href="#CMR17-30"/>
      </g>
     </g>
    </g>
    <g id="ytick_11">
     <g id="line2d_35">
      <path clip-path="url(#pa048a2ba59)" d="M 82.401787 259.979351 
L 564.274757 259.979351 
" style="fill:none;stroke:#bfbfbf;stroke-dasharray:0.8,2.4;stroke-dashoffset:0;stroke-linecap:round;stroke-linejoin:miter;stroke-width:0.8;"/>
     </g>
     <g id="line2d_36">
      <g>
       <use style="stroke:#000000;stroke-width:0.8;" x="564.274757" xlink:href="#m03044aa4e7" y="259.979351"/>
      </g>
     </g>
     <g id="text_19">
      <!-- $\mathdefault{−0.15}$ -->
      <g transform="translate(571.274757 266.632335)scale(0.18 -0.18)">
       <use transform="scale(0.996264)" xlink:href="#CMSY10-0"/>
       <use transform="translate(77.487468 0)scale(0.996264)" xlink:href="#CMR17-30"/>
       <use transform="translate(123.177945 0)scale(0.996264)" xlink:href="#CMMI12-3a"/>
       <use transform="translate(150.275122 0)scale(0.996264)" xlink:href="#CMR17-31"/>
       <use transform="translate(195.965599 0)scale(0.996264)" xlink:href="#CMR17-35"/>
      </g>
     </g>
    </g>
    <g id="ytick_12">
     <g id="line2d_37">
      <path clip-path="url(#pa048a2ba59)" d="M 82.401787 218.95829 
L 564.274757 218.95829 
" style="fill:none;stroke:#bfbfbf;stroke-dasharray:0.8,2.4;stroke-dashoffset:0;stroke-linecap:round;stroke-linejoin:miter;stroke-width:0.8;"/>
     </g>
     <g id="line2d_38">
      <g>
       <use style="stroke:#000000;stroke-width:0.8;" x="564.274757" xlink:href="#m03044aa4e7" y="218.95829"/>
      </g>
     </g>
     <g id="text_20">
      <!-- $\mathdefault{−0.10}$ -->
      <g transform="translate(571.274757 225.611274)scale(0.18 -0.18)">
       <use transform="scale(0.996264)" xlink:href="#CMSY10-0"/>
       <use transform="translate(77.487468 0)scale(0.996264)" xlink:href="#CMR17-30"/>
       <use transform="translate(123.177945 0)scale(0.996264)" xlink:href="#CMMI12-3a"/>
       <use transform="translate(150.275122 0)scale(0.996264)" xlink:href="#CMR17-31"/>
       <use transform="translate(195.965599 0)scale(0.996264)" xlink:href="#CMR17-30"/>
      </g>
     </g>
    </g>
    <g id="ytick_13">
     <g id="line2d_39">
      <path clip-path="url(#pa048a2ba59)" d="M 82.401787 177.937229 
L 564.274757 177.937229 
" style="fill:none;stroke:#bfbfbf;stroke-dasharray:0.8,2.4;stroke-dashoffset:0;stroke-linecap:round;stroke-linejoin:miter;stroke-width:0.8;"/>
     </g>
     <g id="line2d_40">
      <g>
       <use style="stroke:#000000;stroke-width:0.8;" x="564.274757" xlink:href="#m03044aa4e7" y="177.937229"/>
      </g>
     </g>
     <g id="text_21">
      <!-- $\mathdefault{−0.05}$ -->
      <g transform="translate(571.274757 184.590213)scale(0.18 -0.18)">
       <use transform="scale(0.996264)" xlink:href="#CMSY10-0"/>
       <use transform="translate(77.487468 0)scale(0.996264)" xlink:href="#CMR17-30"/>
       <use transform="translate(123.177945 0)scale(0.996264)" xlink:href="#CMMI12-3a"/>
       <use transform="translate(150.275122 0)scale(0.996264)" xlink:href="#CMR17-30"/>
       <use transform="translate(195.965599 0)scale(0.996264)" xlink:href="#CMR17-35"/>
      </g>
     </g>
    </g>
    <g id="ytick_14">
     <g id="line2d_41">
      <path clip-path="url(#pa048a2ba59)" d="M 82.401787 136.916167 
L 564.274757 136.916167 
" style="fill:none;stroke:#bfbfbf;stroke-dasharray:0.8,2.4;stroke-dashoffset:0;stroke-linecap:round;stroke-linejoin:miter;stroke-width:0.8;"/>
     </g>
     <g id="line2d_42">
      <g>
       <use style="stroke:#000000;stroke-width:0.8;" x="564.274757" xlink:href="#m03044aa4e7" y="136.916167"/>
      </g>
     </g>
     <g id="text_22">
      <!-- $\mathdefault{0.00}$ -->
      <g transform="translate(571.274757 143.569151)scale(0.18 -0.18)">
       <use transform="scale(0.996264)" xlink:href="#CMR17-30"/>
       <use transform="translate(45.690477 0)scale(0.996264)" xlink:href="#CMMI12-3a"/>
       <use transform="translate(72.787654 0)scale(0.996264)" xlink:href="#CMR17-30"/>
       <use transform="translate(118.478131 0)scale(0.996264)" xlink:href="#CMR17-30"/>
      </g>
     </g>
    </g>
    <g id="ytick_15">
     <g id="line2d_43">
      <path clip-path="url(#pa048a2ba59)" d="M 82.401787 95.895106 
L 564.274757 95.895106 
" style="fill:none;stroke:#bfbfbf;stroke-dasharray:0.8,2.4;stroke-dashoffset:0;stroke-linecap:round;stroke-linejoin:miter;stroke-width:0.8;"/>
     </g>
     <g id="line2d_44">
      <g>
       <use style="stroke:#000000;stroke-width:0.8;" x="564.274757" xlink:href="#m03044aa4e7" y="95.895106"/>
      </g>
     </g>
     <g id="text_23">
      <!-- $\mathdefault{0.05}$ -->
      <g transform="translate(571.274757 102.54809)scale(0.18 -0.18)">
       <use transform="scale(0.996264)" xlink:href="#CMR17-30"/>
       <use transform="translate(45.690477 0)scale(0.996264)" xlink:href="#CMMI12-3a"/>
       <use transform="translate(72.787654 0)scale(0.996264)" xlink:href="#CMR17-30"/>
       <use transform="translate(118.478131 0)scale(0.996264)" xlink:href="#CMR17-35"/>
      </g>
     </g>
    </g>
    <g id="ytick_16">
     <g id="line2d_45">
      <path clip-path="url(#pa048a2ba59)" d="M 82.401787 54.874045 
L 564.274757 54.874045 
" style="fill:none;stroke:#bfbfbf;stroke-dasharray:0.8,2.4;stroke-dashoffset:0;stroke-linecap:round;stroke-linejoin:miter;stroke-width:0.8;"/>
     </g>
     <g id="line2d_46">
      <g>
       <use style="stroke:#000000;stroke-width:0.8;" x="564.274757" xlink:href="#m03044aa4e7" y="54.874045"/>
      </g>
     </g>
     <g id="text_24">
      <!-- $\mathdefault{0.10}$ -->
      <g transform="translate(571.274757 61.527029)scale(0.18 -0.18)">
       <use transform="scale(0.996264)" xlink:href="#CMR17-30"/>
       <use transform="translate(45.690477 0)scale(0.996264)" xlink:href="#CMMI12-3a"/>
       <use transform="translate(72.787654 0)scale(0.996264)" xlink:href="#CMR17-31"/>
       <use transform="translate(118.478131 0)scale(0.996264)" xlink:href="#CMR17-30"/>
      </g>
     </g>
    </g>
    <g id="ytick_17">
     <g id="line2d_47">
      <path clip-path="url(#pa048a2ba59)" d="M 82.401787 13.852984 
L 564.274757 13.852984 
" style="fill:none;stroke:#bfbfbf;stroke-dasharray:0.8,2.4;stroke-dashoffset:0;stroke-linecap:round;stroke-linejoin:miter;stroke-width:0.8;"/>
     </g>
     <g id="line2d_48">
      <g>
       <use style="stroke:#000000;stroke-width:0.8;" x="564.274757" xlink:href="#m03044aa4e7" y="13.852984"/>
      </g>
     </g>
     <g id="text_25">
      <!-- $\mathdefault{0.15}$ -->
      <g transform="translate(571.274757 20.505968)scale(0.18 -0.18)">
       <use transform="scale(0.996264)" xlink:href="#CMR17-30"/>
       <use transform="translate(45.690477 0)scale(0.996264)" xlink:href="#CMMI12-3a"/>
       <use transform="translate(72.787654 0)scale(0.996264)" xlink:href="#CMR17-31"/>
       <use transform="translate(118.478131 0)scale(0.996264)" xlink:href="#CMR17-35"/>
      </g>
     </g>
    </g>
    <g id="text_26">
     <!-- 0.08m Reward -->
     <g transform="translate(641.0357 270.040524)rotate(-90)scale(0.22 -0.22)">
      <defs>
       <path d="M 1818 4544 
C 922 4544 269 3564 269 2224 
C 269 904 902 -64 1766 -64 
C 2662 -64 3290 872 3290 2204 
C 3290 2884 3149 3448 2880 3890 
C 2630 4294 2221 4544 1818 4544 
z
M 1773 4269 
C 1984 4269 2189 4128 2342 3872 
C 2515 3576 2573 3198 2573 2320 
C 2573 1422 2528 1000 2400 717 
C 2253 403 2022 211 1779 211 
C 1568 211 1363 352 1210 608 
C 1030 910 979 1314 979 2359 
C 979 3103 1024 3480 1152 3756 
C 1299 4083 1530 4269 1773 4269 
z
" id="CenturySchL-Roma-30" transform="scale(0.015625)"/>
       <path d="M 877 734 
C 653 734 474 555 474 338 
C 474 114 653 -64 870 -64 
C 1094 -64 1274 114 1274 338 
C 1274 555 1094 734 877 734 
z
" id="CenturySchL-Roma-2e" transform="scale(0.015625)"/>
       <path d="M 2394 2531 
C 2874 2794 3098 3108 3098 3525 
C 3098 4115 2560 4544 1824 4544 
C 1043 4544 474 4024 474 3320 
C 474 3044 576 2757 755 2558 
C 864 2430 966 2359 1197 2237 
C 915 2129 794 2064 653 1949 
C 403 1743 262 1436 262 1109 
C 262 763 435 417 704 212 
C 954 32 1299 -64 1709 -64 
C 2182 -64 2579 64 2842 301 
C 3117 539 3283 929 3283 1321 
C 3283 1686 3142 2013 2880 2244 
C 2752 2352 2637 2423 2394 2531 
z
M 1709 2782 
C 1190 2974 966 3218 966 3590 
C 966 3993 1299 4269 1805 4269 
C 2298 4269 2624 3955 2624 3487 
C 2624 3154 2496 2936 2131 2628 
L 1709 2782 
z
M 2080 1897 
C 2566 1724 2771 1474 2771 1051 
C 2771 538 2368 211 1741 211 
C 1146 211 794 544 794 1108 
C 794 1589 992 1878 1491 2109 
L 2080 1897 
z
" id="CenturySchL-Roma-38" transform="scale(0.015625)"/>
       <path d="M 1286 2944 
L 147 2944 
L 147 2638 
L 410 2638 
C 646 2638 685 2593 685 2317 
L 685 787 
L 685 538 
C 685 275 614 230 205 230 
L 179 230 
L 179 0 
L 1792 0 
L 1792 230 
L 1766 230 
C 1357 230 1286 275 1286 537 
L 1286 786 
L 1286 1693 
C 1286 2261 1600 2683 2016 2683 
C 2182 2683 2362 2593 2438 2472 
C 2528 2351 2566 2165 2566 1903 
L 2566 786 
L 2566 530 
C 2566 275 2496 230 2080 230 
L 2054 230 
L 2054 0 
L 3674 0 
L 3674 230 
L 3648 230 
C 3238 230 3168 275 3168 530 
L 3168 786 
L 3168 1635 
C 3168 2274 3456 2683 3904 2683 
C 4115 2683 4288 2561 4371 2363 
C 4429 2223 4448 2082 4448 1833 
L 4448 786 
L 4448 530 
C 4448 275 4378 230 3962 230 
L 3936 230 
L 3936 0 
L 5555 0 
L 5555 230 
L 5530 230 
C 5120 230 5050 275 5050 537 
L 5050 786 
L 5050 1961 
C 5050 2357 5011 2491 4845 2708 
C 4659 2945 4397 3072 4090 3072 
C 3674 3072 3366 2876 3091 2439 
C 2982 2819 2637 3072 2208 3072 
C 1824 3072 1536 2889 1286 2491 
L 1286 2944 
z
" id="CenturySchL-Roma-6d" transform="scale(0.015625)"/>
      </defs>
      <use transform="scale(0.996264)" xlink:href="#CenturySchL-Roma-30"/>
      <use transform="translate(55.391677 0)scale(0.996264)" xlink:href="#CenturySchL-Roma-2e"/>
      <use transform="translate(83.086847 0)scale(0.996264)" xlink:href="#CenturySchL-Roma-30"/>
      <use transform="translate(138.478524 0)scale(0.996264)" xlink:href="#CenturySchL-Roma-38"/>
      <use transform="translate(193.8702 0)scale(0.996264)" xlink:href="#CenturySchL-Roma-6d"/>
      <use transform="translate(310.132277 0)scale(0.996264)" xlink:href="#CenturySchL-Roma-52"/>
      <use transform="translate(382.062262 0)scale(0.996264)" xlink:href="#CenturySchL-Roma-65"/>
      <use transform="translate(431.875462 0)scale(0.996264)" xlink:href="#CenturySchL-Roma-77"/>
      <use transform="translate(507.591253 0)scale(0.996264)" xlink:href="#CenturySchL-Roma-61"/>
      <use transform="translate(562.98293 0)scale(0.996264)" xlink:href="#CenturySchL-Roma-72"/>
      <use transform="translate(607.216499 0)scale(0.996264)" xlink:href="#CenturySchL-Roma-64"/>
     </g>
    </g>
   </g>
   <g id="PolyCollection_3">
    <defs>
     <path d="M 124.537083 -119.447038 
L 124.537083 -107.177753 
L 146.528365 -107.898852 
L 168.519647 -121.329692 
L 190.510929 -167.791912 
L 212.502211 -220.362314 
L 234.493493 -248.136506 
L 256.484775 -258.770499 
L 278.476057 -261.545627 
L 300.467339 -264.926519 
L 322.458621 -267.12193 
L 344.449903 -267.36241 
L 366.441185 -267.388947 
L 388.432467 -267.388947 
L 410.423749 -267.388947 
L 432.41503 -267.388947 
L 454.406312 -267.388947 
L 476.397594 -267.388947 
L 498.388876 -267.388947 
L 520.380158 -267.388947 
L 542.37144 -267.388947 
L 542.37144 -296.141279 
L 542.37144 -296.141279 
L 520.380158 -296.141279 
L 498.388876 -296.141279 
L 476.397594 -296.141279 
L 454.406312 -296.141279 
L 432.41503 -296.141279 
L 410.423749 -296.141279 
L 388.432467 -296.141279 
L 366.441185 -296.141279 
L 344.449903 -296.126596 
L 322.458621 -296.084665 
L 300.467339 -293.976257 
L 278.476057 -291.672446 
L 256.484775 -288.310025 
L 234.493493 -276.123873 
L 212.502211 -245.39569 
L 190.510929 -189.300188 
L 168.519647 -133.754293 
L 146.528365 -116.185575 
L 124.537083 -119.447038 
z
" id="mb9912ac0de" style="stroke:#4daf4a;stroke-opacity:0.25;"/>
    </defs>
    <g clip-path="url(#pa048a2ba59)">
     <use style="fill:#4daf4a;fill-opacity:0.25;stroke:#4daf4a;stroke-opacity:0.25;" x="0" xlink:href="#mb9912ac0de" y="436.4"/>
    </g>
   </g>
   <g id="PolyCollection_4">
    <defs>
     <path d="M 104.305104 -114.437833 
L 104.305104 -74.587415 
L 106.064407 -75.335839 
L 107.823709 -84.174985 
L 109.583012 -79.040441 
L 111.342314 -76.360994 
L 113.101617 -74.81185 
L 114.860919 -73.968078 
L 116.620222 -73.528565 
L 118.379524 -73.241688 
L 120.138827 -72.905677 
L 121.89813 -72.407917 
L 123.657432 -71.762548 
L 125.416735 -71.031501 
L 127.176037 -70.287939 
L 128.93534 -69.566251 
L 130.694642 -68.841789 
L 132.453945 -68.089251 
L 134.213247 -67.759375 
L 135.97255 -68.259016 
L 137.731853 -69.437753 
L 139.491155 -71.475751 
L 141.250458 -74.174008 
L 143.00976 -76.759665 
L 144.769063 -79.166049 
L 146.528365 -81.407406 
L 148.287668 -82.504526 
L 150.04697 -83.049449 
L 151.806273 -84.415381 
L 153.565576 -86.898595 
L 155.324878 -89.105884 
L 157.084181 -91.071616 
L 158.843483 -92.98544 
L 160.602786 -94.877899 
L 162.362088 -96.768469 
L 164.121391 -98.687382 
L 165.880693 -100.647735 
L 167.639996 -102.667209 
L 169.399299 -104.742332 
L 171.158601 -106.872038 
L 172.917904 -109.065732 
L 174.677206 -111.317273 
L 176.436509 -113.634821 
L 178.195811 -115.768639 
L 179.955114 -117.468837 
L 181.714416 -118.767983 
L 183.473719 -119.391864 
L 185.233022 -119.349962 
L 186.992324 -119.248484 
L 188.751627 -119.211223 
L 190.510929 -119.171153 
L 192.270232 -119.194151 
L 194.029534 -119.343383 
L 195.788837 -119.752291 
L 197.548139 -120.424608 
L 199.307442 -121.45815 
L 201.066745 -122.827299 
L 202.826047 -124.257758 
L 204.58535 -125.715035 
L 206.344652 -127.191976 
L 208.103955 -128.708406 
L 209.863257 -130.231215 
L 211.62256 -131.7673 
L 213.381862 -133.323357 
L 215.141165 -134.881502 
L 216.900468 -136.427168 
L 218.65977 -137.955827 
L 220.419073 -139.455296 
L 222.178375 -140.905978 
L 223.937678 -142.342732 
L 225.69698 -143.711089 
L 227.456283 -144.996601 
L 229.215585 -146.194641 
L 230.974888 -147.29947 
L 232.734191 -148.312872 
L 234.493493 -149.222955 
L 236.252796 -150.032319 
L 238.012098 -150.760207 
L 239.771401 -151.395193 
L 241.530703 -151.963264 
L 243.290006 -152.498399 
L 245.049308 -152.966277 
L 246.808611 -153.369444 
L 248.567914 -153.725166 
L 250.327216 -154.057668 
L 252.086519 -154.288331 
L 253.845821 -154.51367 
L 255.605124 -154.707247 
L 257.364426 -154.922279 
L 259.123729 -155.165039 
L 260.883031 -155.437888 
L 262.642334 -155.772356 
L 264.401636 -156.229133 
L 266.160939 -156.882558 
L 267.920242 -157.86876 
L 269.679544 -159.293272 
L 271.438847 -160.33227 
L 273.198149 -161.211193 
L 274.957452 -162.412408 
L 276.716754 -163.803674 
L 278.476057 -165.079671 
L 280.235359 -166.050945 
L 281.994662 -166.880231 
L 283.753965 -167.867502 
L 285.513267 -168.952501 
L 287.27257 -169.976472 
L 289.031872 -170.848331 
L 290.791175 -171.720252 
L 292.550477 -172.690255 
L 294.30978 -173.743361 
L 296.069082 -175.044672 
L 297.828385 -176.753494 
L 299.587688 -178.93954 
L 301.34699 -180.528904 
L 303.106293 -182.467203 
L 304.865595 -184.512958 
L 306.624898 -186.260871 
L 308.3842 -187.284622 
L 310.143503 -188.186823 
L 311.902805 -189.279792 
L 313.662108 -190.183185 
L 315.421411 -191.048417 
L 317.180713 -192.107863 
L 318.940016 -193.066469 
L 320.699318 -193.991073 
L 322.458621 -195.194046 
L 324.217923 -196.236022 
L 325.977226 -197.001382 
L 327.736528 -197.912882 
L 329.495831 -199.066355 
L 331.255134 -200.095481 
L 333.014436 -200.811546 
L 334.773739 -201.535075 
L 336.533041 -202.300887 
L 338.292344 -202.923887 
L 340.051646 -203.35162 
L 341.810949 -203.679923 
L 343.570251 -203.877087 
L 345.329554 -204.163723 
L 347.088857 -204.35784 
L 348.848159 -204.486296 
L 350.607462 -204.641272 
L 352.366764 -204.913576 
L 354.126067 -205.156707 
L 355.885369 -205.305064 
L 357.644672 -205.468507 
L 359.403974 -205.604576 
L 361.163277 -205.686882 
L 362.92258 -205.770451 
L 364.681882 -205.844881 
L 366.441185 -205.874664 
L 368.200487 -205.915324 
L 369.95979 -205.966513 
L 371.719092 -205.999397 
L 373.478395 -206.009081 
L 375.237697 -206.01647 
L 376.997 -206.036262 
L 378.756303 -206.053935 
L 380.515605 -206.053223 
L 382.274908 -206.05946 
L 384.03421 -206.070976 
L 385.793513 -206.078711 
L 387.552815 -206.084334 
L 389.312118 -206.091814 
L 391.07142 -206.099167 
L 392.830723 -206.107672 
L 394.590026 -206.111493 
L 396.349328 -206.116179 
L 398.108631 -206.119371 
L 399.867933 -206.130224 
L 401.627236 -206.136831 
L 403.386538 -206.145545 
L 405.145841 -206.160974 
L 406.905143 -206.178299 
L 408.664446 -206.205511 
L 410.423749 -206.243515 
L 412.183051 -206.305801 
L 413.942354 -206.413555 
L 415.701656 -206.593371 
L 417.460959 -206.853525 
L 419.220261 -207.174286 
L 420.979564 -207.530908 
L 422.738866 -207.897663 
L 424.498169 -208.271557 
L 426.257472 -208.641166 
L 428.016774 -209.009746 
L 429.776077 -209.373109 
L 431.535379 -209.73303 
L 433.294682 -210.087269 
L 435.053984 -210.436722 
L 436.813287 -210.780583 
L 438.572589 -211.119697 
L 440.331892 -211.449996 
L 442.091194 -211.77475 
L 443.850497 -212.095354 
L 445.6098 -212.406442 
L 447.369102 -212.708057 
L 449.128405 -213.000437 
L 450.887707 -213.283769 
L 452.64701 -213.558133 
L 454.406312 -213.817041 
L 456.165615 -214.055708 
L 457.924917 -214.259603 
L 459.68422 -214.411258 
L 461.443523 -214.5078 
L 463.202825 -214.559165 
L 464.962128 -214.588501 
L 466.72143 -214.609545 
L 468.480733 -214.622896 
L 470.240035 -214.63396 
L 471.999338 -214.64424 
L 473.75864 -214.649355 
L 475.517943 -214.656302 
L 477.277246 -214.661238 
L 479.036548 -214.667701 
L 480.795851 -214.6729 
L 482.555153 -214.678874 
L 484.314456 -214.686148 
L 486.073758 -214.692137 
L 487.833061 -214.698555 
L 489.592363 -214.706675 
L 491.351666 -214.714697 
L 493.110969 -214.723179 
L 494.870271 -214.731618 
L 496.629574 -214.740799 
L 498.388876 -214.750448 
L 500.148179 -214.757892 
L 501.907481 -214.766358 
L 503.666784 -214.774778 
L 505.426086 -214.782547 
L 507.185389 -214.791556 
L 508.944692 -214.800811 
L 510.703994 -214.808249 
L 512.463297 -214.815786 
L 514.222599 -214.823132 
L 515.981902 -214.830913 
L 517.741204 -214.838907 
L 519.500507 -214.845299 
L 521.259809 -214.852762 
L 523.019112 -214.858936 
L 524.778415 -214.865954 
L 526.537717 -214.873101 
L 528.29702 -214.880384 
L 530.056322 -214.888415 
L 531.815625 -214.897177 
L 533.574927 -214.902424 
L 535.33423 -214.908905 
L 537.093532 -214.914523 
L 538.852835 -214.919809 
L 540.612138 -214.924886 
L 542.37144 -214.929874 
L 542.37144 -248.284965 
L 542.37144 -248.284965 
L 540.612138 -248.274777 
L 538.852835 -248.266375 
L 537.093532 -248.255418 
L 535.33423 -248.263077 
L 533.574927 -248.277951 
L 531.815625 -248.217176 
L 530.056322 -248.259417 
L 528.29702 -248.267973 
L 526.537717 -248.304114 
L 524.778415 -248.313301 
L 523.019112 -248.31395 
L 521.259809 -248.299332 
L 519.500507 -248.29508 
L 517.741204 -248.242216 
L 515.981902 -248.234293 
L 514.222599 -248.206333 
L 512.463297 -248.171436 
L 510.703994 -248.12231 
L 508.944692 -248.069817 
L 507.185389 -248.09068 
L 505.426086 -248.107261 
L 503.666784 -248.070738 
L 501.907481 -248.06158 
L 500.148179 -248.051593 
L 498.388876 -248.013171 
L 496.629574 -248.044852 
L 494.870271 -248.066899 
L 493.110969 -248.066692 
L 491.351666 -248.068828 
L 489.592363 -248.044953 
L 487.833061 -248.056708 
L 486.073758 -248.014955 
L 484.314456 -247.981149 
L 482.555153 -247.98407 
L 480.795851 -247.981198 
L 479.036548 -247.896963 
L 477.277246 -247.875084 
L 475.517943 -247.778522 
L 473.75864 -247.76637 
L 471.999338 -247.657901 
L 470.240035 -247.687664 
L 468.480733 -247.667299 
L 466.72143 -247.624097 
L 464.962128 -247.631212 
L 463.202825 -247.563058 
L 461.443523 -247.406311 
L 459.68422 -247.319081 
L 457.924917 -247.101617 
L 456.165615 -246.843331 
L 454.406312 -246.627365 
L 452.64701 -246.304446 
L 450.887707 -246.060381 
L 449.128405 -245.728903 
L 447.369102 -245.461039 
L 445.6098 -245.136502 
L 443.850497 -244.887799 
L 442.091194 -244.767148 
L 440.331892 -244.49618 
L 438.572589 -244.230284 
L 436.813287 -244.029771 
L 435.053984 -243.970531 
L 433.294682 -243.8784 
L 431.535379 -243.749094 
L 429.776077 -243.665974 
L 428.016774 -243.653233 
L 426.257472 -243.458521 
L 424.498169 -243.33192 
L 422.738866 -243.130585 
L 420.979564 -243.069117 
L 419.220261 -242.901779 
L 417.460959 -242.903032 
L 415.701656 -242.910073 
L 413.942354 -242.866158 
L 412.183051 -242.87984 
L 410.423749 -242.995279 
L 408.664446 -243.103806 
L 406.905143 -243.178542 
L 405.145841 -243.338885 
L 403.386538 -243.429373 
L 401.627236 -243.606619 
L 399.867933 -243.739863 
L 398.108631 -243.729727 
L 396.349328 -243.935194 
L 394.590026 -244.098542 
L 392.830723 -244.187024 
L 391.07142 -244.159454 
L 389.312118 -244.145697 
L 387.552815 -244.158786 
L 385.793513 -244.16327 
L 384.03421 -244.082341 
L 382.274908 -243.963796 
L 380.515605 -243.954104 
L 378.756303 -244.096601 
L 376.997 -243.73756 
L 375.237697 -243.498488 
L 373.478395 -243.458808 
L 371.719092 -243.40486 
L 369.95979 -242.990775 
L 368.200487 -242.461541 
L 366.441185 -242.129669 
L 364.681882 -241.916078 
L 362.92258 -241.301503 
L 361.163277 -240.630149 
L 359.403974 -240.188043 
L 357.644672 -239.530088 
L 355.885369 -238.763175 
L 354.126067 -238.271722 
L 352.366764 -237.601274 
L 350.607462 -236.961904 
L 348.848159 -236.779568 
L 347.088857 -236.677008 
L 345.329554 -236.431414 
L 343.570251 -235.944165 
L 341.810949 -235.657717 
L 340.051646 -235.111666 
L 338.292344 -234.433087 
L 336.533041 -233.44819 
L 334.773739 -232.419338 
L 333.014436 -231.505737 
L 331.255134 -230.526195 
L 329.495831 -229.752683 
L 327.736528 -229.032337 
L 325.977226 -228.354577 
L 324.217923 -227.371031 
L 322.458621 -226.53632 
L 320.699318 -226.154478 
L 318.940016 -225.982683 
L 317.180713 -225.632699 
L 315.421411 -224.804933 
L 313.662108 -224.158417 
L 311.902805 -224.06628 
L 310.143503 -223.45486 
L 308.3842 -222.486666 
L 306.624898 -221.432156 
L 304.865595 -220.419649 
L 303.106293 -219.552254 
L 301.34699 -218.724863 
L 299.587688 -217.895382 
L 297.828385 -217.234512 
L 296.069082 -216.563389 
L 294.30978 -215.825115 
L 292.550477 -215.184781 
L 290.791175 -214.601711 
L 289.031872 -214.10718 
L 287.27257 -213.675116 
L 285.513267 -213.195781 
L 283.753965 -212.759809 
L 281.994662 -212.463684 
L 280.235359 -212.253326 
L 278.476057 -211.98625 
L 276.716754 -211.661402 
L 274.957452 -211.362829 
L 273.198149 -211.145316 
L 271.438847 -210.99802 
L 269.679544 -210.848849 
L 267.920242 -210.675773 
L 266.160939 -210.550904 
L 264.401636 -210.435957 
L 262.642334 -210.305386 
L 260.883031 -210.145144 
L 259.123729 -209.944674 
L 257.364426 -209.691275 
L 255.605124 -209.384764 
L 253.845821 -209.023853 
L 252.086519 -208.613035 
L 250.327216 -208.162596 
L 248.567914 -207.674847 
L 246.808611 -207.160165 
L 245.049308 -206.624606 
L 243.290006 -206.077343 
L 241.530703 -205.521975 
L 239.771401 -204.958657 
L 238.012098 -204.386994 
L 236.252796 -203.807624 
L 234.493493 -203.22192 
L 232.734191 -202.629288 
L 230.974888 -202.033743 
L 229.215585 -201.438445 
L 227.456283 -200.845317 
L 225.69698 -200.258557 
L 223.937678 -199.681371 
L 222.178375 -199.119743 
L 220.419073 -198.578985 
L 218.65977 -198.05724 
L 216.900468 -197.547113 
L 215.141165 -197.040651 
L 213.381862 -196.535445 
L 211.62256 -196.030701 
L 209.863257 -195.528254 
L 208.103955 -195.026296 
L 206.344652 -194.52074 
L 204.58535 -194.020437 
L 202.826047 -193.522948 
L 201.066745 -193.030343 
L 199.307442 -192.537356 
L 197.548139 -192.068549 
L 195.788837 -191.633145 
L 194.029534 -191.209191 
L 192.270232 -190.816345 
L 190.510929 -190.44936 
L 188.751627 -190.106229 
L 186.992324 -189.599025 
L 185.233022 -188.904752 
L 183.473719 -187.96092 
L 181.714416 -186.495572 
L 179.955114 -184.475001 
L 178.195811 -182.040012 
L 176.436509 -179.186834 
L 174.677206 -176.067337 
L 172.917904 -172.807729 
L 171.158601 -169.41017 
L 169.399299 -165.866071 
L 167.639996 -162.183733 
L 165.880693 -158.350959 
L 164.121391 -154.385146 
L 162.362088 -150.288379 
L 160.602786 -146.078477 
L 158.843483 -141.760431 
L 157.084181 -137.346545 
L 155.324878 -132.86408 
L 153.565576 -128.260625 
L 151.806273 -123.494722 
L 150.04697 -120.159341 
L 148.287668 -115.950051 
L 146.528365 -111.799084 
L 144.769063 -108.771169 
L 143.00976 -105.74761 
L 141.250458 -102.667083 
L 139.491155 -99.619453 
L 137.731853 -96.956482 
L 135.97255 -94.661792 
L 134.213247 -92.525783 
L 132.453945 -90.530678 
L 130.694642 -88.684297 
L 128.93534 -86.955881 
L 127.176037 -85.35817 
L 125.416735 -83.951847 
L 123.657432 -82.786971 
L 121.89813 -81.989559 
L 120.138827 -81.692308 
L 118.379524 -82.03343 
L 116.620222 -83.121412 
L 114.860919 -85.06319 
L 113.101617 -88.058071 
L 111.342314 -92.531787 
L 109.583012 -99.320371 
L 107.823709 -110.995121 
L 106.064407 -119.173579 
L 104.305104 -114.437833 
z
" id="md74ff9c3cb" style="stroke:#984ea3;stroke-opacity:0.25;"/>
    </defs>
    <g clip-path="url(#pa048a2ba59)">
     <use style="fill:#984ea3;fill-opacity:0.25;stroke:#984ea3;stroke-opacity:0.25;" x="0" xlink:href="#md74ff9c3cb" y="436.4"/>
    </g>
   </g>
   <g id="line2d_49">
    <path clip-path="url(#pa048a2ba59)" d="M 124.537083 323.087605 
L 146.528365 324.357786 
L 168.519647 308.858008 
L 190.510929 257.85395 
L 212.502211 203.520998 
L 234.493493 174.269811 
L 256.484775 162.859738 
L 278.476057 159.790964 
L 300.467339 156.948612 
L 322.458621 154.796702 
L 344.449903 154.655497 
L 366.441185 154.634887 
L 388.432467 154.634887 
L 410.423749 154.634887 
L 432.41503 154.634887 
L 454.406312 154.634887 
L 476.397594 154.634887 
L 498.388876 154.634887 
L 520.380158 154.634887 
L 542.37144 154.634887 
" style="fill:none;stroke:#4daf4a;stroke-dasharray:6,10,2,10;stroke-dashoffset:0;stroke-linecap:round;stroke-linejoin:miter;stroke-width:2;"/>
   </g>
   <g id="line2d_50">
    <path clip-path="url(#pa048a2ba59)" d="M 104.305104 341.887376 
L 106.064407 339.145291 
L 107.823709 338.814947 
L 109.583012 347.219594 
L 111.342314 351.95361 
L 113.101617 354.965039 
L 114.860919 356.884366 
L 116.620222 358.075012 
L 118.379524 358.762441 
L 120.138827 359.101008 
L 121.89813 359.201262 
L 123.657432 359.125241 
L 125.416735 358.908326 
L 128.93534 358.138934 
L 132.453945 357.090036 
L 134.213247 356.257421 
L 135.97255 354.939596 
L 137.731853 353.202882 
L 139.491155 350.852398 
L 144.769063 342.431391 
L 148.287668 337.172711 
L 151.806273 332.444949 
L 155.324878 325.415018 
L 160.602786 315.921812 
L 165.880693 306.900653 
L 171.158601 298.258896 
L 176.436509 289.989173 
L 178.195811 287.495675 
L 179.955114 285.428081 
L 181.714416 283.768223 
L 183.473719 282.723608 
L 185.233022 282.272643 
L 188.751627 281.741274 
L 192.270232 281.394752 
L 194.029534 281.123713 
L 195.788837 280.707282 
L 197.548139 280.153422 
L 199.307442 279.402247 
L 204.58535 276.532264 
L 213.381862 271.470599 
L 223.937678 265.387948 
L 229.215585 262.583457 
L 232.734191 260.92892 
L 236.252796 259.480028 
L 239.771401 258.223075 
L 245.049308 256.604559 
L 250.327216 255.289868 
L 255.605124 254.353995 
L 266.160939 252.683269 
L 267.920242 252.127734 
L 269.679544 251.32894 
L 274.957452 249.512382 
L 278.476057 247.86704 
L 285.513267 245.325859 
L 289.031872 243.922244 
L 292.550477 242.462482 
L 294.30978 241.615762 
L 296.069082 240.595969 
L 297.828385 239.405997 
L 299.587688 237.982539 
L 301.34699 236.773117 
L 306.624898 232.553487 
L 310.143503 230.579159 
L 311.902805 229.726964 
L 313.662108 229.229199 
L 315.421411 228.473325 
L 317.180713 227.529719 
L 322.458621 225.534817 
L 325.977226 223.72202 
L 327.736528 222.927391 
L 333.014436 220.241358 
L 338.292344 217.721513 
L 341.810949 216.73118 
L 343.570251 216.489374 
L 345.329554 216.102431 
L 348.848159 215.767068 
L 350.607462 215.598412 
L 354.126067 214.685786 
L 355.885369 214.365881 
L 359.403974 213.503691 
L 361.163277 213.241485 
L 364.681882 212.519521 
L 368.200487 212.211568 
L 371.719092 211.697871 
L 376.997 211.513089 
L 378.756303 211.324732 
L 382.274908 211.388372 
L 387.552815 211.27844 
L 396.349328 211.374314 
L 398.108631 211.475451 
L 401.627236 211.528275 
L 406.905143 211.721579 
L 413.942354 211.760144 
L 419.220261 211.361967 
L 429.776077 209.880458 
L 438.572589 208.72501 
L 450.887707 206.727925 
L 459.68422 205.53483 
L 464.962128 205.290144 
L 477.277246 205.131839 
L 528.29702 204.825822 
L 542.37144 204.79258 
L 542.37144 204.79258 
" style="fill:none;stroke:#984ea3;stroke-dasharray:2,6;stroke-dashoffset:0;stroke-linecap:round;stroke-linejoin:miter;stroke-width:2;"/>
   </g>
   <g id="patch_6">
    <path d="M 82.401787 380.05972 
L 82.401787 13.852984 
" style="fill:none;stroke:#000000;stroke-linecap:square;stroke-linejoin:miter;stroke-width:0.8;"/>
   </g>
   <g id="patch_7">
    <path d="M 82.401787 380.05972 
L 564.274757 380.05972 
" style="fill:none;stroke:#000000;stroke-linecap:square;stroke-linejoin:miter;stroke-width:0.8;"/>
   </g>
   <g id="legend_1">
    <g id="patch_8">
     <path d="M 397.607236 123.905498 
L 558.874757 123.905498 
Q 562.474757 123.905498 562.474757 120.305498 
L 562.474757 19.252984 
Q 562.474757 15.652984 558.874757 15.652984 
L 397.607236 15.652984 
Q 394.007236 15.652984 394.007236 19.252984 
L 394.007236 120.305498 
Q 394.007236 123.905498 397.607236 123.905498 
z
" style="fill:#ffffff;stroke:#cccccc;stroke-linejoin:miter;"/>
    </g>
    <g id="line2d_51">
     <path d="M 401.207236 29.858952 
L 437.207236 29.858952 
" style="fill:none;stroke:#e41a1c;stroke-linecap:square;stroke-width:2;"/>
    </g>
    <g id="line2d_52"/>
    <g id="text_27">
     <!-- PPO / Max -->
     <g transform="translate(451.607236 36.158952)scale(0.18 -0.18)">
      <defs>
       <path d="M 1587 2048 
L 2310 2048 
C 2886 2048 3187 2093 3443 2214 
C 3898 2432 4154 2839 4154 3344 
C 4154 3830 3930 4199 3507 4410 
C 3258 4538 2861 4608 2419 4608 
L 179 4608 
L 179 4308 
L 294 4308 
C 813 4308 870 4276 870 4007 
L 870 3823 
L 870 786 
L 870 600 
C 870 332 813 300 294 300 
L 179 300 
L 179 0 
L 2330 0 
L 2330 300 
L 2163 300 
C 1645 300 1587 332 1587 600 
L 1587 785 
L 1587 2048 
z
M 1587 2349 
L 1587 3982 
C 1587 4276 1626 4308 1978 4308 
L 2387 4308 
C 3053 4308 3366 3995 3366 3319 
C 3366 2662 3040 2349 2362 2349 
L 1587 2349 
z
" id="CenturySchL-Roma-50" transform="scale(0.015625)"/>
       <path d="M 2515 4736 
C 1946 4736 1459 4557 1069 4199 
C 576 3747 288 3057 288 2330 
C 288 970 1242 -64 2490 -64 
C 3744 -64 4691 970 4691 2336 
C 4691 3689 3744 4736 2515 4736 
z
M 2509 4435 
C 2938 4435 3296 4237 3526 3887 
C 3763 3510 3846 3114 3846 2336 
C 3846 1558 3763 1168 3526 785 
C 3296 428 2944 236 2490 236 
C 2035 236 1683 428 1453 785 
C 1210 1174 1133 1558 1133 2349 
C 1133 3114 1216 3504 1453 3887 
C 1690 4257 2029 4435 2509 4435 
z
" id="CenturySchL-Roma-4f" transform="scale(0.015625)"/>
       <path d="M 1562 4736 
L -147 -64 
L 224 -64 
L 1933 4736 
L 1562 4736 
z
" id="CenturySchL-Roma-2f" transform="scale(0.015625)"/>
      </defs>
      <use transform="scale(0.996264)" xlink:href="#CenturySchL-Roma-50"/>
      <use transform="translate(66.450031 0)scale(0.996264)" xlink:href="#CenturySchL-Roma-50"/>
      <use transform="translate(132.900062 0)scale(0.996264)" xlink:href="#CenturySchL-Roma-4f"/>
      <use transform="translate(238.103602 0)scale(0.996264)" xlink:href="#CenturySchL-Roma-2f"/>
      <use transform="translate(293.493941 0)scale(0.996264)" xlink:href="#CenturySchL-Roma-4d"/>
      <use transform="translate(387.54071 0)scale(0.996264)" xlink:href="#CenturySchL-Roma-61"/>
      <use transform="translate(442.932387 0)scale(0.996264)" xlink:href="#CenturySchL-Roma-78"/>
     </g>
    </g>
    <g id="line2d_53">
     <path d="M 401.207236 55.572081 
L 437.207236 55.572081 
" style="fill:none;stroke:#377eb8;stroke-dasharray:12,12;stroke-dashoffset:0;stroke-linecap:round;stroke-linejoin:miter;stroke-width:2;"/>
    </g>
    <g id="line2d_54"/>
    <g id="text_28">
     <!-- TD3 / Max -->
     <g transform="translate(451.607236 61.872081)scale(0.18 -0.18)">
      <defs>
       <path d="M 4051 4608 
L 218 4608 
L 122 2833 
L 397 2833 
C 442 3152 499 3395 570 3599 
C 736 4065 1043 4308 1478 4308 
C 1690 4308 1779 4237 1779 4078 
L 1779 786 
L 1779 600 
C 1779 332 1722 300 1203 300 
L 1037 300 
L 1037 0 
L 3232 0 
L 3232 300 
L 3066 300 
C 2554 300 2496 332 2496 600 
L 2496 786 
L 2496 4078 
C 2496 4237 2586 4308 2797 4308 
C 3187 4308 3501 4090 3661 3707 
C 3757 3472 3821 3197 3872 2833 
L 4147 2833 
L 4051 4608 
z
" id="CenturySchL-Roma-54" transform="scale(0.015625)"/>
       <path d="M 877 786 
L 877 600 
C 877 332 819 300 307 300 
L 186 300 
L 186 0 
L 2336 0 
C 2906 0 3341 89 3680 281 
C 4326 644 4685 1372 4685 2329 
C 4685 3204 4365 3900 3776 4282 
C 3424 4506 2950 4608 2221 4608 
L 186 4608 
L 186 4308 
L 307 4308 
C 819 4308 877 4276 877 4007 
L 877 3823 
L 877 786 
z
M 1958 300 
C 1638 300 1594 339 1594 652 
L 1594 3950 
C 1594 4263 1638 4308 1958 4308 
L 2291 4308 
C 3386 4308 3840 3715 3840 2304 
C 3840 874 3424 300 2394 300 
L 1958 300 
z
" id="CenturySchL-Roma-44" transform="scale(0.015625)"/>
       <path d="M 2214 2391 
C 2304 2423 2317 2423 2362 2442 
C 2810 2628 3066 2987 3066 3441 
C 3066 4108 2554 4544 1760 4544 
C 1011 4544 442 4094 442 3502 
C 442 3235 621 3046 864 3046 
C 1088 3046 1242 3203 1242 3438 
C 1242 3576 1190 3667 1043 3772 
C 979 3817 960 3850 960 3890 
C 960 4073 1338 4269 1696 4269 
C 2157 4269 2400 3976 2400 3422 
C 2400 2815 2157 2496 1696 2496 
C 1638 2496 1536 2496 1440 2496 
C 1389 2496 1338 2496 1299 2496 
C 1165 2496 1094 2440 1094 2330 
C 1094 2226 1165 2177 1293 2177 
C 1312 2177 1363 2177 1446 2177 
C 1690 2177 1696 2177 1747 2177 
C 2221 2177 2477 1845 2477 1225 
C 2477 580 2150 211 1581 211 
C 1178 211 742 425 742 620 
C 742 678 755 689 883 760 
C 1062 866 1133 974 1133 1130 
C 1133 1357 960 1528 723 1528 
C 454 1528 269 1301 269 972 
C 269 359 838 -64 1658 -64 
C 2579 -64 3187 449 3187 1237 
C 3187 1839 2874 2204 2214 2391 
z
" id="CenturySchL-Roma-33" transform="scale(0.015625)"/>
      </defs>
      <use transform="scale(0.996264)" xlink:href="#CenturySchL-Roma-54"/>
      <use transform="translate(66.450031 0)scale(0.996264)" xlink:href="#CenturySchL-Roma-44"/>
      <use transform="translate(143.958401 0)scale(0.996264)" xlink:href="#CenturySchL-Roma-33"/>
      <use transform="translate(227.045248 0)scale(0.996264)" xlink:href="#CenturySchL-Roma-2f"/>
      <use transform="translate(282.435587 0)scale(0.996264)" xlink:href="#CenturySchL-Roma-4d"/>
      <use transform="translate(376.482356 0)scale(0.996264)" xlink:href="#CenturySchL-Roma-61"/>
      <use transform="translate(431.874033 0)scale(0.996264)" xlink:href="#CenturySchL-Roma-78"/>
     </g>
    </g>
    <g id="line2d_55">
     <path d="M 401.207236 81.285209 
L 437.207236 81.285209 
" style="fill:none;stroke:#4daf4a;stroke-dasharray:6,10,2,10;stroke-dashoffset:0;stroke-linecap:round;stroke-linejoin:miter;stroke-width:2;"/>
    </g>
    <g id="line2d_56"/>
    <g id="text_29">
     <!-- PPO / 0.08m -->
     <g transform="translate(451.607236 87.585209)scale(0.18 -0.18)">
      <use transform="scale(0.996264)" xlink:href="#CenturySchL-Roma-50"/>
      <use transform="translate(66.450031 0)scale(0.996264)" xlink:href="#CenturySchL-Roma-50"/>
      <use transform="translate(132.900062 0)scale(0.996264)" xlink:href="#CenturySchL-Roma-4f"/>
      <use transform="translate(238.103602 0)scale(0.996264)" xlink:href="#CenturySchL-Roma-2f"/>
      <use transform="translate(293.493941 0)scale(0.996264)" xlink:href="#CenturySchL-Roma-30"/>
      <use transform="translate(348.885618 0)scale(0.996264)" xlink:href="#CenturySchL-Roma-2e"/>
      <use transform="translate(376.580788 0)scale(0.996264)" xlink:href="#CenturySchL-Roma-30"/>
      <use transform="translate(431.972465 0)scale(0.996264)" xlink:href="#CenturySchL-Roma-38"/>
      <use transform="translate(487.364142 0)scale(0.996264)" xlink:href="#CenturySchL-Roma-6d"/>
     </g>
    </g>
    <g id="line2d_57">
     <path d="M 401.207236 106.998337 
L 437.207236 106.998337 
" style="fill:none;stroke:#984ea3;stroke-dasharray:2,6;stroke-dashoffset:0;stroke-linecap:round;stroke-linejoin:miter;stroke-width:2;"/>
    </g>
    <g id="line2d_58"/>
    <g id="text_30">
     <!-- TD3 / 0.08m -->
     <g transform="translate(451.607236 113.298337)scale(0.18 -0.18)">
      <use transform="scale(0.996264)" xlink:href="#CenturySchL-Roma-54"/>
      <use transform="translate(66.450031 0)scale(0.996264)" xlink:href="#CenturySchL-Roma-44"/>
      <use transform="translate(143.958401 0)scale(0.996264)" xlink:href="#CenturySchL-Roma-33"/>
      <use transform="translate(227.045248 0)scale(0.996264)" xlink:href="#CenturySchL-Roma-2f"/>
      <use transform="translate(282.435587 0)scale(0.996264)" xlink:href="#CenturySchL-Roma-30"/>
      <use transform="translate(337.827264 0)scale(0.996264)" xlink:href="#CenturySchL-Roma-2e"/>
      <use transform="translate(365.522434 0)scale(0.996264)" xlink:href="#CenturySchL-Roma-30"/>
      <use transform="translate(420.914111 0)scale(0.996264)" xlink:href="#CenturySchL-Roma-38"/>
      <use transform="translate(476.305788 0)scale(0.996264)" xlink:href="#CenturySchL-Roma-6d"/>
     </g>
    </g>
   </g>
  </g>
 </g>
 <defs>
  <clipPath id="pa048a2ba59">
   <rect height="366.206736" width="481.87297" x="82.401787" y="13.852984"/>
  </clipPath>
 </defs>
</svg>
