<?xml version="1.0" encoding="utf-8" standalone="no"?>
<!DOCTYPE svg PUBLIC "-//W3C//DTD SVG 1.1//EN"
  "http://www.w3.org/Graphics/SVG/1.1/DTD/svg11.dtd">
<svg height="292.4pt" version="1.1" viewBox="0 0 435.791747 292.4" width="435.791747pt" xmlns="http://www.w3.org/2000/svg" xmlns:xlink="http://www.w3.org/1999/xlink">
 <metadata>
  <rdf:RDF xmlns:cc="http://creativecommons.org/ns#" xmlns:dc="http://purl.org/dc/elements/1.1/" xmlns:rdf="http://www.w3.org/1999/02/22-rdf-syntax-ns#">
   <cc:Work>
    <dc:type rdf:resource="http://purl.org/dc/dcmitype/StillImage"/>
    <dc:date>2022-04-26T15:23:42.881476</dc:date>
    <dc:format>image/svg+xml</dc:format>
    <dc:creator>
     <cc:Agent>
      <dc:title>Matplotlib v3.4.2, https://matplotlib.org/</dc:title>
     </cc:Agent>
    </dc:creator>
   </cc:Work>
  </rdf:RDF>
 </metadata>
 <defs>
  <style type="text/css">*{stroke-linecap:butt;stroke-linejoin:round;}</style>
 </defs>
 <g id="figure_1">
  <g id="patch_1">
   <path d="M 0 292.4 
L 435.791747 292.4 
L 435.791747 0 
L 0 0 
z
" style="fill:none;"/>
  </g>
  <g id="axes_1">
   <g id="patch_2">
    <path d="M 74.177501 236.05972 
L 428.575656 236.05972 
L 428.575656 13.852984 
L 74.177501 13.852984 
z
" style="fill:none;"/>
   </g>
   <g id="PolyCollection_1">
    <path clip-path="url(#p7c8138013e)" d="M 105.166314 188.923487 
L 105.166314 209.153452 
L 121.340016 200.743653 
L 137.513718 191.19603 
L 153.68742 176.606137 
L 169.861121 157.881565 
L 186.034823 145.347195 
L 202.208525 131.781725 
L 218.382227 115.291291 
L 234.555929 104.906267 
L 250.729631 103.207127 
L 266.903332 103.219228 
L 283.077034 103.242746 
L 299.250736 103.249716 
L 315.424438 103.249444 
L 331.59814 103.23733 
L 347.771842 103.237611 
L 363.945544 103.249716 
L 380.119245 103.249716 
L 396.292947 103.335545 
L 412.466649 103.335545 
L 412.466649 92.077761 
L 412.466649 92.077761 
L 396.292947 92.077761 
L 380.119245 92.080418 
L 363.945544 92.080418 
L 347.771842 92.144078 
L 331.59814 92.145569 
L 315.424438 92.0819 
L 299.250736 92.080418 
L 283.077034 92.119221 
L 266.903332 92.280754 
L 250.729631 92.97299 
L 234.555929 93.87162 
L 218.382227 91.142316 
L 202.208525 87.384656 
L 186.034823 90.845752 
L 169.861121 102.560355 
L 153.68742 133.78859 
L 137.513718 171.672714 
L 121.340016 188.151439 
L 105.166314 188.923487 
z
" style="fill:#e41a1c;fill-opacity:0.2;"/>
   </g>
   <g id="PolyCollection_2">
    <path clip-path="url(#p7c8138013e)" d="M 90.286508 154.027548 
L 90.286508 228.855827 
L 91.580405 227.856826 
L 92.874301 214.023721 
L 94.168197 200.56692 
L 95.462093 192.731769 
L 96.755989 187.823684 
L 98.049885 184.731337 
L 99.343781 182.852874 
L 100.637678 181.815011 
L 101.931574 181.356512 
L 103.22547 181.335256 
L 104.519366 181.603388 
L 105.813262 182.093927 
L 107.107158 182.761338 
L 108.401054 183.553332 
L 109.694951 184.443047 
L 110.988847 185.43044 
L 112.282743 186.420611 
L 113.576639 187.222086 
L 114.870535 187.810346 
L 116.164431 188.228801 
L 117.458327 188.557419 
L 118.752224 188.904103 
L 120.04612 189.330359 
L 121.340016 189.839195 
L 122.633912 189.101407 
L 123.927808 189.219936 
L 125.221704 189.379967 
L 126.515601 190.790651 
L 127.809497 191.968494 
L 129.103393 192.982701 
L 130.397289 194.170034 
L 131.691185 195.489849 
L 132.985081 196.902799 
L 134.278977 198.36387 
L 135.572874 199.790422 
L 136.86677 201.08163 
L 138.160666 202.122169 
L 139.454562 202.929682 
L 140.748458 203.754343 
L 142.042354 204.523142 
L 143.33625 204.966629 
L 144.630147 204.901807 
L 145.924043 204.252362 
L 147.217939 203.353167 
L 148.511835 202.128611 
L 149.805731 200.672184 
L 151.099627 199.301469 
L 152.393523 198.091077 
L 153.68742 197.072038 
L 154.981316 196.268251 
L 156.275212 195.695086 
L 157.569108 195.21338 
L 158.863004 194.523233 
L 160.1569 193.452688 
L 161.450796 191.602689 
L 162.744693 189.03688 
L 164.038589 185.983702 
L 165.332485 182.705321 
L 166.626381 179.325999 
L 167.920277 175.66493 
L 169.214173 171.89784 
L 170.50807 168.211943 
L 171.801966 164.842294 
L 173.095862 162.037824 
L 174.389758 159.750849 
L 175.683654 157.868791 
L 176.97755 156.362814 
L 178.271446 155.156786 
L 179.565343 154.114066 
L 180.859239 153.105857 
L 182.153135 152.04519 
L 183.447031 150.837302 
L 184.740927 149.442939 
L 186.034823 147.966879 
L 187.328719 146.655081 
L 188.622616 145.542802 
L 189.916512 144.593296 
L 191.210408 143.697048 
L 192.504304 142.841937 
L 193.7982 142.051454 
L 195.092096 141.338882 
L 196.385992 140.677876 
L 197.679889 140.042135 
L 198.973785 139.424531 
L 200.267681 138.932534 
L 201.561577 138.513771 
L 202.855473 138.169119 
L 204.149369 137.761375 
L 205.443265 137.237558 
L 206.737162 136.65881 
L 208.031058 136.067888 
L 209.324954 135.45182 
L 210.61885 134.8651 
L 211.912746 134.29855 
L 213.206642 133.790001 
L 214.500539 133.370279 
L 215.794435 133.030517 
L 217.088331 132.759878 
L 218.382227 132.548918 
L 219.676123 132.355947 
L 220.970019 132.126387 
L 222.263915 131.842166 
L 223.557812 131.559934 
L 224.851708 131.347447 
L 226.145604 131.144049 
L 227.4395 130.924584 
L 228.733396 130.741828 
L 230.027292 130.599744 
L 231.321188 130.455153 
L 232.615085 130.284261 
L 233.908981 130.12384 
L 235.202877 129.939087 
L 236.496773 129.772983 
L 237.790669 129.622093 
L 239.084565 129.484422 
L 240.378461 129.314081 
L 241.672358 129.117548 
L 242.966254 128.940851 
L 244.26015 128.803256 
L 245.554046 128.676568 
L 246.847942 128.526052 
L 248.141838 128.381333 
L 249.435734 128.248369 
L 250.729631 128.125601 
L 252.023527 127.990027 
L 253.317423 127.852348 
L 254.611319 127.731044 
L 255.905215 127.613318 
L 257.199111 127.447209 
L 258.493008 127.293405 
L 259.786904 127.155117 
L 261.0808 126.990112 
L 262.374696 126.813289 
L 263.668592 126.626553 
L 264.962488 126.447037 
L 266.256384 126.253865 
L 267.550281 126.082086 
L 268.844177 125.913145 
L 270.138073 125.738744 
L 271.431969 125.553697 
L 272.725865 125.377781 
L 274.019761 125.218036 
L 275.313657 125.0174 
L 276.607554 124.793938 
L 277.90145 124.59475 
L 279.195346 124.453765 
L 280.489242 124.318816 
L 281.783138 124.166723 
L 283.077034 123.985241 
L 284.37093 123.770561 
L 285.664827 123.612615 
L 286.958723 123.487677 
L 288.252619 123.348666 
L 289.546515 123.170616 
L 290.840411 122.964176 
L 292.134307 122.788228 
L 293.428203 122.638338 
L 294.7221 122.44182 
L 296.015996 122.26405 
L 297.309892 122.115817 
L 298.603788 121.955442 
L 299.897684 121.748042 
L 301.19158 121.596082 
L 302.485477 121.458713 
L 303.779373 121.288532 
L 305.073269 121.116666 
L 306.367165 120.942317 
L 307.661061 120.788085 
L 308.954957 120.700226 
L 310.248853 120.611133 
L 311.54275 120.479859 
L 312.836646 120.311305 
L 314.130542 120.10942 
L 315.424438 119.970501 
L 316.718334 119.882079 
L 318.01223 119.702303 
L 319.306126 119.495074 
L 320.600023 119.34402 
L 321.893919 119.280701 
L 323.187815 119.209057 
L 324.481711 119.035114 
L 325.775607 118.83166 
L 327.069503 118.705021 
L 328.363399 118.57569 
L 329.657296 118.401221 
L 330.951192 118.30246 
L 332.245088 118.2805 
L 333.538984 118.210006 
L 334.83288 118.083769 
L 336.126776 117.92323 
L 337.420672 117.797598 
L 338.714569 117.734706 
L 340.008465 117.682273 
L 341.302361 117.554818 
L 342.596257 117.356555 
L 343.890153 117.137737 
L 345.184049 116.975636 
L 346.477946 116.850042 
L 347.771842 116.676131 
L 349.065738 116.538579 
L 350.359634 116.443398 
L 351.65353 116.326009 
L 352.947426 116.125501 
L 354.241322 115.910571 
L 355.535219 115.717338 
L 356.829115 115.607388 
L 358.123011 115.54431 
L 359.416907 115.44539 
L 360.710803 115.32593 
L 362.004699 115.215696 
L 363.298595 115.05306 
L 364.592492 114.873186 
L 365.886388 114.682404 
L 367.180284 114.508379 
L 368.47418 114.426236 
L 369.768076 114.298276 
L 371.061972 114.078464 
L 372.355868 113.874689 
L 373.649765 113.7415 
L 374.943661 113.66576 
L 376.237557 113.589826 
L 377.531453 113.446763 
L 378.825349 113.343804 
L 380.119245 113.257809 
L 381.413141 113.101245 
L 382.707038 112.912922 
L 384.000934 112.781671 
L 385.29483 112.694385 
L 386.588726 112.563089 
L 387.882622 112.453904 
L 389.176518 112.380737 
L 390.470415 112.27215 
L 391.764311 112.137842 
L 393.058207 111.982339 
L 394.352103 111.871702 
L 395.645999 111.765075 
L 396.939895 111.614858 
L 398.233791 111.486673 
L 399.527688 111.402511 
L 400.821584 111.276885 
L 402.11548 111.127224 
L 403.409376 111.04982 
L 404.703272 111.009155 
L 405.997168 110.912949 
L 407.291064 110.759925 
L 408.584961 110.574479 
L 409.878857 110.492779 
L 411.172753 110.450455 
L 412.466649 110.408997 
L 412.466649 84.777969 
L 412.466649 84.777969 
L 411.172753 84.806543 
L 409.878857 84.822308 
L 408.584961 84.837344 
L 407.291064 84.815717 
L 405.997168 84.805589 
L 404.703272 84.821366 
L 403.409376 84.848555 
L 402.11548 84.888024 
L 400.821584 84.874902 
L 399.527688 84.867352 
L 398.233791 84.870179 
L 396.939895 84.863349 
L 395.645999 84.875571 
L 394.352103 84.882412 
L 393.058207 84.918735 
L 391.764311 84.898817 
L 390.470415 84.883619 
L 389.176518 84.896106 
L 387.882622 84.955758 
L 386.588726 84.959439 
L 385.29483 84.956906 
L 384.000934 84.974405 
L 382.707038 84.971724 
L 381.413141 84.980121 
L 380.119245 84.985524 
L 378.825349 85.052453 
L 377.531453 85.106667 
L 376.237557 85.112096 
L 374.943661 85.150439 
L 373.649765 85.218877 
L 372.355868 85.237305 
L 371.061972 85.277813 
L 369.768076 85.303348 
L 368.47418 85.322677 
L 367.180284 85.359043 
L 365.886388 85.367733 
L 364.592492 85.343279 
L 363.298595 85.306157 
L 362.004699 85.295218 
L 360.710803 85.28807 
L 359.416907 85.271454 
L 358.123011 85.258898 
L 356.829115 85.253996 
L 355.535219 85.251452 
L 354.241322 85.249375 
L 352.947426 85.228928 
L 351.65353 85.203366 
L 350.359634 85.217433 
L 349.065738 85.209103 
L 347.771842 85.198631 
L 346.477946 85.201662 
L 345.184049 85.202561 
L 343.890153 85.188768 
L 342.596257 85.165114 
L 341.302361 85.117836 
L 340.008465 85.134094 
L 338.714569 85.147093 
L 337.420672 85.153223 
L 336.126776 85.171641 
L 334.83288 85.17816 
L 333.538984 85.232337 
L 332.245088 85.286829 
L 330.951192 85.338975 
L 329.657296 85.360872 
L 328.363399 85.371009 
L 327.069503 85.391588 
L 325.775607 85.421377 
L 324.481711 85.415147 
L 323.187815 85.392204 
L 321.893919 85.413457 
L 320.600023 85.459364 
L 319.306126 85.470358 
L 318.01223 85.445923 
L 316.718334 85.43262 
L 315.424438 85.443026 
L 314.130542 85.395432 
L 312.836646 85.354183 
L 311.54275 85.386902 
L 310.248853 85.360638 
L 308.954957 85.377195 
L 307.661061 85.386394 
L 306.367165 85.370408 
L 305.073269 85.328653 
L 303.779373 85.305639 
L 302.485477 85.282266 
L 301.19158 85.221592 
L 299.897684 85.202531 
L 298.603788 85.186183 
L 297.309892 85.182372 
L 296.015996 85.131733 
L 294.7221 85.131241 
L 293.428203 85.100723 
L 292.134307 85.103806 
L 290.840411 85.093938 
L 289.546515 85.084297 
L 288.252619 85.068431 
L 286.958723 85.074873 
L 285.664827 85.088598 
L 284.37093 85.093846 
L 283.077034 85.075524 
L 281.783138 85.089591 
L 280.489242 85.105823 
L 279.195346 85.100245 
L 277.90145 85.182338 
L 276.607554 85.226622 
L 275.313657 85.26075 
L 274.019761 85.276529 
L 272.725865 85.288628 
L 271.431969 85.314787 
L 270.138073 85.307475 
L 268.844177 85.343389 
L 267.550281 85.374078 
L 266.256384 85.377004 
L 264.962488 85.371317 
L 263.668592 85.396472 
L 262.374696 85.412917 
L 261.0808 85.457664 
L 259.786904 85.499311 
L 258.493008 85.525395 
L 257.199111 85.565594 
L 255.905215 85.578896 
L 254.611319 85.610912 
L 253.317423 85.615388 
L 252.023527 85.653682 
L 250.729631 85.657026 
L 249.435734 85.663719 
L 248.141838 85.692338 
L 246.847942 85.683403 
L 245.554046 85.646186 
L 244.26015 85.626575 
L 242.966254 85.616212 
L 241.672358 85.590587 
L 240.378461 85.622047 
L 239.084565 85.633121 
L 237.790669 85.699296 
L 236.496773 85.688649 
L 235.202877 85.673064 
L 233.908981 85.708006 
L 232.615085 85.768162 
L 231.321188 85.814198 
L 230.027292 85.814058 
L 228.733396 85.869608 
L 227.4395 85.972339 
L 226.145604 86.155499 
L 224.851708 86.317554 
L 223.557812 86.507925 
L 222.263915 86.732301 
L 220.970019 86.986892 
L 219.676123 87.135932 
L 218.382227 87.263945 
L 217.088331 87.331049 
L 215.794435 87.447139 
L 214.500539 87.80187 
L 213.206642 88.256742 
L 211.912746 88.791441 
L 210.61885 89.329176 
L 209.324954 89.798298 
L 208.031058 90.191592 
L 206.737162 90.573228 
L 205.443265 90.949239 
L 204.149369 91.278821 
L 202.855473 91.475945 
L 201.561577 91.693866 
L 200.267681 92.017119 
L 198.973785 92.504734 
L 197.679889 93.079133 
L 196.385992 93.71565 
L 195.092096 94.425538 
L 193.7982 95.186119 
L 192.504304 95.993945 
L 191.210408 96.802742 
L 189.916512 97.597523 
L 188.622616 98.489324 
L 187.328719 99.264457 
L 186.034823 100.054474 
L 184.740927 100.811548 
L 183.447031 101.549744 
L 182.153135 102.196375 
L 180.859239 102.812595 
L 179.565343 103.650263 
L 178.271446 104.759782 
L 176.97755 105.994688 
L 175.683654 107.599502 
L 174.389758 109.534715 
L 173.095862 111.572003 
L 171.801966 113.435836 
L 170.50807 115.071893 
L 169.214173 116.693984 
L 167.920277 118.137297 
L 166.626381 119.393735 
L 165.332485 120.613871 
L 164.038589 121.785348 
L 162.744693 122.904504 
L 161.450796 123.965955 
L 160.1569 125.051201 
L 158.863004 126.67998 
L 157.569108 128.834296 
L 156.275212 131.307372 
L 154.981316 134.172917 
L 153.68742 137.116631 
L 152.393523 140.010701 
L 151.099627 142.801816 
L 149.805731 145.415533 
L 148.511835 147.820972 
L 147.217939 149.877392 
L 145.924043 151.560455 
L 144.630147 152.890307 
L 143.33625 153.837557 
L 142.042354 154.528789 
L 140.748458 155.006866 
L 139.454562 155.271479 
L 138.160666 155.334956 
L 136.86677 155.241868 
L 135.572874 155.230708 
L 134.278977 155.337593 
L 132.985081 155.510477 
L 131.691185 155.55198 
L 130.397289 155.502263 
L 129.103393 155.593335 
L 127.809497 155.986 
L 126.515601 156.599098 
L 125.221704 157.126994 
L 123.927808 159.052472 
L 122.633912 160.059127 
L 121.340016 159.882749 
L 120.04612 159.315638 
L 118.752224 158.422033 
L 117.458327 157.336249 
L 116.164431 156.217567 
L 114.870535 155.336612 
L 113.576639 154.89704 
L 112.282743 155.031061 
L 110.988847 155.751819 
L 109.694951 156.593999 
L 108.401054 157.37735 
L 107.107158 158.148469 
L 105.813262 158.918925 
L 104.519366 159.698695 
L 103.22547 160.488186 
L 101.931574 161.294146 
L 100.637678 162.121613 
L 99.343781 162.952178 
L 98.049885 163.807325 
L 96.755989 164.756433 
L 95.462093 165.942364 
L 94.168197 167.751544 
L 92.874301 170.95322 
L 91.580405 153.847581 
L 90.286508 154.027548 
z
" style="fill:#377eb8;fill-opacity:0.2;"/>
   </g>
   <g id="line2d_1">
    <path clip-path="url(#p7c8138013e)" d="M 105.166314 199.038469 
L 121.340016 194.447546 
L 137.513718 181.434372 
L 153.68742 155.197363 
L 169.861121 130.22096 
L 186.034823 118.096473 
L 202.208525 109.58319 
L 218.382227 103.216803 
L 234.555929 99.388943 
L 250.729631 98.090059 
L 266.903332 97.749991 
L 283.077034 97.680984 
L 299.250736 97.665067 
L 315.424438 97.665672 
L 331.59814 97.69145 
L 347.771842 97.690844 
L 363.945544 97.665067 
L 380.119245 97.665067 
L 396.292947 97.706653 
L 412.466649 97.706653 
" style="fill:none;stroke:#e41a1c;stroke-linecap:square;stroke-width:2;"/>
   </g>
   <g id="line2d_2">
    <path clip-path="url(#p7c8138013e)" d="M 90.286508 191.441688 
L 91.580405 190.852203 
L 92.874301 192.48847 
L 94.168197 184.159232 
L 95.462093 179.337066 
L 96.755989 176.290059 
L 98.049885 174.269331 
L 99.343781 172.902526 
L 100.637678 171.968312 
L 101.931574 171.325329 
L 103.22547 170.911721 
L 104.519366 170.651041 
L 107.107158 170.454903 
L 110.988847 170.591129 
L 112.282743 170.725836 
L 113.576639 171.059563 
L 114.870535 171.573479 
L 117.458327 172.946834 
L 120.04612 174.322999 
L 121.340016 174.860972 
L 122.633912 174.580267 
L 123.927808 174.136204 
L 125.221704 173.253481 
L 126.515601 173.694874 
L 129.103393 174.288018 
L 130.397289 174.836149 
L 136.86677 178.161749 
L 138.160666 178.728562 
L 140.748458 179.380604 
L 142.042354 179.525965 
L 143.33625 179.402093 
L 144.630147 178.896057 
L 145.924043 177.906408 
L 147.217939 176.61528 
L 148.511835 174.974792 
L 156.275212 163.501229 
L 158.863004 160.601606 
L 161.450796 157.784322 
L 162.744693 155.970692 
L 165.332485 151.659596 
L 167.920277 146.901113 
L 171.801966 139.139065 
L 174.389758 134.642782 
L 175.683654 132.734147 
L 176.97755 131.178751 
L 179.565343 128.882165 
L 184.740927 125.127244 
L 187.328719 122.959769 
L 191.210408 120.249895 
L 195.092096 117.88221 
L 197.679889 116.560634 
L 200.267681 115.474826 
L 202.855473 114.822532 
L 204.149369 114.520098 
L 208.031058 113.12974 
L 214.500539 110.586074 
L 215.794435 110.238828 
L 230.027292 108.206901 
L 233.908981 107.915923 
L 241.672358 107.354068 
L 266.256384 105.815435 
L 276.607554 105.01028 
L 281.783138 104.628157 
L 292.134307 103.946017 
L 310.248853 102.985885 
L 318.01223 102.574113 
L 325.775607 102.126518 
L 338.714569 101.440899 
L 342.596257 101.260834 
L 349.065738 100.873841 
L 352.947426 100.677214 
L 356.829115 100.430692 
L 363.298595 100.179608 
L 371.061972 99.678138 
L 374.943661 99.408099 
L 381.413141 99.040683 
L 385.29483 98.825645 
L 411.172753 97.628499 
L 412.466649 97.593483 
L 412.466649 97.593483 
" style="fill:none;stroke:#377eb8;stroke-dasharray:12,12;stroke-dashoffset:0;stroke-linecap:round;stroke-linejoin:miter;stroke-width:2;"/>
   </g>
   <g id="patch_3">
    <path d="M 74.177501 236.05972 
L 74.177501 13.852984 
" style="fill:none;stroke:#000000;stroke-linecap:square;stroke-linejoin:miter;stroke-width:0.8;"/>
   </g>
   <g id="patch_4">
    <path d="M 74.177501 236.05972 
L 428.575656 236.05972 
" style="fill:none;stroke:#000000;stroke-linecap:square;stroke-linejoin:miter;stroke-width:0.8;"/>
   </g>
   <g id="matplotlib.axis_1">
    <g id="xtick_1">
     <g id="line2d_3">
      <path clip-path="url(#p7c8138013e)" d="M 88.669138 236.05972 
L 88.669138 13.852984 
" style="fill:none;stroke:#bfbfbf;stroke-dasharray:0.8,2.4;stroke-dashoffset:0;stroke-linecap:round;stroke-linejoin:miter;stroke-width:0.8;"/>
     </g>
     <g id="line2d_4">
      <defs>
       <path d="M 0 0 
L 0 3.5 
" id="m1529d88949" style="stroke:#000000;stroke-width:0.8;"/>
      </defs>
      <g>
       <use style="stroke:#000000;stroke-width:0.8;" x="88.669138" xlink:href="#m1529d88949" y="236.05972"/>
      </g>
     </g>
     <g id="text_1">
      <!-- $\mathdefault{0}$ -->
      <g transform="translate(84.556995 256.365688)scale(0.18 -0.18)">
       <defs>
        <path d="M 2688 2025 
C 2688 2416 2682 3080 2413 3591 
C 2176 4039 1798 4198 1466 4198 
C 1158 4198 768 4058 525 3597 
C 269 3118 243 2524 243 2025 
C 243 1661 250 1106 448 619 
C 723 -39 1216 -128 1466 -128 
C 1760 -128 2208 -7 2470 600 
C 2662 1042 2688 1559 2688 2025 
z
M 1466 -26 
C 1056 -26 813 325 723 812 
C 653 1188 653 1738 653 2096 
C 653 2588 653 2997 736 3387 
C 858 3929 1216 4096 1466 4096 
C 1728 4096 2067 3923 2189 3400 
C 2272 3036 2278 2607 2278 2096 
C 2278 1680 2278 1169 2202 792 
C 2067 95 1690 -26 1466 -26 
z
" id="CMR17-30" transform="scale(0.015625)"/>
       </defs>
       <use transform="scale(0.996264)" xlink:href="#CMR17-30"/>
      </g>
     </g>
    </g>
    <g id="xtick_2">
     <g id="line2d_5">
      <path clip-path="url(#p7c8138013e)" d="M 153.363946 236.05972 
L 153.363946 13.852984 
" style="fill:none;stroke:#bfbfbf;stroke-dasharray:0.8,2.4;stroke-dashoffset:0;stroke-linecap:round;stroke-linejoin:miter;stroke-width:0.8;"/>
     </g>
     <g id="line2d_6">
      <g>
       <use style="stroke:#000000;stroke-width:0.8;" x="153.363946" xlink:href="#m1529d88949" y="236.05972"/>
      </g>
     </g>
     <g id="text_2">
      <!-- $\mathdefault{200}$ -->
      <g transform="translate(141.027517 256.365688)scale(0.18 -0.18)">
       <defs>
        <path d="M 2669 989 
L 2554 989 
C 2490 536 2438 459 2413 420 
C 2381 369 1920 369 1830 369 
L 602 369 
C 832 619 1280 1072 1824 1597 
C 2214 1967 2669 2402 2669 3035 
C 2669 3790 2067 4224 1395 4224 
C 691 4224 262 3604 262 3030 
C 262 2780 448 2748 525 2748 
C 589 2748 781 2787 781 3010 
C 781 3207 614 3264 525 3264 
C 486 3264 448 3258 422 3245 
C 544 3790 915 4058 1306 4058 
C 1862 4058 2227 3617 2227 3035 
C 2227 2479 1901 2000 1536 1584 
L 262 146 
L 262 0 
L 2515 0 
L 2669 989 
z
" id="CMR17-32" transform="scale(0.015625)"/>
       </defs>
       <use transform="scale(0.996264)" xlink:href="#CMR17-32"/>
       <use transform="translate(45.690477 0)scale(0.996264)" xlink:href="#CMR17-30"/>
       <use transform="translate(91.380954 0)scale(0.996264)" xlink:href="#CMR17-30"/>
      </g>
     </g>
    </g>
    <g id="xtick_3">
     <g id="line2d_7">
      <path clip-path="url(#p7c8138013e)" d="M 218.058753 236.05972 
L 218.058753 13.852984 
" style="fill:none;stroke:#bfbfbf;stroke-dasharray:0.8,2.4;stroke-dashoffset:0;stroke-linecap:round;stroke-linejoin:miter;stroke-width:0.8;"/>
     </g>
     <g id="line2d_8">
      <g>
       <use style="stroke:#000000;stroke-width:0.8;" x="218.058753" xlink:href="#m1529d88949" y="236.05972"/>
      </g>
     </g>
     <g id="text_3">
      <!-- $\mathdefault{400}$ -->
      <g transform="translate(205.722324 256.365688)scale(0.18 -0.18)">
       <defs>
        <path d="M 2150 4122 
C 2150 4256 2144 4256 2029 4256 
L 128 1254 
L 128 1088 
L 1779 1088 
L 1779 457 
C 1779 224 1766 160 1318 160 
L 1197 160 
L 1197 0 
C 1402 0 1747 0 1965 0 
C 2182 0 2528 0 2733 0 
L 2733 160 
L 2611 160 
C 2163 160 2150 224 2150 457 
L 2150 1088 
L 2803 1088 
L 2803 1254 
L 2150 1254 
L 2150 4122 
z
M 1798 3703 
L 1798 1254 
L 256 1254 
L 1798 3703 
z
" id="CMR17-34" transform="scale(0.015625)"/>
       </defs>
       <use transform="scale(0.996264)" xlink:href="#CMR17-34"/>
       <use transform="translate(45.690477 0)scale(0.996264)" xlink:href="#CMR17-30"/>
       <use transform="translate(91.380954 0)scale(0.996264)" xlink:href="#CMR17-30"/>
      </g>
     </g>
    </g>
    <g id="xtick_4">
     <g id="line2d_9">
      <path clip-path="url(#p7c8138013e)" d="M 282.75356 236.05972 
L 282.75356 13.852984 
" style="fill:none;stroke:#bfbfbf;stroke-dasharray:0.8,2.4;stroke-dashoffset:0;stroke-linecap:round;stroke-linejoin:miter;stroke-width:0.8;"/>
     </g>
     <g id="line2d_10">
      <g>
       <use style="stroke:#000000;stroke-width:0.8;" x="282.75356" xlink:href="#m1529d88949" y="236.05972"/>
      </g>
     </g>
     <g id="text_4">
      <!-- $\mathdefault{600}$ -->
      <g transform="translate(270.417131 256.365688)scale(0.18 -0.18)">
       <defs>
        <path d="M 678 2176 
C 678 3690 1395 4032 1811 4032 
C 1946 4032 2272 4009 2400 3776 
C 2298 3776 2106 3776 2106 3553 
C 2106 3381 2246 3323 2336 3323 
C 2394 3323 2566 3348 2566 3560 
C 2566 3954 2246 4179 1805 4179 
C 1043 4179 243 3390 243 1984 
C 243 253 966 -128 1478 -128 
C 2099 -128 2688 427 2688 1283 
C 2688 2081 2170 2662 1517 2662 
C 1126 2662 838 2407 678 1960 
L 678 2176 
z
M 1478 25 
C 691 25 691 1200 691 1436 
C 691 1896 909 2560 1504 2560 
C 1613 2560 1926 2560 2138 2120 
C 2253 1870 2253 1609 2253 1289 
C 2253 944 2253 690 2118 434 
C 1978 171 1773 25 1478 25 
z
" id="CMR17-36" transform="scale(0.015625)"/>
       </defs>
       <use transform="scale(0.996264)" xlink:href="#CMR17-36"/>
       <use transform="translate(45.690477 0)scale(0.996264)" xlink:href="#CMR17-30"/>
       <use transform="translate(91.380954 0)scale(0.996264)" xlink:href="#CMR17-30"/>
      </g>
     </g>
    </g>
    <g id="xtick_5">
     <g id="line2d_11">
      <path clip-path="url(#p7c8138013e)" d="M 347.448368 236.05972 
L 347.448368 13.852984 
" style="fill:none;stroke:#bfbfbf;stroke-dasharray:0.8,2.4;stroke-dashoffset:0;stroke-linecap:round;stroke-linejoin:miter;stroke-width:0.8;"/>
     </g>
     <g id="line2d_12">
      <g>
       <use style="stroke:#000000;stroke-width:0.8;" x="347.448368" xlink:href="#m1529d88949" y="236.05972"/>
      </g>
     </g>
     <g id="text_5">
      <!-- $\mathdefault{800}$ -->
      <g transform="translate(335.111939 256.365688)scale(0.18 -0.18)">
       <defs>
        <path d="M 1741 2264 
C 2144 2467 2554 2773 2554 3263 
C 2554 3841 1990 4179 1472 4179 
C 890 4179 378 3759 378 3180 
C 378 3021 416 2747 666 2505 
C 730 2442 998 2251 1171 2130 
C 883 1983 211 1634 211 934 
C 211 279 838 -128 1459 -128 
C 2144 -128 2720 362 2720 1010 
C 2720 1590 2330 1857 2074 2029 
L 1741 2264 
z
M 902 2822 
C 851 2854 595 3051 595 3351 
C 595 3739 998 4032 1459 4032 
C 1965 4032 2336 3676 2336 3262 
C 2336 2669 1670 2331 1638 2331 
C 1632 2331 1626 2331 1574 2370 
L 902 2822 
z
M 2080 1519 
C 2176 1449 2483 1240 2483 851 
C 2483 381 2010 25 1472 25 
C 890 25 448 438 448 940 
C 448 1443 838 1862 1280 2060 
L 2080 1519 
z
" id="CMR17-38" transform="scale(0.015625)"/>
       </defs>
       <use transform="scale(0.996264)" xlink:href="#CMR17-38"/>
       <use transform="translate(45.690477 0)scale(0.996264)" xlink:href="#CMR17-30"/>
       <use transform="translate(91.380954 0)scale(0.996264)" xlink:href="#CMR17-30"/>
      </g>
     </g>
    </g>
    <g id="xtick_6">
     <g id="line2d_13">
      <path clip-path="url(#p7c8138013e)" d="M 412.143175 236.05972 
L 412.143175 13.852984 
" style="fill:none;stroke:#bfbfbf;stroke-dasharray:0.8,2.4;stroke-dashoffset:0;stroke-linecap:round;stroke-linejoin:miter;stroke-width:0.8;"/>
     </g>
     <g id="line2d_14">
      <g>
       <use style="stroke:#000000;stroke-width:0.8;" x="412.143175" xlink:href="#m1529d88949" y="236.05972"/>
      </g>
     </g>
     <g id="text_6">
      <!-- $\mathdefault{1000}$ -->
      <g transform="translate(395.694603 256.365688)scale(0.18 -0.18)">
       <defs>
        <path d="M 1702 4058 
C 1702 4192 1696 4192 1606 4192 
C 1357 3916 979 3827 621 3827 
C 602 3827 570 3827 563 3808 
C 557 3795 557 3782 557 3648 
C 755 3648 1088 3686 1344 3839 
L 1344 461 
C 1344 236 1331 160 781 160 
L 589 160 
L 589 0 
C 896 0 1216 0 1523 0 
C 1830 0 2150 0 2458 0 
L 2458 160 
L 2266 160 
C 1715 160 1702 230 1702 458 
L 1702 4058 
z
" id="CMR17-31" transform="scale(0.015625)"/>
       </defs>
       <use transform="scale(0.996264)" xlink:href="#CMR17-31"/>
       <use transform="translate(45.690477 0)scale(0.996264)" xlink:href="#CMR17-30"/>
       <use transform="translate(91.380954 0)scale(0.996264)" xlink:href="#CMR17-30"/>
       <use transform="translate(137.071431 0)scale(0.996264)" xlink:href="#CMR17-30"/>
      </g>
     </g>
    </g>
    <g id="text_7">
     <!-- Time Step -->
     <g transform="translate(199.410061 281.0357)scale(0.22 -0.22)">
      <defs>
       <path d="M 4051 4608 
L 218 4608 
L 122 2833 
L 397 2833 
C 442 3152 499 3395 570 3599 
C 736 4065 1043 4308 1478 4308 
C 1690 4308 1779 4237 1779 4078 
L 1779 786 
L 1779 600 
C 1779 332 1722 300 1203 300 
L 1037 300 
L 1037 0 
L 3232 0 
L 3232 300 
L 3066 300 
C 2554 300 2496 332 2496 600 
L 2496 786 
L 2496 4078 
C 2496 4237 2586 4308 2797 4308 
C 3187 4308 3501 4090 3661 3707 
C 3757 3472 3821 3197 3872 2833 
L 4147 2833 
L 4051 4608 
z
" id="CenturySchL-Roma-54" transform="scale(0.015625)"/>
       <path d="M 1318 2944 
L 115 2944 
L 115 2638 
L 442 2638 
C 678 2638 717 2593 717 2317 
L 717 787 
L 717 531 
C 717 275 646 230 237 230 
L 192 230 
L 192 0 
L 1850 0 
L 1850 230 
L 1805 230 
C 1389 230 1318 274 1318 526 
L 1318 779 
L 1318 2944 
z
M 1018 4581 
C 813 4581 646 4415 646 4211 
C 646 4013 813 3840 1011 3840 
C 1222 3840 1389 4006 1389 4211 
C 1389 4415 1222 4581 1018 4581 
z
" id="CenturySchL-Roma-69" transform="scale(0.015625)"/>
       <path d="M 1286 2944 
L 147 2944 
L 147 2638 
L 410 2638 
C 646 2638 685 2593 685 2317 
L 685 787 
L 685 538 
C 685 275 614 230 205 230 
L 179 230 
L 179 0 
L 1792 0 
L 1792 230 
L 1766 230 
C 1357 230 1286 275 1286 537 
L 1286 786 
L 1286 1693 
C 1286 2261 1600 2683 2016 2683 
C 2182 2683 2362 2593 2438 2472 
C 2528 2351 2566 2165 2566 1903 
L 2566 786 
L 2566 530 
C 2566 275 2496 230 2080 230 
L 2054 230 
L 2054 0 
L 3674 0 
L 3674 230 
L 3648 230 
C 3238 230 3168 275 3168 530 
L 3168 786 
L 3168 1635 
C 3168 2274 3456 2683 3904 2683 
C 4115 2683 4288 2561 4371 2363 
C 4429 2223 4448 2082 4448 1833 
L 4448 786 
L 4448 530 
C 4448 275 4378 230 3962 230 
L 3936 230 
L 3936 0 
L 5555 0 
L 5555 230 
L 5530 230 
C 5120 230 5050 275 5050 537 
L 5050 786 
L 5050 1961 
C 5050 2357 5011 2491 4845 2708 
C 4659 2945 4397 3072 4090 3072 
C 3674 3072 3366 2876 3091 2439 
C 2982 2819 2637 3072 2208 3072 
C 1824 3072 1536 2889 1286 2491 
L 1286 2944 
z
" id="CenturySchL-Roma-6d" transform="scale(0.015625)"/>
       <path d="M 2976 1472 
C 2982 2420 2438 3090 1658 3090 
C 838 3090 224 2384 224 1430 
C 224 540 806 -64 1670 -64 
C 2278 -64 2714 236 2976 844 
L 2752 966 
C 2490 473 2221 281 1792 281 
C 1466 281 1229 422 1062 704 
C 947 896 896 1120 902 1472 
L 2976 1472 
z
M 909 1747 
C 909 1942 934 2080 998 2256 
C 1133 2633 1338 2816 1645 2816 
C 2035 2816 2291 2482 2291 1979 
C 2291 1797 2234 1747 2029 1747 
L 909 1747 
z
" id="CenturySchL-Roma-65" transform="scale(0.015625)"/>
       <path d="M 3494 4608 
L 3258 4608 
L 3002 4230 
C 2701 4518 2291 4672 1837 4672 
C 998 4672 435 4135 435 3338 
C 435 2642 781 2297 1722 2055 
L 2330 1901 
C 2803 1781 2848 1768 2982 1666 
C 3174 1519 3277 1308 3277 1059 
C 3277 804 3181 594 2989 422 
C 2778 236 2566 166 2214 166 
C 1741 166 1402 312 1101 642 
C 832 941 698 1240 602 1728 
L 326 1728 
L 352 -92 
L 602 -92 
L 890 350 
C 1318 0 1677 -128 2234 -128 
C 3174 -128 3776 422 3776 1276 
C 3776 1671 3642 2010 3392 2253 
C 3219 2419 2970 2527 2458 2655 
L 1773 2827 
C 1203 2974 934 3223 934 3612 
C 934 4058 1299 4365 1843 4365 
C 2291 4365 2656 4172 2912 3807 
C 3098 3544 3213 3274 3296 2947 
L 3571 2947 
L 3494 4608 
z
" id="CenturySchL-Roma-53" transform="scale(0.015625)"/>
       <path d="M 1242 3008 
L 1242 4288 
L 979 4288 
C 915 3448 634 3020 115 2982 
L 115 2733 
L 640 2733 
L 640 1105 
C 640 658 653 498 717 351 
C 819 83 1075 -64 1446 -64 
C 1696 -64 1914 13 2061 153 
C 2272 358 2394 696 2394 1048 
C 2394 1086 2394 1131 2387 1195 
L 2118 1195 
C 2099 620 1933 326 1619 326 
C 1472 326 1344 402 1299 511 
C 1261 600 1242 760 1242 990 
L 1242 2733 
L 2182 2733 
L 2182 3008 
L 1242 3008 
z
" id="CenturySchL-Roma-74" transform="scale(0.015625)"/>
       <path d="M 1286 2944 
L 179 2944 
L 179 2638 
L 410 2638 
C 646 2638 685 2593 685 2318 
L 685 -496 
L 685 -750 
C 685 -1006 614 -1050 205 -1050 
L 179 -1050 
L 179 -1280 
L 1843 -1280 
L 1843 -1050 
L 1773 -1050 
C 1357 -1050 1286 -1006 1286 -751 
L 1286 -496 
L 1286 428 
C 1498 58 1741 -89 2131 -89 
C 2874 -89 3424 593 3424 1504 
C 3424 2385 2874 3072 2170 3072 
C 1773 3072 1510 2908 1286 2529 
L 1286 2944 
z
M 2054 2727 
C 2496 2727 2752 2288 2752 1542 
C 2752 721 2490 256 2035 256 
C 1581 256 1280 728 1280 1460 
C 1280 2249 1568 2727 2054 2727 
z
" id="CenturySchL-Roma-70" transform="scale(0.015625)"/>
      </defs>
      <use transform="scale(0.996264)" xlink:href="#CenturySchL-Roma-54"/>
      <use transform="translate(66.450031 0)scale(0.996264)" xlink:href="#CenturySchL-Roma-69"/>
      <use transform="translate(97.831344 0)scale(0.996264)" xlink:href="#CenturySchL-Roma-6d"/>
      <use transform="translate(186.398251 0)scale(0.996264)" xlink:href="#CenturySchL-Roma-65"/>
      <use transform="translate(263.906621 0)scale(0.996264)" xlink:href="#CenturySchL-Roma-53"/>
      <use transform="translate(326.6706 0)scale(0.996264)" xlink:href="#CenturySchL-Roma-74"/>
      <use transform="translate(365.424306 0)scale(0.996264)" xlink:href="#CenturySchL-Roma-65"/>
      <use transform="translate(415.237507 0)scale(0.996264)" xlink:href="#CenturySchL-Roma-70"/>
     </g>
    </g>
   </g>
   <g id="matplotlib.axis_2">
    <g id="ytick_1">
     <g id="line2d_15">
      <path clip-path="url(#p7c8138013e)" d="M 74.177501 229.046816 
L 428.575656 229.046816 
" style="fill:none;stroke:#bfbfbf;stroke-dasharray:0.8,2.4;stroke-dashoffset:0;stroke-linecap:round;stroke-linejoin:miter;stroke-width:0.8;"/>
     </g>
     <g id="line2d_16">
      <defs>
       <path d="M 0 0 
L -3.5 0 
" id="mc1674570ee" style="stroke:#000000;stroke-width:0.8;"/>
      </defs>
      <g>
       <use style="stroke:#000000;stroke-width:0.8;" x="74.177501" xlink:href="#mc1674570ee" y="229.046816"/>
      </g>
     </g>
     <g id="text_8">
      <!-- $\mathdefault{0.09}$ -->
      <g transform="translate(37.627152 235.6998)scale(0.18 -0.18)">
       <defs>
        <path d="M 1178 307 
C 1178 492 1024 619 870 619 
C 685 619 557 466 557 313 
C 557 128 710 0 864 0 
C 1050 0 1178 153 1178 307 
z
" id="CMMI12-3a" transform="scale(0.015625)"/>
        <path d="M 2253 1864 
C 2253 464 1670 31 1190 31 
C 1043 31 685 31 538 294 
C 704 268 826 357 826 518 
C 826 692 685 749 595 749 
C 538 749 365 723 365 506 
C 365 71 742 -128 1203 -128 
C 1939 -128 2688 674 2688 2073 
C 2688 3817 1971 4179 1485 4179 
C 851 4179 243 3628 243 2778 
C 243 1991 762 1408 1414 1408 
C 1952 1408 2189 1903 2253 2112 
L 2253 1864 
z
M 1427 1510 
C 1254 1510 1011 1542 813 1922 
C 678 2169 678 2461 678 2771 
C 678 3146 678 3405 858 3684 
C 947 3817 1114 4032 1485 4032 
C 2240 4032 2240 2885 2240 2632 
C 2240 2182 2035 1510 1427 1510 
z
" id="CMR17-39" transform="scale(0.015625)"/>
       </defs>
       <use transform="scale(0.996264)" xlink:href="#CMR17-30"/>
       <use transform="translate(45.690477 0)scale(0.996264)" xlink:href="#CMMI12-3a"/>
       <use transform="translate(72.787654 0)scale(0.996264)" xlink:href="#CMR17-30"/>
       <use transform="translate(118.478131 0)scale(0.996264)" xlink:href="#CMR17-39"/>
      </g>
     </g>
    </g>
    <g id="ytick_2">
     <g id="line2d_17">
      <path clip-path="url(#p7c8138013e)" d="M 74.177501 175.248358 
L 428.575656 175.248358 
" style="fill:none;stroke:#bfbfbf;stroke-dasharray:0.8,2.4;stroke-dashoffset:0;stroke-linecap:round;stroke-linejoin:miter;stroke-width:0.8;"/>
     </g>
     <g id="line2d_18">
      <g>
       <use style="stroke:#000000;stroke-width:0.8;" x="74.177501" xlink:href="#mc1674570ee" y="175.248358"/>
      </g>
     </g>
     <g id="text_9">
      <!-- $\mathdefault{0.10}$ -->
      <g transform="translate(37.627152 181.901342)scale(0.18 -0.18)">
       <use transform="scale(0.996264)" xlink:href="#CMR17-30"/>
       <use transform="translate(45.690477 0)scale(0.996264)" xlink:href="#CMMI12-3a"/>
       <use transform="translate(72.787654 0)scale(0.996264)" xlink:href="#CMR17-31"/>
       <use transform="translate(118.478131 0)scale(0.996264)" xlink:href="#CMR17-30"/>
      </g>
     </g>
    </g>
    <g id="ytick_3">
     <g id="line2d_19">
      <path clip-path="url(#p7c8138013e)" d="M 74.177501 121.4499 
L 428.575656 121.4499 
" style="fill:none;stroke:#bfbfbf;stroke-dasharray:0.8,2.4;stroke-dashoffset:0;stroke-linecap:round;stroke-linejoin:miter;stroke-width:0.8;"/>
     </g>
     <g id="line2d_20">
      <g>
       <use style="stroke:#000000;stroke-width:0.8;" x="74.177501" xlink:href="#mc1674570ee" y="121.4499"/>
      </g>
     </g>
     <g id="text_10">
      <!-- $\mathdefault{0.11}$ -->
      <g transform="translate(37.627152 128.102884)scale(0.18 -0.18)">
       <use transform="scale(0.996264)" xlink:href="#CMR17-30"/>
       <use transform="translate(45.690477 0)scale(0.996264)" xlink:href="#CMMI12-3a"/>
       <use transform="translate(72.787654 0)scale(0.996264)" xlink:href="#CMR17-31"/>
       <use transform="translate(118.478131 0)scale(0.996264)" xlink:href="#CMR17-31"/>
      </g>
     </g>
    </g>
    <g id="ytick_4">
     <g id="line2d_21">
      <path clip-path="url(#p7c8138013e)" d="M 74.177501 67.651442 
L 428.575656 67.651442 
" style="fill:none;stroke:#bfbfbf;stroke-dasharray:0.8,2.4;stroke-dashoffset:0;stroke-linecap:round;stroke-linejoin:miter;stroke-width:0.8;"/>
     </g>
     <g id="line2d_22">
      <g>
       <use style="stroke:#000000;stroke-width:0.8;" x="74.177501" xlink:href="#mc1674570ee" y="67.651442"/>
      </g>
     </g>
     <g id="text_11">
      <!-- $\mathdefault{0.12}$ -->
      <g transform="translate(37.627152 74.304426)scale(0.18 -0.18)">
       <use transform="scale(0.996264)" xlink:href="#CMR17-30"/>
       <use transform="translate(45.690477 0)scale(0.996264)" xlink:href="#CMMI12-3a"/>
       <use transform="translate(72.787654 0)scale(0.996264)" xlink:href="#CMR17-31"/>
       <use transform="translate(118.478131 0)scale(0.996264)" xlink:href="#CMR17-32"/>
      </g>
     </g>
    </g>
    <g id="ytick_5">
     <g id="line2d_23">
      <path clip-path="url(#p7c8138013e)" d="M 74.177501 13.852984 
L 428.575656 13.852984 
" style="fill:none;stroke:#bfbfbf;stroke-dasharray:0.8,2.4;stroke-dashoffset:0;stroke-linecap:round;stroke-linejoin:miter;stroke-width:0.8;"/>
     </g>
     <g id="line2d_24">
      <g>
       <use style="stroke:#000000;stroke-width:0.8;" x="74.177501" xlink:href="#mc1674570ee" y="13.852984"/>
      </g>
     </g>
     <g id="text_12">
      <!-- $\mathdefault{0.13}$ -->
      <g transform="translate(37.627152 20.505968)scale(0.18 -0.18)">
       <defs>
        <path d="M 1414 2157 
C 1984 2157 2234 1662 2234 1090 
C 2234 320 1824 25 1453 25 
C 1114 25 563 194 390 693 
C 422 680 454 680 486 680 
C 640 680 755 782 755 948 
C 755 1133 614 1216 486 1216 
C 378 1216 211 1165 211 926 
C 211 335 787 -128 1466 -128 
C 2176 -128 2720 430 2720 1085 
C 2720 1707 2208 2157 1600 2227 
C 2086 2328 2554 2756 2554 3329 
C 2554 3820 2048 4179 1472 4179 
C 890 4179 378 3829 378 3329 
C 378 3110 544 3072 627 3072 
C 762 3072 877 3155 877 3321 
C 877 3486 762 3569 627 3569 
C 602 3569 570 3569 544 3557 
C 730 3959 1235 4032 1459 4032 
C 1683 4032 2106 3925 2106 3320 
C 2106 3143 2080 2828 1862 2550 
C 1670 2304 1453 2304 1242 2284 
C 1210 2284 1062 2269 1037 2269 
C 992 2263 966 2257 966 2208 
C 966 2163 973 2157 1101 2157 
L 1414 2157 
z
" id="CMR17-33" transform="scale(0.015625)"/>
       </defs>
       <use transform="scale(0.996264)" xlink:href="#CMR17-30"/>
       <use transform="translate(45.690477 0)scale(0.996264)" xlink:href="#CMMI12-3a"/>
       <use transform="translate(72.787654 0)scale(0.996264)" xlink:href="#CMR17-31"/>
       <use transform="translate(118.478131 0)scale(0.996264)" xlink:href="#CMR17-33"/>
      </g>
     </g>
    </g>
    <g id="text_13">
     <!-- Reward -->
     <g transform="translate(23.462852 163.925992)rotate(-90)scale(0.22 -0.22)">
      <defs>
       <path d="M 1574 2240 
L 1946 2240 
C 2195 2240 2451 2163 2592 2047 
C 2778 1900 2874 1669 2918 1246 
L 2950 918 
C 3027 193 3264 -102 3770 -102 
C 4294 -102 4544 251 4563 1019 
L 4294 1019 
C 4269 576 4192 384 4019 384 
C 3872 384 3808 493 3699 936 
L 3597 1340 
C 3456 1931 3206 2200 2707 2329 
C 3629 2457 4070 2825 4070 3468 
C 4070 4194 3456 4608 2381 4608 
L 166 4608 
L 166 4308 
L 282 4308 
C 800 4308 858 4276 858 4007 
L 858 3823 
L 858 779 
L 858 600 
C 858 332 800 300 282 300 
L 166 300 
L 166 0 
L 2266 0 
L 2266 300 
L 2150 300 
C 1632 300 1574 332 1574 601 
L 1574 780 
L 1574 2240 
z
M 1574 2540 
L 1574 3944 
C 1574 4200 1581 4219 1645 4270 
C 1696 4308 1741 4308 2016 4308 
L 2362 4308 
C 2995 4308 3283 4040 3283 3462 
C 3283 3137 3200 2889 3034 2756 
C 2874 2623 2586 2540 2278 2540 
L 1574 2540 
z
" id="CenturySchL-Roma-52" transform="scale(0.015625)"/>
       <path d="M 3501 829 
L 2874 2471 
C 2854 2515 2848 2547 2848 2605 
C 2848 2720 2906 2752 3117 2752 
L 3270 2752 
L 3270 2982 
L 1837 2982 
L 1837 2752 
L 1946 2752 
C 2144 2752 2221 2701 2278 2515 
L 2336 2349 
L 1773 858 
L 1152 2464 
C 1139 2509 1126 2566 1126 2605 
C 1126 2713 1197 2752 1389 2752 
L 1504 2752 
L 1504 2982 
L 96 2982 
L 96 2752 
L 211 2752 
C 390 2752 454 2694 544 2438 
L 1504 -96 
L 1728 -96 
L 2490 1926 
L 3270 -96 
L 3469 -96 
L 4365 2265 
C 4506 2643 4614 2752 4838 2752 
L 4883 2752 
L 4883 2982 
L 3674 2982 
L 3674 2752 
L 3782 2752 
C 4006 2752 4096 2681 4096 2522 
C 4096 2458 4077 2362 4045 2285 
L 3501 829 
z
" id="CenturySchL-Roma-77" transform="scale(0.015625)"/>
       <path d="M 2893 2085 
C 2893 2483 2822 2686 2637 2838 
C 2426 3002 2112 3090 1702 3090 
C 986 3090 454 2755 454 2299 
C 454 2058 602 1906 826 1906 
C 1024 1906 1171 2039 1171 2228 
C 1171 2311 1139 2399 1075 2488 
C 1037 2531 1030 2550 1030 2570 
C 1030 2702 1293 2816 1600 2816 
C 1798 2816 2022 2753 2125 2658 
C 2246 2557 2291 2405 2291 2120 
L 2291 1874 
C 1619 1759 1414 1708 1101 1588 
C 550 1383 282 1084 282 682 
C 282 229 646 -64 1210 -64 
C 1651 -64 2048 119 2323 452 
C 2426 127 2586 0 2886 0 
C 3174 0 3475 185 3475 370 
C 3475 414 3443 446 3411 446 
C 3386 446 3360 440 3315 421 
C 3213 384 3187 377 3136 377 
C 2957 377 2893 498 2893 814 
L 2893 2085 
z
M 2291 1310 
C 2291 926 2272 837 2163 671 
C 2003 434 1709 275 1434 275 
C 1146 275 928 486 928 773 
C 928 1041 1062 1233 1344 1367 
C 1542 1456 1792 1520 2291 1603 
L 2291 1310 
z
" id="CenturySchL-Roma-61" transform="scale(0.015625)"/>
       <path d="M 1267 2944 
L 134 2944 
L 134 2638 
L 397 2638 
C 634 2638 672 2593 672 2317 
L 672 787 
L 672 531 
C 672 275 602 230 186 230 
L 160 230 
L 160 0 
L 1869 0 
L 1869 230 
L 1747 230 
C 1338 230 1267 275 1267 531 
L 1267 787 
L 1267 851 
C 1267 1332 1357 1818 1517 2183 
C 1670 2541 1888 2740 2157 2772 
C 2067 2669 2042 2604 2042 2481 
C 2042 2275 2189 2127 2394 2127 
C 2624 2127 2784 2300 2784 2561 
C 2784 2868 2566 3072 2227 3072 
C 1824 3072 1472 2747 1267 2185 
L 1267 2944 
z
" id="CenturySchL-Roma-72" transform="scale(0.015625)"/>
       <path d="M 2432 0 
L 3546 0 
L 3546 301 
L 3430 301 
C 3085 301 3034 365 3034 766 
L 3034 4722 
L 1779 4722 
L 1779 4416 
L 2157 4416 
C 2387 4416 2432 4370 2432 4091 
L 2432 2624 
C 2195 2950 1920 3097 1549 3097 
C 826 3097 275 2403 275 1485 
C 275 580 806 -64 1549 -64 
C 1952 -64 2227 107 2432 486 
L 2432 0 
z
M 1677 2752 
C 1939 2752 2189 2562 2304 2268 
C 2381 2077 2426 1810 2426 1505 
C 2426 766 2131 281 1670 281 
C 1222 281 947 702 947 1409 
C 947 1785 986 2071 1069 2287 
C 1178 2568 1414 2752 1677 2752 
z
" id="CenturySchL-Roma-64" transform="scale(0.015625)"/>
      </defs>
      <use transform="scale(0.996264)" xlink:href="#CenturySchL-Roma-52"/>
      <use transform="translate(71.929985 0)scale(0.996264)" xlink:href="#CenturySchL-Roma-65"/>
      <use transform="translate(121.743185 0)scale(0.996264)" xlink:href="#CenturySchL-Roma-77"/>
      <use transform="translate(197.458976 0)scale(0.996264)" xlink:href="#CenturySchL-Roma-61"/>
      <use transform="translate(252.850653 0)scale(0.996264)" xlink:href="#CenturySchL-Roma-72"/>
      <use transform="translate(297.084222 0)scale(0.996264)" xlink:href="#CenturySchL-Roma-64"/>
     </g>
    </g>
   </g>
   <g id="legend_1">
    <g id="patch_5">
     <path d="M 327.702148 72.479241 
L 423.175656 72.479241 
Q 426.775656 72.479241 426.775656 68.879241 
L 426.775656 19.252984 
Q 426.775656 15.652984 423.175656 15.652984 
L 327.702148 15.652984 
Q 324.102148 15.652984 324.102148 19.252984 
L 324.102148 68.879241 
Q 324.102148 72.479241 327.702148 72.479241 
z
" style="fill:#ffffff;stroke:#cccccc;stroke-linejoin:miter;"/>
    </g>
    <g id="line2d_25">
     <path d="M 331.302148 29.858952 
L 367.302148 29.858952 
" style="fill:none;stroke:#e41a1c;stroke-linecap:square;stroke-width:2;"/>
    </g>
    <g id="line2d_26"/>
    <g id="text_14">
     <!-- PPO -->
     <g transform="translate(381.702148 36.158952)scale(0.18 -0.18)">
      <defs>
       <path d="M 1587 2048 
L 2310 2048 
C 2886 2048 3187 2093 3443 2214 
C 3898 2432 4154 2839 4154 3344 
C 4154 3830 3930 4199 3507 4410 
C 3258 4538 2861 4608 2419 4608 
L 179 4608 
L 179 4308 
L 294 4308 
C 813 4308 870 4276 870 4007 
L 870 3823 
L 870 786 
L 870 600 
C 870 332 813 300 294 300 
L 179 300 
L 179 0 
L 2330 0 
L 2330 300 
L 2163 300 
C 1645 300 1587 332 1587 600 
L 1587 785 
L 1587 2048 
z
M 1587 2349 
L 1587 3982 
C 1587 4276 1626 4308 1978 4308 
L 2387 4308 
C 3053 4308 3366 3995 3366 3319 
C 3366 2662 3040 2349 2362 2349 
L 1587 2349 
z
" id="CenturySchL-Roma-50" transform="scale(0.015625)"/>
       <path d="M 2515 4736 
C 1946 4736 1459 4557 1069 4199 
C 576 3747 288 3057 288 2330 
C 288 970 1242 -64 2490 -64 
C 3744 -64 4691 970 4691 2336 
C 4691 3689 3744 4736 2515 4736 
z
M 2509 4435 
C 2938 4435 3296 4237 3526 3887 
C 3763 3510 3846 3114 3846 2336 
C 3846 1558 3763 1168 3526 785 
C 3296 428 2944 236 2490 236 
C 2035 236 1683 428 1453 785 
C 1210 1174 1133 1558 1133 2349 
C 1133 3114 1216 3504 1453 3887 
C 1690 4257 2029 4435 2509 4435 
z
" id="CenturySchL-Roma-4f" transform="scale(0.015625)"/>
      </defs>
      <use transform="scale(0.996264)" xlink:href="#CenturySchL-Roma-50"/>
      <use transform="translate(66.450031 0)scale(0.996264)" xlink:href="#CenturySchL-Roma-50"/>
      <use transform="translate(132.900062 0)scale(0.996264)" xlink:href="#CenturySchL-Roma-4f"/>
     </g>
    </g>
    <g id="line2d_27">
     <path d="M 331.302148 55.572081 
L 367.302148 55.572081 
" style="fill:none;stroke:#377eb8;stroke-dasharray:12,12;stroke-dashoffset:0;stroke-linecap:round;stroke-linejoin:miter;stroke-width:2;"/>
    </g>
    <g id="line2d_28"/>
    <g id="text_15">
     <!-- TD3 -->
     <g transform="translate(381.702148 61.872081)scale(0.18 -0.18)">
      <defs>
       <path d="M 877 786 
L 877 600 
C 877 332 819 300 307 300 
L 186 300 
L 186 0 
L 2336 0 
C 2906 0 3341 89 3680 281 
C 4326 644 4685 1372 4685 2329 
C 4685 3204 4365 3900 3776 4282 
C 3424 4506 2950 4608 2221 4608 
L 186 4608 
L 186 4308 
L 307 4308 
C 819 4308 877 4276 877 4007 
L 877 3823 
L 877 786 
z
M 1958 300 
C 1638 300 1594 339 1594 652 
L 1594 3950 
C 1594 4263 1638 4308 1958 4308 
L 2291 4308 
C 3386 4308 3840 3715 3840 2304 
C 3840 874 3424 300 2394 300 
L 1958 300 
z
" id="CenturySchL-Roma-44" transform="scale(0.015625)"/>
       <path d="M 2214 2391 
C 2304 2423 2317 2423 2362 2442 
C 2810 2628 3066 2987 3066 3441 
C 3066 4108 2554 4544 1760 4544 
C 1011 4544 442 4094 442 3502 
C 442 3235 621 3046 864 3046 
C 1088 3046 1242 3203 1242 3438 
C 1242 3576 1190 3667 1043 3772 
C 979 3817 960 3850 960 3890 
C 960 4073 1338 4269 1696 4269 
C 2157 4269 2400 3976 2400 3422 
C 2400 2815 2157 2496 1696 2496 
C 1638 2496 1536 2496 1440 2496 
C 1389 2496 1338 2496 1299 2496 
C 1165 2496 1094 2440 1094 2330 
C 1094 2226 1165 2177 1293 2177 
C 1312 2177 1363 2177 1446 2177 
C 1690 2177 1696 2177 1747 2177 
C 2221 2177 2477 1845 2477 1225 
C 2477 580 2150 211 1581 211 
C 1178 211 742 425 742 620 
C 742 678 755 689 883 760 
C 1062 866 1133 974 1133 1130 
C 1133 1357 960 1528 723 1528 
C 454 1528 269 1301 269 972 
C 269 359 838 -64 1658 -64 
C 2579 -64 3187 449 3187 1237 
C 3187 1839 2874 2204 2214 2391 
z
" id="CenturySchL-Roma-33" transform="scale(0.015625)"/>
      </defs>
      <use transform="scale(0.996264)" xlink:href="#CenturySchL-Roma-54"/>
      <use transform="translate(66.450031 0)scale(0.996264)" xlink:href="#CenturySchL-Roma-44"/>
      <use transform="translate(143.958401 0)scale(0.996264)" xlink:href="#CenturySchL-Roma-33"/>
     </g>
    </g>
   </g>
  </g>
 </g>
 <defs>
  <clipPath id="p7c8138013e">
   <rect height="222.206736" width="354.398155" x="74.177501" y="13.852984"/>
  </clipPath>
 </defs>
</svg>
