<?xml version="1.0" encoding="utf-8" standalone="no"?>
<!DOCTYPE svg PUBLIC "-//W3C//DTD SVG 1.1//EN"
  "http://www.w3.org/Graphics/SVG/1.1/DTD/svg11.dtd">
<svg height="436.4pt" version="1.1" viewBox="0 0 652.4 436.4" width="652.4pt" xmlns="http://www.w3.org/2000/svg" xmlns:xlink="http://www.w3.org/1999/xlink">
 <metadata>
  <rdf:RDF xmlns:cc="http://creativecommons.org/ns#" xmlns:dc="http://purl.org/dc/elements/1.1/" xmlns:rdf="http://www.w3.org/1999/02/22-rdf-syntax-ns#">
   <cc:Work>
    <dc:type rdf:resource="http://purl.org/dc/dcmitype/StillImage"/>
    <dc:date>2022-04-28T09:21:08.273298</dc:date>
    <dc:format>image/svg+xml</dc:format>
    <dc:creator>
     <cc:Agent>
      <dc:title>Matplotlib v3.4.2, https://matplotlib.org/</dc:title>
     </cc:Agent>
    </dc:creator>
   </cc:Work>
  </rdf:RDF>
 </metadata>
 <defs>
  <style type="text/css">*{stroke-linecap:butt;stroke-linejoin:round;}</style>
 </defs>
 <g id="figure_1">
  <g id="patch_1">
   <path d="M 0 436.4 
L 652.4 436.4 
L 652.4 0 
L 0 0 
z
" style="fill:none;"/>
  </g>
  <g id="axes_1">
   <g id="patch_2">
    <path d="M 82.401787 380.05972 
L 645.2 380.05972 
L 645.2 13.852984 
L 82.401787 13.852984 
z
" style="fill:none;"/>
   </g>
   <g id="line2d_1">
    <path clip-path="url(#pec10a0fce1)" d="M 107.983524 355.867429 
L 109.69182 355.692952 
L 111.400117 355.168912 
L 113.108413 354.295307 
L 114.816709 353.072139 
L 116.525006 351.499408 
L 119.08745 348.766352 
L 120.795746 347.331553 
L 122.504043 346.283358 
L 124.212339 345.621769 
L 125.920635 345.346784 
L 127.628932 345.446937 
L 133.607969 346.306041 
L 139.587006 347.39202 
L 145.566043 348.704875 
L 151.54508 350.244607 
L 157.524117 352.011214 
L 163.503154 354.004698 
L 169.482191 356.224759 
L 179.731968 360.124357 
L 183.148561 361.166289 
L 186.565154 362.14117 
L 188.27345 362.966183 
L 189.981746 364.042022 
L 192.544191 366.042261 
L 195.106635 368.259186 
L 195.960783 368.786896 
L 196.814931 369.122572 
L 197.669079 369.26021 
L 198.523228 369.197306 
L 199.377376 368.935091 
L 200.231524 368.478415 
L 201.085672 367.83532 
L 201.93982 367.016342 
L 203.648116 364.900173 
L 207.064709 359.694575 
L 217.314487 343.732131 
L 225.00182 332.185814 
L 232.689153 321.014536 
L 240.376487 310.218299 
L 248.06382 299.797102 
L 255.751153 289.750944 
L 263.438487 280.079827 
L 271.12582 270.783749 
L 278.813153 261.862711 
L 286.500486 253.316714 
L 293.333672 246.03512 
L 300.166857 239.049854 
L 307.000042 232.360916 
L 313.833227 225.968305 
L 320.666412 219.872023 
L 327.499597 214.072068 
L 334.332783 208.568442 
L 341.165968 203.361143 
L 347.999153 198.450172 
L 354.832338 193.835529 
L 361.665523 189.517214 
L 368.498708 185.495227 
L 374.477745 182.219069 
L 380.456782 179.169788 
L 386.435819 176.347383 
L 392.414856 173.751854 
L 398.393893 171.3832 
L 404.372931 169.241423 
L 410.351968 167.326522 
L 416.331005 165.638497 
L 422.310042 164.177348 
L 428.289079 162.943075 
L 434.268116 161.935678 
L 440.247153 161.155157 
L 446.22619 160.601512 
L 452.205227 160.274743 
L 458.184264 160.17485 
L 464.163301 160.301833 
L 470.142338 160.655692 
L 476.121375 161.236428 
L 482.100412 162.044039 
L 488.079449 163.078526 
L 494.058486 164.339889 
L 500.037523 165.828129 
L 506.01656 167.543244 
L 511.995597 169.485236 
L 517.974634 171.654103 
L 523.953671 174.049847 
L 529.932708 176.672466 
L 535.911745 179.521962 
L 541.890782 182.598333 
L 547.869819 185.901581 
L 553.848856 189.431705 
L 560.682041 193.743939 
L 567.515226 198.352501 
L 574.348411 203.257392 
L 581.181597 208.45861 
L 588.014782 213.956156 
L 594.847967 219.75003 
L 601.681152 225.840231 
L 608.514337 232.226761 
L 615.347522 238.909618 
L 619.618263 243.236883 
L 619.618263 243.236883 
" style="fill:none;stroke:#e41a1c;stroke-linecap:square;stroke-width:2;"/>
   </g>
   <g id="line2d_2">
    <path clip-path="url(#pec10a0fce1)" d="M 107.983524 355.867429 
L 109.69182 355.692952 
L 111.400117 355.168912 
L 113.108413 354.295307 
L 114.816709 353.072139 
L 116.525006 351.499408 
L 119.08745 348.766352 
L 120.795746 347.331553 
L 122.504043 346.283358 
L 124.212339 345.621768 
L 125.920635 345.346783 
L 127.628932 345.446937 
L 133.607969 346.30604 
L 139.587006 347.392019 
L 145.566043 348.704874 
L 151.54508 350.244606 
L 157.524117 352.011213 
L 163.503154 354.004696 
L 169.482191 356.224731 
L 179.731968 360.135358 
L 183.148561 361.192302 
L 186.565154 362.189924 
L 188.27345 363.028937 
L 189.981746 364.120186 
L 192.544191 366.145108 
L 195.106635 368.385839 
L 195.960783 368.920494 
L 196.814931 369.262322 
L 197.669079 369.405177 
L 198.523228 369.346465 
L 199.377376 369.087381 
L 200.231524 368.632809 
L 201.085672 367.990882 
L 201.93982 367.172278 
L 203.648116 365.055183 
L 207.064709 359.846498 
L 217.314487 343.875214 
L 225.00182 332.322394 
L 232.689153 321.144613 
L 240.376487 310.341873 
L 248.06382 299.914172 
L 255.751153 289.861512 
L 263.438487 280.183891 
L 271.12582 270.88131 
L 278.813153 261.95377 
L 286.500486 253.401269 
L 293.333672 246.113895 
L 300.166857 239.122848 
L 307.000042 232.42813 
L 313.833227 226.029739 
L 320.666412 219.927676 
L 327.499597 214.121941 
L 334.332783 208.612534 
L 341.165968 203.399455 
L 347.999153 198.482703 
L 354.832338 193.86228 
L 361.665523 189.538184 
L 368.498708 185.510416 
L 374.477745 182.229201 
L 380.456782 179.174862 
L 386.435819 176.347399 
L 392.414856 173.746812 
L 398.393893 171.3731 
L 404.372931 169.226265 
L 410.351968 167.306306 
L 416.331005 165.613223 
L 422.310042 164.147016 
L 428.289079 162.907685 
L 434.268116 161.89523 
L 440.247153 161.109651 
L 446.22619 160.550948 
L 452.205227 160.219122 
L 458.184264 160.114171 
L 464.163301 160.236096 
L 470.142338 160.584897 
L 476.121375 161.160575 
L 482.100412 161.963128 
L 488.079449 162.992557 
L 494.058486 164.248863 
L 500.037523 165.732044 
L 506.01656 167.442102 
L 511.995597 169.379035 
L 517.974634 171.542845 
L 523.953671 173.93353 
L 529.932708 176.551092 
L 535.911745 179.39553 
L 541.890782 182.466843 
L 547.869819 185.765033 
L 553.848856 189.290099 
L 560.682041 193.596553 
L 567.515226 198.199334 
L 574.348411 203.098444 
L 581.181597 208.293882 
L 588.014782 213.785647 
L 594.847967 219.573741 
L 601.681152 225.658162 
L 608.514337 232.038911 
L 615.347522 238.715988 
L 619.618263 243.03964 
L 619.618263 243.03964 
" style="fill:none;stroke:#377eb8;stroke-dasharray:12,12;stroke-dashoffset:0;stroke-linecap:round;stroke-linejoin:miter;stroke-width:2;"/>
   </g>
   <g id="line2d_3">
    <path clip-path="url(#pec10a0fce1)" d="M 107.983524 355.867429 
L 109.69182 355.692952 
L 111.400117 355.168912 
L 113.108413 354.295307 
L 114.816709 353.072139 
L 116.525006 351.499408 
L 119.08745 348.766351 
L 120.795746 347.331552 
L 122.504043 346.283357 
L 124.212339 345.621766 
L 125.920635 345.346781 
L 127.628932 345.446934 
L 133.607969 346.306036 
L 139.587006 347.392015 
L 145.566043 348.704869 
L 151.54508 350.244599 
L 157.524117 352.011206 
L 163.503154 354.004688 
L 169.482191 356.224593 
L 181.440265 360.826169 
L 186.565154 362.556836 
L 188.27345 363.500443 
L 189.981746 364.706987 
L 192.544191 366.916484 
L 195.106635 369.333097 
L 195.960783 369.582148 
L 198.523228 369.56754 
L 199.377376 369.380796 
L 200.231524 369.005917 
L 201.085672 368.449363 
L 201.93982 367.72056 
L 203.648116 365.792147 
L 207.064709 360.978653 
L 218.168635 344.976369 
L 225.855968 334.341706 
L 233.543302 324.082082 
L 241.230635 314.197499 
L 248.917968 304.687955 
L 256.605301 295.553452 
L 264.292635 286.793988 
L 271.12582 279.322647 
L 277.959005 272.147633 
L 284.79219 265.268948 
L 291.625375 258.68659 
L 298.458561 252.40056 
L 305.291746 246.410858 
L 312.124931 240.717484 
L 318.958116 235.320438 
L 325.791301 230.219719 
L 332.624486 225.415329 
L 339.457671 220.907266 
L 346.290857 216.695531 
L 352.269894 213.253345 
L 358.248931 210.038034 
L 364.227968 207.0496 
L 370.207005 204.288042 
L 376.186042 201.753359 
L 382.165079 199.445553 
L 388.144116 197.364623 
L 394.123153 195.510569 
L 400.10219 193.883391 
L 406.081227 192.483088 
L 412.060264 191.309662 
L 418.039301 190.363112 
L 424.018338 189.643438 
L 429.997375 189.15064 
L 435.976412 188.884718 
L 441.955449 188.845672 
L 447.934486 189.033503 
L 453.913523 189.448209 
L 459.89256 190.089791 
L 465.871597 190.958249 
L 471.850634 192.053583 
L 477.829671 193.375794 
L 483.808708 194.92488 
L 489.787745 196.700842 
L 495.766782 198.703681 
L 501.745819 200.933395 
L 507.724856 203.389986 
L 513.703893 206.073452 
L 519.68293 208.983795 
L 525.661967 212.121013 
L 531.641004 215.485108 
L 537.620041 219.076078 
L 544.453226 223.457852 
L 551.286411 228.135954 
L 558.119597 233.110383 
L 564.952782 238.381141 
L 571.785967 243.948226 
L 578.619152 249.81164 
L 585.452337 255.971381 
L 592.285522 262.42745 
L 599.118708 269.179847 
L 605.951893 276.228571 
L 612.785078 283.573624 
L 619.618263 291.215004 
L 619.618263 291.215004 
" style="fill:none;stroke:#4daf4a;stroke-dasharray:6,10,2,10;stroke-dashoffset:0;stroke-linecap:round;stroke-linejoin:miter;stroke-width:2;"/>
   </g>
   <g id="line2d_4">
    <path clip-path="url(#pec10a0fce1)" d="M 107.983524 355.867429 
L 109.69182 355.692952 
L 111.400117 355.168912 
L 113.108413 354.295307 
L 114.816709 353.072139 
L 116.525006 351.499408 
L 119.08745 348.76635 
L 120.795746 347.33155 
L 122.504043 346.283353 
L 124.212339 345.621762 
L 125.920635 345.346775 
L 127.628932 345.446927 
L 133.607969 346.306028 
L 139.587006 347.392004 
L 145.566043 348.704856 
L 151.54508 350.244585 
L 157.524117 352.011189 
L 163.503154 354.004669 
L 169.482191 356.223732 
L 174.607079 358.130015 
L 178.023672 359.152514 
L 180.586117 359.691369 
L 183.148561 359.988749 
L 186.565154 360.179644 
L 188.27345 360.558908 
L 189.981746 361.163733 
L 191.690042 361.968712 
L 195.960783 364.282481 
L 196.814931 364.435299 
L 197.669079 364.416249 
L 198.523228 364.226164 
L 199.377376 363.868242 
L 200.231524 363.347855 
L 201.085672 362.672231 
L 202.793968 360.891053 
L 204.502265 358.621461 
L 213.897894 345.539144 
L 221.585227 335.244186 
L 229.272561 325.324269 
L 236.959894 315.779391 
L 244.647227 306.609553 
L 252.334561 297.814756 
L 259.167746 290.312006 
L 266.000931 283.105584 
L 272.834116 276.19549 
L 279.667301 269.581724 
L 286.500486 263.264286 
L 293.333672 257.243176 
L 300.166857 251.518394 
L 307.000042 246.089939 
L 313.833227 240.957813 
L 320.666412 236.122014 
L 327.499597 231.582543 
L 334.332783 227.339401 
L 340.31182 223.869732 
L 346.290857 220.626939 
L 352.269894 217.611023 
L 358.248931 214.821983 
L 364.227968 212.259818 
L 370.207005 209.92453 
L 376.186042 207.816117 
L 382.165079 205.934581 
L 388.144116 204.279921 
L 394.123153 202.852136 
L 400.10219 201.651228 
L 406.081227 200.677196 
L 412.060264 199.93004 
L 418.039301 199.40976 
L 424.018338 199.116356 
L 429.997375 199.049828 
L 435.976412 199.210176 
L 441.955449 199.5974 
L 447.934486 200.2115 
L 453.913523 201.052476 
L 459.89256 202.120328 
L 465.871597 203.415056 
L 471.850634 204.93666 
L 477.829671 206.68514 
L 483.808708 208.660497 
L 489.787745 210.862729 
L 495.766782 213.291837 
L 501.745819 215.947822 
L 507.724856 218.830682 
L 513.703893 221.940419 
L 519.68293 225.277031 
L 525.661967 228.840519 
L 532.495152 233.190885 
L 539.328337 237.837579 
L 546.161523 242.7806 
L 552.994708 248.019949 
L 559.827893 253.555627 
L 566.661078 259.387632 
L 573.494263 265.515965 
L 580.327448 271.940626 
L 587.160634 278.661614 
L 593.993819 285.678931 
L 600.827004 292.992575 
L 607.660189 300.602548 
L 615.347522 309.517971 
L 619.618263 314.633038 
L 619.618263 314.633038 
" style="fill:none;stroke:#984ea3;stroke-dasharray:2,6;stroke-dashoffset:0;stroke-linecap:round;stroke-linejoin:miter;stroke-width:2;"/>
   </g>
   <g id="patch_3">
    <path d="M 82.401787 380.05972 
L 82.401787 13.852984 
" style="fill:none;stroke:#000000;stroke-linecap:square;stroke-linejoin:miter;stroke-width:0.8;"/>
   </g>
   <g id="patch_4">
    <path d="M 82.401787 380.05972 
L 645.2 380.05972 
" style="fill:none;stroke:#000000;stroke-linecap:square;stroke-linejoin:miter;stroke-width:0.8;"/>
   </g>
   <g id="matplotlib.axis_1">
    <g id="xtick_1">
     <g id="line2d_5">
      <path clip-path="url(#pec10a0fce1)" d="M 107.983524 380.05972 
L 107.983524 13.852984 
" style="fill:none;stroke:#bfbfbf;stroke-dasharray:0.8,2.4;stroke-dashoffset:0;stroke-linecap:round;stroke-linejoin:miter;stroke-width:0.8;"/>
     </g>
     <g id="line2d_6">
      <defs>
       <path d="M 0 0 
L 0 3.5 
" id="m001de4afd8" style="stroke:#000000;stroke-width:0.8;"/>
      </defs>
      <g>
       <use style="stroke:#000000;stroke-width:0.8;" x="107.983524" xlink:href="#m001de4afd8" y="380.05972"/>
      </g>
     </g>
     <g id="text_1">
      <!-- $\mathdefault{0}$ -->
      <g transform="translate(103.871381 400.365688)scale(0.18 -0.18)">
       <defs>
        <path d="M 2688 2025 
C 2688 2416 2682 3080 2413 3591 
C 2176 4039 1798 4198 1466 4198 
C 1158 4198 768 4058 525 3597 
C 269 3118 243 2524 243 2025 
C 243 1661 250 1106 448 619 
C 723 -39 1216 -128 1466 -128 
C 1760 -128 2208 -7 2470 600 
C 2662 1042 2688 1559 2688 2025 
z
M 1466 -26 
C 1056 -26 813 325 723 812 
C 653 1188 653 1738 653 2096 
C 653 2588 653 2997 736 3387 
C 858 3929 1216 4096 1466 4096 
C 1728 4096 2067 3923 2189 3400 
C 2272 3036 2278 2607 2278 2096 
C 2278 1680 2278 1169 2202 792 
C 2067 95 1690 -26 1466 -26 
z
" id="CMR17-30" transform="scale(0.015625)"/>
       </defs>
       <use transform="scale(0.996264)" xlink:href="#CMR17-30"/>
      </g>
     </g>
    </g>
    <g id="xtick_2">
     <g id="line2d_7">
      <path clip-path="url(#pec10a0fce1)" d="M 193.398339 380.05972 
L 193.398339 13.852984 
" style="fill:none;stroke:#bfbfbf;stroke-dasharray:0.8,2.4;stroke-dashoffset:0;stroke-linecap:round;stroke-linejoin:miter;stroke-width:0.8;"/>
     </g>
     <g id="line2d_8">
      <g>
       <use style="stroke:#000000;stroke-width:0.8;" x="193.398339" xlink:href="#m001de4afd8" y="380.05972"/>
      </g>
     </g>
     <g id="text_2">
      <!-- $\mathdefault{100}$ -->
      <g transform="translate(181.06191 400.365688)scale(0.18 -0.18)">
       <defs>
        <path d="M 1702 4058 
C 1702 4192 1696 4192 1606 4192 
C 1357 3916 979 3827 621 3827 
C 602 3827 570 3827 563 3808 
C 557 3795 557 3782 557 3648 
C 755 3648 1088 3686 1344 3839 
L 1344 461 
C 1344 236 1331 160 781 160 
L 589 160 
L 589 0 
C 896 0 1216 0 1523 0 
C 1830 0 2150 0 2458 0 
L 2458 160 
L 2266 160 
C 1715 160 1702 230 1702 458 
L 1702 4058 
z
" id="CMR17-31" transform="scale(0.015625)"/>
       </defs>
       <use transform="scale(0.996264)" xlink:href="#CMR17-31"/>
       <use transform="translate(45.690477 0)scale(0.996264)" xlink:href="#CMR17-30"/>
       <use transform="translate(91.380954 0)scale(0.996264)" xlink:href="#CMR17-30"/>
      </g>
     </g>
    </g>
    <g id="xtick_3">
     <g id="line2d_9">
      <path clip-path="url(#pec10a0fce1)" d="M 278.813153 380.05972 
L 278.813153 13.852984 
" style="fill:none;stroke:#bfbfbf;stroke-dasharray:0.8,2.4;stroke-dashoffset:0;stroke-linecap:round;stroke-linejoin:miter;stroke-width:0.8;"/>
     </g>
     <g id="line2d_10">
      <g>
       <use style="stroke:#000000;stroke-width:0.8;" x="278.813153" xlink:href="#m001de4afd8" y="380.05972"/>
      </g>
     </g>
     <g id="text_3">
      <!-- $\mathdefault{200}$ -->
      <g transform="translate(266.476724 400.365688)scale(0.18 -0.18)">
       <defs>
        <path d="M 2669 989 
L 2554 989 
C 2490 536 2438 459 2413 420 
C 2381 369 1920 369 1830 369 
L 602 369 
C 832 619 1280 1072 1824 1597 
C 2214 1967 2669 2402 2669 3035 
C 2669 3790 2067 4224 1395 4224 
C 691 4224 262 3604 262 3030 
C 262 2780 448 2748 525 2748 
C 589 2748 781 2787 781 3010 
C 781 3207 614 3264 525 3264 
C 486 3264 448 3258 422 3245 
C 544 3790 915 4058 1306 4058 
C 1862 4058 2227 3617 2227 3035 
C 2227 2479 1901 2000 1536 1584 
L 262 146 
L 262 0 
L 2515 0 
L 2669 989 
z
" id="CMR17-32" transform="scale(0.015625)"/>
       </defs>
       <use transform="scale(0.996264)" xlink:href="#CMR17-32"/>
       <use transform="translate(45.690477 0)scale(0.996264)" xlink:href="#CMR17-30"/>
       <use transform="translate(91.380954 0)scale(0.996264)" xlink:href="#CMR17-30"/>
      </g>
     </g>
    </g>
    <g id="xtick_4">
     <g id="line2d_11">
      <path clip-path="url(#pec10a0fce1)" d="M 364.227968 380.05972 
L 364.227968 13.852984 
" style="fill:none;stroke:#bfbfbf;stroke-dasharray:0.8,2.4;stroke-dashoffset:0;stroke-linecap:round;stroke-linejoin:miter;stroke-width:0.8;"/>
     </g>
     <g id="line2d_12">
      <g>
       <use style="stroke:#000000;stroke-width:0.8;" x="364.227968" xlink:href="#m001de4afd8" y="380.05972"/>
      </g>
     </g>
     <g id="text_4">
      <!-- $\mathdefault{300}$ -->
      <g transform="translate(351.891539 400.365688)scale(0.18 -0.18)">
       <defs>
        <path d="M 1414 2157 
C 1984 2157 2234 1662 2234 1090 
C 2234 320 1824 25 1453 25 
C 1114 25 563 194 390 693 
C 422 680 454 680 486 680 
C 640 680 755 782 755 948 
C 755 1133 614 1216 486 1216 
C 378 1216 211 1165 211 926 
C 211 335 787 -128 1466 -128 
C 2176 -128 2720 430 2720 1085 
C 2720 1707 2208 2157 1600 2227 
C 2086 2328 2554 2756 2554 3329 
C 2554 3820 2048 4179 1472 4179 
C 890 4179 378 3829 378 3329 
C 378 3110 544 3072 627 3072 
C 762 3072 877 3155 877 3321 
C 877 3486 762 3569 627 3569 
C 602 3569 570 3569 544 3557 
C 730 3959 1235 4032 1459 4032 
C 1683 4032 2106 3925 2106 3320 
C 2106 3143 2080 2828 1862 2550 
C 1670 2304 1453 2304 1242 2284 
C 1210 2284 1062 2269 1037 2269 
C 992 2263 966 2257 966 2208 
C 966 2163 973 2157 1101 2157 
L 1414 2157 
z
" id="CMR17-33" transform="scale(0.015625)"/>
       </defs>
       <use transform="scale(0.996264)" xlink:href="#CMR17-33"/>
       <use transform="translate(45.690477 0)scale(0.996264)" xlink:href="#CMR17-30"/>
       <use transform="translate(91.380954 0)scale(0.996264)" xlink:href="#CMR17-30"/>
      </g>
     </g>
    </g>
    <g id="xtick_5">
     <g id="line2d_13">
      <path clip-path="url(#pec10a0fce1)" d="M 449.642782 380.05972 
L 449.642782 13.852984 
" style="fill:none;stroke:#bfbfbf;stroke-dasharray:0.8,2.4;stroke-dashoffset:0;stroke-linecap:round;stroke-linejoin:miter;stroke-width:0.8;"/>
     </g>
     <g id="line2d_14">
      <g>
       <use style="stroke:#000000;stroke-width:0.8;" x="449.642782" xlink:href="#m001de4afd8" y="380.05972"/>
      </g>
     </g>
     <g id="text_5">
      <!-- $\mathdefault{400}$ -->
      <g transform="translate(437.306353 400.365688)scale(0.18 -0.18)">
       <defs>
        <path d="M 2150 4122 
C 2150 4256 2144 4256 2029 4256 
L 128 1254 
L 128 1088 
L 1779 1088 
L 1779 457 
C 1779 224 1766 160 1318 160 
L 1197 160 
L 1197 0 
C 1402 0 1747 0 1965 0 
C 2182 0 2528 0 2733 0 
L 2733 160 
L 2611 160 
C 2163 160 2150 224 2150 457 
L 2150 1088 
L 2803 1088 
L 2803 1254 
L 2150 1254 
L 2150 4122 
z
M 1798 3703 
L 1798 1254 
L 256 1254 
L 1798 3703 
z
" id="CMR17-34" transform="scale(0.015625)"/>
       </defs>
       <use transform="scale(0.996264)" xlink:href="#CMR17-34"/>
       <use transform="translate(45.690477 0)scale(0.996264)" xlink:href="#CMR17-30"/>
       <use transform="translate(91.380954 0)scale(0.996264)" xlink:href="#CMR17-30"/>
      </g>
     </g>
    </g>
    <g id="xtick_6">
     <g id="line2d_15">
      <path clip-path="url(#pec10a0fce1)" d="M 535.057597 380.05972 
L 535.057597 13.852984 
" style="fill:none;stroke:#bfbfbf;stroke-dasharray:0.8,2.4;stroke-dashoffset:0;stroke-linecap:round;stroke-linejoin:miter;stroke-width:0.8;"/>
     </g>
     <g id="line2d_16">
      <g>
       <use style="stroke:#000000;stroke-width:0.8;" x="535.057597" xlink:href="#m001de4afd8" y="380.05972"/>
      </g>
     </g>
     <g id="text_6">
      <!-- $\mathdefault{500}$ -->
      <g transform="translate(522.721168 400.365688)scale(0.18 -0.18)">
       <defs>
        <path d="M 730 3692 
C 794 3666 1056 3584 1325 3584 
C 1920 3584 2246 3911 2432 4100 
C 2432 4157 2432 4192 2394 4192 
C 2387 4192 2374 4192 2323 4163 
C 2099 4058 1837 3973 1517 3973 
C 1325 3973 1037 3999 723 4139 
C 653 4171 640 4171 634 4171 
C 602 4171 595 4164 595 4037 
L 595 2203 
C 595 2089 595 2057 659 2057 
C 691 2057 704 2070 736 2114 
C 941 2401 1222 2522 1542 2522 
C 1766 2522 2246 2382 2246 1289 
C 2246 1085 2246 715 2054 421 
C 1894 159 1645 25 1370 25 
C 947 25 518 320 403 814 
C 429 807 480 795 506 795 
C 589 795 749 840 749 1038 
C 749 1210 627 1280 506 1280 
C 358 1280 262 1190 262 1011 
C 262 454 704 -128 1382 -128 
C 2042 -128 2669 440 2669 1264 
C 2669 2030 2170 2624 1549 2624 
C 1222 2624 947 2503 730 2274 
L 730 3692 
z
" id="CMR17-35" transform="scale(0.015625)"/>
       </defs>
       <use transform="scale(0.996264)" xlink:href="#CMR17-35"/>
       <use transform="translate(45.690477 0)scale(0.996264)" xlink:href="#CMR17-30"/>
       <use transform="translate(91.380954 0)scale(0.996264)" xlink:href="#CMR17-30"/>
      </g>
     </g>
    </g>
    <g id="xtick_7">
     <g id="line2d_17">
      <path clip-path="url(#pec10a0fce1)" d="M 620.472411 380.05972 
L 620.472411 13.852984 
" style="fill:none;stroke:#bfbfbf;stroke-dasharray:0.8,2.4;stroke-dashoffset:0;stroke-linecap:round;stroke-linejoin:miter;stroke-width:0.8;"/>
     </g>
     <g id="line2d_18">
      <g>
       <use style="stroke:#000000;stroke-width:0.8;" x="620.472411" xlink:href="#m001de4afd8" y="380.05972"/>
      </g>
     </g>
     <g id="text_7">
      <!-- $\mathdefault{600}$ -->
      <g transform="translate(608.135982 400.365688)scale(0.18 -0.18)">
       <defs>
        <path d="M 678 2176 
C 678 3690 1395 4032 1811 4032 
C 1946 4032 2272 4009 2400 3776 
C 2298 3776 2106 3776 2106 3553 
C 2106 3381 2246 3323 2336 3323 
C 2394 3323 2566 3348 2566 3560 
C 2566 3954 2246 4179 1805 4179 
C 1043 4179 243 3390 243 1984 
C 243 253 966 -128 1478 -128 
C 2099 -128 2688 427 2688 1283 
C 2688 2081 2170 2662 1517 2662 
C 1126 2662 838 2407 678 1960 
L 678 2176 
z
M 1478 25 
C 691 25 691 1200 691 1436 
C 691 1896 909 2560 1504 2560 
C 1613 2560 1926 2560 2138 2120 
C 2253 1870 2253 1609 2253 1289 
C 2253 944 2253 690 2118 434 
C 1978 171 1773 25 1478 25 
z
" id="CMR17-36" transform="scale(0.015625)"/>
       </defs>
       <use transform="scale(0.996264)" xlink:href="#CMR17-36"/>
       <use transform="translate(45.690477 0)scale(0.996264)" xlink:href="#CMR17-30"/>
       <use transform="translate(91.380954 0)scale(0.996264)" xlink:href="#CMR17-30"/>
      </g>
     </g>
    </g>
    <g id="text_8">
     <!-- Time (ms) -->
     <g transform="translate(312.656427 425.0357)scale(0.22 -0.22)">
      <defs>
       <path d="M 4051 4608 
L 218 4608 
L 122 2833 
L 397 2833 
C 442 3152 499 3395 570 3599 
C 736 4065 1043 4308 1478 4308 
C 1690 4308 1779 4237 1779 4078 
L 1779 786 
L 1779 600 
C 1779 332 1722 300 1203 300 
L 1037 300 
L 1037 0 
L 3232 0 
L 3232 300 
L 3066 300 
C 2554 300 2496 332 2496 600 
L 2496 786 
L 2496 4078 
C 2496 4237 2586 4308 2797 4308 
C 3187 4308 3501 4090 3661 3707 
C 3757 3472 3821 3197 3872 2833 
L 4147 2833 
L 4051 4608 
z
" id="CenturySchL-Roma-54" transform="scale(0.015625)"/>
       <path d="M 1318 2944 
L 115 2944 
L 115 2638 
L 442 2638 
C 678 2638 717 2593 717 2317 
L 717 787 
L 717 531 
C 717 275 646 230 237 230 
L 192 230 
L 192 0 
L 1850 0 
L 1850 230 
L 1805 230 
C 1389 230 1318 274 1318 526 
L 1318 779 
L 1318 2944 
z
M 1018 4581 
C 813 4581 646 4415 646 4211 
C 646 4013 813 3840 1011 3840 
C 1222 3840 1389 4006 1389 4211 
C 1389 4415 1222 4581 1018 4581 
z
" id="CenturySchL-Roma-69" transform="scale(0.015625)"/>
       <path d="M 1286 2944 
L 147 2944 
L 147 2638 
L 410 2638 
C 646 2638 685 2593 685 2317 
L 685 787 
L 685 538 
C 685 275 614 230 205 230 
L 179 230 
L 179 0 
L 1792 0 
L 1792 230 
L 1766 230 
C 1357 230 1286 275 1286 537 
L 1286 786 
L 1286 1693 
C 1286 2261 1600 2683 2016 2683 
C 2182 2683 2362 2593 2438 2472 
C 2528 2351 2566 2165 2566 1903 
L 2566 786 
L 2566 530 
C 2566 275 2496 230 2080 230 
L 2054 230 
L 2054 0 
L 3674 0 
L 3674 230 
L 3648 230 
C 3238 230 3168 275 3168 530 
L 3168 786 
L 3168 1635 
C 3168 2274 3456 2683 3904 2683 
C 4115 2683 4288 2561 4371 2363 
C 4429 2223 4448 2082 4448 1833 
L 4448 786 
L 4448 530 
C 4448 275 4378 230 3962 230 
L 3936 230 
L 3936 0 
L 5555 0 
L 5555 230 
L 5530 230 
C 5120 230 5050 275 5050 537 
L 5050 786 
L 5050 1961 
C 5050 2357 5011 2491 4845 2708 
C 4659 2945 4397 3072 4090 3072 
C 3674 3072 3366 2876 3091 2439 
C 2982 2819 2637 3072 2208 3072 
C 1824 3072 1536 2889 1286 2491 
L 1286 2944 
z
" id="CenturySchL-Roma-6d" transform="scale(0.015625)"/>
       <path d="M 2976 1472 
C 2982 2420 2438 3090 1658 3090 
C 838 3090 224 2384 224 1430 
C 224 540 806 -64 1670 -64 
C 2278 -64 2714 236 2976 844 
L 2752 966 
C 2490 473 2221 281 1792 281 
C 1466 281 1229 422 1062 704 
C 947 896 896 1120 902 1472 
L 2976 1472 
z
M 909 1747 
C 909 1942 934 2080 998 2256 
C 1133 2633 1338 2816 1645 2816 
C 2035 2816 2291 2482 2291 1979 
C 2291 1797 2234 1747 2029 1747 
L 909 1747 
z
" id="CenturySchL-Roma-65" transform="scale(0.015625)"/>
       <path d="M 1786 4701 
C 1402 4465 1197 4299 979 4043 
C 493 3468 230 2734 230 1961 
C 230 1233 461 549 890 -19 
C 1133 -326 1350 -517 1786 -786 
L 1786 -549 
C 1146 13 890 735 890 1961 
C 890 3187 1146 3903 1786 4465 
L 1786 4701 
z
" id="CenturySchL-Roma-28" transform="scale(0.015625)"/>
       <path d="M 2496 3072 
L 2272 3072 
L 2086 2842 
C 1856 3021 1626 3097 1306 3097 
C 742 3097 371 2728 371 2173 
C 371 1925 454 1714 595 1588 
C 742 1453 890 1390 1274 1300 
L 1613 1224 
C 2118 1103 2298 975 2298 721 
C 2298 421 2035 211 1658 211 
C 1120 211 736 561 582 1208 
L 326 1208 
L 326 0 
L 550 0 
L 774 250 
C 1037 38 1331 -64 1651 -64 
C 2278 -64 2694 325 2694 918 
C 2694 1198 2605 1414 2426 1561 
C 2272 1695 2144 1746 1754 1828 
L 1434 1899 
C 1082 1975 1082 1975 966 2039 
C 826 2103 742 2236 742 2377 
C 742 2631 986 2816 1338 2816 
C 1581 2816 1779 2733 1958 2561 
C 2099 2420 2170 2293 2272 1999 
L 2496 1999 
L 2496 3072 
z
" id="CenturySchL-Roma-73" transform="scale(0.015625)"/>
       <path d="M 346 -786 
C 730 -549 934 -383 1152 -121 
C 1638 447 1901 1188 1901 1961 
C 1901 2689 1670 3373 1242 3935 
C 998 4248 781 4439 346 4701 
L 346 4465 
C 986 3903 1242 3187 1242 1961 
C 1242 728 986 13 346 -549 
L 346 -786 
z
" id="CenturySchL-Roma-29" transform="scale(0.015625)"/>
      </defs>
      <use transform="scale(0.996264)" xlink:href="#CenturySchL-Roma-54"/>
      <use transform="translate(66.450031 0)scale(0.996264)" xlink:href="#CenturySchL-Roma-69"/>
      <use transform="translate(97.831344 0)scale(0.996264)" xlink:href="#CenturySchL-Roma-6d"/>
      <use transform="translate(186.398251 0)scale(0.996264)" xlink:href="#CenturySchL-Roma-65"/>
      <use transform="translate(263.906621 0)scale(0.996264)" xlink:href="#CenturySchL-Roma-28"/>
      <use transform="translate(297.081851 0)scale(0.996264)" xlink:href="#CenturySchL-Roma-6d"/>
      <use transform="translate(385.648757 0)scale(0.996264)" xlink:href="#CenturySchL-Roma-73"/>
      <use transform="translate(431.774568 0)scale(0.996264)" xlink:href="#CenturySchL-Roma-29"/>
     </g>
    </g>
   </g>
   <g id="matplotlib.axis_2">
    <g id="ytick_1">
     <g id="line2d_19">
      <path clip-path="url(#pec10a0fce1)" d="M 82.401787 355.867429 
L 645.2 355.867429 
" style="fill:none;stroke:#bfbfbf;stroke-dasharray:0.8,2.4;stroke-dashoffset:0;stroke-linecap:round;stroke-linejoin:miter;stroke-width:0.8;"/>
     </g>
     <g id="line2d_20">
      <defs>
       <path d="M 0 0 
L -3.5 0 
" id="me2e2a9155c" style="stroke:#000000;stroke-width:0.8;"/>
      </defs>
      <g>
       <use style="stroke:#000000;stroke-width:0.8;" x="82.401787" xlink:href="#me2e2a9155c" y="355.867429"/>
      </g>
     </g>
     <g id="text_9">
      <!-- $\mathdefault{0.000}$ -->
      <g transform="translate(37.627152 362.520413)scale(0.18 -0.18)">
       <defs>
        <path d="M 1178 307 
C 1178 492 1024 619 870 619 
C 685 619 557 466 557 313 
C 557 128 710 0 864 0 
C 1050 0 1178 153 1178 307 
z
" id="CMMI12-3a" transform="scale(0.015625)"/>
       </defs>
       <use transform="scale(0.996264)" xlink:href="#CMR17-30"/>
       <use transform="translate(45.690477 0)scale(0.996264)" xlink:href="#CMMI12-3a"/>
       <use transform="translate(72.787654 0)scale(0.996264)" xlink:href="#CMR17-30"/>
       <use transform="translate(118.478131 0)scale(0.996264)" xlink:href="#CMR17-30"/>
       <use transform="translate(164.168608 0)scale(0.996264)" xlink:href="#CMR17-30"/>
      </g>
     </g>
    </g>
    <g id="ytick_2">
     <g id="line2d_21">
      <path clip-path="url(#pec10a0fce1)" d="M 82.401787 313.115623 
L 645.2 313.115623 
" style="fill:none;stroke:#bfbfbf;stroke-dasharray:0.8,2.4;stroke-dashoffset:0;stroke-linecap:round;stroke-linejoin:miter;stroke-width:0.8;"/>
     </g>
     <g id="line2d_22">
      <g>
       <use style="stroke:#000000;stroke-width:0.8;" x="82.401787" xlink:href="#me2e2a9155c" y="313.115623"/>
      </g>
     </g>
     <g id="text_10">
      <!-- $\mathdefault{0.025}$ -->
      <g transform="translate(37.627152 319.768607)scale(0.18 -0.18)">
       <use transform="scale(0.996264)" xlink:href="#CMR17-30"/>
       <use transform="translate(45.690477 0)scale(0.996264)" xlink:href="#CMMI12-3a"/>
       <use transform="translate(72.787654 0)scale(0.996264)" xlink:href="#CMR17-30"/>
       <use transform="translate(118.478131 0)scale(0.996264)" xlink:href="#CMR17-32"/>
       <use transform="translate(164.168608 0)scale(0.996264)" xlink:href="#CMR17-35"/>
      </g>
     </g>
    </g>
    <g id="ytick_3">
     <g id="line2d_23">
      <path clip-path="url(#pec10a0fce1)" d="M 82.401787 270.363818 
L 645.2 270.363818 
" style="fill:none;stroke:#bfbfbf;stroke-dasharray:0.8,2.4;stroke-dashoffset:0;stroke-linecap:round;stroke-linejoin:miter;stroke-width:0.8;"/>
     </g>
     <g id="line2d_24">
      <g>
       <use style="stroke:#000000;stroke-width:0.8;" x="82.401787" xlink:href="#me2e2a9155c" y="270.363818"/>
      </g>
     </g>
     <g id="text_11">
      <!-- $\mathdefault{0.050}$ -->
      <g transform="translate(37.627152 277.016802)scale(0.18 -0.18)">
       <use transform="scale(0.996264)" xlink:href="#CMR17-30"/>
       <use transform="translate(45.690477 0)scale(0.996264)" xlink:href="#CMMI12-3a"/>
       <use transform="translate(72.787654 0)scale(0.996264)" xlink:href="#CMR17-30"/>
       <use transform="translate(118.478131 0)scale(0.996264)" xlink:href="#CMR17-35"/>
       <use transform="translate(164.168608 0)scale(0.996264)" xlink:href="#CMR17-30"/>
      </g>
     </g>
    </g>
    <g id="ytick_4">
     <g id="line2d_25">
      <path clip-path="url(#pec10a0fce1)" d="M 82.401787 227.612012 
L 645.2 227.612012 
" style="fill:none;stroke:#bfbfbf;stroke-dasharray:0.8,2.4;stroke-dashoffset:0;stroke-linecap:round;stroke-linejoin:miter;stroke-width:0.8;"/>
     </g>
     <g id="line2d_26">
      <g>
       <use style="stroke:#000000;stroke-width:0.8;" x="82.401787" xlink:href="#me2e2a9155c" y="227.612012"/>
      </g>
     </g>
     <g id="text_12">
      <!-- $\mathdefault{0.075}$ -->
      <g transform="translate(37.627152 234.264996)scale(0.18 -0.18)">
       <defs>
        <path d="M 2886 3941 
L 2886 4081 
L 1382 4081 
C 634 4081 621 4165 595 4288 
L 480 4288 
L 294 3094 
L 410 3094 
C 429 3215 474 3540 550 3661 
C 589 3712 1062 3712 1171 3712 
L 2579 3712 
L 1869 2661 
C 1395 1954 1069 999 1069 165 
C 1069 89 1069 -128 1299 -128 
C 1530 -128 1530 89 1530 171 
L 1530 465 
C 1530 1508 1709 2196 2003 2636 
L 2886 3941 
z
" id="CMR17-37" transform="scale(0.015625)"/>
       </defs>
       <use transform="scale(0.996264)" xlink:href="#CMR17-30"/>
       <use transform="translate(45.690477 0)scale(0.996264)" xlink:href="#CMMI12-3a"/>
       <use transform="translate(72.787654 0)scale(0.996264)" xlink:href="#CMR17-30"/>
       <use transform="translate(118.478131 0)scale(0.996264)" xlink:href="#CMR17-37"/>
       <use transform="translate(164.168608 0)scale(0.996264)" xlink:href="#CMR17-35"/>
      </g>
     </g>
    </g>
    <g id="ytick_5">
     <g id="line2d_27">
      <path clip-path="url(#pec10a0fce1)" d="M 82.401787 184.860207 
L 645.2 184.860207 
" style="fill:none;stroke:#bfbfbf;stroke-dasharray:0.8,2.4;stroke-dashoffset:0;stroke-linecap:round;stroke-linejoin:miter;stroke-width:0.8;"/>
     </g>
     <g id="line2d_28">
      <g>
       <use style="stroke:#000000;stroke-width:0.8;" x="82.401787" xlink:href="#me2e2a9155c" y="184.860207"/>
      </g>
     </g>
     <g id="text_13">
      <!-- $\mathdefault{0.100}$ -->
      <g transform="translate(37.627152 191.513191)scale(0.18 -0.18)">
       <use transform="scale(0.996264)" xlink:href="#CMR17-30"/>
       <use transform="translate(45.690477 0)scale(0.996264)" xlink:href="#CMMI12-3a"/>
       <use transform="translate(72.787654 0)scale(0.996264)" xlink:href="#CMR17-31"/>
       <use transform="translate(118.478131 0)scale(0.996264)" xlink:href="#CMR17-30"/>
       <use transform="translate(164.168608 0)scale(0.996264)" xlink:href="#CMR17-30"/>
      </g>
     </g>
    </g>
    <g id="ytick_6">
     <g id="line2d_29">
      <path clip-path="url(#pec10a0fce1)" d="M 82.401787 142.108401 
L 645.2 142.108401 
" style="fill:none;stroke:#bfbfbf;stroke-dasharray:0.8,2.4;stroke-dashoffset:0;stroke-linecap:round;stroke-linejoin:miter;stroke-width:0.8;"/>
     </g>
     <g id="line2d_30">
      <g>
       <use style="stroke:#000000;stroke-width:0.8;" x="82.401787" xlink:href="#me2e2a9155c" y="142.108401"/>
      </g>
     </g>
     <g id="text_14">
      <!-- $\mathdefault{0.125}$ -->
      <g transform="translate(37.627152 148.761385)scale(0.18 -0.18)">
       <use transform="scale(0.996264)" xlink:href="#CMR17-30"/>
       <use transform="translate(45.690477 0)scale(0.996264)" xlink:href="#CMMI12-3a"/>
       <use transform="translate(72.787654 0)scale(0.996264)" xlink:href="#CMR17-31"/>
       <use transform="translate(118.478131 0)scale(0.996264)" xlink:href="#CMR17-32"/>
       <use transform="translate(164.168608 0)scale(0.996264)" xlink:href="#CMR17-35"/>
      </g>
     </g>
    </g>
    <g id="ytick_7">
     <g id="line2d_31">
      <path clip-path="url(#pec10a0fce1)" d="M 82.401787 99.356595 
L 645.2 99.356595 
" style="fill:none;stroke:#bfbfbf;stroke-dasharray:0.8,2.4;stroke-dashoffset:0;stroke-linecap:round;stroke-linejoin:miter;stroke-width:0.8;"/>
     </g>
     <g id="line2d_32">
      <g>
       <use style="stroke:#000000;stroke-width:0.8;" x="82.401787" xlink:href="#me2e2a9155c" y="99.356595"/>
      </g>
     </g>
     <g id="text_15">
      <!-- $\mathdefault{0.150}$ -->
      <g transform="translate(37.627152 106.009579)scale(0.18 -0.18)">
       <use transform="scale(0.996264)" xlink:href="#CMR17-30"/>
       <use transform="translate(45.690477 0)scale(0.996264)" xlink:href="#CMMI12-3a"/>
       <use transform="translate(72.787654 0)scale(0.996264)" xlink:href="#CMR17-31"/>
       <use transform="translate(118.478131 0)scale(0.996264)" xlink:href="#CMR17-35"/>
       <use transform="translate(164.168608 0)scale(0.996264)" xlink:href="#CMR17-30"/>
      </g>
     </g>
    </g>
    <g id="ytick_8">
     <g id="line2d_33">
      <path clip-path="url(#pec10a0fce1)" d="M 82.401787 56.60479 
L 645.2 56.60479 
" style="fill:none;stroke:#bfbfbf;stroke-dasharray:0.8,2.4;stroke-dashoffset:0;stroke-linecap:round;stroke-linejoin:miter;stroke-width:0.8;"/>
     </g>
     <g id="line2d_34">
      <g>
       <use style="stroke:#000000;stroke-width:0.8;" x="82.401787" xlink:href="#me2e2a9155c" y="56.60479"/>
      </g>
     </g>
     <g id="text_16">
      <!-- $\mathdefault{0.175}$ -->
      <g transform="translate(37.627152 63.257774)scale(0.18 -0.18)">
       <use transform="scale(0.996264)" xlink:href="#CMR17-30"/>
       <use transform="translate(45.690477 0)scale(0.996264)" xlink:href="#CMMI12-3a"/>
       <use transform="translate(72.787654 0)scale(0.996264)" xlink:href="#CMR17-31"/>
       <use transform="translate(118.478131 0)scale(0.996264)" xlink:href="#CMR17-37"/>
       <use transform="translate(164.168608 0)scale(0.996264)" xlink:href="#CMR17-35"/>
      </g>
     </g>
    </g>
    <g id="ytick_9">
     <g id="line2d_35">
      <path clip-path="url(#pec10a0fce1)" d="M 82.401787 13.852984 
L 645.2 13.852984 
" style="fill:none;stroke:#bfbfbf;stroke-dasharray:0.8,2.4;stroke-dashoffset:0;stroke-linecap:round;stroke-linejoin:miter;stroke-width:0.8;"/>
     </g>
     <g id="line2d_36">
      <g>
       <use style="stroke:#000000;stroke-width:0.8;" x="82.401787" xlink:href="#me2e2a9155c" y="13.852984"/>
      </g>
     </g>
     <g id="text_17">
      <!-- $\mathdefault{0.200}$ -->
      <g transform="translate(37.627152 20.505968)scale(0.18 -0.18)">
       <use transform="scale(0.996264)" xlink:href="#CMR17-30"/>
       <use transform="translate(45.690477 0)scale(0.996264)" xlink:href="#CMMI12-3a"/>
       <use transform="translate(72.787654 0)scale(0.996264)" xlink:href="#CMR17-32"/>
       <use transform="translate(118.478131 0)scale(0.996264)" xlink:href="#CMR17-30"/>
       <use transform="translate(164.168608 0)scale(0.996264)" xlink:href="#CMR17-30"/>
      </g>
     </g>
    </g>
    <g id="text_18">
     <!-- Rod Height (m) -->
     <g transform="translate(23.462852 274.676156)rotate(-90)scale(0.22 -0.22)">
      <defs>
       <path d="M 1574 2240 
L 1946 2240 
C 2195 2240 2451 2163 2592 2047 
C 2778 1900 2874 1669 2918 1246 
L 2950 918 
C 3027 193 3264 -102 3770 -102 
C 4294 -102 4544 251 4563 1019 
L 4294 1019 
C 4269 576 4192 384 4019 384 
C 3872 384 3808 493 3699 936 
L 3597 1340 
C 3456 1931 3206 2200 2707 2329 
C 3629 2457 4070 2825 4070 3468 
C 4070 4194 3456 4608 2381 4608 
L 166 4608 
L 166 4308 
L 282 4308 
C 800 4308 858 4276 858 4007 
L 858 3823 
L 858 779 
L 858 600 
C 858 332 800 300 282 300 
L 166 300 
L 166 0 
L 2266 0 
L 2266 300 
L 2150 300 
C 1632 300 1574 332 1574 601 
L 1574 780 
L 1574 2240 
z
M 1574 2540 
L 1574 3944 
C 1574 4200 1581 4219 1645 4270 
C 1696 4308 1741 4308 2016 4308 
L 2362 4308 
C 2995 4308 3283 4040 3283 3462 
C 3283 3137 3200 2889 3034 2756 
C 2874 2623 2586 2540 2278 2540 
L 1574 2540 
z
" id="CenturySchL-Roma-52" transform="scale(0.015625)"/>
       <path d="M 1613 3090 
C 832 3090 218 2397 218 1507 
C 218 636 832 -64 1600 -64 
C 2368 -64 2982 636 2982 1513 
C 2982 2384 2368 3090 1613 3090 
z
M 1613 2816 
C 2061 2816 2310 2352 2310 1513 
C 2310 669 2061 211 1600 211 
C 1139 211 890 669 890 1507 
C 890 2371 1133 2816 1613 2816 
z
" id="CenturySchL-Roma-6f" transform="scale(0.015625)"/>
       <path d="M 2432 0 
L 3546 0 
L 3546 301 
L 3430 301 
C 3085 301 3034 365 3034 766 
L 3034 4722 
L 1779 4722 
L 1779 4416 
L 2157 4416 
C 2387 4416 2432 4370 2432 4091 
L 2432 2624 
C 2195 2950 1920 3097 1549 3097 
C 826 3097 275 2403 275 1485 
C 275 580 806 -64 1549 -64 
C 1952 -64 2227 107 2432 486 
L 2432 0 
z
M 1677 2752 
C 1939 2752 2189 2562 2304 2268 
C 2381 2077 2426 1810 2426 1505 
C 2426 766 2131 281 1670 281 
C 1222 281 947 702 947 1409 
C 947 1785 986 2071 1069 2287 
C 1178 2568 1414 2752 1677 2752 
z
" id="CenturySchL-Roma-64" transform="scale(0.015625)"/>
       <path d="M 3738 2215 
L 3738 786 
L 3738 600 
C 3738 332 3680 300 3162 300 
L 3046 300 
L 3046 0 
L 5146 0 
L 5146 300 
L 5030 300 
C 4512 300 4454 332 4454 600 
L 4454 786 
L 4454 3823 
L 4454 4007 
C 4454 4276 4512 4308 5030 4308 
L 5146 4308 
L 5146 4608 
L 3072 4608 
L 3072 4308 
L 3162 4308 
C 3680 4308 3738 4276 3738 4008 
L 3738 3823 
L 3738 2560 
L 1594 2560 
L 1594 3823 
L 1594 4008 
C 1594 4276 1651 4308 2170 4308 
L 2291 4308 
L 2291 4608 
L 186 4608 
L 186 4308 
L 301 4308 
C 819 4308 877 4276 877 4007 
L 877 3823 
L 877 786 
L 877 600 
C 877 332 819 300 301 300 
L 186 300 
L 186 0 
L 2291 0 
L 2291 300 
L 2170 300 
C 1651 300 1594 332 1594 600 
L 1594 786 
L 1594 2215 
L 3738 2215 
z
" id="CenturySchL-Roma-48" transform="scale(0.015625)"/>
       <path d="M 1254 486 
C 902 486 883 493 806 542 
C 762 570 730 647 730 723 
C 730 933 902 1024 1331 1024 
C 1939 1024 2035 1037 2246 1132 
C 2630 1303 2848 1631 2848 2047 
C 2848 2299 2790 2457 2611 2665 
C 2720 2778 2778 2816 2829 2816 
C 2861 2816 2880 2796 2893 2728 
C 2918 2577 3021 2496 3181 2496 
C 3341 2496 3469 2630 3469 2802 
C 3469 3020 3296 3173 3046 3173 
C 2842 3173 2726 3108 2432 2835 
C 2163 3014 1958 3077 1638 3077 
C 877 3077 378 2664 378 2036 
C 378 1666 582 1346 915 1196 
C 486 1098 307 902 307 542 
C 307 255 435 85 736 -19 
C 339 -159 147 -363 147 -624 
C 147 -1044 640 -1280 1498 -1280 
C 2566 -1280 3104 -942 3104 -272 
C 3104 46 2957 300 2720 396 
C 2554 460 2349 486 1907 486 
L 1254 486 
z
M 1632 2816 
C 2035 2816 2259 2539 2259 2054 
C 2259 1563 2016 1266 1606 1266 
C 1210 1266 960 1563 960 2035 
C 960 2532 1203 2816 1632 2816 
z
M 1574 -64 
C 2106 -64 2144 -64 2240 -76 
C 2496 -102 2656 -242 2656 -445 
C 2656 -808 2240 -1018 1523 -1018 
C 986 -1018 678 -859 678 -573 
C 678 -363 794 -222 1101 -64 
L 1574 -64 
z
" id="CenturySchL-Roma-67" transform="scale(0.015625)"/>
       <path d="M 1280 4672 
L 96 4672 
L 96 4366 
L 403 4366 
C 640 4366 678 4321 678 4046 
L 678 786 
L 678 530 
C 678 275 608 230 198 230 
L 173 230 
L 173 0 
L 1792 0 
L 1792 230 
L 1766 230 
C 1350 230 1280 275 1280 530 
L 1280 786 
L 1280 1444 
C 1280 1763 1325 2050 1395 2197 
C 1530 2485 1818 2683 2093 2683 
C 2259 2683 2451 2587 2547 2459 
C 2643 2319 2688 2127 2688 1814 
L 2688 786 
L 2688 530 
C 2688 275 2618 230 2202 230 
L 2176 230 
L 2176 0 
L 3795 0 
L 3795 230 
L 3770 230 
C 3360 230 3290 275 3290 530 
L 3290 786 
L 3290 1789 
C 3290 2248 3270 2363 3155 2581 
C 2995 2887 2675 3072 2291 3072 
C 1882 3072 1568 2881 1280 2453 
L 1280 4672 
z
" id="CenturySchL-Roma-68" transform="scale(0.015625)"/>
       <path d="M 1242 3008 
L 1242 4288 
L 979 4288 
C 915 3448 634 3020 115 2982 
L 115 2733 
L 640 2733 
L 640 1105 
C 640 658 653 498 717 351 
C 819 83 1075 -64 1446 -64 
C 1696 -64 1914 13 2061 153 
C 2272 358 2394 696 2394 1048 
C 2394 1086 2394 1131 2387 1195 
L 2118 1195 
C 2099 620 1933 326 1619 326 
C 1472 326 1344 402 1299 511 
C 1261 600 1242 760 1242 990 
L 1242 2733 
L 2182 2733 
L 2182 3008 
L 1242 3008 
z
" id="CenturySchL-Roma-74" transform="scale(0.015625)"/>
      </defs>
      <use transform="scale(0.996264)" xlink:href="#CenturySchL-Roma-52"/>
      <use transform="translate(71.929985 0)scale(0.996264)" xlink:href="#CenturySchL-Roma-6f"/>
      <use transform="translate(121.743185 0)scale(0.996264)" xlink:href="#CenturySchL-Roma-64"/>
      <use transform="translate(206.623842 0)scale(0.996264)" xlink:href="#CenturySchL-Roma-48"/>
      <use transform="translate(289.612272 0)scale(0.996264)" xlink:href="#CenturySchL-Roma-65"/>
      <use transform="translate(339.425473 0)scale(0.996264)" xlink:href="#CenturySchL-Roma-69"/>
      <use transform="translate(370.806786 0)scale(0.996264)" xlink:href="#CenturySchL-Roma-67"/>
      <use transform="translate(424.30613 0)scale(0.996264)" xlink:href="#CenturySchL-Roma-68"/>
      <use transform="translate(485.177761 0)scale(0.996264)" xlink:href="#CenturySchL-Roma-74"/>
      <use transform="translate(551.626636 0)scale(0.996264)" xlink:href="#CenturySchL-Roma-28"/>
      <use transform="translate(584.801866 0)scale(0.996264)" xlink:href="#CenturySchL-Roma-6d"/>
      <use transform="translate(673.368773 0)scale(0.996264)" xlink:href="#CenturySchL-Roma-29"/>
     </g>
    </g>
   </g>
   <g id="legend_1">
    <g id="patch_5">
     <path d="M 478.532479 123.905498 
L 639.8 123.905498 
Q 643.4 123.905498 643.4 120.305498 
L 643.4 19.252984 
Q 643.4 15.652984 639.8 15.652984 
L 478.532479 15.652984 
Q 474.932479 15.652984 474.932479 19.252984 
L 474.932479 120.305498 
Q 474.932479 123.905498 478.532479 123.905498 
z
" style="fill:#ffffff;stroke:#cccccc;stroke-linejoin:miter;"/>
    </g>
    <g id="line2d_37">
     <path d="M 482.132479 29.858952 
L 518.132479 29.858952 
" style="fill:none;stroke:#e41a1c;stroke-linecap:square;stroke-width:2;"/>
    </g>
    <g id="line2d_38"/>
    <g id="text_19">
     <!-- PPO / Max -->
     <g transform="translate(532.532479 36.158952)scale(0.18 -0.18)">
      <defs>
       <path d="M 1587 2048 
L 2310 2048 
C 2886 2048 3187 2093 3443 2214 
C 3898 2432 4154 2839 4154 3344 
C 4154 3830 3930 4199 3507 4410 
C 3258 4538 2861 4608 2419 4608 
L 179 4608 
L 179 4308 
L 294 4308 
C 813 4308 870 4276 870 4007 
L 870 3823 
L 870 786 
L 870 600 
C 870 332 813 300 294 300 
L 179 300 
L 179 0 
L 2330 0 
L 2330 300 
L 2163 300 
C 1645 300 1587 332 1587 600 
L 1587 785 
L 1587 2048 
z
M 1587 2349 
L 1587 3982 
C 1587 4276 1626 4308 1978 4308 
L 2387 4308 
C 3053 4308 3366 3995 3366 3319 
C 3366 2662 3040 2349 2362 2349 
L 1587 2349 
z
" id="CenturySchL-Roma-50" transform="scale(0.015625)"/>
       <path d="M 2515 4736 
C 1946 4736 1459 4557 1069 4199 
C 576 3747 288 3057 288 2330 
C 288 970 1242 -64 2490 -64 
C 3744 -64 4691 970 4691 2336 
C 4691 3689 3744 4736 2515 4736 
z
M 2509 4435 
C 2938 4435 3296 4237 3526 3887 
C 3763 3510 3846 3114 3846 2336 
C 3846 1558 3763 1168 3526 785 
C 3296 428 2944 236 2490 236 
C 2035 236 1683 428 1453 785 
C 1210 1174 1133 1558 1133 2349 
C 1133 3114 1216 3504 1453 3887 
C 1690 4257 2029 4435 2509 4435 
z
" id="CenturySchL-Roma-4f" transform="scale(0.015625)"/>
       <path d="M 1562 4736 
L -147 -64 
L 224 -64 
L 1933 4736 
L 1562 4736 
z
" id="CenturySchL-Roma-2f" transform="scale(0.015625)"/>
       <path d="M 1837 4608 
L 186 4608 
L 186 4308 
L 307 4308 
C 826 4308 883 4276 883 4006 
L 883 3821 
L 883 1369 
C 883 498 755 313 141 313 
L 141 0 
L 1965 0 
L 1965 313 
C 1357 313 1229 498 1229 1370 
L 1229 4200 
L 2752 0 
L 3008 0 
L 4435 4200 
L 4435 797 
L 4435 612 
C 4435 339 4378 313 3859 313 
L 3744 313 
L 3744 0 
L 5843 0 
L 5843 313 
L 5728 313 
C 5210 313 5152 339 5152 612 
L 5152 797 
L 5152 3824 
L 5152 4008 
C 5152 4276 5210 4308 5728 4308 
L 5843 4308 
L 5843 4608 
L 4237 4608 
L 3066 1206 
L 1837 4608 
z
" id="CenturySchL-Roma-4d" transform="scale(0.015625)"/>
       <path d="M 2893 2085 
C 2893 2483 2822 2686 2637 2838 
C 2426 3002 2112 3090 1702 3090 
C 986 3090 454 2755 454 2299 
C 454 2058 602 1906 826 1906 
C 1024 1906 1171 2039 1171 2228 
C 1171 2311 1139 2399 1075 2488 
C 1037 2531 1030 2550 1030 2570 
C 1030 2702 1293 2816 1600 2816 
C 1798 2816 2022 2753 2125 2658 
C 2246 2557 2291 2405 2291 2120 
L 2291 1874 
C 1619 1759 1414 1708 1101 1588 
C 550 1383 282 1084 282 682 
C 282 229 646 -64 1210 -64 
C 1651 -64 2048 119 2323 452 
C 2426 127 2586 0 2886 0 
C 3174 0 3475 185 3475 370 
C 3475 414 3443 446 3411 446 
C 3386 446 3360 440 3315 421 
C 3213 384 3187 377 3136 377 
C 2957 377 2893 498 2893 814 
L 2893 2085 
z
M 2291 1310 
C 2291 926 2272 837 2163 671 
C 2003 434 1709 275 1434 275 
C 1146 275 928 486 928 773 
C 928 1041 1062 1233 1344 1367 
C 1542 1456 1792 1520 2291 1603 
L 2291 1310 
z
" id="CenturySchL-Roma-61" transform="scale(0.015625)"/>
       <path d="M 1978 1632 
L 2707 2482 
C 2861 2662 3021 2752 3187 2752 
L 3245 2752 
L 3245 2982 
L 1920 2982 
L 1920 2752 
L 2042 2752 
C 2234 2752 2330 2701 2330 2611 
C 2330 2547 2285 2451 2202 2349 
L 1798 1869 
L 1306 2496 
C 1267 2541 1242 2598 1242 2637 
C 1242 2720 1325 2752 1523 2752 
L 1613 2752 
L 1613 2982 
L 96 2982 
L 96 2752 
C 333 2732 416 2675 627 2406 
L 1408 1421 
L 672 563 
C 493 351 282 230 96 230 
L 58 230 
L 58 0 
L 1408 0 
L 1408 230 
L 1312 230 
C 1165 230 1133 236 1088 256 
C 1037 281 998 346 998 403 
C 998 448 1018 506 1050 538 
L 1587 1184 
L 2074 538 
C 2118 474 2157 390 2157 345 
C 2157 262 2061 230 1818 230 
L 1773 230 
L 1773 0 
L 3386 0 
L 3386 230 
L 3341 230 
C 3117 230 2950 319 2784 544 
L 1978 1632 
z
" id="CenturySchL-Roma-78" transform="scale(0.015625)"/>
      </defs>
      <use transform="scale(0.996264)" xlink:href="#CenturySchL-Roma-50"/>
      <use transform="translate(66.450031 0)scale(0.996264)" xlink:href="#CenturySchL-Roma-50"/>
      <use transform="translate(132.900062 0)scale(0.996264)" xlink:href="#CenturySchL-Roma-4f"/>
      <use transform="translate(238.103602 0)scale(0.996264)" xlink:href="#CenturySchL-Roma-2f"/>
      <use transform="translate(293.493941 0)scale(0.996264)" xlink:href="#CenturySchL-Roma-4d"/>
      <use transform="translate(387.54071 0)scale(0.996264)" xlink:href="#CenturySchL-Roma-61"/>
      <use transform="translate(442.932387 0)scale(0.996264)" xlink:href="#CenturySchL-Roma-78"/>
     </g>
    </g>
    <g id="line2d_39">
     <path d="M 482.132479 55.572081 
L 518.132479 55.572081 
" style="fill:none;stroke:#377eb8;stroke-dasharray:12,12;stroke-dashoffset:0;stroke-linecap:round;stroke-linejoin:miter;stroke-width:2;"/>
    </g>
    <g id="line2d_40"/>
    <g id="text_20">
     <!-- TD3 / Max -->
     <g transform="translate(532.532479 61.872081)scale(0.18 -0.18)">
      <defs>
       <path d="M 877 786 
L 877 600 
C 877 332 819 300 307 300 
L 186 300 
L 186 0 
L 2336 0 
C 2906 0 3341 89 3680 281 
C 4326 644 4685 1372 4685 2329 
C 4685 3204 4365 3900 3776 4282 
C 3424 4506 2950 4608 2221 4608 
L 186 4608 
L 186 4308 
L 307 4308 
C 819 4308 877 4276 877 4007 
L 877 3823 
L 877 786 
z
M 1958 300 
C 1638 300 1594 339 1594 652 
L 1594 3950 
C 1594 4263 1638 4308 1958 4308 
L 2291 4308 
C 3386 4308 3840 3715 3840 2304 
C 3840 874 3424 300 2394 300 
L 1958 300 
z
" id="CenturySchL-Roma-44" transform="scale(0.015625)"/>
       <path d="M 2214 2391 
C 2304 2423 2317 2423 2362 2442 
C 2810 2628 3066 2987 3066 3441 
C 3066 4108 2554 4544 1760 4544 
C 1011 4544 442 4094 442 3502 
C 442 3235 621 3046 864 3046 
C 1088 3046 1242 3203 1242 3438 
C 1242 3576 1190 3667 1043 3772 
C 979 3817 960 3850 960 3890 
C 960 4073 1338 4269 1696 4269 
C 2157 4269 2400 3976 2400 3422 
C 2400 2815 2157 2496 1696 2496 
C 1638 2496 1536 2496 1440 2496 
C 1389 2496 1338 2496 1299 2496 
C 1165 2496 1094 2440 1094 2330 
C 1094 2226 1165 2177 1293 2177 
C 1312 2177 1363 2177 1446 2177 
C 1690 2177 1696 2177 1747 2177 
C 2221 2177 2477 1845 2477 1225 
C 2477 580 2150 211 1581 211 
C 1178 211 742 425 742 620 
C 742 678 755 689 883 760 
C 1062 866 1133 974 1133 1130 
C 1133 1357 960 1528 723 1528 
C 454 1528 269 1301 269 972 
C 269 359 838 -64 1658 -64 
C 2579 -64 3187 449 3187 1237 
C 3187 1839 2874 2204 2214 2391 
z
" id="CenturySchL-Roma-33" transform="scale(0.015625)"/>
      </defs>
      <use transform="scale(0.996264)" xlink:href="#CenturySchL-Roma-54"/>
      <use transform="translate(66.450031 0)scale(0.996264)" xlink:href="#CenturySchL-Roma-44"/>
      <use transform="translate(143.958401 0)scale(0.996264)" xlink:href="#CenturySchL-Roma-33"/>
      <use transform="translate(227.045248 0)scale(0.996264)" xlink:href="#CenturySchL-Roma-2f"/>
      <use transform="translate(282.435587 0)scale(0.996264)" xlink:href="#CenturySchL-Roma-4d"/>
      <use transform="translate(376.482356 0)scale(0.996264)" xlink:href="#CenturySchL-Roma-61"/>
      <use transform="translate(431.874033 0)scale(0.996264)" xlink:href="#CenturySchL-Roma-78"/>
     </g>
    </g>
    <g id="line2d_41">
     <path d="M 482.132479 81.285209 
L 518.132479 81.285209 
" style="fill:none;stroke:#4daf4a;stroke-dasharray:6,10,2,10;stroke-dashoffset:0;stroke-linecap:round;stroke-linejoin:miter;stroke-width:2;"/>
    </g>
    <g id="line2d_42"/>
    <g id="text_21">
     <!-- PPO / 0.08m -->
     <g transform="translate(532.532479 87.585209)scale(0.18 -0.18)">
      <defs>
       <path d="M 1818 4544 
C 922 4544 269 3564 269 2224 
C 269 904 902 -64 1766 -64 
C 2662 -64 3290 872 3290 2204 
C 3290 2884 3149 3448 2880 3890 
C 2630 4294 2221 4544 1818 4544 
z
M 1773 4269 
C 1984 4269 2189 4128 2342 3872 
C 2515 3576 2573 3198 2573 2320 
C 2573 1422 2528 1000 2400 717 
C 2253 403 2022 211 1779 211 
C 1568 211 1363 352 1210 608 
C 1030 910 979 1314 979 2359 
C 979 3103 1024 3480 1152 3756 
C 1299 4083 1530 4269 1773 4269 
z
" id="CenturySchL-Roma-30" transform="scale(0.015625)"/>
       <path d="M 877 734 
C 653 734 474 555 474 338 
C 474 114 653 -64 870 -64 
C 1094 -64 1274 114 1274 338 
C 1274 555 1094 734 877 734 
z
" id="CenturySchL-Roma-2e" transform="scale(0.015625)"/>
       <path d="M 2394 2531 
C 2874 2794 3098 3108 3098 3525 
C 3098 4115 2560 4544 1824 4544 
C 1043 4544 474 4024 474 3320 
C 474 3044 576 2757 755 2558 
C 864 2430 966 2359 1197 2237 
C 915 2129 794 2064 653 1949 
C 403 1743 262 1436 262 1109 
C 262 763 435 417 704 212 
C 954 32 1299 -64 1709 -64 
C 2182 -64 2579 64 2842 301 
C 3117 539 3283 929 3283 1321 
C 3283 1686 3142 2013 2880 2244 
C 2752 2352 2637 2423 2394 2531 
z
M 1709 2782 
C 1190 2974 966 3218 966 3590 
C 966 3993 1299 4269 1805 4269 
C 2298 4269 2624 3955 2624 3487 
C 2624 3154 2496 2936 2131 2628 
L 1709 2782 
z
M 2080 1897 
C 2566 1724 2771 1474 2771 1051 
C 2771 538 2368 211 1741 211 
C 1146 211 794 544 794 1108 
C 794 1589 992 1878 1491 2109 
L 2080 1897 
z
" id="CenturySchL-Roma-38" transform="scale(0.015625)"/>
      </defs>
      <use transform="scale(0.996264)" xlink:href="#CenturySchL-Roma-50"/>
      <use transform="translate(66.450031 0)scale(0.996264)" xlink:href="#CenturySchL-Roma-50"/>
      <use transform="translate(132.900062 0)scale(0.996264)" xlink:href="#CenturySchL-Roma-4f"/>
      <use transform="translate(238.103602 0)scale(0.996264)" xlink:href="#CenturySchL-Roma-2f"/>
      <use transform="translate(293.493941 0)scale(0.996264)" xlink:href="#CenturySchL-Roma-30"/>
      <use transform="translate(348.885618 0)scale(0.996264)" xlink:href="#CenturySchL-Roma-2e"/>
      <use transform="translate(376.580788 0)scale(0.996264)" xlink:href="#CenturySchL-Roma-30"/>
      <use transform="translate(431.972465 0)scale(0.996264)" xlink:href="#CenturySchL-Roma-38"/>
      <use transform="translate(487.364142 0)scale(0.996264)" xlink:href="#CenturySchL-Roma-6d"/>
     </g>
    </g>
    <g id="line2d_43">
     <path d="M 482.132479 106.998337 
L 518.132479 106.998337 
" style="fill:none;stroke:#984ea3;stroke-dasharray:2,6;stroke-dashoffset:0;stroke-linecap:round;stroke-linejoin:miter;stroke-width:2;"/>
    </g>
    <g id="line2d_44"/>
    <g id="text_22">
     <!-- TD3 / 0.08m -->
     <g transform="translate(532.532479 113.298337)scale(0.18 -0.18)">
      <use transform="scale(0.996264)" xlink:href="#CenturySchL-Roma-54"/>
      <use transform="translate(66.450031 0)scale(0.996264)" xlink:href="#CenturySchL-Roma-44"/>
      <use transform="translate(143.958401 0)scale(0.996264)" xlink:href="#CenturySchL-Roma-33"/>
      <use transform="translate(227.045248 0)scale(0.996264)" xlink:href="#CenturySchL-Roma-2f"/>
      <use transform="translate(282.435587 0)scale(0.996264)" xlink:href="#CenturySchL-Roma-30"/>
      <use transform="translate(337.827264 0)scale(0.996264)" xlink:href="#CenturySchL-Roma-2e"/>
      <use transform="translate(365.522434 0)scale(0.996264)" xlink:href="#CenturySchL-Roma-30"/>
      <use transform="translate(420.914111 0)scale(0.996264)" xlink:href="#CenturySchL-Roma-38"/>
      <use transform="translate(476.305788 0)scale(0.996264)" xlink:href="#CenturySchL-Roma-6d"/>
     </g>
    </g>
   </g>
  </g>
 </g>
 <defs>
  <clipPath id="pec10a0fce1">
   <rect height="366.206736" width="562.798213" x="82.401787" y="13.852984"/>
  </clipPath>
 </defs>
</svg>
