<?xml version="1.0" encoding="utf-8" standalone="no"?>
<!DOCTYPE svg PUBLIC "-//W3C//DTD SVG 1.1//EN"
  "http://www.w3.org/Graphics/SVG/1.1/DTD/svg11.dtd">
<svg height="292.4pt" version="1.1" viewBox="0 0 435.791747 292.4" width="435.791747pt" xmlns="http://www.w3.org/2000/svg" xmlns:xlink="http://www.w3.org/1999/xlink">
 <metadata>
  <rdf:RDF xmlns:cc="http://creativecommons.org/ns#" xmlns:dc="http://purl.org/dc/elements/1.1/" xmlns:rdf="http://www.w3.org/1999/02/22-rdf-syntax-ns#">
   <cc:Work>
    <dc:type rdf:resource="http://purl.org/dc/dcmitype/StillImage"/>
    <dc:date>2022-04-26T15:10:03.065367</dc:date>
    <dc:format>image/svg+xml</dc:format>
    <dc:creator>
     <cc:Agent>
      <dc:title>Matplotlib v3.4.2, https://matplotlib.org/</dc:title>
     </cc:Agent>
    </dc:creator>
   </cc:Work>
  </rdf:RDF>
 </metadata>
 <defs>
  <style type="text/css">*{stroke-linecap:butt;stroke-linejoin:round;}</style>
 </defs>
 <g id="figure_1">
  <g id="patch_1">
   <path d="M 0 292.4 
L 435.791747 292.4 
L 435.791747 0 
L 0 0 
z
" style="fill:none;"/>
  </g>
  <g id="axes_1">
   <g id="patch_2">
    <path d="M 74.177501 236.05972 
L 428.575656 236.05972 
L 428.575656 13.852984 
L 74.177501 13.852984 
z
" style="fill:none;"/>
   </g>
   <g id="PolyCollection_1">
    <path clip-path="url(#p4f3bd6ba5d)" d="M 90.286508 174.669267 
L 90.286508 215.344445 
L 91.580405 229.050853 
L 92.874301 212.34064 
L 94.168197 200.885103 
L 95.462093 194.498341 
L 96.755989 190.723429 
L 98.049885 188.520392 
L 99.343781 187.367749 
L 100.637678 186.911028 
L 101.931574 186.960678 
L 103.22547 187.370202 
L 104.519366 188.088607 
L 105.813262 189.071555 
L 107.107158 190.209487 
L 108.401054 191.184583 
L 109.694951 192.00097 
L 110.988847 192.783065 
L 112.282743 193.695528 
L 113.576639 194.867019 
L 114.870535 196.347748 
L 116.164431 198.054574 
L 117.458327 199.945927 
L 118.752224 202.031029 
L 120.04612 204.345451 
L 121.340016 206.910865 
L 122.633912 210.084502 
L 123.927808 212.922294 
L 125.221704 217.126988 
L 126.515601 221.528934 
L 127.809497 225.124743 
L 129.103393 227.700647 
L 130.397289 229.010937 
L 131.691185 229.093621 
L 132.985081 228.537707 
L 134.278977 227.773909 
L 135.572874 227.009242 
L 136.86677 226.512522 
L 138.160666 226.345481 
L 139.454562 226.524024 
L 140.748458 226.722421 
L 142.042354 226.859562 
L 143.33625 226.933415 
L 144.630147 226.95743 
L 145.924043 226.704508 
L 147.217939 226.152904 
L 148.511835 225.098692 
L 149.805731 223.364148 
L 151.099627 220.858157 
L 152.393523 217.562258 
L 153.68742 213.758969 
L 154.981316 210.496444 
L 156.275212 207.904659 
L 157.569108 205.863471 
L 158.863004 204.265584 
L 160.1569 203.027199 
L 161.450796 202.057595 
L 162.744693 201.016671 
L 164.038589 199.557474 
L 165.332485 197.72331 
L 166.626381 195.620309 
L 167.920277 193.207302 
L 169.214173 190.06343 
L 170.50807 186.260159 
L 171.801966 181.936104 
L 173.095862 177.248385 
L 174.389758 172.446201 
L 175.683654 167.757169 
L 176.97755 163.322506 
L 178.271446 159.247142 
L 179.565343 155.700314 
L 180.859239 152.716404 
L 182.153135 150.351175 
L 183.447031 148.656315 
L 184.740927 147.618343 
L 186.034823 147.164816 
L 187.328719 146.723967 
L 188.622616 146.275694 
L 189.916512 145.800163 
L 191.210408 145.304354 
L 192.504304 144.82626 
L 193.7982 144.312418 
L 195.092096 143.80167 
L 196.385992 143.304553 
L 197.679889 142.886812 
L 198.973785 142.490666 
L 200.267681 142.106334 
L 201.561577 141.78823 
L 202.855473 141.490605 
L 204.149369 141.227854 
L 205.443265 141.023702 
L 206.737162 140.871972 
L 208.031058 140.736885 
L 209.324954 140.581649 
L 210.61885 140.52663 
L 211.912746 140.482647 
L 213.206642 140.423174 
L 214.500539 140.38241 
L 215.794435 140.300419 
L 217.088331 140.272976 
L 218.382227 140.22158 
L 219.676123 140.199305 
L 220.970019 140.125458 
L 222.263915 140.069285 
L 223.557812 140.021439 
L 224.851708 139.972267 
L 226.145604 139.929326 
L 227.4395 139.882222 
L 228.733396 139.851557 
L 230.027292 139.773111 
L 231.321188 139.7407 
L 232.615085 139.721019 
L 233.908981 139.655214 
L 235.202877 139.598748 
L 236.496773 139.551562 
L 237.790669 139.494658 
L 239.084565 139.434174 
L 240.378461 139.372864 
L 241.672358 139.316379 
L 242.966254 139.214395 
L 244.26015 139.123627 
L 245.554046 139.073943 
L 246.847942 139.005552 
L 248.141838 138.969223 
L 249.435734 138.884345 
L 250.729631 138.831092 
L 252.023527 138.763239 
L 253.317423 138.699858 
L 254.611319 138.621436 
L 255.905215 138.593134 
L 257.199111 138.545085 
L 258.493008 138.493921 
L 259.786904 138.45837 
L 261.0808 138.40655 
L 262.374696 138.400141 
L 263.668592 138.332773 
L 264.962488 138.257824 
L 266.256384 138.199981 
L 267.550281 138.1265 
L 268.844177 138.06301 
L 270.138073 138.003526 
L 271.431969 137.961754 
L 272.725865 137.8925 
L 274.019761 137.849293 
L 275.313657 137.786576 
L 276.607554 137.750919 
L 277.90145 137.692697 
L 279.195346 137.633324 
L 280.489242 137.546823 
L 281.783138 137.454876 
L 283.077034 137.359564 
L 284.37093 137.272402 
L 285.664827 137.177626 
L 286.958723 137.087927 
L 288.252619 136.972144 
L 289.546515 136.812864 
L 290.840411 136.681053 
L 292.134307 136.535632 
L 293.428203 136.389017 
L 294.7221 136.207013 
L 296.015996 136.050467 
L 297.309892 135.881762 
L 298.603788 135.690185 
L 299.897684 135.511317 
L 301.19158 135.285942 
L 302.485477 135.062778 
L 303.779373 134.802582 
L 305.073269 134.545977 
L 306.367165 134.267112 
L 307.661061 134.002533 
L 308.954957 133.684223 
L 310.248853 133.36776 
L 311.54275 133.048456 
L 312.836646 132.722429 
L 314.130542 132.386324 
L 315.424438 132.006771 
L 316.718334 131.577707 
L 318.01223 131.259366 
L 319.306126 131.122323 
L 320.600023 131.187007 
L 321.893919 131.471797 
L 323.187815 131.831649 
L 324.481711 132.137488 
L 325.775607 132.291226 
L 327.069503 132.229456 
L 328.363399 131.991854 
L 329.657296 131.856111 
L 330.951192 131.786007 
L 332.245088 131.735348 
L 333.538984 131.69881 
L 334.83288 131.666792 
L 336.126776 131.67553 
L 337.420672 131.732675 
L 338.714569 131.782547 
L 340.008465 131.82825 
L 341.302361 131.854621 
L 342.596257 131.855501 
L 343.890153 131.877111 
L 345.184049 131.937674 
L 346.477946 132.008235 
L 347.771842 132.12623 
L 349.065738 132.277863 
L 350.359634 132.300301 
L 351.65353 132.1098 
L 352.947426 131.703853 
L 354.241322 131.137199 
L 355.535219 130.517347 
L 356.829115 129.961723 
L 358.123011 129.556779 
L 359.416907 129.366751 
L 360.710803 129.33849 
L 362.004699 129.249917 
L 363.298595 129.099834 
L 364.592492 128.973306 
L 365.886388 128.838231 
L 367.180284 128.66476 
L 368.47418 128.4714 
L 369.768076 128.251676 
L 371.061972 128.06908 
L 372.355868 127.867715 
L 373.649765 127.687728 
L 374.943661 127.544928 
L 376.237557 127.422523 
L 377.531453 127.31241 
L 378.825349 127.21446 
L 380.119245 127.105821 
L 381.413141 127.005876 
L 382.707038 126.903699 
L 384.000934 126.845506 
L 385.29483 126.76873 
L 386.588726 126.663907 
L 387.882622 126.55978 
L 389.176518 126.466688 
L 390.470415 126.435587 
L 391.764311 126.445152 
L 393.058207 126.394547 
L 394.352103 126.35421 
L 395.645999 126.328175 
L 396.939895 126.246672 
L 398.233791 126.225259 
L 399.527688 126.204665 
L 400.821584 126.255128 
L 402.11548 126.255752 
L 403.409376 126.223868 
L 404.703272 126.195235 
L 405.997168 126.159568 
L 407.291064 126.13489 
L 408.584961 126.117299 
L 409.878857 126.08935 
L 411.172753 126.041962 
L 412.466649 126.015005 
L 412.466649 90.614449 
L 412.466649 90.614449 
L 411.172753 90.616662 
L 409.878857 90.635197 
L 408.584961 90.610457 
L 407.291064 90.653213 
L 405.997168 90.697014 
L 404.703272 90.70232 
L 403.409376 90.701428 
L 402.11548 90.675061 
L 400.821584 90.635757 
L 399.527688 90.646944 
L 398.233791 90.628056 
L 396.939895 90.653341 
L 395.645999 90.647313 
L 394.352103 90.621813 
L 393.058207 90.608039 
L 391.764311 90.584574 
L 390.470415 90.590084 
L 389.176518 90.612193 
L 387.882622 90.632639 
L 386.588726 90.671331 
L 385.29483 90.683541 
L 384.000934 90.699184 
L 382.707038 90.682021 
L 381.413141 90.665125 
L 380.119245 90.643162 
L 378.825349 90.647904 
L 377.531453 90.616569 
L 376.237557 90.641669 
L 374.943661 90.646595 
L 373.649765 90.634669 
L 372.355868 90.643413 
L 371.061972 90.60608 
L 369.768076 90.573741 
L 368.47418 90.573448 
L 367.180284 90.526818 
L 365.886388 90.52944 
L 364.592492 90.496947 
L 363.298595 90.468445 
L 362.004699 90.498391 
L 360.710803 90.508263 
L 359.416907 90.524535 
L 358.123011 90.473831 
L 356.829115 90.384673 
L 355.535219 90.217561 
L 354.241322 90.033594 
L 352.947426 89.903938 
L 351.65353 89.780845 
L 350.359634 89.771635 
L 349.065738 89.784821 
L 347.771842 89.838511 
L 346.477946 89.875122 
L 345.184049 89.923248 
L 343.890153 89.959682 
L 342.596257 89.946069 
L 341.302361 89.941809 
L 340.008465 89.932573 
L 338.714569 89.964418 
L 337.420672 90.052179 
L 336.126776 90.077236 
L 334.83288 90.153308 
L 333.538984 90.185457 
L 332.245088 90.237743 
L 330.951192 90.287409 
L 329.657296 90.333862 
L 328.363399 90.399788 
L 327.069503 90.399278 
L 325.775607 90.499818 
L 324.481711 90.631173 
L 323.187815 90.813492 
L 321.893919 90.94772 
L 320.600023 91.044273 
L 319.306126 91.115793 
L 318.01223 91.121243 
L 316.718334 91.109276 
L 315.424438 91.083961 
L 314.130542 91.056702 
L 312.836646 91.028693 
L 311.54275 91.005388 
L 310.248853 91.00792 
L 308.954957 91.008546 
L 307.661061 91.003908 
L 306.367165 90.99954 
L 305.073269 90.984554 
L 303.779373 90.987476 
L 302.485477 90.965734 
L 301.19158 90.941213 
L 299.897684 90.933179 
L 298.603788 90.920959 
L 297.309892 90.89934 
L 296.015996 90.84919 
L 294.7221 90.859358 
L 293.428203 90.841688 
L 292.134307 90.857432 
L 290.840411 90.910881 
L 289.546515 90.958465 
L 288.252619 91.022703 
L 286.958723 91.033464 
L 285.664827 91.038423 
L 284.37093 91.09245 
L 283.077034 91.120767 
L 281.783138 91.160609 
L 280.489242 91.197873 
L 279.195346 91.221342 
L 277.90145 91.260965 
L 276.607554 91.326078 
L 275.313657 91.363214 
L 274.019761 91.402644 
L 272.725865 91.442786 
L 271.431969 91.463317 
L 270.138073 91.499587 
L 268.844177 91.531225 
L 267.550281 91.548192 
L 266.256384 91.579156 
L 264.962488 91.619197 
L 263.668592 91.653693 
L 262.374696 91.669448 
L 261.0808 91.68971 
L 259.786904 91.701346 
L 258.493008 91.68919 
L 257.199111 91.726558 
L 255.905215 91.727848 
L 254.611319 91.773233 
L 253.317423 91.824415 
L 252.023527 91.813156 
L 250.729631 91.864977 
L 249.435734 91.910712 
L 248.141838 91.955346 
L 246.847942 91.995922 
L 245.554046 92.007111 
L 244.26015 91.993794 
L 242.966254 92.021739 
L 241.672358 92.064846 
L 240.378461 92.117254 
L 239.084565 92.192586 
L 237.790669 92.266746 
L 236.496773 92.342379 
L 235.202877 92.396789 
L 233.908981 92.47546 
L 232.615085 92.507422 
L 231.321188 92.584304 
L 230.027292 92.681397 
L 228.733396 92.762445 
L 227.4395 92.813039 
L 226.145604 92.893308 
L 224.851708 92.98817 
L 223.557812 93.142665 
L 222.263915 93.254781 
L 220.970019 93.358151 
L 219.676123 93.485113 
L 218.382227 93.61256 
L 217.088331 93.767439 
L 215.794435 93.935104 
L 214.500539 94.105358 
L 213.206642 94.312093 
L 211.912746 94.502676 
L 210.61885 94.729669 
L 209.324954 94.951954 
L 208.031058 95.193044 
L 206.737162 95.432242 
L 205.443265 95.698168 
L 204.149369 96.032125 
L 202.855473 96.392043 
L 201.561577 96.753429 
L 200.267681 97.187047 
L 198.973785 97.624095 
L 197.679889 98.118076 
L 196.385992 98.724604 
L 195.092096 99.398579 
L 193.7982 100.045967 
L 192.504304 100.704346 
L 191.210408 101.354582 
L 189.916512 102.083099 
L 188.622616 102.866472 
L 187.328719 103.707176 
L 186.034823 104.553699 
L 184.740927 105.389376 
L 183.447031 106.333712 
L 182.153135 107.432894 
L 180.859239 108.614022 
L 179.565343 109.905264 
L 178.271446 111.186608 
L 176.97755 112.368448 
L 175.683654 113.472279 
L 174.389758 114.546054 
L 173.095862 115.576309 
L 171.801966 116.584622 
L 170.50807 117.684127 
L 169.214173 118.880832 
L 167.920277 120.169825 
L 166.626381 121.511155 
L 165.332485 122.717512 
L 164.038589 123.976651 
L 162.744693 125.862669 
L 161.450796 129.003417 
L 160.1569 133.370271 
L 158.863004 138.620996 
L 157.569108 144.457077 
L 156.275212 150.415831 
L 154.981316 156.220583 
L 153.68742 161.537666 
L 152.393523 166.176942 
L 151.099627 170.279489 
L 149.805731 173.841165 
L 148.511835 176.723545 
L 147.217939 178.772056 
L 145.924043 179.926309 
L 144.630147 180.338817 
L 143.33625 180.130755 
L 142.042354 179.450847 
L 140.748458 178.429316 
L 139.454562 177.206298 
L 138.160666 175.916002 
L 136.86677 174.629248 
L 135.572874 173.49432 
L 134.278977 172.6727 
L 132.985081 172.166137 
L 131.691185 171.905807 
L 130.397289 171.875636 
L 129.103393 172.114675 
L 127.809497 172.307022 
L 126.515601 172.192625 
L 125.221704 171.775586 
L 123.927808 171.334988 
L 122.633912 172.290187 
L 121.340016 171.752825 
L 120.04612 170.069616 
L 118.752224 168.138591 
L 117.458327 166.180752 
L 116.164431 164.449076 
L 114.870535 163.156112 
L 113.576639 162.349589 
L 112.282743 161.765667 
L 110.988847 161.504924 
L 109.694951 161.418406 
L 108.401054 161.731396 
L 107.107158 162.644265 
L 105.813262 164.210209 
L 104.519366 165.719807 
L 103.22547 167.09515 
L 101.931574 168.344868 
L 100.637678 169.468052 
L 99.343781 170.479026 
L 98.049885 171.387384 
L 96.755989 172.282448 
L 95.462093 173.416708 
L 94.168197 175.280487 
L 92.874301 178.746672 
L 91.580405 181.864603 
L 90.286508 174.669267 
z
" style="fill:#e41a1c;fill-opacity:0.2;"/>
   </g>
   <g id="PolyCollection_2">
    <path clip-path="url(#p4f3bd6ba5d)" d="M 90.286508 174.669267 
L 90.286508 215.344445 
L 91.580405 229.050853 
L 92.874301 212.34064 
L 94.168197 200.885103 
L 95.462093 194.498341 
L 96.755989 190.723429 
L 98.049885 188.520392 
L 99.343781 187.367749 
L 100.637678 186.911028 
L 101.931574 186.960678 
L 103.22547 187.370202 
L 104.519366 188.088607 
L 105.813262 189.071555 
L 107.107158 190.209487 
L 108.401054 191.184583 
L 109.694951 192.00097 
L 110.988847 192.783065 
L 112.282743 193.695528 
L 113.576639 194.867019 
L 114.870535 196.347748 
L 116.164431 198.054574 
L 117.458327 199.945927 
L 118.752224 202.031029 
L 120.04612 204.345451 
L 121.340016 206.910865 
L 122.633912 210.084502 
L 123.927808 212.922294 
L 125.221704 217.126988 
L 126.515601 221.528934 
L 127.809497 225.124743 
L 129.103393 227.700647 
L 130.397289 229.010937 
L 131.691185 229.093621 
L 132.985081 228.537707 
L 134.278977 227.773909 
L 135.572874 227.009242 
L 136.86677 226.512522 
L 138.160666 226.345481 
L 139.454562 226.524024 
L 140.748458 226.722421 
L 142.042354 226.859562 
L 143.33625 226.933415 
L 144.630147 226.95743 
L 145.924043 226.704508 
L 147.217939 226.152904 
L 148.511835 225.098692 
L 149.805731 223.364148 
L 151.099627 220.858157 
L 152.393523 217.562258 
L 153.68742 213.758969 
L 154.981316 210.496444 
L 156.275212 207.904659 
L 157.569108 205.863471 
L 158.863004 204.265584 
L 160.1569 203.027199 
L 161.450796 202.057595 
L 162.744693 201.016671 
L 164.038589 199.557474 
L 165.332485 197.72331 
L 166.626381 195.620309 
L 167.920277 193.207302 
L 169.214173 190.06343 
L 170.50807 186.260159 
L 171.801966 181.936104 
L 173.095862 177.248385 
L 174.389758 172.446201 
L 175.683654 167.757169 
L 176.97755 163.322506 
L 178.271446 159.247142 
L 179.565343 155.700314 
L 180.859239 152.716404 
L 182.153135 150.351175 
L 183.447031 148.656315 
L 184.740927 147.618343 
L 186.034823 147.164816 
L 187.328719 146.723967 
L 188.622616 146.275694 
L 189.916512 145.800163 
L 191.210408 145.304354 
L 192.504304 144.82626 
L 193.7982 144.312418 
L 195.092096 143.80167 
L 196.385992 143.304553 
L 197.679889 142.886812 
L 198.973785 142.490666 
L 200.267681 142.106334 
L 201.561577 141.78823 
L 202.855473 141.490605 
L 204.149369 141.227854 
L 205.443265 141.023702 
L 206.737162 140.871972 
L 208.031058 140.736885 
L 209.324954 140.581649 
L 210.61885 140.52663 
L 211.912746 140.482647 
L 213.206642 140.423174 
L 214.500539 140.38241 
L 215.794435 140.300419 
L 217.088331 140.272976 
L 218.382227 140.22158 
L 219.676123 140.199305 
L 220.970019 140.125458 
L 222.263915 140.069285 
L 223.557812 140.021439 
L 224.851708 139.972267 
L 226.145604 139.929326 
L 227.4395 139.882222 
L 228.733396 139.851557 
L 230.027292 139.773111 
L 231.321188 139.7407 
L 232.615085 139.721019 
L 233.908981 139.655214 
L 235.202877 139.598748 
L 236.496773 139.551562 
L 237.790669 139.494658 
L 239.084565 139.434174 
L 240.378461 139.372864 
L 241.672358 139.316379 
L 242.966254 139.214395 
L 244.26015 139.123627 
L 245.554046 139.073943 
L 246.847942 139.005552 
L 248.141838 138.969223 
L 249.435734 138.884345 
L 250.729631 138.831092 
L 252.023527 138.763239 
L 253.317423 138.699858 
L 254.611319 138.621436 
L 255.905215 138.593134 
L 257.199111 138.545085 
L 258.493008 138.493921 
L 259.786904 138.45837 
L 261.0808 138.40655 
L 262.374696 138.400141 
L 263.668592 138.332773 
L 264.962488 138.257824 
L 266.256384 138.199981 
L 267.550281 138.1265 
L 268.844177 138.06301 
L 270.138073 138.003526 
L 271.431969 137.961754 
L 272.725865 137.8925 
L 274.019761 137.849293 
L 275.313657 137.786576 
L 276.607554 137.750919 
L 277.90145 137.692697 
L 279.195346 137.633324 
L 280.489242 137.546823 
L 281.783138 137.454876 
L 283.077034 137.359564 
L 284.37093 137.272402 
L 285.664827 137.177626 
L 286.958723 137.087927 
L 288.252619 136.972144 
L 289.546515 136.812864 
L 290.840411 136.681053 
L 292.134307 136.535632 
L 293.428203 136.389017 
L 294.7221 136.207013 
L 296.015996 136.050467 
L 297.309892 135.881762 
L 298.603788 135.690185 
L 299.897684 135.511317 
L 301.19158 135.285942 
L 302.485477 135.062778 
L 303.779373 134.802582 
L 305.073269 134.545977 
L 306.367165 134.267112 
L 307.661061 134.002533 
L 308.954957 133.684223 
L 310.248853 133.36776 
L 311.54275 133.048456 
L 312.836646 132.722429 
L 314.130542 132.386324 
L 315.424438 132.006771 
L 316.718334 131.577707 
L 318.01223 131.259366 
L 319.306126 131.122323 
L 320.600023 131.187007 
L 321.893919 131.471797 
L 323.187815 131.831649 
L 324.481711 132.137488 
L 325.775607 132.291226 
L 327.069503 132.229456 
L 328.363399 131.991854 
L 329.657296 131.856111 
L 330.951192 131.786007 
L 332.245088 131.735348 
L 333.538984 131.69881 
L 334.83288 131.666792 
L 336.126776 131.67553 
L 337.420672 131.732675 
L 338.714569 131.782547 
L 340.008465 131.82825 
L 341.302361 131.854621 
L 342.596257 131.855501 
L 343.890153 131.877111 
L 345.184049 131.937674 
L 346.477946 132.008235 
L 347.771842 132.12623 
L 349.065738 132.277863 
L 350.359634 132.300301 
L 351.65353 132.1098 
L 352.947426 131.703853 
L 354.241322 131.137199 
L 355.535219 130.517347 
L 356.829115 129.961723 
L 358.123011 129.556779 
L 359.416907 129.366751 
L 360.710803 129.33849 
L 362.004699 129.249917 
L 363.298595 129.099834 
L 364.592492 128.973306 
L 365.886388 128.838231 
L 367.180284 128.66476 
L 368.47418 128.4714 
L 369.768076 128.251676 
L 371.061972 128.06908 
L 372.355868 127.867715 
L 373.649765 127.687728 
L 374.943661 127.544928 
L 376.237557 127.422523 
L 377.531453 127.31241 
L 378.825349 127.21446 
L 380.119245 127.105821 
L 381.413141 127.005876 
L 382.707038 126.903699 
L 384.000934 126.845506 
L 385.29483 126.76873 
L 386.588726 126.663907 
L 387.882622 126.55978 
L 389.176518 126.466688 
L 390.470415 126.435587 
L 391.764311 126.445152 
L 393.058207 126.394547 
L 394.352103 126.35421 
L 395.645999 126.328175 
L 396.939895 126.246672 
L 398.233791 126.225259 
L 399.527688 126.204665 
L 400.821584 126.255128 
L 402.11548 126.255752 
L 403.409376 126.223868 
L 404.703272 126.195235 
L 405.997168 126.159568 
L 407.291064 126.13489 
L 408.584961 126.117299 
L 409.878857 126.08935 
L 411.172753 126.041962 
L 412.466649 126.015005 
L 412.466649 90.614449 
L 412.466649 90.614449 
L 411.172753 90.616662 
L 409.878857 90.635197 
L 408.584961 90.610457 
L 407.291064 90.653213 
L 405.997168 90.697014 
L 404.703272 90.70232 
L 403.409376 90.701428 
L 402.11548 90.675061 
L 400.821584 90.635757 
L 399.527688 90.646944 
L 398.233791 90.628056 
L 396.939895 90.653341 
L 395.645999 90.647313 
L 394.352103 90.621813 
L 393.058207 90.608039 
L 391.764311 90.584574 
L 390.470415 90.590084 
L 389.176518 90.612193 
L 387.882622 90.632639 
L 386.588726 90.671331 
L 385.29483 90.683541 
L 384.000934 90.699184 
L 382.707038 90.682021 
L 381.413141 90.665125 
L 380.119245 90.643162 
L 378.825349 90.647904 
L 377.531453 90.616569 
L 376.237557 90.641669 
L 374.943661 90.646595 
L 373.649765 90.634669 
L 372.355868 90.643413 
L 371.061972 90.60608 
L 369.768076 90.573741 
L 368.47418 90.573448 
L 367.180284 90.526818 
L 365.886388 90.52944 
L 364.592492 90.496947 
L 363.298595 90.468445 
L 362.004699 90.498391 
L 360.710803 90.508263 
L 359.416907 90.524535 
L 358.123011 90.473831 
L 356.829115 90.384673 
L 355.535219 90.217561 
L 354.241322 90.033594 
L 352.947426 89.903938 
L 351.65353 89.780845 
L 350.359634 89.771635 
L 349.065738 89.784821 
L 347.771842 89.838511 
L 346.477946 89.875122 
L 345.184049 89.923248 
L 343.890153 89.959682 
L 342.596257 89.946069 
L 341.302361 89.941809 
L 340.008465 89.932573 
L 338.714569 89.964418 
L 337.420672 90.052179 
L 336.126776 90.077236 
L 334.83288 90.153308 
L 333.538984 90.185457 
L 332.245088 90.237743 
L 330.951192 90.287409 
L 329.657296 90.333862 
L 328.363399 90.399788 
L 327.069503 90.399278 
L 325.775607 90.499818 
L 324.481711 90.631173 
L 323.187815 90.813492 
L 321.893919 90.94772 
L 320.600023 91.044273 
L 319.306126 91.115793 
L 318.01223 91.121243 
L 316.718334 91.109276 
L 315.424438 91.083961 
L 314.130542 91.056702 
L 312.836646 91.028693 
L 311.54275 91.005388 
L 310.248853 91.00792 
L 308.954957 91.008546 
L 307.661061 91.003908 
L 306.367165 90.99954 
L 305.073269 90.984554 
L 303.779373 90.987476 
L 302.485477 90.965734 
L 301.19158 90.941213 
L 299.897684 90.933179 
L 298.603788 90.920959 
L 297.309892 90.89934 
L 296.015996 90.84919 
L 294.7221 90.859358 
L 293.428203 90.841688 
L 292.134307 90.857432 
L 290.840411 90.910881 
L 289.546515 90.958465 
L 288.252619 91.022703 
L 286.958723 91.033464 
L 285.664827 91.038423 
L 284.37093 91.09245 
L 283.077034 91.120767 
L 281.783138 91.160609 
L 280.489242 91.197873 
L 279.195346 91.221342 
L 277.90145 91.260965 
L 276.607554 91.326078 
L 275.313657 91.363214 
L 274.019761 91.402644 
L 272.725865 91.442786 
L 271.431969 91.463317 
L 270.138073 91.499587 
L 268.844177 91.531225 
L 267.550281 91.548192 
L 266.256384 91.579156 
L 264.962488 91.619197 
L 263.668592 91.653693 
L 262.374696 91.669448 
L 261.0808 91.68971 
L 259.786904 91.701346 
L 258.493008 91.68919 
L 257.199111 91.726558 
L 255.905215 91.727848 
L 254.611319 91.773233 
L 253.317423 91.824415 
L 252.023527 91.813156 
L 250.729631 91.864977 
L 249.435734 91.910712 
L 248.141838 91.955346 
L 246.847942 91.995922 
L 245.554046 92.007111 
L 244.26015 91.993794 
L 242.966254 92.021739 
L 241.672358 92.064846 
L 240.378461 92.117254 
L 239.084565 92.192586 
L 237.790669 92.266746 
L 236.496773 92.342379 
L 235.202877 92.396789 
L 233.908981 92.47546 
L 232.615085 92.507422 
L 231.321188 92.584304 
L 230.027292 92.681397 
L 228.733396 92.762445 
L 227.4395 92.813039 
L 226.145604 92.893308 
L 224.851708 92.98817 
L 223.557812 93.142665 
L 222.263915 93.254781 
L 220.970019 93.358151 
L 219.676123 93.485113 
L 218.382227 93.61256 
L 217.088331 93.767439 
L 215.794435 93.935104 
L 214.500539 94.105358 
L 213.206642 94.312093 
L 211.912746 94.502676 
L 210.61885 94.729669 
L 209.324954 94.951954 
L 208.031058 95.193044 
L 206.737162 95.432242 
L 205.443265 95.698168 
L 204.149369 96.032125 
L 202.855473 96.392043 
L 201.561577 96.753429 
L 200.267681 97.187047 
L 198.973785 97.624095 
L 197.679889 98.118076 
L 196.385992 98.724604 
L 195.092096 99.398579 
L 193.7982 100.045967 
L 192.504304 100.704346 
L 191.210408 101.354582 
L 189.916512 102.083099 
L 188.622616 102.866472 
L 187.328719 103.707176 
L 186.034823 104.553699 
L 184.740927 105.389376 
L 183.447031 106.333712 
L 182.153135 107.432894 
L 180.859239 108.614022 
L 179.565343 109.905264 
L 178.271446 111.186608 
L 176.97755 112.368448 
L 175.683654 113.472279 
L 174.389758 114.546054 
L 173.095862 115.576309 
L 171.801966 116.584622 
L 170.50807 117.684127 
L 169.214173 118.880832 
L 167.920277 120.169825 
L 166.626381 121.511155 
L 165.332485 122.717512 
L 164.038589 123.976651 
L 162.744693 125.862669 
L 161.450796 129.003417 
L 160.1569 133.370271 
L 158.863004 138.620996 
L 157.569108 144.457077 
L 156.275212 150.415831 
L 154.981316 156.220583 
L 153.68742 161.537666 
L 152.393523 166.176942 
L 151.099627 170.279489 
L 149.805731 173.841165 
L 148.511835 176.723545 
L 147.217939 178.772056 
L 145.924043 179.926309 
L 144.630147 180.338817 
L 143.33625 180.130755 
L 142.042354 179.450847 
L 140.748458 178.429316 
L 139.454562 177.206298 
L 138.160666 175.916002 
L 136.86677 174.629248 
L 135.572874 173.49432 
L 134.278977 172.6727 
L 132.985081 172.166137 
L 131.691185 171.905807 
L 130.397289 171.875636 
L 129.103393 172.114675 
L 127.809497 172.307022 
L 126.515601 172.192625 
L 125.221704 171.775586 
L 123.927808 171.334988 
L 122.633912 172.290187 
L 121.340016 171.752825 
L 120.04612 170.069616 
L 118.752224 168.138591 
L 117.458327 166.180752 
L 116.164431 164.449076 
L 114.870535 163.156112 
L 113.576639 162.349589 
L 112.282743 161.765667 
L 110.988847 161.504924 
L 109.694951 161.418406 
L 108.401054 161.731396 
L 107.107158 162.644265 
L 105.813262 164.210209 
L 104.519366 165.719807 
L 103.22547 167.09515 
L 101.931574 168.344868 
L 100.637678 169.468052 
L 99.343781 170.479026 
L 98.049885 171.387384 
L 96.755989 172.282448 
L 95.462093 173.416708 
L 94.168197 175.280487 
L 92.874301 178.746672 
L 91.580405 181.864603 
L 90.286508 174.669267 
z
" style="fill:#377eb8;fill-opacity:0.2;"/>
   </g>
   <g id="PolyCollection_3">
    <path clip-path="url(#p4f3bd6ba5d)" d="M 90.286508 174.669267 
L 90.286508 215.344445 
L 91.580405 229.050853 
L 92.874301 212.34064 
L 94.168197 200.885103 
L 95.462093 194.498341 
L 96.755989 190.723429 
L 98.049885 188.520392 
L 99.343781 187.367749 
L 100.637678 186.911028 
L 101.931574 186.960678 
L 103.22547 187.370202 
L 104.519366 188.088607 
L 105.813262 189.071555 
L 107.107158 190.209487 
L 108.401054 191.184583 
L 109.694951 192.00097 
L 110.988847 192.783065 
L 112.282743 193.695528 
L 113.576639 194.867019 
L 114.870535 196.347748 
L 116.164431 198.054574 
L 117.458327 199.945927 
L 118.752224 202.031029 
L 120.04612 204.345451 
L 121.340016 206.910865 
L 122.633912 210.084502 
L 123.927808 212.922294 
L 125.221704 217.126988 
L 126.515601 221.528934 
L 127.809497 225.124743 
L 129.103393 227.700647 
L 130.397289 229.010937 
L 131.691185 229.093621 
L 132.985081 228.537707 
L 134.278977 227.773909 
L 135.572874 227.009242 
L 136.86677 226.512522 
L 138.160666 226.345481 
L 139.454562 226.524024 
L 140.748458 226.722421 
L 142.042354 226.859562 
L 143.33625 226.933415 
L 144.630147 226.95743 
L 145.924043 226.704508 
L 147.217939 226.152904 
L 148.511835 225.098692 
L 149.805731 223.364148 
L 151.099627 220.858157 
L 152.393523 217.562258 
L 153.68742 213.758969 
L 154.981316 210.496444 
L 156.275212 207.904659 
L 157.569108 205.863471 
L 158.863004 204.265584 
L 160.1569 203.027199 
L 161.450796 202.057595 
L 162.744693 201.016671 
L 164.038589 199.557474 
L 165.332485 197.72331 
L 166.626381 195.620309 
L 167.920277 193.207302 
L 169.214173 190.06343 
L 170.50807 186.260159 
L 171.801966 181.936104 
L 173.095862 177.248385 
L 174.389758 172.446201 
L 175.683654 167.757169 
L 176.97755 163.322506 
L 178.271446 159.247142 
L 179.565343 155.700314 
L 180.859239 152.716404 
L 182.153135 150.351175 
L 183.447031 148.656315 
L 184.740927 147.618343 
L 186.034823 147.164816 
L 187.328719 146.723967 
L 188.622616 146.275694 
L 189.916512 145.800163 
L 191.210408 145.304354 
L 192.504304 144.82626 
L 193.7982 144.312418 
L 195.092096 143.80167 
L 196.385992 143.304553 
L 197.679889 142.886812 
L 198.973785 142.490666 
L 200.267681 142.106334 
L 201.561577 141.78823 
L 202.855473 141.490605 
L 204.149369 141.227854 
L 205.443265 141.023702 
L 206.737162 140.871972 
L 208.031058 140.736885 
L 209.324954 140.581649 
L 210.61885 140.52663 
L 211.912746 140.482647 
L 213.206642 140.423174 
L 214.500539 140.38241 
L 215.794435 140.300419 
L 217.088331 140.272976 
L 218.382227 140.22158 
L 219.676123 140.199305 
L 220.970019 140.125458 
L 222.263915 140.069285 
L 223.557812 140.021439 
L 224.851708 139.972267 
L 226.145604 139.929326 
L 227.4395 139.882222 
L 228.733396 139.851557 
L 230.027292 139.773111 
L 231.321188 139.7407 
L 232.615085 139.721019 
L 233.908981 139.655214 
L 235.202877 139.598748 
L 236.496773 139.551562 
L 237.790669 139.494658 
L 239.084565 139.434174 
L 240.378461 139.372864 
L 241.672358 139.316379 
L 242.966254 139.214395 
L 244.26015 139.123627 
L 245.554046 139.073943 
L 246.847942 139.005552 
L 248.141838 138.969223 
L 249.435734 138.884345 
L 250.729631 138.831092 
L 252.023527 138.763239 
L 253.317423 138.699858 
L 254.611319 138.621436 
L 255.905215 138.593134 
L 257.199111 138.545085 
L 258.493008 138.493921 
L 259.786904 138.45837 
L 261.0808 138.40655 
L 262.374696 138.400141 
L 263.668592 138.332773 
L 264.962488 138.257824 
L 266.256384 138.199981 
L 267.550281 138.1265 
L 268.844177 138.06301 
L 270.138073 138.003526 
L 271.431969 137.961754 
L 272.725865 137.8925 
L 274.019761 137.849293 
L 275.313657 137.786576 
L 276.607554 137.750919 
L 277.90145 137.692697 
L 279.195346 137.633324 
L 280.489242 137.546823 
L 281.783138 137.454876 
L 283.077034 137.359564 
L 284.37093 137.272402 
L 285.664827 137.177626 
L 286.958723 137.087927 
L 288.252619 136.972144 
L 289.546515 136.812864 
L 290.840411 136.681053 
L 292.134307 136.535632 
L 293.428203 136.389017 
L 294.7221 136.207013 
L 296.015996 136.050467 
L 297.309892 135.881762 
L 298.603788 135.690185 
L 299.897684 135.511317 
L 301.19158 135.285942 
L 302.485477 135.062778 
L 303.779373 134.802582 
L 305.073269 134.545977 
L 306.367165 134.267112 
L 307.661061 134.002533 
L 308.954957 133.684223 
L 310.248853 133.36776 
L 311.54275 133.048456 
L 312.836646 132.722429 
L 314.130542 132.386324 
L 315.424438 132.006771 
L 316.718334 131.577707 
L 318.01223 131.259366 
L 319.306126 131.122323 
L 320.600023 131.187007 
L 321.893919 131.471797 
L 323.187815 131.831649 
L 324.481711 132.137488 
L 325.775607 132.291226 
L 327.069503 132.229456 
L 328.363399 131.991854 
L 329.657296 131.856111 
L 330.951192 131.786007 
L 332.245088 131.735348 
L 333.538984 131.69881 
L 334.83288 131.666792 
L 336.126776 131.67553 
L 337.420672 131.732675 
L 338.714569 131.782547 
L 340.008465 131.82825 
L 341.302361 131.854621 
L 342.596257 131.855501 
L 343.890153 131.877111 
L 345.184049 131.937674 
L 346.477946 132.008235 
L 347.771842 132.12623 
L 349.065738 132.277863 
L 350.359634 132.300301 
L 351.65353 132.1098 
L 352.947426 131.703853 
L 354.241322 131.137199 
L 355.535219 130.517347 
L 356.829115 129.961723 
L 358.123011 129.556779 
L 359.416907 129.366751 
L 360.710803 129.33849 
L 362.004699 129.249917 
L 363.298595 129.099834 
L 364.592492 128.973306 
L 365.886388 128.838231 
L 367.180284 128.66476 
L 368.47418 128.4714 
L 369.768076 128.251676 
L 371.061972 128.06908 
L 372.355868 127.867715 
L 373.649765 127.687728 
L 374.943661 127.544928 
L 376.237557 127.422523 
L 377.531453 127.31241 
L 378.825349 127.21446 
L 380.119245 127.105821 
L 381.413141 127.005876 
L 382.707038 126.903699 
L 384.000934 126.845506 
L 385.29483 126.76873 
L 386.588726 126.663907 
L 387.882622 126.55978 
L 389.176518 126.466688 
L 390.470415 126.435587 
L 391.764311 126.445152 
L 393.058207 126.394547 
L 394.352103 126.35421 
L 395.645999 126.328175 
L 396.939895 126.246672 
L 398.233791 126.225259 
L 399.527688 126.204665 
L 400.821584 126.255128 
L 402.11548 126.255752 
L 403.409376 126.223868 
L 404.703272 126.195235 
L 405.997168 126.159568 
L 407.291064 126.13489 
L 408.584961 126.117299 
L 409.878857 126.08935 
L 411.172753 126.041962 
L 412.466649 126.015005 
L 412.466649 90.614449 
L 412.466649 90.614449 
L 411.172753 90.616662 
L 409.878857 90.635197 
L 408.584961 90.610457 
L 407.291064 90.653213 
L 405.997168 90.697014 
L 404.703272 90.70232 
L 403.409376 90.701428 
L 402.11548 90.675061 
L 400.821584 90.635757 
L 399.527688 90.646944 
L 398.233791 90.628056 
L 396.939895 90.653341 
L 395.645999 90.647313 
L 394.352103 90.621813 
L 393.058207 90.608039 
L 391.764311 90.584574 
L 390.470415 90.590084 
L 389.176518 90.612193 
L 387.882622 90.632639 
L 386.588726 90.671331 
L 385.29483 90.683541 
L 384.000934 90.699184 
L 382.707038 90.682021 
L 381.413141 90.665125 
L 380.119245 90.643162 
L 378.825349 90.647904 
L 377.531453 90.616569 
L 376.237557 90.641669 
L 374.943661 90.646595 
L 373.649765 90.634669 
L 372.355868 90.643413 
L 371.061972 90.60608 
L 369.768076 90.573741 
L 368.47418 90.573448 
L 367.180284 90.526818 
L 365.886388 90.52944 
L 364.592492 90.496947 
L 363.298595 90.468445 
L 362.004699 90.498391 
L 360.710803 90.508263 
L 359.416907 90.524535 
L 358.123011 90.473831 
L 356.829115 90.384673 
L 355.535219 90.217561 
L 354.241322 90.033594 
L 352.947426 89.903938 
L 351.65353 89.780845 
L 350.359634 89.771635 
L 349.065738 89.784821 
L 347.771842 89.838511 
L 346.477946 89.875122 
L 345.184049 89.923248 
L 343.890153 89.959682 
L 342.596257 89.946069 
L 341.302361 89.941809 
L 340.008465 89.932573 
L 338.714569 89.964418 
L 337.420672 90.052179 
L 336.126776 90.077236 
L 334.83288 90.153308 
L 333.538984 90.185457 
L 332.245088 90.237743 
L 330.951192 90.287409 
L 329.657296 90.333862 
L 328.363399 90.399788 
L 327.069503 90.399278 
L 325.775607 90.499818 
L 324.481711 90.631173 
L 323.187815 90.813492 
L 321.893919 90.94772 
L 320.600023 91.044273 
L 319.306126 91.115793 
L 318.01223 91.121243 
L 316.718334 91.109276 
L 315.424438 91.083961 
L 314.130542 91.056702 
L 312.836646 91.028693 
L 311.54275 91.005388 
L 310.248853 91.00792 
L 308.954957 91.008546 
L 307.661061 91.003908 
L 306.367165 90.99954 
L 305.073269 90.984554 
L 303.779373 90.987476 
L 302.485477 90.965734 
L 301.19158 90.941213 
L 299.897684 90.933179 
L 298.603788 90.920959 
L 297.309892 90.89934 
L 296.015996 90.84919 
L 294.7221 90.859358 
L 293.428203 90.841688 
L 292.134307 90.857432 
L 290.840411 90.910881 
L 289.546515 90.958465 
L 288.252619 91.022703 
L 286.958723 91.033464 
L 285.664827 91.038423 
L 284.37093 91.09245 
L 283.077034 91.120767 
L 281.783138 91.160609 
L 280.489242 91.197873 
L 279.195346 91.221342 
L 277.90145 91.260965 
L 276.607554 91.326078 
L 275.313657 91.363214 
L 274.019761 91.402644 
L 272.725865 91.442786 
L 271.431969 91.463317 
L 270.138073 91.499587 
L 268.844177 91.531225 
L 267.550281 91.548192 
L 266.256384 91.579156 
L 264.962488 91.619197 
L 263.668592 91.653693 
L 262.374696 91.669448 
L 261.0808 91.68971 
L 259.786904 91.701346 
L 258.493008 91.68919 
L 257.199111 91.726558 
L 255.905215 91.727848 
L 254.611319 91.773233 
L 253.317423 91.824415 
L 252.023527 91.813156 
L 250.729631 91.864977 
L 249.435734 91.910712 
L 248.141838 91.955346 
L 246.847942 91.995922 
L 245.554046 92.007111 
L 244.26015 91.993794 
L 242.966254 92.021739 
L 241.672358 92.064846 
L 240.378461 92.117254 
L 239.084565 92.192586 
L 237.790669 92.266746 
L 236.496773 92.342379 
L 235.202877 92.396789 
L 233.908981 92.47546 
L 232.615085 92.507422 
L 231.321188 92.584304 
L 230.027292 92.681397 
L 228.733396 92.762445 
L 227.4395 92.813039 
L 226.145604 92.893308 
L 224.851708 92.98817 
L 223.557812 93.142665 
L 222.263915 93.254781 
L 220.970019 93.358151 
L 219.676123 93.485113 
L 218.382227 93.61256 
L 217.088331 93.767439 
L 215.794435 93.935104 
L 214.500539 94.105358 
L 213.206642 94.312093 
L 211.912746 94.502676 
L 210.61885 94.729669 
L 209.324954 94.951954 
L 208.031058 95.193044 
L 206.737162 95.432242 
L 205.443265 95.698168 
L 204.149369 96.032125 
L 202.855473 96.392043 
L 201.561577 96.753429 
L 200.267681 97.187047 
L 198.973785 97.624095 
L 197.679889 98.118076 
L 196.385992 98.724604 
L 195.092096 99.398579 
L 193.7982 100.045967 
L 192.504304 100.704346 
L 191.210408 101.354582 
L 189.916512 102.083099 
L 188.622616 102.866472 
L 187.328719 103.707176 
L 186.034823 104.553699 
L 184.740927 105.389376 
L 183.447031 106.333712 
L 182.153135 107.432894 
L 180.859239 108.614022 
L 179.565343 109.905264 
L 178.271446 111.186608 
L 176.97755 112.368448 
L 175.683654 113.472279 
L 174.389758 114.546054 
L 173.095862 115.576309 
L 171.801966 116.584622 
L 170.50807 117.684127 
L 169.214173 118.880832 
L 167.920277 120.169825 
L 166.626381 121.511155 
L 165.332485 122.717512 
L 164.038589 123.976651 
L 162.744693 125.862669 
L 161.450796 129.003417 
L 160.1569 133.370271 
L 158.863004 138.620996 
L 157.569108 144.457077 
L 156.275212 150.415831 
L 154.981316 156.220583 
L 153.68742 161.537666 
L 152.393523 166.176942 
L 151.099627 170.279489 
L 149.805731 173.841165 
L 148.511835 176.723545 
L 147.217939 178.772056 
L 145.924043 179.926309 
L 144.630147 180.338817 
L 143.33625 180.130755 
L 142.042354 179.450847 
L 140.748458 178.429316 
L 139.454562 177.206298 
L 138.160666 175.916002 
L 136.86677 174.629248 
L 135.572874 173.49432 
L 134.278977 172.6727 
L 132.985081 172.166137 
L 131.691185 171.905807 
L 130.397289 171.875636 
L 129.103393 172.114675 
L 127.809497 172.307022 
L 126.515601 172.192625 
L 125.221704 171.775586 
L 123.927808 171.334988 
L 122.633912 172.290187 
L 121.340016 171.752825 
L 120.04612 170.069616 
L 118.752224 168.138591 
L 117.458327 166.180752 
L 116.164431 164.449076 
L 114.870535 163.156112 
L 113.576639 162.349589 
L 112.282743 161.765667 
L 110.988847 161.504924 
L 109.694951 161.418406 
L 108.401054 161.731396 
L 107.107158 162.644265 
L 105.813262 164.210209 
L 104.519366 165.719807 
L 103.22547 167.09515 
L 101.931574 168.344868 
L 100.637678 169.468052 
L 99.343781 170.479026 
L 98.049885 171.387384 
L 96.755989 172.282448 
L 95.462093 173.416708 
L 94.168197 175.280487 
L 92.874301 178.746672 
L 91.580405 181.864603 
L 90.286508 174.669267 
z
" style="fill:#4daf4a;fill-opacity:0.2;"/>
   </g>
   <g id="line2d_1">
    <path clip-path="url(#p4f3bd6ba5d)" d="M 90.286508 195.006856 
L 91.580405 205.457728 
L 92.874301 195.543656 
L 94.168197 188.082795 
L 95.462093 183.957524 
L 96.755989 181.502938 
L 98.049885 179.953888 
L 99.343781 178.923387 
L 100.637678 178.18954 
L 103.22547 177.232676 
L 105.813262 176.640882 
L 107.107158 176.426876 
L 108.401054 176.45799 
L 109.694951 176.709688 
L 110.988847 177.143994 
L 112.282743 177.730597 
L 113.576639 178.608304 
L 114.870535 179.75193 
L 116.164431 181.251825 
L 117.458327 183.063339 
L 122.633912 191.187345 
L 123.927808 192.128641 
L 126.515601 196.86078 
L 127.809497 198.715882 
L 129.103393 199.907661 
L 130.397289 200.443287 
L 131.691185 200.499714 
L 134.278977 200.223304 
L 135.572874 200.251781 
L 136.86677 200.570885 
L 138.160666 201.130741 
L 140.748458 202.575869 
L 142.042354 203.155204 
L 143.33625 203.532085 
L 144.630147 203.648123 
L 145.924043 203.315408 
L 147.217939 202.46248 
L 148.511835 200.911118 
L 149.805731 198.602657 
L 151.099627 195.568823 
L 152.393523 191.8696 
L 157.569108 175.160274 
L 158.863004 171.44329 
L 160.1569 168.198735 
L 161.450796 165.530506 
L 162.744693 163.43967 
L 167.920277 156.688564 
L 169.214173 154.472131 
L 171.801966 149.260363 
L 178.271446 135.216875 
L 179.565343 132.802789 
L 180.859239 130.665213 
L 182.153135 128.892034 
L 183.447031 127.495013 
L 184.740927 126.503859 
L 191.210408 123.329468 
L 198.973785 120.05738 
L 202.855473 118.941324 
L 205.443265 118.360935 
L 210.61885 117.628149 
L 218.382227 116.91707 
L 240.378461 115.745059 
L 258.493008 115.091556 
L 264.962488 114.938511 
L 288.252619 113.997423 
L 294.7221 113.533186 
L 305.073269 112.765266 
L 312.836646 111.875561 
L 319.306126 111.119058 
L 321.893919 111.209759 
L 324.481711 111.38433 
L 327.069503 111.314367 
L 330.951192 111.036708 
L 337.420672 110.892427 
L 342.596257 110.900785 
L 351.65353 110.945322 
L 354.241322 110.585397 
L 358.123011 110.015305 
L 382.707038 108.79286 
L 386.588726 108.667619 
L 390.470415 108.512836 
L 405.997168 108.428291 
L 412.466649 108.314727 
L 412.466649 108.314727 
" style="fill:none;stroke:#e41a1c;stroke-linecap:square;stroke-width:2;"/>
   </g>
   <g id="line2d_2">
    <path clip-path="url(#p4f3bd6ba5d)" d="M 90.286508 195.006856 
L 91.580405 205.457728 
L 92.874301 195.543656 
L 94.168197 188.082795 
L 95.462093 183.957524 
L 96.755989 181.502938 
L 98.049885 179.953888 
L 99.343781 178.923387 
L 100.637678 178.18954 
L 103.22547 177.232676 
L 105.813262 176.640882 
L 107.107158 176.426876 
L 108.401054 176.45799 
L 109.694951 176.709688 
L 110.988847 177.143994 
L 112.282743 177.730597 
L 113.576639 178.608304 
L 114.870535 179.75193 
L 116.164431 181.251825 
L 117.458327 183.063339 
L 122.633912 191.187345 
L 123.927808 192.128641 
L 126.515601 196.86078 
L 127.809497 198.715882 
L 129.103393 199.907661 
L 130.397289 200.443287 
L 131.691185 200.499714 
L 134.278977 200.223304 
L 135.572874 200.251781 
L 136.86677 200.570885 
L 138.160666 201.130741 
L 140.748458 202.575869 
L 142.042354 203.155204 
L 143.33625 203.532085 
L 144.630147 203.648123 
L 145.924043 203.315408 
L 147.217939 202.46248 
L 148.511835 200.911118 
L 149.805731 198.602657 
L 151.099627 195.568823 
L 152.393523 191.8696 
L 157.569108 175.160274 
L 158.863004 171.44329 
L 160.1569 168.198735 
L 161.450796 165.530506 
L 162.744693 163.43967 
L 167.920277 156.688564 
L 169.214173 154.472131 
L 171.801966 149.260363 
L 178.271446 135.216875 
L 179.565343 132.802789 
L 180.859239 130.665213 
L 182.153135 128.892034 
L 183.447031 127.495013 
L 184.740927 126.503859 
L 191.210408 123.329468 
L 198.973785 120.05738 
L 202.855473 118.941324 
L 205.443265 118.360935 
L 210.61885 117.628149 
L 218.382227 116.91707 
L 240.378461 115.745059 
L 258.493008 115.091556 
L 264.962488 114.938511 
L 288.252619 113.997423 
L 294.7221 113.533186 
L 305.073269 112.765266 
L 312.836646 111.875561 
L 319.306126 111.119058 
L 321.893919 111.209759 
L 324.481711 111.38433 
L 327.069503 111.314367 
L 330.951192 111.036708 
L 337.420672 110.892427 
L 342.596257 110.900785 
L 351.65353 110.945322 
L 354.241322 110.585397 
L 358.123011 110.015305 
L 382.707038 108.79286 
L 386.588726 108.667619 
L 390.470415 108.512836 
L 405.997168 108.428291 
L 412.466649 108.314727 
L 412.466649 108.314727 
" style="fill:none;stroke:#377eb8;stroke-dasharray:12,12;stroke-dashoffset:0;stroke-linecap:round;stroke-linejoin:miter;stroke-width:2;"/>
   </g>
   <g id="line2d_3">
    <path clip-path="url(#p4f3bd6ba5d)" d="M 90.286508 195.006856 
L 91.580405 205.457728 
L 92.874301 195.543656 
L 94.168197 188.082795 
L 95.462093 183.957524 
L 96.755989 181.502938 
L 98.049885 179.953888 
L 99.343781 178.923387 
L 100.637678 178.18954 
L 103.22547 177.232676 
L 105.813262 176.640882 
L 107.107158 176.426876 
L 108.401054 176.45799 
L 109.694951 176.709688 
L 110.988847 177.143994 
L 112.282743 177.730597 
L 113.576639 178.608304 
L 114.870535 179.75193 
L 116.164431 181.251825 
L 117.458327 183.063339 
L 122.633912 191.187345 
L 123.927808 192.128641 
L 126.515601 196.86078 
L 127.809497 198.715882 
L 129.103393 199.907661 
L 130.397289 200.443287 
L 131.691185 200.499714 
L 134.278977 200.223304 
L 135.572874 200.251781 
L 136.86677 200.570885 
L 138.160666 201.130741 
L 140.748458 202.575869 
L 142.042354 203.155204 
L 143.33625 203.532085 
L 144.630147 203.648123 
L 145.924043 203.315408 
L 147.217939 202.46248 
L 148.511835 200.911118 
L 149.805731 198.602657 
L 151.099627 195.568823 
L 152.393523 191.8696 
L 157.569108 175.160274 
L 158.863004 171.44329 
L 160.1569 168.198735 
L 161.450796 165.530506 
L 162.744693 163.43967 
L 167.920277 156.688564 
L 169.214173 154.472131 
L 171.801966 149.260363 
L 178.271446 135.216875 
L 179.565343 132.802789 
L 180.859239 130.665213 
L 182.153135 128.892034 
L 183.447031 127.495013 
L 184.740927 126.503859 
L 191.210408 123.329468 
L 198.973785 120.05738 
L 202.855473 118.941324 
L 205.443265 118.360935 
L 210.61885 117.628149 
L 218.382227 116.91707 
L 240.378461 115.745059 
L 258.493008 115.091556 
L 264.962488 114.938511 
L 288.252619 113.997423 
L 294.7221 113.533186 
L 305.073269 112.765266 
L 312.836646 111.875561 
L 319.306126 111.119058 
L 321.893919 111.209759 
L 324.481711 111.38433 
L 327.069503 111.314367 
L 330.951192 111.036708 
L 337.420672 110.892427 
L 342.596257 110.900785 
L 351.65353 110.945322 
L 354.241322 110.585397 
L 358.123011 110.015305 
L 382.707038 108.79286 
L 386.588726 108.667619 
L 390.470415 108.512836 
L 405.997168 108.428291 
L 412.466649 108.314727 
L 412.466649 108.314727 
" style="fill:none;stroke:#4daf4a;stroke-dasharray:6,10,2,10;stroke-dashoffset:0;stroke-linecap:round;stroke-linejoin:miter;stroke-width:2;"/>
   </g>
   <g id="patch_3">
    <path d="M 74.177501 236.05972 
L 74.177501 13.852984 
" style="fill:none;stroke:#000000;stroke-linecap:square;stroke-linejoin:miter;stroke-width:0.8;"/>
   </g>
   <g id="patch_4">
    <path d="M 74.177501 236.05972 
L 428.575656 236.05972 
" style="fill:none;stroke:#000000;stroke-linecap:square;stroke-linejoin:miter;stroke-width:0.8;"/>
   </g>
   <g id="matplotlib.axis_1">
    <g id="xtick_1">
     <g id="line2d_4">
      <path clip-path="url(#p4f3bd6ba5d)" d="M 88.669138 236.05972 
L 88.669138 13.852984 
" style="fill:none;stroke:#bfbfbf;stroke-dasharray:0.8,2.4;stroke-dashoffset:0;stroke-linecap:round;stroke-linejoin:miter;stroke-width:0.8;"/>
     </g>
     <g id="line2d_5">
      <defs>
       <path d="M 0 0 
L 0 3.5 
" id="m2a05765001" style="stroke:#000000;stroke-width:0.8;"/>
      </defs>
      <g>
       <use style="stroke:#000000;stroke-width:0.8;" x="88.669138" xlink:href="#m2a05765001" y="236.05972"/>
      </g>
     </g>
     <g id="text_1">
      <!-- $\mathdefault{0}$ -->
      <g transform="translate(84.556995 256.365688)scale(0.18 -0.18)">
       <defs>
        <path d="M 2688 2025 
C 2688 2416 2682 3080 2413 3591 
C 2176 4039 1798 4198 1466 4198 
C 1158 4198 768 4058 525 3597 
C 269 3118 243 2524 243 2025 
C 243 1661 250 1106 448 619 
C 723 -39 1216 -128 1466 -128 
C 1760 -128 2208 -7 2470 600 
C 2662 1042 2688 1559 2688 2025 
z
M 1466 -26 
C 1056 -26 813 325 723 812 
C 653 1188 653 1738 653 2096 
C 653 2588 653 2997 736 3387 
C 858 3929 1216 4096 1466 4096 
C 1728 4096 2067 3923 2189 3400 
C 2272 3036 2278 2607 2278 2096 
C 2278 1680 2278 1169 2202 792 
C 2067 95 1690 -26 1466 -26 
z
" id="CMR17-30" transform="scale(0.015625)"/>
       </defs>
       <use transform="scale(0.996264)" xlink:href="#CMR17-30"/>
      </g>
     </g>
    </g>
    <g id="xtick_2">
     <g id="line2d_6">
      <path clip-path="url(#p4f3bd6ba5d)" d="M 153.363946 236.05972 
L 153.363946 13.852984 
" style="fill:none;stroke:#bfbfbf;stroke-dasharray:0.8,2.4;stroke-dashoffset:0;stroke-linecap:round;stroke-linejoin:miter;stroke-width:0.8;"/>
     </g>
     <g id="line2d_7">
      <g>
       <use style="stroke:#000000;stroke-width:0.8;" x="153.363946" xlink:href="#m2a05765001" y="236.05972"/>
      </g>
     </g>
     <g id="text_2">
      <!-- $\mathdefault{200}$ -->
      <g transform="translate(141.027517 256.365688)scale(0.18 -0.18)">
       <defs>
        <path d="M 2669 989 
L 2554 989 
C 2490 536 2438 459 2413 420 
C 2381 369 1920 369 1830 369 
L 602 369 
C 832 619 1280 1072 1824 1597 
C 2214 1967 2669 2402 2669 3035 
C 2669 3790 2067 4224 1395 4224 
C 691 4224 262 3604 262 3030 
C 262 2780 448 2748 525 2748 
C 589 2748 781 2787 781 3010 
C 781 3207 614 3264 525 3264 
C 486 3264 448 3258 422 3245 
C 544 3790 915 4058 1306 4058 
C 1862 4058 2227 3617 2227 3035 
C 2227 2479 1901 2000 1536 1584 
L 262 146 
L 262 0 
L 2515 0 
L 2669 989 
z
" id="CMR17-32" transform="scale(0.015625)"/>
       </defs>
       <use transform="scale(0.996264)" xlink:href="#CMR17-32"/>
       <use transform="translate(45.690477 0)scale(0.996264)" xlink:href="#CMR17-30"/>
       <use transform="translate(91.380954 0)scale(0.996264)" xlink:href="#CMR17-30"/>
      </g>
     </g>
    </g>
    <g id="xtick_3">
     <g id="line2d_8">
      <path clip-path="url(#p4f3bd6ba5d)" d="M 218.058753 236.05972 
L 218.058753 13.852984 
" style="fill:none;stroke:#bfbfbf;stroke-dasharray:0.8,2.4;stroke-dashoffset:0;stroke-linecap:round;stroke-linejoin:miter;stroke-width:0.8;"/>
     </g>
     <g id="line2d_9">
      <g>
       <use style="stroke:#000000;stroke-width:0.8;" x="218.058753" xlink:href="#m2a05765001" y="236.05972"/>
      </g>
     </g>
     <g id="text_3">
      <!-- $\mathdefault{400}$ -->
      <g transform="translate(205.722324 256.365688)scale(0.18 -0.18)">
       <defs>
        <path d="M 2150 4122 
C 2150 4256 2144 4256 2029 4256 
L 128 1254 
L 128 1088 
L 1779 1088 
L 1779 457 
C 1779 224 1766 160 1318 160 
L 1197 160 
L 1197 0 
C 1402 0 1747 0 1965 0 
C 2182 0 2528 0 2733 0 
L 2733 160 
L 2611 160 
C 2163 160 2150 224 2150 457 
L 2150 1088 
L 2803 1088 
L 2803 1254 
L 2150 1254 
L 2150 4122 
z
M 1798 3703 
L 1798 1254 
L 256 1254 
L 1798 3703 
z
" id="CMR17-34" transform="scale(0.015625)"/>
       </defs>
       <use transform="scale(0.996264)" xlink:href="#CMR17-34"/>
       <use transform="translate(45.690477 0)scale(0.996264)" xlink:href="#CMR17-30"/>
       <use transform="translate(91.380954 0)scale(0.996264)" xlink:href="#CMR17-30"/>
      </g>
     </g>
    </g>
    <g id="xtick_4">
     <g id="line2d_10">
      <path clip-path="url(#p4f3bd6ba5d)" d="M 282.75356 236.05972 
L 282.75356 13.852984 
" style="fill:none;stroke:#bfbfbf;stroke-dasharray:0.8,2.4;stroke-dashoffset:0;stroke-linecap:round;stroke-linejoin:miter;stroke-width:0.8;"/>
     </g>
     <g id="line2d_11">
      <g>
       <use style="stroke:#000000;stroke-width:0.8;" x="282.75356" xlink:href="#m2a05765001" y="236.05972"/>
      </g>
     </g>
     <g id="text_4">
      <!-- $\mathdefault{600}$ -->
      <g transform="translate(270.417131 256.365688)scale(0.18 -0.18)">
       <defs>
        <path d="M 678 2176 
C 678 3690 1395 4032 1811 4032 
C 1946 4032 2272 4009 2400 3776 
C 2298 3776 2106 3776 2106 3553 
C 2106 3381 2246 3323 2336 3323 
C 2394 3323 2566 3348 2566 3560 
C 2566 3954 2246 4179 1805 4179 
C 1043 4179 243 3390 243 1984 
C 243 253 966 -128 1478 -128 
C 2099 -128 2688 427 2688 1283 
C 2688 2081 2170 2662 1517 2662 
C 1126 2662 838 2407 678 1960 
L 678 2176 
z
M 1478 25 
C 691 25 691 1200 691 1436 
C 691 1896 909 2560 1504 2560 
C 1613 2560 1926 2560 2138 2120 
C 2253 1870 2253 1609 2253 1289 
C 2253 944 2253 690 2118 434 
C 1978 171 1773 25 1478 25 
z
" id="CMR17-36" transform="scale(0.015625)"/>
       </defs>
       <use transform="scale(0.996264)" xlink:href="#CMR17-36"/>
       <use transform="translate(45.690477 0)scale(0.996264)" xlink:href="#CMR17-30"/>
       <use transform="translate(91.380954 0)scale(0.996264)" xlink:href="#CMR17-30"/>
      </g>
     </g>
    </g>
    <g id="xtick_5">
     <g id="line2d_12">
      <path clip-path="url(#p4f3bd6ba5d)" d="M 347.448368 236.05972 
L 347.448368 13.852984 
" style="fill:none;stroke:#bfbfbf;stroke-dasharray:0.8,2.4;stroke-dashoffset:0;stroke-linecap:round;stroke-linejoin:miter;stroke-width:0.8;"/>
     </g>
     <g id="line2d_13">
      <g>
       <use style="stroke:#000000;stroke-width:0.8;" x="347.448368" xlink:href="#m2a05765001" y="236.05972"/>
      </g>
     </g>
     <g id="text_5">
      <!-- $\mathdefault{800}$ -->
      <g transform="translate(335.111939 256.365688)scale(0.18 -0.18)">
       <defs>
        <path d="M 1741 2264 
C 2144 2467 2554 2773 2554 3263 
C 2554 3841 1990 4179 1472 4179 
C 890 4179 378 3759 378 3180 
C 378 3021 416 2747 666 2505 
C 730 2442 998 2251 1171 2130 
C 883 1983 211 1634 211 934 
C 211 279 838 -128 1459 -128 
C 2144 -128 2720 362 2720 1010 
C 2720 1590 2330 1857 2074 2029 
L 1741 2264 
z
M 902 2822 
C 851 2854 595 3051 595 3351 
C 595 3739 998 4032 1459 4032 
C 1965 4032 2336 3676 2336 3262 
C 2336 2669 1670 2331 1638 2331 
C 1632 2331 1626 2331 1574 2370 
L 902 2822 
z
M 2080 1519 
C 2176 1449 2483 1240 2483 851 
C 2483 381 2010 25 1472 25 
C 890 25 448 438 448 940 
C 448 1443 838 1862 1280 2060 
L 2080 1519 
z
" id="CMR17-38" transform="scale(0.015625)"/>
       </defs>
       <use transform="scale(0.996264)" xlink:href="#CMR17-38"/>
       <use transform="translate(45.690477 0)scale(0.996264)" xlink:href="#CMR17-30"/>
       <use transform="translate(91.380954 0)scale(0.996264)" xlink:href="#CMR17-30"/>
      </g>
     </g>
    </g>
    <g id="xtick_6">
     <g id="line2d_14">
      <path clip-path="url(#p4f3bd6ba5d)" d="M 412.143175 236.05972 
L 412.143175 13.852984 
" style="fill:none;stroke:#bfbfbf;stroke-dasharray:0.8,2.4;stroke-dashoffset:0;stroke-linecap:round;stroke-linejoin:miter;stroke-width:0.8;"/>
     </g>
     <g id="line2d_15">
      <g>
       <use style="stroke:#000000;stroke-width:0.8;" x="412.143175" xlink:href="#m2a05765001" y="236.05972"/>
      </g>
     </g>
     <g id="text_6">
      <!-- $\mathdefault{1000}$ -->
      <g transform="translate(395.694603 256.365688)scale(0.18 -0.18)">
       <defs>
        <path d="M 1702 4058 
C 1702 4192 1696 4192 1606 4192 
C 1357 3916 979 3827 621 3827 
C 602 3827 570 3827 563 3808 
C 557 3795 557 3782 557 3648 
C 755 3648 1088 3686 1344 3839 
L 1344 461 
C 1344 236 1331 160 781 160 
L 589 160 
L 589 0 
C 896 0 1216 0 1523 0 
C 1830 0 2150 0 2458 0 
L 2458 160 
L 2266 160 
C 1715 160 1702 230 1702 458 
L 1702 4058 
z
" id="CMR17-31" transform="scale(0.015625)"/>
       </defs>
       <use transform="scale(0.996264)" xlink:href="#CMR17-31"/>
       <use transform="translate(45.690477 0)scale(0.996264)" xlink:href="#CMR17-30"/>
       <use transform="translate(91.380954 0)scale(0.996264)" xlink:href="#CMR17-30"/>
       <use transform="translate(137.071431 0)scale(0.996264)" xlink:href="#CMR17-30"/>
      </g>
     </g>
    </g>
    <g id="text_7">
     <!-- Time Step -->
     <g transform="translate(199.410061 281.0357)scale(0.22 -0.22)">
      <defs>
       <path d="M 4051 4608 
L 218 4608 
L 122 2833 
L 397 2833 
C 442 3152 499 3395 570 3599 
C 736 4065 1043 4308 1478 4308 
C 1690 4308 1779 4237 1779 4078 
L 1779 786 
L 1779 600 
C 1779 332 1722 300 1203 300 
L 1037 300 
L 1037 0 
L 3232 0 
L 3232 300 
L 3066 300 
C 2554 300 2496 332 2496 600 
L 2496 786 
L 2496 4078 
C 2496 4237 2586 4308 2797 4308 
C 3187 4308 3501 4090 3661 3707 
C 3757 3472 3821 3197 3872 2833 
L 4147 2833 
L 4051 4608 
z
" id="CenturySchL-Roma-54" transform="scale(0.015625)"/>
       <path d="M 1318 2944 
L 115 2944 
L 115 2638 
L 442 2638 
C 678 2638 717 2593 717 2317 
L 717 787 
L 717 531 
C 717 275 646 230 237 230 
L 192 230 
L 192 0 
L 1850 0 
L 1850 230 
L 1805 230 
C 1389 230 1318 274 1318 526 
L 1318 779 
L 1318 2944 
z
M 1018 4581 
C 813 4581 646 4415 646 4211 
C 646 4013 813 3840 1011 3840 
C 1222 3840 1389 4006 1389 4211 
C 1389 4415 1222 4581 1018 4581 
z
" id="CenturySchL-Roma-69" transform="scale(0.015625)"/>
       <path d="M 1286 2944 
L 147 2944 
L 147 2638 
L 410 2638 
C 646 2638 685 2593 685 2317 
L 685 787 
L 685 538 
C 685 275 614 230 205 230 
L 179 230 
L 179 0 
L 1792 0 
L 1792 230 
L 1766 230 
C 1357 230 1286 275 1286 537 
L 1286 786 
L 1286 1693 
C 1286 2261 1600 2683 2016 2683 
C 2182 2683 2362 2593 2438 2472 
C 2528 2351 2566 2165 2566 1903 
L 2566 786 
L 2566 530 
C 2566 275 2496 230 2080 230 
L 2054 230 
L 2054 0 
L 3674 0 
L 3674 230 
L 3648 230 
C 3238 230 3168 275 3168 530 
L 3168 786 
L 3168 1635 
C 3168 2274 3456 2683 3904 2683 
C 4115 2683 4288 2561 4371 2363 
C 4429 2223 4448 2082 4448 1833 
L 4448 786 
L 4448 530 
C 4448 275 4378 230 3962 230 
L 3936 230 
L 3936 0 
L 5555 0 
L 5555 230 
L 5530 230 
C 5120 230 5050 275 5050 537 
L 5050 786 
L 5050 1961 
C 5050 2357 5011 2491 4845 2708 
C 4659 2945 4397 3072 4090 3072 
C 3674 3072 3366 2876 3091 2439 
C 2982 2819 2637 3072 2208 3072 
C 1824 3072 1536 2889 1286 2491 
L 1286 2944 
z
" id="CenturySchL-Roma-6d" transform="scale(0.015625)"/>
       <path d="M 2976 1472 
C 2982 2420 2438 3090 1658 3090 
C 838 3090 224 2384 224 1430 
C 224 540 806 -64 1670 -64 
C 2278 -64 2714 236 2976 844 
L 2752 966 
C 2490 473 2221 281 1792 281 
C 1466 281 1229 422 1062 704 
C 947 896 896 1120 902 1472 
L 2976 1472 
z
M 909 1747 
C 909 1942 934 2080 998 2256 
C 1133 2633 1338 2816 1645 2816 
C 2035 2816 2291 2482 2291 1979 
C 2291 1797 2234 1747 2029 1747 
L 909 1747 
z
" id="CenturySchL-Roma-65" transform="scale(0.015625)"/>
       <path d="M 3494 4608 
L 3258 4608 
L 3002 4230 
C 2701 4518 2291 4672 1837 4672 
C 998 4672 435 4135 435 3338 
C 435 2642 781 2297 1722 2055 
L 2330 1901 
C 2803 1781 2848 1768 2982 1666 
C 3174 1519 3277 1308 3277 1059 
C 3277 804 3181 594 2989 422 
C 2778 236 2566 166 2214 166 
C 1741 166 1402 312 1101 642 
C 832 941 698 1240 602 1728 
L 326 1728 
L 352 -92 
L 602 -92 
L 890 350 
C 1318 0 1677 -128 2234 -128 
C 3174 -128 3776 422 3776 1276 
C 3776 1671 3642 2010 3392 2253 
C 3219 2419 2970 2527 2458 2655 
L 1773 2827 
C 1203 2974 934 3223 934 3612 
C 934 4058 1299 4365 1843 4365 
C 2291 4365 2656 4172 2912 3807 
C 3098 3544 3213 3274 3296 2947 
L 3571 2947 
L 3494 4608 
z
" id="CenturySchL-Roma-53" transform="scale(0.015625)"/>
       <path d="M 1242 3008 
L 1242 4288 
L 979 4288 
C 915 3448 634 3020 115 2982 
L 115 2733 
L 640 2733 
L 640 1105 
C 640 658 653 498 717 351 
C 819 83 1075 -64 1446 -64 
C 1696 -64 1914 13 2061 153 
C 2272 358 2394 696 2394 1048 
C 2394 1086 2394 1131 2387 1195 
L 2118 1195 
C 2099 620 1933 326 1619 326 
C 1472 326 1344 402 1299 511 
C 1261 600 1242 760 1242 990 
L 1242 2733 
L 2182 2733 
L 2182 3008 
L 1242 3008 
z
" id="CenturySchL-Roma-74" transform="scale(0.015625)"/>
       <path d="M 1286 2944 
L 179 2944 
L 179 2638 
L 410 2638 
C 646 2638 685 2593 685 2318 
L 685 -496 
L 685 -750 
C 685 -1006 614 -1050 205 -1050 
L 179 -1050 
L 179 -1280 
L 1843 -1280 
L 1843 -1050 
L 1773 -1050 
C 1357 -1050 1286 -1006 1286 -751 
L 1286 -496 
L 1286 428 
C 1498 58 1741 -89 2131 -89 
C 2874 -89 3424 593 3424 1504 
C 3424 2385 2874 3072 2170 3072 
C 1773 3072 1510 2908 1286 2529 
L 1286 2944 
z
M 2054 2727 
C 2496 2727 2752 2288 2752 1542 
C 2752 721 2490 256 2035 256 
C 1581 256 1280 728 1280 1460 
C 1280 2249 1568 2727 2054 2727 
z
" id="CenturySchL-Roma-70" transform="scale(0.015625)"/>
      </defs>
      <use transform="scale(0.996264)" xlink:href="#CenturySchL-Roma-54"/>
      <use transform="translate(66.450031 0)scale(0.996264)" xlink:href="#CenturySchL-Roma-69"/>
      <use transform="translate(97.831344 0)scale(0.996264)" xlink:href="#CenturySchL-Roma-6d"/>
      <use transform="translate(186.398251 0)scale(0.996264)" xlink:href="#CenturySchL-Roma-65"/>
      <use transform="translate(263.906621 0)scale(0.996264)" xlink:href="#CenturySchL-Roma-53"/>
      <use transform="translate(326.6706 0)scale(0.996264)" xlink:href="#CenturySchL-Roma-74"/>
      <use transform="translate(365.424306 0)scale(0.996264)" xlink:href="#CenturySchL-Roma-65"/>
      <use transform="translate(415.237507 0)scale(0.996264)" xlink:href="#CenturySchL-Roma-70"/>
     </g>
    </g>
   </g>
   <g id="matplotlib.axis_2">
    <g id="ytick_1">
     <g id="line2d_16">
      <path clip-path="url(#p4f3bd6ba5d)" d="M 74.177501 182.128065 
L 428.575656 182.128065 
" style="fill:none;stroke:#bfbfbf;stroke-dasharray:0.8,2.4;stroke-dashoffset:0;stroke-linecap:round;stroke-linejoin:miter;stroke-width:0.8;"/>
     </g>
     <g id="line2d_17">
      <defs>
       <path d="M 0 0 
L -3.5 0 
" id="m9d0a752f19" style="stroke:#000000;stroke-width:0.8;"/>
      </defs>
      <g>
       <use style="stroke:#000000;stroke-width:0.8;" x="74.177501" xlink:href="#m9d0a752f19" y="182.128065"/>
      </g>
     </g>
     <g id="text_8">
      <!-- $\mathdefault{0.10}$ -->
      <g transform="translate(37.627152 188.781049)scale(0.18 -0.18)">
       <defs>
        <path d="M 1178 307 
C 1178 492 1024 619 870 619 
C 685 619 557 466 557 313 
C 557 128 710 0 864 0 
C 1050 0 1178 153 1178 307 
z
" id="CMMI12-3a" transform="scale(0.015625)"/>
       </defs>
       <use transform="scale(0.996264)" xlink:href="#CMR17-30"/>
       <use transform="translate(45.690477 0)scale(0.996264)" xlink:href="#CMMI12-3a"/>
       <use transform="translate(72.787654 0)scale(0.996264)" xlink:href="#CMR17-31"/>
       <use transform="translate(118.478131 0)scale(0.996264)" xlink:href="#CMR17-30"/>
      </g>
     </g>
    </g>
    <g id="ytick_2">
     <g id="line2d_18">
      <path clip-path="url(#p4f3bd6ba5d)" d="M 74.177501 126.036371 
L 428.575656 126.036371 
" style="fill:none;stroke:#bfbfbf;stroke-dasharray:0.8,2.4;stroke-dashoffset:0;stroke-linecap:round;stroke-linejoin:miter;stroke-width:0.8;"/>
     </g>
     <g id="line2d_19">
      <g>
       <use style="stroke:#000000;stroke-width:0.8;" x="74.177501" xlink:href="#m9d0a752f19" y="126.036371"/>
      </g>
     </g>
     <g id="text_9">
      <!-- $\mathdefault{0.11}$ -->
      <g transform="translate(37.627152 132.689355)scale(0.18 -0.18)">
       <use transform="scale(0.996264)" xlink:href="#CMR17-30"/>
       <use transform="translate(45.690477 0)scale(0.996264)" xlink:href="#CMMI12-3a"/>
       <use transform="translate(72.787654 0)scale(0.996264)" xlink:href="#CMR17-31"/>
       <use transform="translate(118.478131 0)scale(0.996264)" xlink:href="#CMR17-31"/>
      </g>
     </g>
    </g>
    <g id="ytick_3">
     <g id="line2d_20">
      <path clip-path="url(#p4f3bd6ba5d)" d="M 74.177501 69.944678 
L 428.575656 69.944678 
" style="fill:none;stroke:#bfbfbf;stroke-dasharray:0.8,2.4;stroke-dashoffset:0;stroke-linecap:round;stroke-linejoin:miter;stroke-width:0.8;"/>
     </g>
     <g id="line2d_21">
      <g>
       <use style="stroke:#000000;stroke-width:0.8;" x="74.177501" xlink:href="#m9d0a752f19" y="69.944678"/>
      </g>
     </g>
     <g id="text_10">
      <!-- $\mathdefault{0.12}$ -->
      <g transform="translate(37.627152 76.597662)scale(0.18 -0.18)">
       <use transform="scale(0.996264)" xlink:href="#CMR17-30"/>
       <use transform="translate(45.690477 0)scale(0.996264)" xlink:href="#CMMI12-3a"/>
       <use transform="translate(72.787654 0)scale(0.996264)" xlink:href="#CMR17-31"/>
       <use transform="translate(118.478131 0)scale(0.996264)" xlink:href="#CMR17-32"/>
      </g>
     </g>
    </g>
    <g id="ytick_4">
     <g id="line2d_22">
      <path clip-path="url(#p4f3bd6ba5d)" d="M 74.177501 13.852984 
L 428.575656 13.852984 
" style="fill:none;stroke:#bfbfbf;stroke-dasharray:0.8,2.4;stroke-dashoffset:0;stroke-linecap:round;stroke-linejoin:miter;stroke-width:0.8;"/>
     </g>
     <g id="line2d_23">
      <g>
       <use style="stroke:#000000;stroke-width:0.8;" x="74.177501" xlink:href="#m9d0a752f19" y="13.852984"/>
      </g>
     </g>
     <g id="text_11">
      <!-- $\mathdefault{0.13}$ -->
      <g transform="translate(37.627152 20.505968)scale(0.18 -0.18)">
       <defs>
        <path d="M 1414 2157 
C 1984 2157 2234 1662 2234 1090 
C 2234 320 1824 25 1453 25 
C 1114 25 563 194 390 693 
C 422 680 454 680 486 680 
C 640 680 755 782 755 948 
C 755 1133 614 1216 486 1216 
C 378 1216 211 1165 211 926 
C 211 335 787 -128 1466 -128 
C 2176 -128 2720 430 2720 1085 
C 2720 1707 2208 2157 1600 2227 
C 2086 2328 2554 2756 2554 3329 
C 2554 3820 2048 4179 1472 4179 
C 890 4179 378 3829 378 3329 
C 378 3110 544 3072 627 3072 
C 762 3072 877 3155 877 3321 
C 877 3486 762 3569 627 3569 
C 602 3569 570 3569 544 3557 
C 730 3959 1235 4032 1459 4032 
C 1683 4032 2106 3925 2106 3320 
C 2106 3143 2080 2828 1862 2550 
C 1670 2304 1453 2304 1242 2284 
C 1210 2284 1062 2269 1037 2269 
C 992 2263 966 2257 966 2208 
C 966 2163 973 2157 1101 2157 
L 1414 2157 
z
" id="CMR17-33" transform="scale(0.015625)"/>
       </defs>
       <use transform="scale(0.996264)" xlink:href="#CMR17-30"/>
       <use transform="translate(45.690477 0)scale(0.996264)" xlink:href="#CMMI12-3a"/>
       <use transform="translate(72.787654 0)scale(0.996264)" xlink:href="#CMR17-31"/>
       <use transform="translate(118.478131 0)scale(0.996264)" xlink:href="#CMR17-33"/>
      </g>
     </g>
    </g>
    <g id="text_12">
     <!-- Reward -->
     <g transform="translate(23.462852 163.925992)rotate(-90)scale(0.22 -0.22)">
      <defs>
       <path d="M 1574 2240 
L 1946 2240 
C 2195 2240 2451 2163 2592 2047 
C 2778 1900 2874 1669 2918 1246 
L 2950 918 
C 3027 193 3264 -102 3770 -102 
C 4294 -102 4544 251 4563 1019 
L 4294 1019 
C 4269 576 4192 384 4019 384 
C 3872 384 3808 493 3699 936 
L 3597 1340 
C 3456 1931 3206 2200 2707 2329 
C 3629 2457 4070 2825 4070 3468 
C 4070 4194 3456 4608 2381 4608 
L 166 4608 
L 166 4308 
L 282 4308 
C 800 4308 858 4276 858 4007 
L 858 3823 
L 858 779 
L 858 600 
C 858 332 800 300 282 300 
L 166 300 
L 166 0 
L 2266 0 
L 2266 300 
L 2150 300 
C 1632 300 1574 332 1574 601 
L 1574 780 
L 1574 2240 
z
M 1574 2540 
L 1574 3944 
C 1574 4200 1581 4219 1645 4270 
C 1696 4308 1741 4308 2016 4308 
L 2362 4308 
C 2995 4308 3283 4040 3283 3462 
C 3283 3137 3200 2889 3034 2756 
C 2874 2623 2586 2540 2278 2540 
L 1574 2540 
z
" id="CenturySchL-Roma-52" transform="scale(0.015625)"/>
       <path d="M 3501 829 
L 2874 2471 
C 2854 2515 2848 2547 2848 2605 
C 2848 2720 2906 2752 3117 2752 
L 3270 2752 
L 3270 2982 
L 1837 2982 
L 1837 2752 
L 1946 2752 
C 2144 2752 2221 2701 2278 2515 
L 2336 2349 
L 1773 858 
L 1152 2464 
C 1139 2509 1126 2566 1126 2605 
C 1126 2713 1197 2752 1389 2752 
L 1504 2752 
L 1504 2982 
L 96 2982 
L 96 2752 
L 211 2752 
C 390 2752 454 2694 544 2438 
L 1504 -96 
L 1728 -96 
L 2490 1926 
L 3270 -96 
L 3469 -96 
L 4365 2265 
C 4506 2643 4614 2752 4838 2752 
L 4883 2752 
L 4883 2982 
L 3674 2982 
L 3674 2752 
L 3782 2752 
C 4006 2752 4096 2681 4096 2522 
C 4096 2458 4077 2362 4045 2285 
L 3501 829 
z
" id="CenturySchL-Roma-77" transform="scale(0.015625)"/>
       <path d="M 2893 2085 
C 2893 2483 2822 2686 2637 2838 
C 2426 3002 2112 3090 1702 3090 
C 986 3090 454 2755 454 2299 
C 454 2058 602 1906 826 1906 
C 1024 1906 1171 2039 1171 2228 
C 1171 2311 1139 2399 1075 2488 
C 1037 2531 1030 2550 1030 2570 
C 1030 2702 1293 2816 1600 2816 
C 1798 2816 2022 2753 2125 2658 
C 2246 2557 2291 2405 2291 2120 
L 2291 1874 
C 1619 1759 1414 1708 1101 1588 
C 550 1383 282 1084 282 682 
C 282 229 646 -64 1210 -64 
C 1651 -64 2048 119 2323 452 
C 2426 127 2586 0 2886 0 
C 3174 0 3475 185 3475 370 
C 3475 414 3443 446 3411 446 
C 3386 446 3360 440 3315 421 
C 3213 384 3187 377 3136 377 
C 2957 377 2893 498 2893 814 
L 2893 2085 
z
M 2291 1310 
C 2291 926 2272 837 2163 671 
C 2003 434 1709 275 1434 275 
C 1146 275 928 486 928 773 
C 928 1041 1062 1233 1344 1367 
C 1542 1456 1792 1520 2291 1603 
L 2291 1310 
z
" id="CenturySchL-Roma-61" transform="scale(0.015625)"/>
       <path d="M 1267 2944 
L 134 2944 
L 134 2638 
L 397 2638 
C 634 2638 672 2593 672 2317 
L 672 787 
L 672 531 
C 672 275 602 230 186 230 
L 160 230 
L 160 0 
L 1869 0 
L 1869 230 
L 1747 230 
C 1338 230 1267 275 1267 531 
L 1267 787 
L 1267 851 
C 1267 1332 1357 1818 1517 2183 
C 1670 2541 1888 2740 2157 2772 
C 2067 2669 2042 2604 2042 2481 
C 2042 2275 2189 2127 2394 2127 
C 2624 2127 2784 2300 2784 2561 
C 2784 2868 2566 3072 2227 3072 
C 1824 3072 1472 2747 1267 2185 
L 1267 2944 
z
" id="CenturySchL-Roma-72" transform="scale(0.015625)"/>
       <path d="M 2432 0 
L 3546 0 
L 3546 301 
L 3430 301 
C 3085 301 3034 365 3034 766 
L 3034 4722 
L 1779 4722 
L 1779 4416 
L 2157 4416 
C 2387 4416 2432 4370 2432 4091 
L 2432 2624 
C 2195 2950 1920 3097 1549 3097 
C 826 3097 275 2403 275 1485 
C 275 580 806 -64 1549 -64 
C 1952 -64 2227 107 2432 486 
L 2432 0 
z
M 1677 2752 
C 1939 2752 2189 2562 2304 2268 
C 2381 2077 2426 1810 2426 1505 
C 2426 766 2131 281 1670 281 
C 1222 281 947 702 947 1409 
C 947 1785 986 2071 1069 2287 
C 1178 2568 1414 2752 1677 2752 
z
" id="CenturySchL-Roma-64" transform="scale(0.015625)"/>
      </defs>
      <use transform="scale(0.996264)" xlink:href="#CenturySchL-Roma-52"/>
      <use transform="translate(71.929985 0)scale(0.996264)" xlink:href="#CenturySchL-Roma-65"/>
      <use transform="translate(121.743185 0)scale(0.996264)" xlink:href="#CenturySchL-Roma-77"/>
      <use transform="translate(197.458976 0)scale(0.996264)" xlink:href="#CenturySchL-Roma-61"/>
      <use transform="translate(252.850653 0)scale(0.996264)" xlink:href="#CenturySchL-Roma-72"/>
      <use transform="translate(297.084222 0)scale(0.996264)" xlink:href="#CenturySchL-Roma-64"/>
     </g>
    </g>
   </g>
   <g id="legend_1">
    <g id="patch_5">
     <path d="M 274.962772 98.192369 
L 423.175656 98.192369 
Q 426.775656 98.192369 426.775656 94.592369 
L 426.775656 19.252984 
Q 426.775656 15.652984 423.175656 15.652984 
L 274.962772 15.652984 
Q 271.362772 15.652984 271.362772 19.252984 
L 271.362772 94.592369 
Q 271.362772 98.192369 274.962772 98.192369 
z
" style="fill:#ffffff;stroke:#cccccc;stroke-linejoin:miter;"/>
    </g>
    <g id="line2d_24">
     <path d="M 278.562772 29.858952 
L 314.562772 29.858952 
" style="fill:none;stroke:#e41a1c;stroke-linecap:square;stroke-width:2;"/>
    </g>
    <g id="line2d_25"/>
    <g id="text_13">
     <!-- LR = 0.005 -->
     <g transform="translate(328.962772 36.158952)scale(0.18 -0.18)">
      <defs>
       <path d="M 4134 1749 
L 3853 1749 
C 3789 1315 3635 881 3469 671 
C 3270 422 2899 300 2362 300 
L 2093 300 
C 1901 300 1741 339 1683 396 
C 1638 434 1632 473 1632 607 
L 1632 3823 
L 1632 4007 
C 1632 4276 1690 4308 2208 4308 
L 2323 4308 
L 2323 4608 
L 224 4608 
L 224 4308 
L 339 4308 
C 858 4308 915 4276 915 4007 
L 915 3823 
L 915 786 
L 915 600 
C 915 332 858 300 339 300 
L 224 300 
L 224 0 
L 4000 0 
L 4134 1749 
z
" id="CenturySchL-Roma-4c" transform="scale(0.015625)"/>
       <path d="M 326 704 
L 3552 704 
L 3552 1215 
L 326 1215 
L 326 704 
z
M 326 1985 
L 3552 1985 
L 3552 2496 
L 326 2496 
L 326 1985 
z
" id="CenturySchL-Roma-3d" transform="scale(0.015625)"/>
       <path d="M 1818 4544 
C 922 4544 269 3564 269 2224 
C 269 904 902 -64 1766 -64 
C 2662 -64 3290 872 3290 2204 
C 3290 2884 3149 3448 2880 3890 
C 2630 4294 2221 4544 1818 4544 
z
M 1773 4269 
C 1984 4269 2189 4128 2342 3872 
C 2515 3576 2573 3198 2573 2320 
C 2573 1422 2528 1000 2400 717 
C 2253 403 2022 211 1779 211 
C 1568 211 1363 352 1210 608 
C 1030 910 979 1314 979 2359 
C 979 3103 1024 3480 1152 3756 
C 1299 4083 1530 4269 1773 4269 
z
" id="CenturySchL-Roma-30" transform="scale(0.015625)"/>
       <path d="M 877 734 
C 653 734 474 555 474 338 
C 474 114 653 -64 870 -64 
C 1094 -64 1274 114 1274 338 
C 1274 555 1094 734 877 734 
z
" id="CenturySchL-Roma-2e" transform="scale(0.015625)"/>
       <path d="M 1050 3821 
C 1395 3738 1574 3712 1824 3712 
C 2368 3712 2765 3904 2976 4255 
C 3046 4377 3072 4434 3072 4485 
C 3072 4524 3053 4543 3021 4543 
C 3002 4543 2970 4536 2938 4517 
C 2624 4383 2451 4351 2086 4351 
C 1677 4351 1440 4383 768 4543 
C 742 4008 685 3327 595 2538 
C 461 2398 416 2315 416 2213 
C 416 2086 499 1997 621 1997 
C 781 1997 883 2133 909 2391 
C 1133 2553 1344 2624 1600 2624 
C 2170 2624 2515 2178 2515 1440 
C 2515 1007 2406 637 2214 437 
C 2086 301 1824 211 1562 211 
C 1178 211 781 411 781 612 
C 781 658 819 709 896 754 
C 1094 877 1152 962 1152 1136 
C 1152 1363 979 1537 749 1537 
C 493 1537 288 1298 288 995 
C 288 672 474 349 762 149 
C 979 7 1242 -64 1574 -64 
C 2579 -64 3213 530 3213 1479 
C 3213 2357 2630 2944 1766 2944 
C 1498 2944 1293 2899 941 2752 
L 1050 3821 
z
" id="CenturySchL-Roma-35" transform="scale(0.015625)"/>
      </defs>
      <use transform="scale(0.996264)" xlink:href="#CenturySchL-Roma-4c"/>
      <use transform="translate(66.450031 0)scale(0.996264)" xlink:href="#CenturySchL-Roma-52"/>
      <use transform="translate(166.075186 0)scale(0.996264)" xlink:href="#CenturySchL-Roma-3d"/>
      <use transform="translate(254.143367 0)scale(0.996264)" xlink:href="#CenturySchL-Roma-30"/>
      <use transform="translate(309.535044 0)scale(0.996264)" xlink:href="#CenturySchL-Roma-2e"/>
      <use transform="translate(337.230214 0)scale(0.996264)" xlink:href="#CenturySchL-Roma-30"/>
      <use transform="translate(392.621891 0)scale(0.996264)" xlink:href="#CenturySchL-Roma-30"/>
      <use transform="translate(448.013568 0)scale(0.996264)" xlink:href="#CenturySchL-Roma-35"/>
     </g>
    </g>
    <g id="line2d_26">
     <path d="M 278.562772 55.572081 
L 314.562772 55.572081 
" style="fill:none;stroke:#377eb8;stroke-dasharray:12,12;stroke-dashoffset:0;stroke-linecap:round;stroke-linejoin:miter;stroke-width:2;"/>
    </g>
    <g id="line2d_27"/>
    <g id="text_14">
     <!-- LR = 0.01 -->
     <g transform="translate(328.962772 61.872081)scale(0.18 -0.18)">
      <defs>
       <path d="M 2061 4512 
C 1843 4239 1254 4032 666 4032 
L 666 3750 
L 1229 3750 
C 1600 3750 1626 3725 1626 3348 
L 1626 786 
L 1626 600 
C 1626 332 1568 300 1056 300 
L 640 300 
L 640 0 
L 3174 0 
L 3174 300 
L 2822 300 
C 2483 300 2342 326 2291 390 
C 2246 434 2246 434 2246 788 
L 2246 3435 
C 2246 3749 2259 4056 2291 4512 
L 2061 4512 
z
" id="CenturySchL-Roma-31" transform="scale(0.015625)"/>
      </defs>
      <use transform="scale(0.996264)" xlink:href="#CenturySchL-Roma-4c"/>
      <use transform="translate(66.450031 0)scale(0.996264)" xlink:href="#CenturySchL-Roma-52"/>
      <use transform="translate(166.075186 0)scale(0.996264)" xlink:href="#CenturySchL-Roma-3d"/>
      <use transform="translate(254.143367 0)scale(0.996264)" xlink:href="#CenturySchL-Roma-30"/>
      <use transform="translate(309.535044 0)scale(0.996264)" xlink:href="#CenturySchL-Roma-2e"/>
      <use transform="translate(337.230214 0)scale(0.996264)" xlink:href="#CenturySchL-Roma-30"/>
      <use transform="translate(392.621891 0)scale(0.996264)" xlink:href="#CenturySchL-Roma-31"/>
     </g>
    </g>
    <g id="line2d_28">
     <path d="M 278.562772 81.285209 
L 314.562772 81.285209 
" style="fill:none;stroke:#4daf4a;stroke-dasharray:6,10,2,10;stroke-dashoffset:0;stroke-linecap:round;stroke-linejoin:miter;stroke-width:2;"/>
    </g>
    <g id="line2d_29"/>
    <g id="text_15">
     <!-- LR = 0.02 -->
     <g transform="translate(328.962772 87.585209)scale(0.18 -0.18)">
      <defs>
       <path d="M 3232 1380 
L 2950 1380 
L 2886 1054 
C 2803 645 2752 600 2355 600 
L 922 600 
C 1363 1060 1510 1194 1920 1514 
C 2502 1962 2752 2186 2899 2377 
C 3104 2658 3206 2946 3206 3252 
C 3206 3975 2598 4499 1766 4499 
C 954 4499 326 3975 326 3297 
C 326 2895 531 2620 838 2620 
C 1075 2620 1235 2780 1235 3010 
C 1235 3170 1146 3317 1005 3375 
C 768 3477 755 3483 755 3566 
C 755 3662 819 3809 909 3918 
C 1069 4109 1338 4224 1638 4224 
C 2163 4224 2483 3898 2483 3362 
C 2483 2888 2259 2460 1728 1898 
L 1350 1502 
C 1126 1266 960 1086 851 965 
C 621 696 506 549 224 179 
L 224 0 
L 3110 0 
L 3232 1380 
z
" id="CenturySchL-Roma-32" transform="scale(0.015625)"/>
      </defs>
      <use transform="scale(0.996264)" xlink:href="#CenturySchL-Roma-4c"/>
      <use transform="translate(66.450031 0)scale(0.996264)" xlink:href="#CenturySchL-Roma-52"/>
      <use transform="translate(166.075186 0)scale(0.996264)" xlink:href="#CenturySchL-Roma-3d"/>
      <use transform="translate(254.143367 0)scale(0.996264)" xlink:href="#CenturySchL-Roma-30"/>
      <use transform="translate(309.535044 0)scale(0.996264)" xlink:href="#CenturySchL-Roma-2e"/>
      <use transform="translate(337.230214 0)scale(0.996264)" xlink:href="#CenturySchL-Roma-30"/>
      <use transform="translate(392.621891 0)scale(0.996264)" xlink:href="#CenturySchL-Roma-32"/>
     </g>
    </g>
   </g>
  </g>
 </g>
 <defs>
  <clipPath id="p4f3bd6ba5d">
   <rect height="222.206736" width="354.398155" x="74.177501" y="13.852984"/>
  </clipPath>
 </defs>
</svg>
