<?xml version="1.0" encoding="utf-8" standalone="no"?>
<!DOCTYPE svg PUBLIC "-//W3C//DTD SVG 1.1//EN"
  "http://www.w3.org/Graphics/SVG/1.1/DTD/svg11.dtd">
<svg height="436.4pt" version="1.1" viewBox="0 0 652.4 436.4" width="652.4pt" xmlns="http://www.w3.org/2000/svg" xmlns:xlink="http://www.w3.org/1999/xlink">
 <metadata>
  <rdf:RDF xmlns:cc="http://creativecommons.org/ns#" xmlns:dc="http://purl.org/dc/elements/1.1/" xmlns:rdf="http://www.w3.org/1999/02/22-rdf-syntax-ns#">
   <cc:Work>
    <dc:type rdf:resource="http://purl.org/dc/dcmitype/StillImage"/>
    <dc:date>2022-04-26T15:20:34.400244</dc:date>
    <dc:format>image/svg+xml</dc:format>
    <dc:creator>
     <cc:Agent>
      <dc:title>Matplotlib v3.4.2, https://matplotlib.org/</dc:title>
     </cc:Agent>
    </dc:creator>
   </cc:Work>
  </rdf:RDF>
 </metadata>
 <defs>
  <style type="text/css">*{stroke-linecap:butt;stroke-linejoin:round;}</style>
 </defs>
 <g id="figure_1">
  <g id="patch_1">
   <path d="M 0 436.4 
L 652.4 436.4 
L 652.4 0 
L 0 0 
z
" style="fill:none;"/>
  </g>
  <g id="axes_1">
   <g id="patch_2">
    <path d="M 82.401787 380.05972 
L 645.2 380.05972 
L 645.2 13.852984 
L 82.401787 13.852984 
z
" style="fill:none;"/>
   </g>
   <g id="PolyCollection_1">
    <path clip-path="url(#p70ddd28ed2)" d="M 107.983524 272.752262 
L 107.983524 369.117906 
L 111.065661 346.449666 
L 114.147798 337.139674 
L 117.229935 333.635296 
L 120.312072 337.740539 
L 123.394209 335.840169 
L 126.476346 332.917742 
L 129.558483 323.683225 
L 132.64062 317.830103 
L 135.722757 311.698479 
L 138.804894 307.526262 
L 141.887031 302.703418 
L 144.969168 298.398953 
L 148.051305 294.588737 
L 151.133442 291.201195 
L 154.215579 288.263112 
L 157.297716 285.476123 
L 160.379853 279.955507 
L 163.46199 273.861996 
L 166.544127 270.327811 
L 169.626264 265.013531 
L 172.708401 260.114915 
L 175.790538 254.858408 
L 178.872675 252.114523 
L 181.954812 250.529209 
L 185.036949 249.733255 
L 188.119086 248.982619 
L 191.201223 248.118278 
L 194.28336 248.062008 
L 197.365497 247.911953 
L 200.447634 247.846597 
L 203.529771 247.849523 
L 206.611908 247.849523 
L 209.694045 247.849523 
L 212.776182 247.849523 
L 215.858319 247.922579 
L 218.940456 247.922579 
L 222.022592 247.922579 
L 225.104729 247.922579 
L 228.186866 247.922579 
L 231.269003 247.922579 
L 234.35114 247.922579 
L 237.433277 247.973489 
L 240.515414 247.973489 
L 243.597551 247.973489 
L 246.679688 247.973489 
L 249.761825 247.973489 
L 252.843962 247.973489 
L 255.926099 247.973489 
L 259.008236 247.973489 
L 262.090373 247.973489 
L 265.17251 247.973489 
L 268.254647 247.973489 
L 271.336784 247.973489 
L 274.418921 247.973489 
L 277.501058 247.973489 
L 280.583195 247.973489 
L 283.665332 247.973489 
L 286.747469 247.922579 
L 289.829606 247.922579 
L 292.911743 247.922579 
L 295.99388 247.921107 
L 299.076017 247.91229 
L 302.158154 247.903472 
L 305.240291 247.894673 
L 308.322428 247.885873 
L 311.404565 247.877092 
L 314.486702 247.868321 
L 317.568839 247.859548 
L 320.650976 247.850795 
L 323.733113 247.842041 
L 326.81525 247.833306 
L 329.897387 247.82457 
L 332.979524 247.815853 
L 336.061661 247.807146 
L 339.143798 247.798437 
L 342.225935 247.789747 
L 345.308072 247.781057 
L 348.390209 247.776725 
L 351.472346 247.776725 
L 354.554483 247.776725 
L 357.63662 247.776725 
L 360.718757 247.776725 
L 363.800894 247.776725 
L 366.883031 247.776725 
L 369.965168 247.776725 
L 373.047305 247.776725 
L 376.129442 247.776725 
L 379.211579 247.776725 
L 382.293716 247.776725 
L 385.375852 247.776725 
L 388.457989 247.776725 
L 391.540126 247.776725 
L 394.622263 247.776725 
L 397.7044 247.776725 
L 400.786537 247.776725 
L 403.868674 247.776725 
L 406.950811 247.776725 
L 410.032948 247.776725 
L 413.115085 247.776725 
L 416.197222 247.776725 
L 419.279359 247.776725 
L 422.361496 247.776725 
L 425.443633 247.776725 
L 428.52577 247.776725 
L 431.607907 247.776725 
L 434.690044 247.776725 
L 437.772181 247.776725 
L 440.854318 247.776725 
L 443.936455 247.776725 
L 447.018592 247.776725 
L 450.100729 247.776725 
L 453.182866 247.776725 
L 456.265003 247.776725 
L 459.34714 247.776725 
L 462.429277 247.776725 
L 465.511414 247.776725 
L 468.593551 247.776725 
L 471.675688 247.776725 
L 474.757825 247.776725 
L 477.839962 247.776725 
L 480.922099 247.776725 
L 484.004236 247.776725 
L 487.086373 247.776725 
L 490.16851 247.776725 
L 493.250647 247.776725 
L 496.332784 247.776725 
L 499.414921 247.776725 
L 502.497058 247.776725 
L 505.579195 247.776725 
L 508.661332 247.776725 
L 511.743469 247.776725 
L 514.825606 247.776725 
L 517.907743 247.776725 
L 520.98988 247.776725 
L 524.072017 247.776725 
L 527.154154 247.776725 
L 530.236291 247.776725 
L 533.318428 247.776725 
L 536.400565 247.776725 
L 539.482702 247.776725 
L 542.564839 247.776725 
L 545.646976 247.776725 
L 548.729112 247.776725 
L 551.811249 247.776725 
L 554.893386 247.776725 
L 557.975523 247.776725 
L 561.05766 247.776725 
L 564.139797 247.776725 
L 567.221934 247.776725 
L 570.304071 247.776725 
L 573.386208 247.776725 
L 576.468345 247.776725 
L 579.550482 247.776725 
L 582.632619 247.776725 
L 585.714756 247.776725 
L 588.796893 247.776725 
L 591.87903 247.776725 
L 594.961167 247.776725 
L 598.043304 247.776725 
L 601.125441 247.776725 
L 604.207578 247.776725 
L 607.289715 247.776725 
L 610.371852 247.776725 
L 613.453989 247.776725 
L 616.536126 247.776725 
L 619.618263 247.776725 
L 619.618263 178.056319 
L 619.618263 178.056319 
L 616.536126 178.056319 
L 613.453989 178.056319 
L 610.371852 178.056319 
L 607.289715 178.056319 
L 604.207578 178.056319 
L 601.125441 178.056319 
L 598.043304 178.056319 
L 594.961167 178.056319 
L 591.87903 178.056319 
L 588.796893 178.056319 
L 585.714756 178.056319 
L 582.632619 178.056319 
L 579.550482 178.056319 
L 576.468345 178.056319 
L 573.386208 178.056319 
L 570.304071 178.056319 
L 567.221934 178.056319 
L 564.139797 178.056319 
L 561.05766 178.056319 
L 557.975523 178.056319 
L 554.893386 178.056319 
L 551.811249 178.056319 
L 548.729112 178.056319 
L 545.646976 178.056319 
L 542.564839 178.056319 
L 539.482702 178.056319 
L 536.400565 178.056319 
L 533.318428 178.056319 
L 530.236291 178.056319 
L 527.154154 178.056319 
L 524.072017 178.056319 
L 520.98988 178.056319 
L 517.907743 178.056319 
L 514.825606 178.056319 
L 511.743469 178.056319 
L 508.661332 178.056319 
L 505.579195 178.056319 
L 502.497058 178.056319 
L 499.414921 178.056319 
L 496.332784 178.056319 
L 493.250647 178.056319 
L 490.16851 178.056319 
L 487.086373 178.056319 
L 484.004236 178.056319 
L 480.922099 178.056319 
L 477.839962 178.056319 
L 474.757825 178.056319 
L 471.675688 178.056319 
L 468.593551 178.056319 
L 465.511414 178.056319 
L 462.429277 178.056319 
L 459.34714 178.056319 
L 456.265003 178.056319 
L 453.182866 178.056319 
L 450.100729 178.056319 
L 447.018592 178.056319 
L 443.936455 178.056319 
L 440.854318 178.056319 
L 437.772181 178.056319 
L 434.690044 178.056319 
L 431.607907 178.056319 
L 428.52577 178.056319 
L 425.443633 178.056319 
L 422.361496 178.056319 
L 419.279359 178.056319 
L 416.197222 178.056319 
L 413.115085 178.056319 
L 410.032948 178.056319 
L 406.950811 178.056319 
L 403.868674 178.056319 
L 400.786537 178.056319 
L 397.7044 178.056319 
L 394.622263 178.056319 
L 391.540126 178.056319 
L 388.457989 178.056319 
L 385.375852 178.056319 
L 382.293716 178.056319 
L 379.211579 178.056319 
L 376.129442 178.056319 
L 373.047305 178.056319 
L 369.965168 178.056319 
L 366.883031 178.056319 
L 363.800894 178.056319 
L 360.718757 178.056319 
L 357.63662 178.056319 
L 354.554483 178.056319 
L 351.472346 178.056319 
L 348.390209 178.056319 
L 345.308072 178.057698 
L 342.225935 178.060454 
L 339.143798 178.063198 
L 336.061661 178.065937 
L 332.979524 178.068662 
L 329.897387 178.071379 
L 326.81525 178.07409 
L 323.733113 178.076789 
L 320.650976 178.079481 
L 317.568839 178.082162 
L 314.486702 178.084836 
L 311.404565 178.087498 
L 308.322428 178.090151 
L 305.240291 178.092798 
L 302.158154 178.095433 
L 299.076017 178.098062 
L 295.99388 178.100679 
L 292.911743 178.101114 
L 289.829606 178.101114 
L 286.747469 178.101114 
L 283.665332 178.209895 
L 280.583195 178.209895 
L 277.501058 178.209895 
L 274.418921 178.209895 
L 271.336784 178.209895 
L 268.254647 178.209895 
L 265.17251 178.209895 
L 262.090373 178.209895 
L 259.008236 178.209895 
L 255.926099 178.209895 
L 252.843962 178.209895 
L 249.761825 178.209895 
L 246.679688 178.209895 
L 243.597551 178.209895 
L 240.515414 178.209895 
L 237.433277 178.209895 
L 234.35114 178.101114 
L 231.269003 178.101114 
L 228.186866 178.101114 
L 225.104729 178.101114 
L 222.022592 178.101114 
L 218.940456 178.101114 
L 215.858319 178.101114 
L 212.776182 178.932531 
L 209.694045 178.932531 
L 206.611908 178.932531 
L 203.529771 178.932531 
L 200.447634 178.976399 
L 197.365497 179.079954 
L 194.28336 179.200177 
L 191.201223 179.310839 
L 188.119086 179.54609 
L 185.036949 179.909907 
L 181.954812 180.540796 
L 178.872675 181.361623 
L 175.790538 183.498955 
L 172.708401 186.418056 
L 169.626264 193.702805 
L 166.544127 203.616823 
L 163.46199 213.062619 
L 160.379853 220.267565 
L 157.297716 227.002146 
L 154.215579 232.011431 
L 151.133442 235.356745 
L 148.051305 239.069004 
L 144.969168 243.321762 
L 141.887031 248.273391 
L 138.804894 254.112483 
L 135.722757 261.301781 
L 132.64062 269.682039 
L 129.558483 279.073133 
L 126.476346 290.821884 
L 123.394209 303.36305 
L 120.312072 308.763129 
L 117.229935 318.243716 
L 114.147798 308.827226 
L 111.065661 298.317651 
L 107.983524 272.752262 
z
" style="fill:#e41a1c;fill-opacity:0.2;"/>
   </g>
   <g id="PolyCollection_2">
    <path clip-path="url(#p70ddd28ed2)" d="M 110.038282 306.315284 
L 110.038282 360.881278 
L 115.175177 358.354911 
L 120.312072 353.763047 
L 125.448967 345.947985 
L 130.585862 340.239335 
L 135.722757 331.649773 
L 140.859652 325.606134 
L 145.996547 320.425288 
L 151.133442 314.143416 
L 156.270337 308.953828 
L 161.407232 301.726694 
L 166.544127 291.92952 
L 171.681022 284.696616 
L 176.817917 280.585106 
L 181.954812 274.003329 
L 187.091707 268.048923 
L 192.228602 261.357416 
L 197.365497 254.761787 
L 202.502392 249.538062 
L 207.639287 245.014748 
L 212.776182 240.314549 
L 217.913077 237.398841 
L 223.049971 235.075684 
L 228.186866 233.274229 
L 233.323761 232.733374 
L 238.460656 232.697022 
L 243.597551 232.573599 
L 248.734446 232.646371 
L 253.871341 232.646371 
L 259.008236 232.646371 
L 264.145131 232.644586 
L 269.282026 232.644586 
L 274.418921 232.626418 
L 279.555816 232.626418 
L 284.692711 232.626418 
L 289.829606 232.626418 
L 294.966501 232.626418 
L 300.103396 232.626418 
L 305.240291 232.626418 
L 310.377186 232.626418 
L 315.514081 232.626418 
L 320.650976 232.626418 
L 325.787871 232.626418 
L 330.924766 232.626418 
L 336.061661 232.626418 
L 341.198556 232.626418 
L 346.335451 232.626418 
L 351.472346 232.626418 
L 356.609241 232.626418 
L 361.746136 232.626418 
L 366.883031 232.626418 
L 372.019926 232.626418 
L 377.156821 232.626418 
L 382.293716 232.626418 
L 387.43061 232.626418 
L 392.567505 232.626418 
L 397.7044 232.626418 
L 402.841295 232.626418 
L 407.97819 232.626418 
L 413.115085 232.626418 
L 418.25198 232.626418 
L 423.388875 232.626418 
L 428.52577 232.626418 
L 433.662665 232.626418 
L 438.79956 232.626418 
L 443.936455 232.626418 
L 449.07335 232.626418 
L 454.210245 232.626418 
L 459.34714 232.626418 
L 464.484035 232.626418 
L 469.62093 232.626418 
L 474.757825 232.647235 
L 479.89472 232.647235 
L 485.031615 232.647235 
L 490.16851 232.647235 
L 495.305405 232.647235 
L 500.4423 232.647235 
L 505.579195 232.647235 
L 510.71609 232.647235 
L 515.852985 232.647235 
L 520.98988 232.647235 
L 526.126775 232.626418 
L 531.26367 232.626418 
L 536.400565 232.626418 
L 541.53746 232.626418 
L 546.674355 232.626418 
L 551.811249 232.626418 
L 556.948144 232.626418 
L 562.085039 232.626418 
L 567.221934 232.626418 
L 572.358829 232.626418 
L 577.495724 232.626418 
L 582.632619 232.626418 
L 587.769514 232.626418 
L 592.906409 232.626418 
L 598.043304 232.626418 
L 603.180199 232.626418 
L 608.317094 232.626418 
L 613.453989 232.626418 
L 618.590884 232.626418 
L 618.590884 166.54159 
L 618.590884 166.54159 
L 613.453989 166.54159 
L 608.317094 166.54159 
L 603.180199 166.54159 
L 598.043304 166.54159 
L 592.906409 166.54159 
L 587.769514 166.54159 
L 582.632619 166.54159 
L 577.495724 166.54159 
L 572.358829 166.54159 
L 567.221934 166.54159 
L 562.085039 166.54159 
L 556.948144 166.54159 
L 551.811249 166.54159 
L 546.674355 166.54159 
L 541.53746 166.54159 
L 536.400565 166.54159 
L 531.26367 166.54159 
L 526.126775 166.54159 
L 520.98988 166.560158 
L 515.852985 166.560158 
L 510.71609 166.560158 
L 505.579195 166.560158 
L 500.4423 166.560158 
L 495.305405 166.560158 
L 490.16851 166.560158 
L 485.031615 166.560158 
L 479.89472 166.560158 
L 474.757825 166.560158 
L 469.62093 166.54159 
L 464.484035 166.54159 
L 459.34714 166.54159 
L 454.210245 166.54159 
L 449.07335 166.54159 
L 443.936455 166.54159 
L 438.79956 166.54159 
L 433.662665 166.54159 
L 428.52577 166.54159 
L 423.388875 166.54159 
L 418.25198 166.54159 
L 413.115085 166.54159 
L 407.97819 166.54159 
L 402.841295 166.54159 
L 397.7044 166.54159 
L 392.567505 166.54159 
L 387.43061 166.54159 
L 382.293716 166.54159 
L 377.156821 166.54159 
L 372.019926 166.54159 
L 366.883031 166.54159 
L 361.746136 166.54159 
L 356.609241 166.54159 
L 351.472346 166.54159 
L 346.335451 166.54159 
L 341.198556 166.54159 
L 336.061661 166.54159 
L 330.924766 166.54159 
L 325.787871 166.54159 
L 320.650976 166.54159 
L 315.514081 166.54159 
L 310.377186 166.54159 
L 305.240291 166.54159 
L 300.103396 166.54159 
L 294.966501 166.54159 
L 289.829606 166.54159 
L 284.692711 166.54159 
L 279.555816 166.54159 
L 274.418921 166.54159 
L 269.282026 166.555235 
L 264.145131 166.555235 
L 259.008236 166.558985 
L 253.871341 166.558985 
L 248.734446 166.558985 
L 243.597551 166.872157 
L 238.460656 167.509344 
L 233.323761 169.199518 
L 228.186866 171.858895 
L 223.049971 174.301294 
L 217.913077 175.636112 
L 212.776182 176.432829 
L 207.639287 176.623466 
L 202.502392 176.353764 
L 197.365497 175.620213 
L 192.228602 175.489812 
L 187.091707 175.941466 
L 181.954812 179.330687 
L 176.817917 188.914386 
L 171.681022 203.535007 
L 166.544127 220.536811 
L 161.407232 233.409013 
L 156.270337 248.088356 
L 151.133442 255.71409 
L 145.996547 265.155689 
L 140.859652 277.025829 
L 135.722757 291.719883 
L 130.585862 305.830369 
L 125.448967 313.432828 
L 120.312072 315.768699 
L 115.175177 306.736326 
L 110.038282 306.315284 
z
" style="fill:#377eb8;fill-opacity:0.2;"/>
   </g>
   <g id="PolyCollection_3">
    <path clip-path="url(#p70ddd28ed2)" d="M 130.585862 327.388953 
L 130.585862 342.051052 
L 156.270337 344.473778 
L 181.954812 326.194016 
L 207.639287 268.540432 
L 233.323761 213.839272 
L 259.008236 190.281961 
L 284.692711 178.80269 
L 310.377186 173.476029 
L 336.061661 171.070435 
L 361.746136 168.450458 
L 387.43061 166.800735 
L 413.115085 166.210099 
L 438.79956 166.210099 
L 464.484035 166.210099 
L 490.16851 166.210099 
L 515.852985 166.210099 
L 541.53746 166.210099 
L 567.221934 166.210099 
L 592.906409 166.218913 
L 618.590884 166.218913 
L 618.590884 150.302334 
L 618.590884 150.302334 
L 592.906409 150.302334 
L 567.221934 150.303001 
L 541.53746 150.303001 
L 515.852985 150.303001 
L 490.16851 150.303001 
L 464.484035 150.303001 
L 438.79956 150.303001 
L 413.115085 150.303001 
L 387.43061 150.281637 
L 361.746136 151.321341 
L 336.061661 152.162993 
L 310.377186 153.521533 
L 284.692711 158.826268 
L 259.008236 169.439647 
L 233.323761 192.076424 
L 207.639287 246.078463 
L 181.954812 298.026854 
L 156.270337 318.961088 
L 130.585862 327.388953 
z
" style="fill:#4daf4a;fill-opacity:0.2;"/>
   </g>
   <g id="PolyCollection_4">
    <path clip-path="url(#p70ddd28ed2)" d="M 156.270337 323.060523 
L 156.270337 347.733462 
L 207.639287 336.717696 
L 259.008236 342.984408 
L 310.377186 347.130297 
L 361.746136 339.904826 
L 413.115085 324.947543 
L 464.484035 259.211164 
L 515.852985 216.545282 
L 567.221934 183.529523 
L 618.590884 169.34103 
L 618.590884 151.342192 
L 618.590884 151.342192 
L 567.221934 154.569233 
L 515.852985 159.722843 
L 464.484035 174.803672 
L 413.115085 210.416232 
L 361.746136 250.283694 
L 310.377186 268.447104 
L 259.008236 302.33398 
L 207.639287 319.552055 
L 156.270337 323.060523 
z
" style="fill:#984ea3;fill-opacity:0.2;"/>
   </g>
   <g id="line2d_1">
    <path clip-path="url(#p70ddd28ed2)" d="M 107.983524 320.935084 
L 111.065661 322.383659 
L 114.147798 322.98345 
L 117.229935 325.939506 
L 120.312072 323.251834 
L 123.394209 319.60161 
L 126.476346 311.869813 
L 129.558483 301.378179 
L 132.64062 293.756071 
L 135.722757 286.50013 
L 138.804894 280.819373 
L 141.887031 275.488405 
L 144.969168 270.860357 
L 148.051305 266.828871 
L 151.133442 263.27897 
L 154.215579 260.137272 
L 157.297716 256.239134 
L 160.379853 250.111536 
L 166.544127 236.972317 
L 169.626264 229.358168 
L 172.708401 223.266486 
L 175.790538 219.178681 
L 178.872675 216.738073 
L 181.954812 215.535002 
L 185.036949 214.821581 
L 191.201223 213.714559 
L 206.611908 213.391027 
L 212.776182 213.391027 
L 215.858319 213.011847 
L 619.618263 212.916522 
L 619.618263 212.916522 
" style="fill:none;stroke:#e41a1c;stroke-linecap:square;stroke-width:2;"/>
   </g>
   <g id="line2d_2">
    <path clip-path="url(#p70ddd28ed2)" d="M 110.038282 333.598281 
L 115.175177 332.545618 
L 120.312072 334.765873 
L 125.448967 329.690407 
L 130.585862 323.034852 
L 135.722757 311.684828 
L 140.859652 301.315981 
L 145.996547 292.790488 
L 151.133442 284.928753 
L 156.270337 278.521092 
L 161.407232 267.567853 
L 166.544127 256.233165 
L 171.681022 244.115812 
L 176.817917 234.749746 
L 181.954812 226.667008 
L 187.091707 221.995194 
L 192.228602 218.423614 
L 197.365497 215.191 
L 202.502392 212.945913 
L 207.639287 210.819107 
L 212.776182 208.373689 
L 217.913077 206.517476 
L 223.049971 204.688489 
L 228.186866 202.566562 
L 233.323761 200.966446 
L 238.460656 200.103183 
L 243.597551 199.722878 
L 248.734446 199.602678 
L 253.871341 199.602678 
L 259.008236 199.602678 
L 264.145131 199.59991 
L 269.282026 199.59991 
L 274.418921 199.584004 
L 279.555816 199.584004 
L 284.692711 199.584004 
L 289.829606 199.584004 
L 294.966501 199.584004 
L 300.103396 199.584004 
L 305.240291 199.584004 
L 310.377186 199.584004 
L 315.514081 199.584004 
L 320.650976 199.584004 
L 325.787871 199.584004 
L 330.924766 199.584004 
L 336.061661 199.584004 
L 341.198556 199.584004 
L 346.335451 199.584004 
L 351.472346 199.584004 
L 356.609241 199.584004 
L 361.746136 199.584004 
L 366.883031 199.584004 
L 372.019926 199.584004 
L 377.156821 199.584004 
L 382.293716 199.584004 
L 387.43061 199.584004 
L 392.567505 199.584004 
L 397.7044 199.584004 
L 402.841295 199.584004 
L 407.97819 199.584004 
L 413.115085 199.584004 
L 418.25198 199.584004 
L 423.388875 199.584004 
L 428.52577 199.584004 
L 433.662665 199.584004 
L 438.79956 199.584004 
L 443.936455 199.584004 
L 449.07335 199.584004 
L 454.210245 199.584004 
L 459.34714 199.584004 
L 464.484035 199.584004 
L 469.62093 199.584004 
L 474.757825 199.603696 
L 479.89472 199.603696 
L 485.031615 199.603696 
L 490.16851 199.603696 
L 495.305405 199.603696 
L 500.4423 199.603696 
L 505.579195 199.603696 
L 510.71609 199.603696 
L 515.852985 199.603696 
L 520.98988 199.603696 
L 526.126775 199.584004 
L 531.26367 199.584004 
L 536.400565 199.584004 
L 541.53746 199.584004 
L 546.674355 199.584004 
L 551.811249 199.584004 
L 556.948144 199.584004 
L 562.085039 199.584004 
L 567.221934 199.584004 
L 572.358829 199.584004 
L 577.495724 199.584004 
L 582.632619 199.584004 
L 587.769514 199.584004 
L 592.906409 199.584004 
L 598.043304 199.584004 
L 603.180199 199.584004 
L 608.317094 199.584004 
L 613.453989 199.584004 
L 618.590884 199.584004 
" style="fill:none;stroke:#377eb8;stroke-dasharray:12,12;stroke-dashoffset:0;stroke-linecap:round;stroke-linejoin:miter;stroke-width:2;"/>
   </g>
   <g id="line2d_3">
    <path clip-path="url(#p70ddd28ed2)" d="M 130.585862 334.720002 
L 156.270337 331.717433 
L 181.954812 312.110435 
L 207.639287 257.309447 
L 233.323761 202.957848 
L 259.008236 179.860804 
L 284.692711 168.814479 
L 310.377186 163.498781 
L 336.061661 161.616714 
L 361.746136 159.885899 
L 387.43061 158.541186 
L 413.115085 158.25655 
L 438.79956 158.25655 
L 464.484035 158.25655 
L 490.16851 158.25655 
L 515.852985 158.25655 
L 541.53746 158.25655 
L 567.221934 158.25655 
L 592.906409 158.260623 
L 618.590884 158.260623 
" style="fill:none;stroke:#4daf4a;stroke-dasharray:6,10,2,10;stroke-dashoffset:0;stroke-linecap:round;stroke-linejoin:miter;stroke-width:2;"/>
   </g>
   <g id="line2d_4">
    <path clip-path="url(#p70ddd28ed2)" d="M 156.270337 335.396993 
L 207.639287 328.134875 
L 259.008236 322.659194 
L 310.377186 307.7887 
L 361.746136 295.09426 
L 413.115085 267.681887 
L 464.484035 217.007418 
L 515.852985 188.134063 
L 567.221934 169.049378 
L 618.590884 160.341611 
" style="fill:none;stroke:#984ea3;stroke-dasharray:2,6;stroke-dashoffset:0;stroke-linecap:round;stroke-linejoin:miter;stroke-width:2;"/>
   </g>
   <g id="patch_3">
    <path d="M 82.401787 380.05972 
L 82.401787 13.852984 
" style="fill:none;stroke:#000000;stroke-linecap:square;stroke-linejoin:miter;stroke-width:0.8;"/>
   </g>
   <g id="patch_4">
    <path d="M 82.401787 380.05972 
L 645.2 380.05972 
" style="fill:none;stroke:#000000;stroke-linecap:square;stroke-linejoin:miter;stroke-width:0.8;"/>
   </g>
   <g id="matplotlib.axis_1">
    <g id="xtick_1">
     <g id="line2d_5">
      <path clip-path="url(#p70ddd28ed2)" d="M 104.387698 380.05972 
L 104.387698 13.852984 
" style="fill:none;stroke:#bfbfbf;stroke-dasharray:0.8,2.4;stroke-dashoffset:0;stroke-linecap:round;stroke-linejoin:miter;stroke-width:0.8;"/>
     </g>
     <g id="line2d_6">
      <defs>
       <path d="M 0 0 
L 0 3.5 
" id="m0e2346016a" style="stroke:#000000;stroke-width:0.8;"/>
      </defs>
      <g>
       <use style="stroke:#000000;stroke-width:0.8;" x="104.387698" xlink:href="#m0e2346016a" y="380.05972"/>
      </g>
     </g>
     <g id="text_1">
      <!-- $\mathdefault{0}$ -->
      <g transform="translate(100.275555 400.365688)scale(0.18 -0.18)">
       <defs>
        <path d="M 2688 2025 
C 2688 2416 2682 3080 2413 3591 
C 2176 4039 1798 4198 1466 4198 
C 1158 4198 768 4058 525 3597 
C 269 3118 243 2524 243 2025 
C 243 1661 250 1106 448 619 
C 723 -39 1216 -128 1466 -128 
C 1760 -128 2208 -7 2470 600 
C 2662 1042 2688 1559 2688 2025 
z
M 1466 -26 
C 1056 -26 813 325 723 812 
C 653 1188 653 1738 653 2096 
C 653 2588 653 2997 736 3387 
C 858 3929 1216 4096 1466 4096 
C 1728 4096 2067 3923 2189 3400 
C 2272 3036 2278 2607 2278 2096 
C 2278 1680 2278 1169 2202 792 
C 2067 95 1690 -26 1466 -26 
z
" id="CMR17-30" transform="scale(0.015625)"/>
       </defs>
       <use transform="scale(0.996264)" xlink:href="#CMR17-30"/>
      </g>
     </g>
    </g>
    <g id="xtick_2">
     <g id="line2d_7">
      <path clip-path="url(#p70ddd28ed2)" d="M 207.125597 380.05972 
L 207.125597 13.852984 
" style="fill:none;stroke:#bfbfbf;stroke-dasharray:0.8,2.4;stroke-dashoffset:0;stroke-linecap:round;stroke-linejoin:miter;stroke-width:0.8;"/>
     </g>
     <g id="line2d_8">
      <g>
       <use style="stroke:#000000;stroke-width:0.8;" x="207.125597" xlink:href="#m0e2346016a" y="380.05972"/>
      </g>
     </g>
     <g id="text_2">
      <!-- $\mathdefault{200}$ -->
      <g transform="translate(194.789168 400.365688)scale(0.18 -0.18)">
       <defs>
        <path d="M 2669 989 
L 2554 989 
C 2490 536 2438 459 2413 420 
C 2381 369 1920 369 1830 369 
L 602 369 
C 832 619 1280 1072 1824 1597 
C 2214 1967 2669 2402 2669 3035 
C 2669 3790 2067 4224 1395 4224 
C 691 4224 262 3604 262 3030 
C 262 2780 448 2748 525 2748 
C 589 2748 781 2787 781 3010 
C 781 3207 614 3264 525 3264 
C 486 3264 448 3258 422 3245 
C 544 3790 915 4058 1306 4058 
C 1862 4058 2227 3617 2227 3035 
C 2227 2479 1901 2000 1536 1584 
L 262 146 
L 262 0 
L 2515 0 
L 2669 989 
z
" id="CMR17-32" transform="scale(0.015625)"/>
       </defs>
       <use transform="scale(0.996264)" xlink:href="#CMR17-32"/>
       <use transform="translate(45.690477 0)scale(0.996264)" xlink:href="#CMR17-30"/>
       <use transform="translate(91.380954 0)scale(0.996264)" xlink:href="#CMR17-30"/>
      </g>
     </g>
    </g>
    <g id="xtick_3">
     <g id="line2d_9">
      <path clip-path="url(#p70ddd28ed2)" d="M 309.863496 380.05972 
L 309.863496 13.852984 
" style="fill:none;stroke:#bfbfbf;stroke-dasharray:0.8,2.4;stroke-dashoffset:0;stroke-linecap:round;stroke-linejoin:miter;stroke-width:0.8;"/>
     </g>
     <g id="line2d_10">
      <g>
       <use style="stroke:#000000;stroke-width:0.8;" x="309.863496" xlink:href="#m0e2346016a" y="380.05972"/>
      </g>
     </g>
     <g id="text_3">
      <!-- $\mathdefault{400}$ -->
      <g transform="translate(297.527068 400.365688)scale(0.18 -0.18)">
       <defs>
        <path d="M 2150 4122 
C 2150 4256 2144 4256 2029 4256 
L 128 1254 
L 128 1088 
L 1779 1088 
L 1779 457 
C 1779 224 1766 160 1318 160 
L 1197 160 
L 1197 0 
C 1402 0 1747 0 1965 0 
C 2182 0 2528 0 2733 0 
L 2733 160 
L 2611 160 
C 2163 160 2150 224 2150 457 
L 2150 1088 
L 2803 1088 
L 2803 1254 
L 2150 1254 
L 2150 4122 
z
M 1798 3703 
L 1798 1254 
L 256 1254 
L 1798 3703 
z
" id="CMR17-34" transform="scale(0.015625)"/>
       </defs>
       <use transform="scale(0.996264)" xlink:href="#CMR17-34"/>
       <use transform="translate(45.690477 0)scale(0.996264)" xlink:href="#CMR17-30"/>
       <use transform="translate(91.380954 0)scale(0.996264)" xlink:href="#CMR17-30"/>
      </g>
     </g>
    </g>
    <g id="xtick_4">
     <g id="line2d_11">
      <path clip-path="url(#p70ddd28ed2)" d="M 412.601396 380.05972 
L 412.601396 13.852984 
" style="fill:none;stroke:#bfbfbf;stroke-dasharray:0.8,2.4;stroke-dashoffset:0;stroke-linecap:round;stroke-linejoin:miter;stroke-width:0.8;"/>
     </g>
     <g id="line2d_12">
      <g>
       <use style="stroke:#000000;stroke-width:0.8;" x="412.601396" xlink:href="#m0e2346016a" y="380.05972"/>
      </g>
     </g>
     <g id="text_4">
      <!-- $\mathdefault{600}$ -->
      <g transform="translate(400.264967 400.365688)scale(0.18 -0.18)">
       <defs>
        <path d="M 678 2176 
C 678 3690 1395 4032 1811 4032 
C 1946 4032 2272 4009 2400 3776 
C 2298 3776 2106 3776 2106 3553 
C 2106 3381 2246 3323 2336 3323 
C 2394 3323 2566 3348 2566 3560 
C 2566 3954 2246 4179 1805 4179 
C 1043 4179 243 3390 243 1984 
C 243 253 966 -128 1478 -128 
C 2099 -128 2688 427 2688 1283 
C 2688 2081 2170 2662 1517 2662 
C 1126 2662 838 2407 678 1960 
L 678 2176 
z
M 1478 25 
C 691 25 691 1200 691 1436 
C 691 1896 909 2560 1504 2560 
C 1613 2560 1926 2560 2138 2120 
C 2253 1870 2253 1609 2253 1289 
C 2253 944 2253 690 2118 434 
C 1978 171 1773 25 1478 25 
z
" id="CMR17-36" transform="scale(0.015625)"/>
       </defs>
       <use transform="scale(0.996264)" xlink:href="#CMR17-36"/>
       <use transform="translate(45.690477 0)scale(0.996264)" xlink:href="#CMR17-30"/>
       <use transform="translate(91.380954 0)scale(0.996264)" xlink:href="#CMR17-30"/>
      </g>
     </g>
    </g>
    <g id="xtick_5">
     <g id="line2d_13">
      <path clip-path="url(#p70ddd28ed2)" d="M 515.339295 380.05972 
L 515.339295 13.852984 
" style="fill:none;stroke:#bfbfbf;stroke-dasharray:0.8,2.4;stroke-dashoffset:0;stroke-linecap:round;stroke-linejoin:miter;stroke-width:0.8;"/>
     </g>
     <g id="line2d_14">
      <g>
       <use style="stroke:#000000;stroke-width:0.8;" x="515.339295" xlink:href="#m0e2346016a" y="380.05972"/>
      </g>
     </g>
     <g id="text_5">
      <!-- $\mathdefault{800}$ -->
      <g transform="translate(503.002866 400.365688)scale(0.18 -0.18)">
       <defs>
        <path d="M 1741 2264 
C 2144 2467 2554 2773 2554 3263 
C 2554 3841 1990 4179 1472 4179 
C 890 4179 378 3759 378 3180 
C 378 3021 416 2747 666 2505 
C 730 2442 998 2251 1171 2130 
C 883 1983 211 1634 211 934 
C 211 279 838 -128 1459 -128 
C 2144 -128 2720 362 2720 1010 
C 2720 1590 2330 1857 2074 2029 
L 1741 2264 
z
M 902 2822 
C 851 2854 595 3051 595 3351 
C 595 3739 998 4032 1459 4032 
C 1965 4032 2336 3676 2336 3262 
C 2336 2669 1670 2331 1638 2331 
C 1632 2331 1626 2331 1574 2370 
L 902 2822 
z
M 2080 1519 
C 2176 1449 2483 1240 2483 851 
C 2483 381 2010 25 1472 25 
C 890 25 448 438 448 940 
C 448 1443 838 1862 1280 2060 
L 2080 1519 
z
" id="CMR17-38" transform="scale(0.015625)"/>
       </defs>
       <use transform="scale(0.996264)" xlink:href="#CMR17-38"/>
       <use transform="translate(45.690477 0)scale(0.996264)" xlink:href="#CMR17-30"/>
       <use transform="translate(91.380954 0)scale(0.996264)" xlink:href="#CMR17-30"/>
      </g>
     </g>
    </g>
    <g id="xtick_6">
     <g id="line2d_15">
      <path clip-path="url(#p70ddd28ed2)" d="M 618.077195 380.05972 
L 618.077195 13.852984 
" style="fill:none;stroke:#bfbfbf;stroke-dasharray:0.8,2.4;stroke-dashoffset:0;stroke-linecap:round;stroke-linejoin:miter;stroke-width:0.8;"/>
     </g>
     <g id="line2d_16">
      <g>
       <use style="stroke:#000000;stroke-width:0.8;" x="618.077195" xlink:href="#m0e2346016a" y="380.05972"/>
      </g>
     </g>
     <g id="text_6">
      <!-- $\mathdefault{1000}$ -->
      <g transform="translate(601.628623 400.365688)scale(0.18 -0.18)">
       <defs>
        <path d="M 1702 4058 
C 1702 4192 1696 4192 1606 4192 
C 1357 3916 979 3827 621 3827 
C 602 3827 570 3827 563 3808 
C 557 3795 557 3782 557 3648 
C 755 3648 1088 3686 1344 3839 
L 1344 461 
C 1344 236 1331 160 781 160 
L 589 160 
L 589 0 
C 896 0 1216 0 1523 0 
C 1830 0 2150 0 2458 0 
L 2458 160 
L 2266 160 
C 1715 160 1702 230 1702 458 
L 1702 4058 
z
" id="CMR17-31" transform="scale(0.015625)"/>
       </defs>
       <use transform="scale(0.996264)" xlink:href="#CMR17-31"/>
       <use transform="translate(45.690477 0)scale(0.996264)" xlink:href="#CMR17-30"/>
       <use transform="translate(91.380954 0)scale(0.996264)" xlink:href="#CMR17-30"/>
       <use transform="translate(137.071431 0)scale(0.996264)" xlink:href="#CMR17-30"/>
      </g>
     </g>
    </g>
    <g id="text_7">
     <!-- Time Step -->
     <g transform="translate(311.834376 425.0357)scale(0.22 -0.22)">
      <defs>
       <path d="M 4051 4608 
L 218 4608 
L 122 2833 
L 397 2833 
C 442 3152 499 3395 570 3599 
C 736 4065 1043 4308 1478 4308 
C 1690 4308 1779 4237 1779 4078 
L 1779 786 
L 1779 600 
C 1779 332 1722 300 1203 300 
L 1037 300 
L 1037 0 
L 3232 0 
L 3232 300 
L 3066 300 
C 2554 300 2496 332 2496 600 
L 2496 786 
L 2496 4078 
C 2496 4237 2586 4308 2797 4308 
C 3187 4308 3501 4090 3661 3707 
C 3757 3472 3821 3197 3872 2833 
L 4147 2833 
L 4051 4608 
z
" id="CenturySchL-Roma-54" transform="scale(0.015625)"/>
       <path d="M 1318 2944 
L 115 2944 
L 115 2638 
L 442 2638 
C 678 2638 717 2593 717 2317 
L 717 787 
L 717 531 
C 717 275 646 230 237 230 
L 192 230 
L 192 0 
L 1850 0 
L 1850 230 
L 1805 230 
C 1389 230 1318 274 1318 526 
L 1318 779 
L 1318 2944 
z
M 1018 4581 
C 813 4581 646 4415 646 4211 
C 646 4013 813 3840 1011 3840 
C 1222 3840 1389 4006 1389 4211 
C 1389 4415 1222 4581 1018 4581 
z
" id="CenturySchL-Roma-69" transform="scale(0.015625)"/>
       <path d="M 1286 2944 
L 147 2944 
L 147 2638 
L 410 2638 
C 646 2638 685 2593 685 2317 
L 685 787 
L 685 538 
C 685 275 614 230 205 230 
L 179 230 
L 179 0 
L 1792 0 
L 1792 230 
L 1766 230 
C 1357 230 1286 275 1286 537 
L 1286 786 
L 1286 1693 
C 1286 2261 1600 2683 2016 2683 
C 2182 2683 2362 2593 2438 2472 
C 2528 2351 2566 2165 2566 1903 
L 2566 786 
L 2566 530 
C 2566 275 2496 230 2080 230 
L 2054 230 
L 2054 0 
L 3674 0 
L 3674 230 
L 3648 230 
C 3238 230 3168 275 3168 530 
L 3168 786 
L 3168 1635 
C 3168 2274 3456 2683 3904 2683 
C 4115 2683 4288 2561 4371 2363 
C 4429 2223 4448 2082 4448 1833 
L 4448 786 
L 4448 530 
C 4448 275 4378 230 3962 230 
L 3936 230 
L 3936 0 
L 5555 0 
L 5555 230 
L 5530 230 
C 5120 230 5050 275 5050 537 
L 5050 786 
L 5050 1961 
C 5050 2357 5011 2491 4845 2708 
C 4659 2945 4397 3072 4090 3072 
C 3674 3072 3366 2876 3091 2439 
C 2982 2819 2637 3072 2208 3072 
C 1824 3072 1536 2889 1286 2491 
L 1286 2944 
z
" id="CenturySchL-Roma-6d" transform="scale(0.015625)"/>
       <path d="M 2976 1472 
C 2982 2420 2438 3090 1658 3090 
C 838 3090 224 2384 224 1430 
C 224 540 806 -64 1670 -64 
C 2278 -64 2714 236 2976 844 
L 2752 966 
C 2490 473 2221 281 1792 281 
C 1466 281 1229 422 1062 704 
C 947 896 896 1120 902 1472 
L 2976 1472 
z
M 909 1747 
C 909 1942 934 2080 998 2256 
C 1133 2633 1338 2816 1645 2816 
C 2035 2816 2291 2482 2291 1979 
C 2291 1797 2234 1747 2029 1747 
L 909 1747 
z
" id="CenturySchL-Roma-65" transform="scale(0.015625)"/>
       <path d="M 3494 4608 
L 3258 4608 
L 3002 4230 
C 2701 4518 2291 4672 1837 4672 
C 998 4672 435 4135 435 3338 
C 435 2642 781 2297 1722 2055 
L 2330 1901 
C 2803 1781 2848 1768 2982 1666 
C 3174 1519 3277 1308 3277 1059 
C 3277 804 3181 594 2989 422 
C 2778 236 2566 166 2214 166 
C 1741 166 1402 312 1101 642 
C 832 941 698 1240 602 1728 
L 326 1728 
L 352 -92 
L 602 -92 
L 890 350 
C 1318 0 1677 -128 2234 -128 
C 3174 -128 3776 422 3776 1276 
C 3776 1671 3642 2010 3392 2253 
C 3219 2419 2970 2527 2458 2655 
L 1773 2827 
C 1203 2974 934 3223 934 3612 
C 934 4058 1299 4365 1843 4365 
C 2291 4365 2656 4172 2912 3807 
C 3098 3544 3213 3274 3296 2947 
L 3571 2947 
L 3494 4608 
z
" id="CenturySchL-Roma-53" transform="scale(0.015625)"/>
       <path d="M 1242 3008 
L 1242 4288 
L 979 4288 
C 915 3448 634 3020 115 2982 
L 115 2733 
L 640 2733 
L 640 1105 
C 640 658 653 498 717 351 
C 819 83 1075 -64 1446 -64 
C 1696 -64 1914 13 2061 153 
C 2272 358 2394 696 2394 1048 
C 2394 1086 2394 1131 2387 1195 
L 2118 1195 
C 2099 620 1933 326 1619 326 
C 1472 326 1344 402 1299 511 
C 1261 600 1242 760 1242 990 
L 1242 2733 
L 2182 2733 
L 2182 3008 
L 1242 3008 
z
" id="CenturySchL-Roma-74" transform="scale(0.015625)"/>
       <path d="M 1286 2944 
L 179 2944 
L 179 2638 
L 410 2638 
C 646 2638 685 2593 685 2318 
L 685 -496 
L 685 -750 
C 685 -1006 614 -1050 205 -1050 
L 179 -1050 
L 179 -1280 
L 1843 -1280 
L 1843 -1050 
L 1773 -1050 
C 1357 -1050 1286 -1006 1286 -751 
L 1286 -496 
L 1286 428 
C 1498 58 1741 -89 2131 -89 
C 2874 -89 3424 593 3424 1504 
C 3424 2385 2874 3072 2170 3072 
C 1773 3072 1510 2908 1286 2529 
L 1286 2944 
z
M 2054 2727 
C 2496 2727 2752 2288 2752 1542 
C 2752 721 2490 256 2035 256 
C 1581 256 1280 728 1280 1460 
C 1280 2249 1568 2727 2054 2727 
z
" id="CenturySchL-Roma-70" transform="scale(0.015625)"/>
      </defs>
      <use transform="scale(0.996264)" xlink:href="#CenturySchL-Roma-54"/>
      <use transform="translate(66.450031 0)scale(0.996264)" xlink:href="#CenturySchL-Roma-69"/>
      <use transform="translate(97.831344 0)scale(0.996264)" xlink:href="#CenturySchL-Roma-6d"/>
      <use transform="translate(186.398251 0)scale(0.996264)" xlink:href="#CenturySchL-Roma-65"/>
      <use transform="translate(263.906621 0)scale(0.996264)" xlink:href="#CenturySchL-Roma-53"/>
      <use transform="translate(326.6706 0)scale(0.996264)" xlink:href="#CenturySchL-Roma-74"/>
      <use transform="translate(365.424306 0)scale(0.996264)" xlink:href="#CenturySchL-Roma-65"/>
      <use transform="translate(415.237507 0)scale(0.996264)" xlink:href="#CenturySchL-Roma-70"/>
     </g>
    </g>
   </g>
   <g id="matplotlib.axis_2">
    <g id="ytick_1">
     <g id="line2d_17">
      <path clip-path="url(#p70ddd28ed2)" d="M 82.401787 340.951158 
L 645.2 340.951158 
" style="fill:none;stroke:#bfbfbf;stroke-dasharray:0.8,2.4;stroke-dashoffset:0;stroke-linecap:round;stroke-linejoin:miter;stroke-width:0.8;"/>
     </g>
     <g id="line2d_18">
      <defs>
       <path d="M 0 0 
L -3.5 0 
" id="m0a58c54510" style="stroke:#000000;stroke-width:0.8;"/>
      </defs>
      <g>
       <use style="stroke:#000000;stroke-width:0.8;" x="82.401787" xlink:href="#m0a58c54510" y="340.951158"/>
      </g>
     </g>
     <g id="text_8">
      <!-- $\mathdefault{0.095}$ -->
      <g transform="translate(37.627152 347.604142)scale(0.18 -0.18)">
       <defs>
        <path d="M 1178 307 
C 1178 492 1024 619 870 619 
C 685 619 557 466 557 313 
C 557 128 710 0 864 0 
C 1050 0 1178 153 1178 307 
z
" id="CMMI12-3a" transform="scale(0.015625)"/>
        <path d="M 2253 1864 
C 2253 464 1670 31 1190 31 
C 1043 31 685 31 538 294 
C 704 268 826 357 826 518 
C 826 692 685 749 595 749 
C 538 749 365 723 365 506 
C 365 71 742 -128 1203 -128 
C 1939 -128 2688 674 2688 2073 
C 2688 3817 1971 4179 1485 4179 
C 851 4179 243 3628 243 2778 
C 243 1991 762 1408 1414 1408 
C 1952 1408 2189 1903 2253 2112 
L 2253 1864 
z
M 1427 1510 
C 1254 1510 1011 1542 813 1922 
C 678 2169 678 2461 678 2771 
C 678 3146 678 3405 858 3684 
C 947 3817 1114 4032 1485 4032 
C 2240 4032 2240 2885 2240 2632 
C 2240 2182 2035 1510 1427 1510 
z
" id="CMR17-39" transform="scale(0.015625)"/>
        <path d="M 730 3692 
C 794 3666 1056 3584 1325 3584 
C 1920 3584 2246 3911 2432 4100 
C 2432 4157 2432 4192 2394 4192 
C 2387 4192 2374 4192 2323 4163 
C 2099 4058 1837 3973 1517 3973 
C 1325 3973 1037 3999 723 4139 
C 653 4171 640 4171 634 4171 
C 602 4171 595 4164 595 4037 
L 595 2203 
C 595 2089 595 2057 659 2057 
C 691 2057 704 2070 736 2114 
C 941 2401 1222 2522 1542 2522 
C 1766 2522 2246 2382 2246 1289 
C 2246 1085 2246 715 2054 421 
C 1894 159 1645 25 1370 25 
C 947 25 518 320 403 814 
C 429 807 480 795 506 795 
C 589 795 749 840 749 1038 
C 749 1210 627 1280 506 1280 
C 358 1280 262 1190 262 1011 
C 262 454 704 -128 1382 -128 
C 2042 -128 2669 440 2669 1264 
C 2669 2030 2170 2624 1549 2624 
C 1222 2624 947 2503 730 2274 
L 730 3692 
z
" id="CMR17-35" transform="scale(0.015625)"/>
       </defs>
       <use transform="scale(0.996264)" xlink:href="#CMR17-30"/>
       <use transform="translate(45.690477 0)scale(0.996264)" xlink:href="#CMMI12-3a"/>
       <use transform="translate(72.787654 0)scale(0.996264)" xlink:href="#CMR17-30"/>
       <use transform="translate(118.478131 0)scale(0.996264)" xlink:href="#CMR17-39"/>
       <use transform="translate(164.168608 0)scale(0.996264)" xlink:href="#CMR17-35"/>
      </g>
     </g>
    </g>
    <g id="ytick_2">
     <g id="line2d_19">
      <path clip-path="url(#p70ddd28ed2)" d="M 82.401787 294.222847 
L 645.2 294.222847 
" style="fill:none;stroke:#bfbfbf;stroke-dasharray:0.8,2.4;stroke-dashoffset:0;stroke-linecap:round;stroke-linejoin:miter;stroke-width:0.8;"/>
     </g>
     <g id="line2d_20">
      <g>
       <use style="stroke:#000000;stroke-width:0.8;" x="82.401787" xlink:href="#m0a58c54510" y="294.222847"/>
      </g>
     </g>
     <g id="text_9">
      <!-- $\mathdefault{0.100}$ -->
      <g transform="translate(37.627152 300.875831)scale(0.18 -0.18)">
       <use transform="scale(0.996264)" xlink:href="#CMR17-30"/>
       <use transform="translate(45.690477 0)scale(0.996264)" xlink:href="#CMMI12-3a"/>
       <use transform="translate(72.787654 0)scale(0.996264)" xlink:href="#CMR17-31"/>
       <use transform="translate(118.478131 0)scale(0.996264)" xlink:href="#CMR17-30"/>
       <use transform="translate(164.168608 0)scale(0.996264)" xlink:href="#CMR17-30"/>
      </g>
     </g>
    </g>
    <g id="ytick_3">
     <g id="line2d_21">
      <path clip-path="url(#p70ddd28ed2)" d="M 82.401787 247.494537 
L 645.2 247.494537 
" style="fill:none;stroke:#bfbfbf;stroke-dasharray:0.8,2.4;stroke-dashoffset:0;stroke-linecap:round;stroke-linejoin:miter;stroke-width:0.8;"/>
     </g>
     <g id="line2d_22">
      <g>
       <use style="stroke:#000000;stroke-width:0.8;" x="82.401787" xlink:href="#m0a58c54510" y="247.494537"/>
      </g>
     </g>
     <g id="text_10">
      <!-- $\mathdefault{0.105}$ -->
      <g transform="translate(37.627152 254.147521)scale(0.18 -0.18)">
       <use transform="scale(0.996264)" xlink:href="#CMR17-30"/>
       <use transform="translate(45.690477 0)scale(0.996264)" xlink:href="#CMMI12-3a"/>
       <use transform="translate(72.787654 0)scale(0.996264)" xlink:href="#CMR17-31"/>
       <use transform="translate(118.478131 0)scale(0.996264)" xlink:href="#CMR17-30"/>
       <use transform="translate(164.168608 0)scale(0.996264)" xlink:href="#CMR17-35"/>
      </g>
     </g>
    </g>
    <g id="ytick_4">
     <g id="line2d_23">
      <path clip-path="url(#p70ddd28ed2)" d="M 82.401787 200.766226 
L 645.2 200.766226 
" style="fill:none;stroke:#bfbfbf;stroke-dasharray:0.8,2.4;stroke-dashoffset:0;stroke-linecap:round;stroke-linejoin:miter;stroke-width:0.8;"/>
     </g>
     <g id="line2d_24">
      <g>
       <use style="stroke:#000000;stroke-width:0.8;" x="82.401787" xlink:href="#m0a58c54510" y="200.766226"/>
      </g>
     </g>
     <g id="text_11">
      <!-- $\mathdefault{0.110}$ -->
      <g transform="translate(37.627152 207.41921)scale(0.18 -0.18)">
       <use transform="scale(0.996264)" xlink:href="#CMR17-30"/>
       <use transform="translate(45.690477 0)scale(0.996264)" xlink:href="#CMMI12-3a"/>
       <use transform="translate(72.787654 0)scale(0.996264)" xlink:href="#CMR17-31"/>
       <use transform="translate(118.478131 0)scale(0.996264)" xlink:href="#CMR17-31"/>
       <use transform="translate(164.168608 0)scale(0.996264)" xlink:href="#CMR17-30"/>
      </g>
     </g>
    </g>
    <g id="ytick_5">
     <g id="line2d_25">
      <path clip-path="url(#p70ddd28ed2)" d="M 82.401787 154.037916 
L 645.2 154.037916 
" style="fill:none;stroke:#bfbfbf;stroke-dasharray:0.8,2.4;stroke-dashoffset:0;stroke-linecap:round;stroke-linejoin:miter;stroke-width:0.8;"/>
     </g>
     <g id="line2d_26">
      <g>
       <use style="stroke:#000000;stroke-width:0.8;" x="82.401787" xlink:href="#m0a58c54510" y="154.037916"/>
      </g>
     </g>
     <g id="text_12">
      <!-- $\mathdefault{0.115}$ -->
      <g transform="translate(37.627152 160.6909)scale(0.18 -0.18)">
       <use transform="scale(0.996264)" xlink:href="#CMR17-30"/>
       <use transform="translate(45.690477 0)scale(0.996264)" xlink:href="#CMMI12-3a"/>
       <use transform="translate(72.787654 0)scale(0.996264)" xlink:href="#CMR17-31"/>
       <use transform="translate(118.478131 0)scale(0.996264)" xlink:href="#CMR17-31"/>
       <use transform="translate(164.168608 0)scale(0.996264)" xlink:href="#CMR17-35"/>
      </g>
     </g>
    </g>
    <g id="ytick_6">
     <g id="line2d_27">
      <path clip-path="url(#p70ddd28ed2)" d="M 82.401787 107.309605 
L 645.2 107.309605 
" style="fill:none;stroke:#bfbfbf;stroke-dasharray:0.8,2.4;stroke-dashoffset:0;stroke-linecap:round;stroke-linejoin:miter;stroke-width:0.8;"/>
     </g>
     <g id="line2d_28">
      <g>
       <use style="stroke:#000000;stroke-width:0.8;" x="82.401787" xlink:href="#m0a58c54510" y="107.309605"/>
      </g>
     </g>
     <g id="text_13">
      <!-- $\mathdefault{0.120}$ -->
      <g transform="translate(37.627152 113.962589)scale(0.18 -0.18)">
       <use transform="scale(0.996264)" xlink:href="#CMR17-30"/>
       <use transform="translate(45.690477 0)scale(0.996264)" xlink:href="#CMMI12-3a"/>
       <use transform="translate(72.787654 0)scale(0.996264)" xlink:href="#CMR17-31"/>
       <use transform="translate(118.478131 0)scale(0.996264)" xlink:href="#CMR17-32"/>
       <use transform="translate(164.168608 0)scale(0.996264)" xlink:href="#CMR17-30"/>
      </g>
     </g>
    </g>
    <g id="ytick_7">
     <g id="line2d_29">
      <path clip-path="url(#p70ddd28ed2)" d="M 82.401787 60.581295 
L 645.2 60.581295 
" style="fill:none;stroke:#bfbfbf;stroke-dasharray:0.8,2.4;stroke-dashoffset:0;stroke-linecap:round;stroke-linejoin:miter;stroke-width:0.8;"/>
     </g>
     <g id="line2d_30">
      <g>
       <use style="stroke:#000000;stroke-width:0.8;" x="82.401787" xlink:href="#m0a58c54510" y="60.581295"/>
      </g>
     </g>
     <g id="text_14">
      <!-- $\mathdefault{0.125}$ -->
      <g transform="translate(37.627152 67.234279)scale(0.18 -0.18)">
       <use transform="scale(0.996264)" xlink:href="#CMR17-30"/>
       <use transform="translate(45.690477 0)scale(0.996264)" xlink:href="#CMMI12-3a"/>
       <use transform="translate(72.787654 0)scale(0.996264)" xlink:href="#CMR17-31"/>
       <use transform="translate(118.478131 0)scale(0.996264)" xlink:href="#CMR17-32"/>
       <use transform="translate(164.168608 0)scale(0.996264)" xlink:href="#CMR17-35"/>
      </g>
     </g>
    </g>
    <g id="ytick_8">
     <g id="line2d_31">
      <path clip-path="url(#p70ddd28ed2)" d="M 82.401787 13.852984 
L 645.2 13.852984 
" style="fill:none;stroke:#bfbfbf;stroke-dasharray:0.8,2.4;stroke-dashoffset:0;stroke-linecap:round;stroke-linejoin:miter;stroke-width:0.8;"/>
     </g>
     <g id="line2d_32">
      <g>
       <use style="stroke:#000000;stroke-width:0.8;" x="82.401787" xlink:href="#m0a58c54510" y="13.852984"/>
      </g>
     </g>
     <g id="text_15">
      <!-- $\mathdefault{0.130}$ -->
      <g transform="translate(37.627152 20.505968)scale(0.18 -0.18)">
       <defs>
        <path d="M 1414 2157 
C 1984 2157 2234 1662 2234 1090 
C 2234 320 1824 25 1453 25 
C 1114 25 563 194 390 693 
C 422 680 454 680 486 680 
C 640 680 755 782 755 948 
C 755 1133 614 1216 486 1216 
C 378 1216 211 1165 211 926 
C 211 335 787 -128 1466 -128 
C 2176 -128 2720 430 2720 1085 
C 2720 1707 2208 2157 1600 2227 
C 2086 2328 2554 2756 2554 3329 
C 2554 3820 2048 4179 1472 4179 
C 890 4179 378 3829 378 3329 
C 378 3110 544 3072 627 3072 
C 762 3072 877 3155 877 3321 
C 877 3486 762 3569 627 3569 
C 602 3569 570 3569 544 3557 
C 730 3959 1235 4032 1459 4032 
C 1683 4032 2106 3925 2106 3320 
C 2106 3143 2080 2828 1862 2550 
C 1670 2304 1453 2304 1242 2284 
C 1210 2284 1062 2269 1037 2269 
C 992 2263 966 2257 966 2208 
C 966 2163 973 2157 1101 2157 
L 1414 2157 
z
" id="CMR17-33" transform="scale(0.015625)"/>
       </defs>
       <use transform="scale(0.996264)" xlink:href="#CMR17-30"/>
       <use transform="translate(45.690477 0)scale(0.996264)" xlink:href="#CMMI12-3a"/>
       <use transform="translate(72.787654 0)scale(0.996264)" xlink:href="#CMR17-31"/>
       <use transform="translate(118.478131 0)scale(0.996264)" xlink:href="#CMR17-33"/>
       <use transform="translate(164.168608 0)scale(0.996264)" xlink:href="#CMR17-30"/>
      </g>
     </g>
    </g>
    <g id="text_16">
     <!-- Reward -->
     <g transform="translate(23.462852 235.925992)rotate(-90)scale(0.22 -0.22)">
      <defs>
       <path d="M 1574 2240 
L 1946 2240 
C 2195 2240 2451 2163 2592 2047 
C 2778 1900 2874 1669 2918 1246 
L 2950 918 
C 3027 193 3264 -102 3770 -102 
C 4294 -102 4544 251 4563 1019 
L 4294 1019 
C 4269 576 4192 384 4019 384 
C 3872 384 3808 493 3699 936 
L 3597 1340 
C 3456 1931 3206 2200 2707 2329 
C 3629 2457 4070 2825 4070 3468 
C 4070 4194 3456 4608 2381 4608 
L 166 4608 
L 166 4308 
L 282 4308 
C 800 4308 858 4276 858 4007 
L 858 3823 
L 858 779 
L 858 600 
C 858 332 800 300 282 300 
L 166 300 
L 166 0 
L 2266 0 
L 2266 300 
L 2150 300 
C 1632 300 1574 332 1574 601 
L 1574 780 
L 1574 2240 
z
M 1574 2540 
L 1574 3944 
C 1574 4200 1581 4219 1645 4270 
C 1696 4308 1741 4308 2016 4308 
L 2362 4308 
C 2995 4308 3283 4040 3283 3462 
C 3283 3137 3200 2889 3034 2756 
C 2874 2623 2586 2540 2278 2540 
L 1574 2540 
z
" id="CenturySchL-Roma-52" transform="scale(0.015625)"/>
       <path d="M 3501 829 
L 2874 2471 
C 2854 2515 2848 2547 2848 2605 
C 2848 2720 2906 2752 3117 2752 
L 3270 2752 
L 3270 2982 
L 1837 2982 
L 1837 2752 
L 1946 2752 
C 2144 2752 2221 2701 2278 2515 
L 2336 2349 
L 1773 858 
L 1152 2464 
C 1139 2509 1126 2566 1126 2605 
C 1126 2713 1197 2752 1389 2752 
L 1504 2752 
L 1504 2982 
L 96 2982 
L 96 2752 
L 211 2752 
C 390 2752 454 2694 544 2438 
L 1504 -96 
L 1728 -96 
L 2490 1926 
L 3270 -96 
L 3469 -96 
L 4365 2265 
C 4506 2643 4614 2752 4838 2752 
L 4883 2752 
L 4883 2982 
L 3674 2982 
L 3674 2752 
L 3782 2752 
C 4006 2752 4096 2681 4096 2522 
C 4096 2458 4077 2362 4045 2285 
L 3501 829 
z
" id="CenturySchL-Roma-77" transform="scale(0.015625)"/>
       <path d="M 2893 2085 
C 2893 2483 2822 2686 2637 2838 
C 2426 3002 2112 3090 1702 3090 
C 986 3090 454 2755 454 2299 
C 454 2058 602 1906 826 1906 
C 1024 1906 1171 2039 1171 2228 
C 1171 2311 1139 2399 1075 2488 
C 1037 2531 1030 2550 1030 2570 
C 1030 2702 1293 2816 1600 2816 
C 1798 2816 2022 2753 2125 2658 
C 2246 2557 2291 2405 2291 2120 
L 2291 1874 
C 1619 1759 1414 1708 1101 1588 
C 550 1383 282 1084 282 682 
C 282 229 646 -64 1210 -64 
C 1651 -64 2048 119 2323 452 
C 2426 127 2586 0 2886 0 
C 3174 0 3475 185 3475 370 
C 3475 414 3443 446 3411 446 
C 3386 446 3360 440 3315 421 
C 3213 384 3187 377 3136 377 
C 2957 377 2893 498 2893 814 
L 2893 2085 
z
M 2291 1310 
C 2291 926 2272 837 2163 671 
C 2003 434 1709 275 1434 275 
C 1146 275 928 486 928 773 
C 928 1041 1062 1233 1344 1367 
C 1542 1456 1792 1520 2291 1603 
L 2291 1310 
z
" id="CenturySchL-Roma-61" transform="scale(0.015625)"/>
       <path d="M 1267 2944 
L 134 2944 
L 134 2638 
L 397 2638 
C 634 2638 672 2593 672 2317 
L 672 787 
L 672 531 
C 672 275 602 230 186 230 
L 160 230 
L 160 0 
L 1869 0 
L 1869 230 
L 1747 230 
C 1338 230 1267 275 1267 531 
L 1267 787 
L 1267 851 
C 1267 1332 1357 1818 1517 2183 
C 1670 2541 1888 2740 2157 2772 
C 2067 2669 2042 2604 2042 2481 
C 2042 2275 2189 2127 2394 2127 
C 2624 2127 2784 2300 2784 2561 
C 2784 2868 2566 3072 2227 3072 
C 1824 3072 1472 2747 1267 2185 
L 1267 2944 
z
" id="CenturySchL-Roma-72" transform="scale(0.015625)"/>
       <path d="M 2432 0 
L 3546 0 
L 3546 301 
L 3430 301 
C 3085 301 3034 365 3034 766 
L 3034 4722 
L 1779 4722 
L 1779 4416 
L 2157 4416 
C 2387 4416 2432 4370 2432 4091 
L 2432 2624 
C 2195 2950 1920 3097 1549 3097 
C 826 3097 275 2403 275 1485 
C 275 580 806 -64 1549 -64 
C 1952 -64 2227 107 2432 486 
L 2432 0 
z
M 1677 2752 
C 1939 2752 2189 2562 2304 2268 
C 2381 2077 2426 1810 2426 1505 
C 2426 766 2131 281 1670 281 
C 1222 281 947 702 947 1409 
C 947 1785 986 2071 1069 2287 
C 1178 2568 1414 2752 1677 2752 
z
" id="CenturySchL-Roma-64" transform="scale(0.015625)"/>
      </defs>
      <use transform="scale(0.996264)" xlink:href="#CenturySchL-Roma-52"/>
      <use transform="translate(71.929985 0)scale(0.996264)" xlink:href="#CenturySchL-Roma-65"/>
      <use transform="translate(121.743185 0)scale(0.996264)" xlink:href="#CenturySchL-Roma-77"/>
      <use transform="translate(197.458976 0)scale(0.996264)" xlink:href="#CenturySchL-Roma-61"/>
      <use transform="translate(252.850653 0)scale(0.996264)" xlink:href="#CenturySchL-Roma-72"/>
      <use transform="translate(297.084222 0)scale(0.996264)" xlink:href="#CenturySchL-Roma-64"/>
     </g>
    </g>
   </g>
   <g id="legend_1">
    <g id="patch_5">
     <path d="M 466.015438 123.905498 
L 639.8 123.905498 
Q 643.4 123.905498 643.4 120.305498 
L 643.4 19.252984 
Q 643.4 15.652984 639.8 15.652984 
L 466.015438 15.652984 
Q 462.415438 15.652984 462.415438 19.252984 
L 462.415438 120.305498 
Q 462.415438 123.905498 466.015438 123.905498 
z
" style="fill:#ffffff;stroke:#cccccc;stroke-linejoin:miter;"/>
    </g>
    <g id="line2d_33">
     <path d="M 469.615438 29.858952 
L 505.615438 29.858952 
" style="fill:none;stroke:#e41a1c;stroke-linecap:square;stroke-width:2;"/>
    </g>
    <g id="line2d_34"/>
    <g id="text_17">
     <!-- N Steps = 6 -->
     <g transform="translate(520.015438 36.158952)scale(0.18 -0.18)">
      <defs>
       <path d="M 1440 4608 
L 122 4608 
L 122 4308 
L 282 4308 
C 608 4308 755 4256 870 4097 
L 870 1376 
C 870 498 742 313 128 313 
L 128 0 
L 1952 0 
L 1952 313 
C 1344 313 1216 499 1216 1376 
L 1216 3753 
L 4070 -108 
L 4339 -108 
L 4339 3238 
C 4339 4121 4467 4308 5082 4308 
L 5082 4608 
L 3258 4608 
L 3258 4308 
C 3866 4308 3994 4122 3994 3240 
L 3994 1219 
L 1440 4608 
z
" id="CenturySchL-Roma-4e" transform="scale(0.015625)"/>
       <path d="M 2496 3072 
L 2272 3072 
L 2086 2842 
C 1856 3021 1626 3097 1306 3097 
C 742 3097 371 2728 371 2173 
C 371 1925 454 1714 595 1588 
C 742 1453 890 1390 1274 1300 
L 1613 1224 
C 2118 1103 2298 975 2298 721 
C 2298 421 2035 211 1658 211 
C 1120 211 736 561 582 1208 
L 326 1208 
L 326 0 
L 550 0 
L 774 250 
C 1037 38 1331 -64 1651 -64 
C 2278 -64 2694 325 2694 918 
C 2694 1198 2605 1414 2426 1561 
C 2272 1695 2144 1746 1754 1828 
L 1434 1899 
C 1082 1975 1082 1975 966 2039 
C 826 2103 742 2236 742 2377 
C 742 2631 986 2816 1338 2816 
C 1581 2816 1779 2733 1958 2561 
C 2099 2420 2170 2293 2272 1999 
L 2496 1999 
L 2496 3072 
z
" id="CenturySchL-Roma-73" transform="scale(0.015625)"/>
       <path d="M 326 704 
L 3552 704 
L 3552 1215 
L 326 1215 
L 326 704 
z
M 326 1985 
L 3552 1985 
L 3552 2496 
L 326 2496 
L 326 1985 
z
" id="CenturySchL-Roma-3d" transform="scale(0.015625)"/>
       <path d="M 979 2183 
C 1043 2986 1075 3203 1216 3537 
C 1402 4001 1741 4269 2144 4269 
C 2368 4269 2502 4197 2502 4079 
C 2502 4052 2496 4033 2470 3987 
C 2406 3863 2374 3772 2374 3680 
C 2374 3458 2541 3294 2765 3294 
C 3008 3294 3187 3490 3187 3763 
C 3187 4212 2739 4544 2138 4544 
C 1613 4544 1120 4294 813 3865 
C 467 3371 269 2705 269 2006 
C 269 757 883 -64 1830 -64 
C 2246 -64 2592 76 2861 355 
C 3136 634 3302 1052 3302 1452 
C 3302 2200 2758 2758 2035 2758 
C 1600 2758 1280 2585 979 2183 
z
M 1862 2368 
C 2323 2368 2605 2008 2605 1406 
C 2605 679 2310 211 1843 211 
C 1555 211 1331 369 1178 673 
C 1075 869 1024 1084 1024 1318 
C 1024 1970 1344 2368 1862 2368 
z
" id="CenturySchL-Roma-36" transform="scale(0.015625)"/>
      </defs>
      <use transform="scale(0.996264)" xlink:href="#CenturySchL-Roma-4e"/>
      <use transform="translate(108.889683 0)scale(0.996264)" xlink:href="#CenturySchL-Roma-53"/>
      <use transform="translate(171.653662 0)scale(0.996264)" xlink:href="#CenturySchL-Roma-74"/>
      <use transform="translate(210.407368 0)scale(0.996264)" xlink:href="#CenturySchL-Roma-65"/>
      <use transform="translate(260.220569 0)scale(0.996264)" xlink:href="#CenturySchL-Roma-70"/>
      <use transform="translate(317.406056 0)scale(0.996264)" xlink:href="#CenturySchL-Roma-73"/>
      <use transform="translate(391.227036 0)scale(0.996264)" xlink:href="#CenturySchL-Roma-3d"/>
      <use transform="translate(479.295218 0)scale(0.996264)" xlink:href="#CenturySchL-Roma-36"/>
     </g>
    </g>
    <g id="line2d_35">
     <path d="M 469.615438 55.572081 
L 505.615438 55.572081 
" style="fill:none;stroke:#377eb8;stroke-dasharray:12,12;stroke-dashoffset:0;stroke-linecap:round;stroke-linejoin:miter;stroke-width:2;"/>
    </g>
    <g id="line2d_36"/>
    <g id="text_18">
     <!-- N Steps = 10 -->
     <g transform="translate(520.015438 61.872081)scale(0.18 -0.18)">
      <defs>
       <path d="M 2061 4512 
C 1843 4239 1254 4032 666 4032 
L 666 3750 
L 1229 3750 
C 1600 3750 1626 3725 1626 3348 
L 1626 786 
L 1626 600 
C 1626 332 1568 300 1056 300 
L 640 300 
L 640 0 
L 3174 0 
L 3174 300 
L 2822 300 
C 2483 300 2342 326 2291 390 
C 2246 434 2246 434 2246 788 
L 2246 3435 
C 2246 3749 2259 4056 2291 4512 
L 2061 4512 
z
" id="CenturySchL-Roma-31" transform="scale(0.015625)"/>
       <path d="M 1818 4544 
C 922 4544 269 3564 269 2224 
C 269 904 902 -64 1766 -64 
C 2662 -64 3290 872 3290 2204 
C 3290 2884 3149 3448 2880 3890 
C 2630 4294 2221 4544 1818 4544 
z
M 1773 4269 
C 1984 4269 2189 4128 2342 3872 
C 2515 3576 2573 3198 2573 2320 
C 2573 1422 2528 1000 2400 717 
C 2253 403 2022 211 1779 211 
C 1568 211 1363 352 1210 608 
C 1030 910 979 1314 979 2359 
C 979 3103 1024 3480 1152 3756 
C 1299 4083 1530 4269 1773 4269 
z
" id="CenturySchL-Roma-30" transform="scale(0.015625)"/>
      </defs>
      <use transform="scale(0.996264)" xlink:href="#CenturySchL-Roma-4e"/>
      <use transform="translate(108.889683 0)scale(0.996264)" xlink:href="#CenturySchL-Roma-53"/>
      <use transform="translate(171.653662 0)scale(0.996264)" xlink:href="#CenturySchL-Roma-74"/>
      <use transform="translate(210.407368 0)scale(0.996264)" xlink:href="#CenturySchL-Roma-65"/>
      <use transform="translate(260.220569 0)scale(0.996264)" xlink:href="#CenturySchL-Roma-70"/>
      <use transform="translate(317.406056 0)scale(0.996264)" xlink:href="#CenturySchL-Roma-73"/>
      <use transform="translate(391.227036 0)scale(0.996264)" xlink:href="#CenturySchL-Roma-3d"/>
      <use transform="translate(479.295218 0)scale(0.996264)" xlink:href="#CenturySchL-Roma-31"/>
      <use transform="translate(534.686895 0)scale(0.996264)" xlink:href="#CenturySchL-Roma-30"/>
     </g>
    </g>
    <g id="line2d_37">
     <path d="M 469.615438 81.285209 
L 505.615438 81.285209 
" style="fill:none;stroke:#4daf4a;stroke-dasharray:6,10,2,10;stroke-dashoffset:0;stroke-linecap:round;stroke-linejoin:miter;stroke-width:2;"/>
    </g>
    <g id="line2d_38"/>
    <g id="text_19">
     <!-- N Steps = 50 -->
     <g transform="translate(520.015438 87.585209)scale(0.18 -0.18)">
      <defs>
       <path d="M 1050 3821 
C 1395 3738 1574 3712 1824 3712 
C 2368 3712 2765 3904 2976 4255 
C 3046 4377 3072 4434 3072 4485 
C 3072 4524 3053 4543 3021 4543 
C 3002 4543 2970 4536 2938 4517 
C 2624 4383 2451 4351 2086 4351 
C 1677 4351 1440 4383 768 4543 
C 742 4008 685 3327 595 2538 
C 461 2398 416 2315 416 2213 
C 416 2086 499 1997 621 1997 
C 781 1997 883 2133 909 2391 
C 1133 2553 1344 2624 1600 2624 
C 2170 2624 2515 2178 2515 1440 
C 2515 1007 2406 637 2214 437 
C 2086 301 1824 211 1562 211 
C 1178 211 781 411 781 612 
C 781 658 819 709 896 754 
C 1094 877 1152 962 1152 1136 
C 1152 1363 979 1537 749 1537 
C 493 1537 288 1298 288 995 
C 288 672 474 349 762 149 
C 979 7 1242 -64 1574 -64 
C 2579 -64 3213 530 3213 1479 
C 3213 2357 2630 2944 1766 2944 
C 1498 2944 1293 2899 941 2752 
L 1050 3821 
z
" id="CenturySchL-Roma-35" transform="scale(0.015625)"/>
      </defs>
      <use transform="scale(0.996264)" xlink:href="#CenturySchL-Roma-4e"/>
      <use transform="translate(108.889683 0)scale(0.996264)" xlink:href="#CenturySchL-Roma-53"/>
      <use transform="translate(171.653662 0)scale(0.996264)" xlink:href="#CenturySchL-Roma-74"/>
      <use transform="translate(210.407368 0)scale(0.996264)" xlink:href="#CenturySchL-Roma-65"/>
      <use transform="translate(260.220569 0)scale(0.996264)" xlink:href="#CenturySchL-Roma-70"/>
      <use transform="translate(317.406056 0)scale(0.996264)" xlink:href="#CenturySchL-Roma-73"/>
      <use transform="translate(391.227036 0)scale(0.996264)" xlink:href="#CenturySchL-Roma-3d"/>
      <use transform="translate(479.295218 0)scale(0.996264)" xlink:href="#CenturySchL-Roma-35"/>
      <use transform="translate(534.686895 0)scale(0.996264)" xlink:href="#CenturySchL-Roma-30"/>
     </g>
    </g>
    <g id="line2d_39">
     <path d="M 469.615438 106.998337 
L 505.615438 106.998337 
" style="fill:none;stroke:#984ea3;stroke-dasharray:2,6;stroke-dashoffset:0;stroke-linecap:round;stroke-linejoin:miter;stroke-width:2;"/>
    </g>
    <g id="line2d_40"/>
    <g id="text_20">
     <!-- N Steps = 100 -->
     <g transform="translate(520.015438 113.298337)scale(0.18 -0.18)">
      <use transform="scale(0.996264)" xlink:href="#CenturySchL-Roma-4e"/>
      <use transform="translate(108.889683 0)scale(0.996264)" xlink:href="#CenturySchL-Roma-53"/>
      <use transform="translate(171.653662 0)scale(0.996264)" xlink:href="#CenturySchL-Roma-74"/>
      <use transform="translate(210.407368 0)scale(0.996264)" xlink:href="#CenturySchL-Roma-65"/>
      <use transform="translate(260.220569 0)scale(0.996264)" xlink:href="#CenturySchL-Roma-70"/>
      <use transform="translate(317.406056 0)scale(0.996264)" xlink:href="#CenturySchL-Roma-73"/>
      <use transform="translate(391.227036 0)scale(0.996264)" xlink:href="#CenturySchL-Roma-3d"/>
      <use transform="translate(479.295218 0)scale(0.996264)" xlink:href="#CenturySchL-Roma-31"/>
      <use transform="translate(534.686895 0)scale(0.996264)" xlink:href="#CenturySchL-Roma-30"/>
      <use transform="translate(590.078572 0)scale(0.996264)" xlink:href="#CenturySchL-Roma-30"/>
     </g>
    </g>
   </g>
  </g>
 </g>
 <defs>
  <clipPath id="p70ddd28ed2">
   <rect height="366.206736" width="562.798213" x="82.401787" y="13.852984"/>
  </clipPath>
 </defs>
</svg>
